<svg fill="none" height="24" viewBox="0 0 24 24" width="24" xmlns="http://www.w3.org/2000/svg"><g stroke="#fff" stroke-linecap="round" stroke-linejoin="round" stroke-width="2"><path d="m21 3-2.6 2.6" stroke-miterlimit="10"/><path d="m11.2 12.8c1 1 2.7 1 3.7 0s1-2.7 0-3.70002c-1-1-2.7-1-3.7 0-1.1 1.10002-1.1 2.70002 0 3.70002z"/><path d="m5.59998 18.4c1.5 1.5 4 1.5 5.50002 0 1.5-1.5 1.5-4 0-5.5-1.50002-1.5-4.00002-1.5-5.50002 0s-1.5 3.9 0 5.5z"/><path d="m5.63231 18.3677c3.50975 3.5097 9.22559 3.5097 12.73539 0 3.5097-3.5098 3.5097-9.22564 0-12.73539-3.5098-3.50975-9.22564-3.50975-12.73539 0s-3.50975 9.22559 0 12.73539z" stroke-miterlimit="10"/></g></svg>