<svg fill="none" height="24" viewBox="0 0 24 24" width="24" xmlns="http://www.w3.org/2000/svg"><g stroke="#fff" stroke-linecap="round" stroke-linejoin="round" stroke-miterlimit="10" stroke-width="2"><path d="m21 3-2.6 2.6"/><path d="m12 21c4.9706 0 9-4.0294 9-9 0-4.97056-4.0294-9-9-9-4.97056 0-9 4.02944-9 9 0 4.9706 4.02944 9 9 9z"/><path d="m5.59998 18.4.1-.1 2.9-2.9 2.90002-2.9 2.9-2.89999"/><path d="m13.1 16.6-4.49998-1.2-1.2-4.5"/><path d="m15.2 13.5-3.7-1-1-3.70001"/><path d="m17.4 10.3-3-.69999-.7-3"/></g></svg>