<svg fill="none" height="24" viewBox="0 0 24 24" width="24" xmlns="http://www.w3.org/2000/svg"><g stroke="#fff" stroke-linecap="round" stroke-linejoin="round" stroke-miterlimit="10" stroke-width="2"><path d="m21 3-2.6 2.6"/><path d="m9.29995 9.29999c-1.5 1.50001-1.5 3.90001 0 5.50001 1.50005 1.5 3.90005 1.5 5.50005 0l-.4.2.3-.3.3-.3c2.3-2.5 2.2-6.40001-.3-8.80001-2.4-2.4-6.10005-2.5-8.60005-.4-.1.1-.3.3-.5.4-.1.2-.3.4-.4.5"/><path d="m5.63231 18.3677c3.50975 3.5097 9.22559 3.5097 12.73539 0 3.5097-3.5098 3.5097-9.22564 0-12.73539-3.5098-3.50975-9.22564-3.50975-12.73539 0s-3.50975 9.22559 0 12.73539z"/></g></svg>