<svg fill="none" height="24" viewBox="0 0 24 24" width="24" xmlns="http://www.w3.org/2000/svg"><g stroke="#fff" stroke-linecap="round" stroke-linejoin="round" stroke-miterlimit="10" stroke-width="2"><path d="m21 2.99998-2.6 2.6"/><path d="m14.7 14.7c-1.5 1.5-3.9 1.5-5.49999 0-1.5-1.5-1.5-3.9 0-5.50001l-.2.4c.1-.1.2-.2.3-.3s.2-.2.3-.3c2.49999-2.3 6.39999-2.2 8.79999.3 2.4 2.40001 2.5 6.10001.4 8.60001-.1.1-.3.3-.4.5-.2.1-.4.3-.5.4"/><path d="m5.63231 18.3677c3.50975 3.5097 9.22559 3.5097 12.73539 0 3.5097-3.5098 3.5097-9.22564 0-12.73539-3.5098-3.50975-9.22564-3.50975-12.73539 0s-3.50975 9.22559 0 12.73539z"/></g></svg>