<svg fill="none" height="24" viewBox="0 0 24 24" width="24" xmlns="http://www.w3.org/2000/svg"><g stroke="#fff" stroke-linecap="round" stroke-linejoin="round" stroke-miterlimit="10" stroke-width="2"><path d="m17 16c0 2.8-2.2 5-5 5s-5-2.2-5-5c0-.4 0-.8.2-1.2.2-1.2.9-2.1 1.8-2.8.8-.6 1.9-1 3-1s2.2.4 3 1c.9.7 1.6 1.6 1.8 2.8.2.4.2.8.2 1.2z"/><path d="m9 12c-.9.7-1.6 1.6-1.8 2.8-.4.1-.8.2-1.2.2-1.6 0-3-1.3-3-3s1.4-3 3-3c1.7 0 3 1.3 3 3z"/><path d="m21 12c0 1.7-1.3 3-3 3-.4 0-.8-.1-1.2-.2-.3-1.1-.9-2.1-1.8-2.8 0-1.7 1.3-3 3-3s3 1.3 3 3z"/><path d="m12 11v-8"/><path d="m6 9v-6"/><path d="m18 9v-6"/></g></svg>