<svg fill="none" height="24" viewBox="0 0 24 24" width="24" xmlns="http://www.w3.org/2000/svg"><g stroke="#fff" stroke-linecap="round" stroke-linejoin="round" stroke-miterlimit="10" stroke-width="2"><path d="m21.1 3.09998-2.7 2.6"/><path d="m5.63231 18.3677c3.50975 3.5097 9.22559 3.5097 12.73539 0 3.5097-3.5098 3.5097-9.22564 0-12.73539-3.5098-3.50975-9.22564-3.50975-12.73539 0s-3.50975 9.22559 0 12.73539z"/><path d="m5.68508 5.68508.69614.69614m11.23758 11.23758.6961.6961m-12.62982 0 .69614-.6961m11.23758-11.23758.6961-.69614m2.6851 6.36462h-3.3812m-5.5691-5.66848v-3.38122m-5.66848 9.0497h-3.38122m9.0497 8.9503v-3.3812m3.4807-2.0884c-1.989-1.989-5.0718-1.989-7.06079 0 1.98899-1.989 1.98899-5.0718 0-7.06079 1.98899 1.98899 5.07179 1.98899 7.06079 0-1.989 1.98899-1.989 5.07179 0 7.06079z"/></g></svg>