<svg fill="none" height="24" viewBox="0 0 24 24" width="24" xmlns="http://www.w3.org/2000/svg"><path d="m7.72 4.77 2.77 2.84m-.49 1.95-3.79 1m7.2-7.35-1 3.88m-.5 4.8-2.8 2.82m6.28.74-2.8 2.83m-4.87-4.98 6.93 7.11c.1784.1879.3932.3375.6314.4398.2381.1022.4945.155.7536.155s.5155-.0528.7537-.155c.2381-.1023.4529-.2519.6313-.4398.3667-.3818.5715-.8906.5715-1.42s-.2048-1.0382-.5715-1.42l-6.93-7.12c-.3667-.3818-.57145-.89064-.57145-1.42s.20475-1.0382.57145-1.42c.179-.18508.3935-.33226.6305-.43277.2371-.10051.492-.15231.7495-.15231s.5124.0518.7495.15231c.237.10051.4515.24769.6305.43277.1796.18232.3936.3271.6297.42593.236.09882.4894.14972.7453.14972s.5093-.0509.7453-.14972c.2361-.09883.4501-.24361.6297-.42593.3667-.3818.5715-.89064.5715-1.42s-.2048-1.0382-.5715-1.42c-.5384-.56017-1.1844-1.00582-1.8992-1.31025-.7149-.30442-1.4838-.46134-2.2608-.46134s-1.5459.15692-2.26076.46134c-.71484.30443-1.36083.75008-1.89924 1.31025-1.09763 1.15105-1.70665 2.68257-1.69919 4.27306.00746 1.59054.63081 3.11624 1.73919 4.25694z" stroke="#fff" stroke-linecap="round" stroke-linejoin="round" stroke-width="2"/></svg>