<svg fill="none" height="24" viewBox="0 0 24 24" width="24" xmlns="http://www.w3.org/2000/svg"><path d="m16.28 4.77-2.77 2.84m.49 1.95 3.79 1m-7.2-7.35 1 3.88m.5 4.8 2.8 2.82m-6.28.74 2.8 2.83m4.87-4.98-6.93 7.11c-.17844.1879-.39325.3375-.63135.4398-.2381.1022-.49452.155-.75365.155s-.51555-.0528-.75365-.155c-.23811-.1023-.45291-.2519-.63135-.4398-.36668-.3818-.57146-.8906-.57146-1.42s.20478-1.0382.57146-1.42l6.93-7.12c.3667-.3818.5715-.89064.5715-1.42s-.2048-1.0382-.5715-1.42c-.179-.18508-.3935-.33226-.6305-.43277-.2371-.10051-.492-.15231-.7495-.15231s-.5124.0518-.7495.15231c-.237.10051-.4515.24769-.6305.43277-.1796.18232-.3936.3271-.6297.42593-.23604.09882-.48939.14972-.7453.14972s-.50926-.0509-.74532-.14972c-.23606-.09883-.4501-.24361-.62968-.42593-.36668-.3818-.57146-.89064-.57146-1.42s.20478-1.0382.57146-1.42c.53841-.56017 1.1844-1.00582 1.89924-1.31025.71486-.30442 1.48376-.46134 2.26076-.46134s1.5459.15692 2.2608.46134c.7148.30443 1.3608.75008 1.8992 1.31025 1.0976 1.15105 1.7067 2.68257 1.6992 4.27306-.0075 1.59054-.6308 3.11624-1.7392 4.25694z" stroke="#fff" stroke-linecap="round" stroke-linejoin="round" stroke-width="2"/></svg>