<svg fill="none" height="24" viewBox="0 0 24 24" width="24" xmlns="http://www.w3.org/2000/svg"><g stroke="#fff" stroke-linecap="round" stroke-linejoin="round" stroke-miterlimit="10" stroke-width="2"><path d="m3 12h18"/><path d="m13 16h-2c-1 0-1.69998 1.1-1.29998 2l1.09998 2.2c.5 1.1 2.1 1 2.6-.1l.9-2.2c.4-.9-.3-1.9-1.3-1.9z"/><path d="m12 16v-4"/><path d="m6.40005 8h2c1 0 1.69995-1.1 1.3-2l-1.2-2.2c-.5-1.1-2.1-1-2.5.1l-.9 2.2c-.4.9.3 1.9 1.3 1.9z"/><path d="m7.40002 8v4"/><path d="m15.6 8h2c1 0 1.7-1.1 1.3-2l-1.1-2.2c-.5-1.1-2.1-1-2.6.1l-.9 2.2c-.4.9.3 1.9 1.3 1.9z"/><path d="m16.6 8v4"/></g></svg>