<svg fill="none" height="24" viewBox="0 0 24 24" width="24" xmlns="http://www.w3.org/2000/svg"><g stroke="#fff" stroke-linecap="round" stroke-linejoin="round" stroke-miterlimit="10" stroke-width="2"><path d="m16.1 19.3c-1.3 1-2.9 1.7-4.6 1.7h-2c-1.4 0-2.7-.4-3.8-1.1-1.2-.7-2.1-1.7-2.7-2.9h12c0 .9.4 1.8 1.1 2.3z"/><path d="m10 10.8h-4v6.2h4z"/><path d="m8 3 1.4 1.4c.8.8.8 2 0 2.8s-2 .8-2.8 0-.8-2 0-2.8z"/><path d="m21 17c0 1.7-1.3 3-3 3-.7 0-1.4-.2-1.9-.7-.7-.5-1.1-1.4-1.1-2.3 0-1.7 1.3-3 3-3s3 1.3 3 3z"/></g></svg>