<svg fill="none" height="24" viewBox="0 0 24 24" width="24" xmlns="http://www.w3.org/2000/svg"><g stroke="#fff" stroke-linecap="round" stroke-linejoin="round" stroke-miterlimit="10" stroke-width="2"><path d="m12 5.5c0-1.4 1.1-2.5 2.5-2.5s2.5 1.1 2.5 2.5-1.1 2.5-2.5 2.5"/><path d="m12 5.5c0-1.4-1.1-2.5-2.5-2.5s-2.5 1.1-2.5 2.5 1.1 2.5 2.5 2.5"/><path d="m19 21h-14c-1.1 0-2-.9-2-2v-9c0-1.1.9-2 2-2h14c1.1 0 2 .9 2 2v9c0 1.1-.9 2-2 2z"/><path d="m20.2999 8.5-16.59995 12"/><path d="m21 14.1-9.5 6.9"/><path d="m12.5 8-9.5 6.9"/></g></svg>