<svg fill="none" height="24" viewBox="0 0 24 24" width="24" xmlns="http://www.w3.org/2000/svg"><g stroke="#fff" stroke-linecap="round" stroke-linejoin="round" stroke-miterlimit="10" stroke-width="2"><path d="m18.9 9.5-13.80002 10"/><path d="m19 15.5-7.5 5.5"/><path d="m12.5 8-7.5 5.4"/><path d="m12 5.5c0-1.4 1.1-2.5 2.5-2.5s2.5 1.1 2.5 2.5-1.1 2.5-2.5 2.5"/><path d="m12 5.5c0-1.4-1.1-2.5-2.5-2.5s-2.5 1.1-2.5 2.5 1.1 2.5 2.5 2.5"/><path d="m17 21h-10c-1.1 0-2-.9-2-2v-9c0-1.1.9-2 2-2h10c1.1 0 2 .9 2 2v9c0 1.1-.9 2-2 2z"/></g></svg>