<svg fill="none" height="24" viewBox="0 0 24 24" width="24" xmlns="http://www.w3.org/2000/svg"><g stroke="#fff" stroke-linecap="round" stroke-linejoin="round" stroke-miterlimit="10" stroke-width="2"><path d="m12 16.5v.3c-.1 2.3-2.1 4.2-4.5 4.2-2.5 0-4.5-2-4.5-4.5h3.6c0-1.5 1.2-2.7 2.7-2.7 1.4 0 2.5 1.1 2.7 2.4z"/><path d="m12 16.5v.3c.1 2.4 2.1 4.2 4.5 4.2 2.5 0 4.5-2 4.5-4.5h-3.6c0-1.5-1.2-2.7-2.7-2.7-1.4 0-2.5 1.1-2.7 2.4z"/><path d="m6.5 10c1.933 0 3.5-1.567 3.5-3.5s-1.567-3.5-3.5-3.5-3.5 1.567-3.5 3.5 1.567 3.5 3.5 3.5z"/><path d="m17.5 10c1.933 0 3.5-1.567 3.5-3.5s-1.567-3.5-3.5-3.5-3.5 1.567-3.5 3.5 1.567 3.5 3.5 3.5z"/><path d="m10 7c0-1.1.9-2 2-2s2 .9 2 2"/></g></svg>