<svg fill="none" height="24" viewBox="0 0 24 24" width="24" xmlns="http://www.w3.org/2000/svg"><g stroke="#fff" stroke-linecap="round" stroke-linejoin="round" stroke-miterlimit="10" stroke-width="2"><path d="m12 7v2.5"/><path d="m15 4-3 3"/><path d="m9 4 3 3"/><path d="m12 17v-2.5"/><path d="m9 20 3-3"/><path d="m15 20-3-3"/><path d="m9.5 12h-2.5"/><path d="m4 9 3 3"/><path d="m4 15 3-3"/><path d="m17 12h-2.5"/><path d="m20 15-3-3"/><path d="m20 9-3 3"/><path d="m14.5 12c0 1.4-1.1 2.5-2.5 2.5s-2.5-1.1-2.5-2.5 1.1-2.5 2.5-2.5 2.5 1.1 2.5 2.5z"/><path d="m17 7 3-3"/><path d="m7 7-3-3"/><path d="m17 17 3 3"/><path d="m7 17-3 3"/></g></svg>