<svg fill="none" height="24" viewBox="0 0 24 24" width="24" xmlns="http://www.w3.org/2000/svg"><g stroke="#fff" stroke-linecap="round" stroke-linejoin="round" stroke-miterlimit="10" stroke-width="2"><path d="m12 3v4"/><path d="m15 4-3 3"/><path d="m12 17v4"/><path d="m9 20 3-3"/><path d="m15 20-3-3v-10l-3-3"/><path d="m7 12h-4"/><path d="m4 9 3 3"/><path d="m4 15 3-3h10l3-3"/><path d="m21 12h-4"/><path d="m20 15-3-3"/><path d="m17 7 3-3"/><path d="m7 7-3-3"/><path d="m17 17 3 3"/><path d="m7 17-3 3"/></g></svg>