<svg fill="none" height="24" viewBox="0 0 24 24" width="24" xmlns="http://www.w3.org/2000/svg"><g stroke="#fff" stroke-linecap="round" stroke-linejoin="round" stroke-miterlimit="10" stroke-width="2"><path d="m17.1 17.1c1.8-1.4 2.9-3.6 2.9-6.1 0-4.4-3.6-8-8-8s-8 3.6-8 8c0 2.5 1.1 4.7 2.9 6.1"/><path d="m21 21-3.9-3.9"/><path d="m6.9 17.1-3.9 3.9"/><path d="m9 10.5c.27614 0 .5-.2239.5-.5 0-.27614-.22386-.5-.5-.5s-.5.22386-.5.5c0 .2761.22386.5.5.5z" fill="#fff"/><path d="m15 10.5c.2761 0 .5-.2239.5-.5 0-.27614-.2239-.5-.5-.5s-.5.22386-.5.5c0 .2761.2239.5.5.5z" fill="#fff"/><path d="m12 12-2.5 2.5"/></g></svg>