<svg fill="none" height="24" viewBox="0 0 24 24" width="24" xmlns="http://www.w3.org/2000/svg"><g stroke="#fff" stroke-linecap="round" stroke-linejoin="round" stroke-width="2"><path d="m12 21c2.2091 0 4-1.7909 4-4s-1.7909-4-4-4c-2.20914 0-4 1.7909-4 4s1.79086 4 4 4z"/><path d="m12 13c1.6569 0 3-1.3431 3-3 0-1.65685-1.3431-3-3-3s-3 1.34315-3 3c0 1.6569 1.3431 3 3 3z"/><path d="m14 7h-4v-3c0-.6.4-1 1-1h2c.6 0 1 .4 1 1z"/><path d="m8 7h8"/><path d="m21 13h-2v-2"/><path d="m19 13-3.1 3.1"/><path d="m3 13h2v-2"/><path d="m8.1 16.1-3.1-3.1"/></g></svg>