<svg fill="none" height="24" viewBox="0 0 24 24" width="24" xmlns="http://www.w3.org/2000/svg"><g stroke="#fff" stroke-linecap="round" stroke-linejoin="round" stroke-miterlimit="10" stroke-width="2"><path d="m8 3c0 1.1-.9 2-2 2"/><path d="m10 5c-1.1 0-2-.9-2-2"/><path d="m8 6c0 1.7-1.3 3-3 3"/><path d="m11 9c-1.7 0-3-1.3-3-3"/><path d="m8 9c0 2.2-1.8 4-4 4"/><path d="m12 13c-2.2 0-4-1.8-4-4"/><path d="m8 21v-18"/><path d="m16 3c0 1.1-.9 2-2 2"/><path d="m18 5c-1.1 0-2-.9-2-2"/><path d="m16 6c0 1.7-1.3 3-3 3"/><path d="m19 9c-1.7 0-3-1.3-3-3"/><path d="m16 9c0 2.2-1.8 4-4 4"/><path d="m20 13c-2.2 0-4-1.8-4-4"/><path d="m16 21v-18"/></g></svg>