<svg fill="none" height="24" viewBox="0 0 24 24" width="24" xmlns="http://www.w3.org/2000/svg"><g stroke="#fff" stroke-linecap="round" stroke-linejoin="round" stroke-width="1.5"><path d="m12.5 3.70012c-.5-.5-1.2-.8-1.9-.7l-6 1.3c-.9.2-1.6 1.1-1.6 2.1v12.59998c0 1.1.9 2 2 2h8v-15.89998c0-.5-.2-1-.5-1.4z"/><path d="m21 11.3999v7.6c0 1.1-.9 2-2 2h-6v-10.9c0-1.29999 1.2-2.29999 2.4-2.09999l2.1.7.5.2 1.4.4c.9.2 1.6 1.09999 1.6 2.09999z"/><path d="m9.5 7.3999-3 .6"/><path d="m9.5 11.8999-3 .6"/><path d="m9.5 16.3999-3 .6"/></g></svg>