<svg fill="none" height="24" viewBox="0 0 24 24" width="24" xmlns="http://www.w3.org/2000/svg"><path d="m3 9h18m-5.5-4v-4m-7 4v-4m3.5 11.9v1.5m9 .6-2.2 2.2m-13.6 0-2.2-2.2m14.1-3.7-1.5 3.8m-7.4.1-1.2-2.9m14-5.3v10c0 1.8-1.2 3.3-2.8 3.8-.4.1-.8.2-1.2.2h-10c-.4 0-.8-.1-1.2-.2-1.6-.5-2.8-2-2.8-3.8v-10c0-2.2 1.8-4 4-4h10c2.2 0 4 1.8 4 4zm-9 10c-2.7 0-5.1 1.5-6.2 3.8.4.1.8.2 1.2.2h10c.4 0 .8-.1 1.2-.2-1.1-2.3-3.5-3.8-6.2-3.8z" stroke="#fff" stroke-linecap="round" stroke-linejoin="round" stroke-width="1.5"/></svg>