<svg fill="none" height="24" viewBox="0 0 24 24" width="24" xmlns="http://www.w3.org/2000/svg"><path d="m21 12c0 2.3-.9 4.4-2.3 6-.1.1-.2.2-.3.4-1.7 1.6-3.9 2.6-6.4 2.6s-4.7-1-6.4-2.6c-.1-.1-.2-.2-.3-.4-1.4-1.6-2.3-3.7-2.3-6 0-5 4-9 9-9 2.5 0 4.7 1 6.4 2.6 1.6 1.7 2.6 3.9 2.6 6.4zm-2.6 5.6c-1.7-1.6-3.9-2.6-6.4-2.6-2.7 0-5.1 1.2-6.7 3 .1.1.2.2.3.4 1.7 1.6 3.9 2.6 6.4 2.6s4.7-1 6.4-2.6c.1-.1.2-.2.3-.4-.1-.1-.2-.2-.3-.4zm-6.4-10.6c-1.4 0-2.5 1.1-2.5 2.5s1.1 2.5 2.5 2.5 2.5-1.1 2.5-2.5-1.1-2.5-2.5-2.5z" stroke="#fff" stroke-linecap="round" stroke-linejoin="round" stroke-width="1.5"/></svg>