<svg fill="none" height="24" viewBox="0 0 24 24" width="24" xmlns="http://www.w3.org/2000/svg"><path d="m15 12c0 1.7-1.3 3-3 3s-3-1.3-3-3 1.3-3 3-3 3 1.3 3 3zm4.2 0c0-1 .5-2 1.4-2.5l.4-.3-2-3.5-.5.3c-.9.5-2 .5-2.9 0-.1 0-.1-.1-.2-.1-.8-.5-1.4-1.4-1.4-2.4v-.5h-4v.5c0 1-.5 1.9-1.4 2.4-.1 0-.2 0-.3.1-.9.5-2 .5-2.9 0l-.4-.2-2 3.4.4.2c.9.6 1.4 1.6 1.4 2.6s-.5 2-1.4 2.5l-.4.3 2 3.5.5-.3c.9-.5 2-.5 2.9 0 .1 0 .1.1.2.1.8.5 1.4 1.4 1.4 2.4v.5h4v-.5c0-1 .5-1.9 1.4-2.4.1 0 .1-.1.2-.1.9-.5 2-.5 2.9 0l.4.2 2-3.5-.4-.2c-.8-.5-1.3-1.5-1.3-2.5z" stroke="#fff" stroke-linecap="round" stroke-linejoin="round" stroke-width="1.5"/></svg>