<svg fill="none" height="24" viewBox="0 0 24 24" width="24" xmlns="http://www.w3.org/2000/svg"><g stroke="#fff" stroke-linecap="round" stroke-linejoin="round"><path d="m11.5 21h-2.5c-2.2 0-4-1.8-4-4v-7h4c1.1 0 2-.9 2-2v-5h4c2.2 0 4 1.8 4 4v3"/><path d="m5 10c0-.64614.22653-1.27184.64018-1.76822l3.71964-4.46356c.40564-.48677 1.00658-.76822 1.64018-.76822"/><path d="m20.4043 17.5145-3.4043 3.4855-3.4043-3.4855c-.7943-.8133-.7943-2.0913 0-2.9045.4539-.3486.9078-.581 1.3617-.581.5674 0 1.0213.2324 1.4752.581l.5674.5809.5674-.5809c.7943-.8133 2.0425-.8133 2.8369 0 .7943.8132.7943 2.0912 0 2.9045z"/></g></svg>