<svg fill="none" height="24" viewBox="0 0 24 24" width="24" xmlns="http://www.w3.org/2000/svg"><g stroke="#fff" stroke-linecap="round" stroke-linejoin="round" stroke-width="2"><path d="m11 21h-2c-2.2 0-4-1.8-4-4v-7h4c1.1 0 2-.9 2-2v-5h4c2.2 0 4 1.8 4 4v2.5"/><path d="m5 10c0-.64614.22653-1.27184.64018-1.76822l3.71964-4.46356c.40564-.48677 1.00658-.76822 1.64018-.76822"/><path d="m21 21-2.6667-2.6667m.8889-2.2222c0 1.7333-1.3778 3.1111-3.1111 3.1111s-3.1111-1.3778-3.1111-3.1111 1.3778-3.1111 3.1111-3.1111 3.1111 1.3778 3.1111 3.1111z"/></g></svg>