<svg fill="none" height="24" viewBox="0 0 24 24" width="24" xmlns="http://www.w3.org/2000/svg" xmlns:xlink="http://www.w3.org/1999/xlink"><clipPath id="a"><path d="m0 0h24v24h-24z"/></clipPath><g clip-path="url(#a)" stroke="#fff" stroke-linecap="round" stroke-linejoin="round" stroke-width="2"><path d="m12 21h-3c-2.2 0-4-1.8-4-4v-7h4c1.1 0 2-.9 2-2v-5h4c2.2 0 4 1.8 4 4v1"/><path d="m5 10c0-.64614.22653-1.27184.64018-1.76822l3.71964-4.46356c.40564-.48677 1.00658-.76822 1.64018-.76822"/><path d="m16 21v-9h3c1.1 0 2 .9 2 2s-.9 2-2 2h-4"/><path d="m20 19h-5"/></g></svg>