<svg fill="none" height="24" viewBox="0 0 24 24" width="24" xmlns="http://www.w3.org/2000/svg"><g stroke="#fff" stroke-linecap="round" stroke-linejoin="round" stroke-width="2"><path d="m12 21h-3c-2.2 0-4-1.8-4-4v-7h4c1.1 0 2-.9 2-2v-5h4c2.2 0 4 1.8 4 4v1"/><path d="m5 10c0-.64614.22653-1.27184.64018-1.76822l3.71964-4.46356c.40564-.48677 1.00658-.76822 1.64018-.76822"/><path d="m14 18h4"/><path d="m14 15h4"/><path d="m21 18.9c-.4068 1.2-1.5254 2.1-2.9492 2.1-.8135 0-1.6271-.3-2.1355-.9-.5085-.6-.9153-1.3-.9153-2.1v-3c0-1.7 1.322-3 3.0508-3 .8136 0 1.6272.3 2.1356.9.3051.3.6102.8.8136 1.2"/></g></svg>