<svg fill="none" height="24" viewBox="0 0 24 24" width="24" xmlns="http://www.w3.org/2000/svg"><g stroke="#fff" stroke-linecap="round" stroke-linejoin="round" stroke-width="2"><path d="m10 21h-1c-2.2 0-4-1.8-4-4v-7h4c1.1 0 2-.9 2-2v-5h4c2.2 0 4 1.8 4 4v2"/><path d="m5 10c0-.64614.22653-1.27184.64018-1.76822l3.71964-4.46356c.40564-.48677 1.00658-.76822 1.64018-.76822"/><path d="m20 13-6 8m-1-6.5c0 .8.7 1.5 1.5 1.5s1.5-.7 1.5-1.5-.7-1.5-1.5-1.5-1.5.7-1.5 1.5zm5 5c0 .8.7 1.5 1.5 1.5s1.5-.7 1.5-1.5-.7-1.5-1.5-1.5-1.5.7-1.5 1.5z"/></g></svg>