<svg fill="none" height="24" viewBox="0 0 24 24" width="24" xmlns="http://www.w3.org/2000/svg"><path d="m14.5 21h-5.5c-2.2 0-4-1.8-4-4v-7h4c1.1 0 2-.9 2-2v-5h4c2.2 0 4 1.8 4 4v2" stroke="#fff" stroke-linecap="round" stroke-linejoin="round" stroke-width="2"/><path d="m5 10c0-.64614.22653-1.27184.64018-1.76822l3.71964-4.46356c.40564-.48677 1.00658-.76822 1.64018-.76822" stroke="#fff" stroke-linecap="round" stroke-linejoin="round" stroke-width="2"/><path d="m18.5 20c-.6 0-1 .4-1 1s.4 1 1 1 1-.4 1-1-.4-1-1-1z" fill="#fff"/><path d="m18.5 18c1.4 0 2.5-1.1 2.5-2.5s-1.1-2.5-2.5-2.5-2.5 1.1-2.5 2.5" stroke="#fff" stroke-linecap="round" stroke-linejoin="round" stroke-width="2"/></svg>