<svg fill="none" height="24" viewBox="0 0 24 24" width="24" xmlns="http://www.w3.org/2000/svg"><g stroke="#fff" stroke-linecap="round" stroke-linejoin="round" stroke-width="2"><path d="m10 21h-1c-2.2 0-4-1.8-4-4v-7h4c1.1 0 2-.9 2-2v-5h4c2.2 0 4 1.8 4 4v2"/><path d="m5 10c0-.64614.22653-1.27184.64018-1.76822l3.71964-4.46356c.40564-.48677 1.00658-.76822 1.64018-.76822"/><path d="m17 13 .9333 3.0877 3.0667-.0468-2.4889 1.9182.9778 3.0409-2.4889-1.9181-2.4889 1.9181.9778-3.0409-2.4889-1.9182 3.0667.0468z"/></g></svg>