<svg fill="none" height="24" viewBox="0 0 24 24" width="24" xmlns="http://www.w3.org/2000/svg"><g stroke="#fff" stroke-linecap="round" stroke-linejoin="round" stroke-width="2"><path d="m12 21h-3c-2.2 0-4-1.8-4-4v-7h4c1.1 0 2-.9 2-2v-5h4c2.2 0 4 1.8 4 4v1"/><path d="m5 10c0-.64614.22653-1.27184.64018-1.76822l3.71964-4.46356c.40564-.48677 1.00658-.76822 1.64018-.76822"/><path d="m18.5 12v1m2.4 1.5c-.2-.9-1-1.5-1.9-1.5h-1c-1.1 0-2 .9-2 2s.9 2 2 2h1c1.1 0 2 .9 2 2s-.9 2-2 2h-1c-.9 0-1.7-.7-1.9-1.5m2.4 1.5v1"/></g></svg>