<svg fill="none" height="24" viewBox="0 0 24 24" width="24" xmlns="http://www.w3.org/2000/svg"><g stroke="#fff" stroke-linecap="round" stroke-linejoin="round" stroke-width="2"><path d="m9 21c-2.2 0-4-1.8-4-4v-7h4c1.1 0 2-.9 2-2v-5h4c2.2 0 4 1.8 4 4v4"/><path d="m5 10c0-.64614.22653-1.27184.64018-1.76822l3.71964-4.46356c.40564-.48677 1.00658-.76822 1.64018-.76822"/><path d="m21 16.7143c0 .5143-.48.9428-1.36 1.2857m1.36-1.2857c0-.9429-1.76-1.7143-4-1.7143s-4 .7714-4 1.7143m8 0v2.5714c0 .5143-.56.9429-1.36 1.2857-.72.2572-1.6.4286-2.64.4286s-1.92-.1714-2.64-.4286c-.8-.3428-1.36-.7714-1.36-1.2857v-2.5714m8 0c0 .5143-.56.9428-1.36 1.2857m0 0c-.72.2571-1.6.4286-2.64.4286m0 0c-1.04 0-1.92-.1715-2.64-.4286m2.64.4286c-.96 0-1.92-.1715-2.64-.4286m0 0c-.8-.3429-1.36-.7714-1.36-1.2857" stroke-miterlimit="10"/></g></svg>