<svg width="114" height="62" viewBox="0 0 114 62" fill="none" xmlns="http://www.w3.org/2000/svg">
<path fill-rule="evenodd" clip-rule="evenodd" d="M65.5784 0.425781C66.6673 0.425781 67.4037 1.6045 66.9809 2.66774L66.7824 3.16705L59.7916 20.7662H63.5627C65.8923 20.7662 67.0635 20.7662 67.9147 21.32C68.7748 21.8793 69.3076 23.0047 70.3798 25.2672L73.854 32.7608C74.6063 34.3877 76.8156 34.3198 77.4784 32.6484L89.7612 1.7166C90.0719 0.931929 90.7957 0.425822 91.5962 0.425822H111.285H112.006H112.009C113.098 0.425822 113.834 1.60454 113.411 2.66774L113.213 3.16709L90.4081 60.5777C90.0974 61.3621 89.3706 61.8719 88.5672 61.8719L65.6439 61.8244C64.8819 61.8244 64.1869 61.3621 63.8541 60.6354L53.2003 37.3595L43.9776 60.5777C43.667 61.3621 42.9402 61.8719 42.1367 61.8719L19.2134 61.8244C18.4515 61.8244 17.7565 61.3621 17.4236 60.6354L0.564992 23.8032C-0.0786238 22.4002 0.885188 20.7662 2.35492 20.7662H17.1322C19.4619 20.7662 20.633 20.7662 21.4839 21.32C22.344 21.8793 22.8771 23.0047 23.9494 25.2672L27.4235 32.7608C28.1759 34.3877 30.3852 34.3198 31.0479 32.6484L43.3308 1.7166C43.6414 0.931929 44.3653 0.425781 45.1658 0.425781H64.8549H65.5754H65.5784Z" fill="#FB9EBB"/>
</svg>
