<svg width="143" height="31" viewBox="0 0 143 31" fill="none" xmlns="http://www.w3.org/2000/svg">
<g clip-path="url(#clip0_44_2045)">
<path fill-rule="evenodd" clip-rule="evenodd" d="M5.65224 6.0282e-06L137.407 2.98708e-06C137.947 -3.80681e-05 138.453 -7.68417e-05 138.878 0.0307206C139.34 0.0640504 139.86 0.140882 140.388 0.374425C141.387 0.815746 142.184 1.61351 142.626 2.61176C142.859 3.14003 142.935 3.66021 142.969 4.12133C143 4.54735 143 5.05299 143 5.59257V24.6019C143 25.1414 143 25.6471 142.969 26.0731C142.935 26.5343 142.859 27.0544 142.626 27.5826C142.184 28.5809 141.387 29.3787 140.388 29.8201C139.86 30.0535 139.34 30.1304 138.878 30.1637C138.453 30.1945 137.947 30.1944 137.407 30.1944H5.59282C5.05315 30.1944 4.54742 30.1945 4.12133 30.1637C3.66021 30.1304 3.14002 30.0535 2.61176 29.8201C1.61351 29.3787 0.815746 28.5809 0.374425 27.5826C0.140882 27.0544 0.0640504 26.5343 0.0307206 26.0731C-7.68417e-05 25.647 -3.80681e-05 25.1413 2.98708e-06 24.6016L6.0282e-06 5.65224C6.0282e-06 5.63237 4.50764e-06 5.61255 2.98708e-06 5.59276C-3.80681e-05 5.05312 -7.68417e-05 4.5474 0.0307206 4.12133C0.0640504 3.66021 0.140882 3.14003 0.374425 2.61176C0.815746 1.61351 1.61351 0.815746 2.61176 0.374425C3.14003 0.140882 3.66021 0.0640504 4.12133 0.0307206C4.5474 -7.68417e-05 5.05312 -3.80681e-05 5.59276 2.98708e-06C5.61255 4.50764e-06 5.63237 6.0282e-06 5.65224 6.0282e-06ZM2.19727 3.41763C1.99304 3.87959 1.99304 4.47047 1.99304 5.65224V24.5422C1.99304 25.724 1.99304 26.3149 2.19727 26.7768C2.43798 27.3213 2.87314 27.7564 3.41763 27.9971C3.87959 28.2014 4.47047 28.2014 5.65223 28.2014H137.348C138.529 28.2014 139.12 28.2014 139.582 27.9971C140.127 27.7564 140.562 27.3213 140.803 26.7768C141.007 26.3149 141.007 25.724 141.007 24.5422V5.65224C141.007 4.47047 141.007 3.87959 140.803 3.41763C140.562 2.87314 140.127 2.43798 139.582 2.19727C139.12 1.99304 138.529 1.99304 137.348 1.99304H5.65224C4.47047 1.99304 3.87959 1.99304 3.41763 2.19727C2.87314 2.43798 2.43798 2.87314 2.19727 3.41763Z" fill="#FB9EBB"/>
<path fill-rule="evenodd" clip-rule="evenodd" d="M26.5745 6.07861C26.9134 6.07861 27.1426 6.42441 27.011 6.73632L26.9493 6.8828L24.7736 12.0457H25.9472C26.6722 12.0457 27.0367 12.0457 27.3016 12.2082C27.5693 12.3723 27.7351 12.7024 28.0688 13.3662L29.15 15.5645C29.3842 16.0418 30.0717 16.0218 30.278 15.5315L34.1006 6.45729C34.1973 6.2271 34.4226 6.07863 34.6717 6.07863H40.7993H41.0235H41.0244C41.3633 6.07863 41.5925 6.42442 41.4609 6.73632L41.3992 6.88281L34.3019 23.725C34.2053 23.9551 33.9791 24.1046 33.729 24.1046L26.5949 24.0907C26.3578 24.0907 26.1415 23.9551 26.0379 23.7419L22.7223 16.9136L19.852 23.725C19.7554 23.9551 19.5292 24.1046 19.2791 24.1046L12.145 24.0907C11.9079 24.0907 11.6916 23.9551 11.588 23.7419L6.34131 12.9367C6.141 12.5251 6.44096 12.0457 6.89836 12.0457H11.4973C12.2223 12.0457 12.5868 12.0457 12.8516 12.2082C13.1193 12.3723 13.2852 12.7024 13.6189 13.3662L14.7001 15.5645C14.9343 16.0418 15.6218 16.0218 15.8281 15.5315L19.6507 6.45729C19.7474 6.2271 19.9727 6.07861 20.2218 6.07861H26.3494H26.5736H26.5745ZM83.7314 18.2562C83.7314 18.2566 83.7319 18.2571 83.7324 18.2571C83.7327 18.2571 83.7329 18.2572 83.7332 18.2574L87.873 23.0919C88.2172 23.4939 87.9313 24.1142 87.4018 24.1142H82.6083C81.97 24.1142 81.3643 23.8292 80.9568 23.338L77.3863 19.0297C77.2684 18.8876 77.0934 18.8053 76.9087 18.8053H73.5749C73.2324 18.8053 72.9548 19.0827 72.9548 19.4248V23.4947C72.9548 23.8368 72.6772 24.1142 72.3348 24.1142H67.3275C66.985 24.1142 66.7074 23.8368 66.7074 23.4947V6.70075C66.7074 6.35863 66.985 6.08128 67.3273 6.08121L80.1488 6.07863C84.2163 6.19533 88.5094 8.15767 88.2201 12.8586C88.0422 15.741 86.293 17.1876 83.7954 18.1866C83.7817 18.1919 83.7691 18.1917 83.7588 18.1915C83.735 18.1913 83.7222 18.191 83.7314 18.2562ZM73.5735 14.6363H79.2647C80.965 14.6839 82.3829 13.582 81.6971 11.773C81.4377 11.0863 80.4028 10.6004 79.706 10.6004H73.5735C73.231 10.6004 72.9534 10.8778 72.9534 11.22V14.0169C72.9534 14.359 73.231 14.6363 73.5735 14.6363ZM128.137 6.07863L114.695 6.08133C114.696 6.08133 114.697 6.08194 114.697 6.08269V23.4933C114.697 23.8355 114.974 24.1128 115.317 24.1128H120.324C120.666 24.1128 120.944 23.8355 120.944 23.4933V19.4235C120.944 19.0813 121.222 18.804 121.564 18.804H124.897C125.083 18.804 125.258 18.8862 125.376 19.0284L129.087 23.509C129.404 23.8917 129.877 24.1128 130.373 24.1128H135.39C135.92 24.1128 136.206 23.4928 135.862 23.0907L131.801 18.344C131.75 18.2843 131.709 18.2152 131.782 18.1866C134.248 17.2406 136.033 15.7234 136.21 12.9048C136.507 8.15088 132.254 6.21026 128.137 6.07863ZM120.943 14.6363C120.942 14.6363 120.942 14.637 120.942 14.6377V11.22C120.942 10.8778 121.219 10.6004 121.562 10.6004H127.694C128.523 10.6004 129.527 11.1324 129.752 11.9697C130.242 13.8017 128.858 14.6473 127.212 14.6363H120.943ZM62.9204 6.08122C63.2627 6.08122 63.5403 6.3586 63.5403 6.70076V9.98075C63.5403 10.3229 63.2627 10.6003 62.9204 10.6003H50.7421C50.3996 10.6003 50.1221 10.8777 50.1221 11.2198V12.3055C50.1221 12.6476 50.3996 12.9249 50.7421 12.9249H60.4567C60.7991 12.9249 61.0767 13.2024 61.0767 13.5445V16.4744C61.0767 16.8166 60.7991 17.0939 60.4567 17.0939H50.7421C50.3996 17.0939 50.1221 17.3713 50.1221 17.7134V18.9755C50.1221 19.3176 50.3996 19.595 50.7421 19.595H63.2272C63.5697 19.595 63.8473 19.8724 63.8473 20.2146V23.4946C63.8473 23.8367 63.5697 24.1141 63.2272 24.1141H44.5831C44.2406 24.1141 43.963 23.8367 43.963 23.4946V6.70076C43.963 6.3586 44.2406 6.08122 44.5831 6.08122H62.9204ZM97.3656 6.08258C97.3656 6.08183 97.365 6.08122 97.3643 6.08122H91.6935C91.351 6.08122 91.0734 6.3586 91.0734 6.70076V23.4946C91.0734 23.8367 91.351 24.1141 91.6935 24.1141H96.7442C97.0867 24.1141 97.3643 23.8367 97.3643 23.4946V20.4993C97.3643 20.3284 97.435 20.1652 97.5592 20.0476C97.8291 19.7922 98.0976 19.5346 98.3661 19.277C98.9805 18.6875 99.5952 18.0976 100.229 17.5311C100.497 17.292 100.91 17.3381 101.125 17.6258L105.474 23.4559C105.783 23.8698 106.269 24.1141 106.787 24.1141H112.005C112.516 24.1141 112.808 23.531 112.501 23.1226L105.486 13.7855C105.296 13.5335 105.326 13.1795 105.556 12.9631L111.716 7.15122C112.123 6.76637 111.851 6.08122 111.29 6.08122H106.011C105.531 6.08122 105.069 6.26849 104.723 6.60233L98.4168 12.6997C98.0234 13.0802 97.3656 12.8015 97.3656 12.2545V6.08258Z" fill="#0B1956"/>
</g>
<defs>
<clipPath id="clip0_44_2045">
<rect width="143" height="30.3054" fill="white"/>
</clipPath>
</defs>
</svg>
