<svg width="150" height="46" viewBox="0 0 150 46" fill="none" xmlns="http://www.w3.org/2000/svg">
<g id="Group 133602">
<path id="path28" d="M42.4581 35.1921C41.5594 34.2138 41.1094 32.81 41.1094 30.981V19.1152C41.1094 17.2875 41.5594 15.8838 42.4606 14.9041C43.3619 13.9257 44.6686 13.4365 46.3847 13.4365C48.1008 13.4365 49.4088 13.9257 50.3088 14.9041C51.2101 15.8838 51.66 17.2875 51.66 19.1152V21.0516H48.355V18.9007C48.355 17.4241 47.741 16.6846 46.5118 16.6846C45.2826 16.6846 44.6686 17.4229 44.6686 18.9007V31.1994C44.6686 32.6555 45.2826 33.3835 46.5118 33.3835C47.741 33.3835 48.355 32.6555 48.355 31.1994V26.8005H46.5754V23.6074H51.66V30.9823C51.66 32.8113 51.2101 34.215 50.3113 35.1934C49.4126 36.1731 48.1059 36.661 46.3936 36.661C44.6813 36.661 43.3746 36.1718 42.4759 35.1934" fill="black"/>
<path id="path32" d="M53.1855 13.7715H62.8464V16.9646H56.7448V22.9678H61.5752V26.1609H56.7448V33.0581H62.8464V36.379H53.1855V13.7715Z" fill="black"/>
<path id="path36" d="M67.5497 16.9646H63.8633V13.7715H74.7953V16.9646H71.1089V36.379H67.5497V16.9646Z" fill="black"/>
<path id="path40" d="M87.3238 28.8432L85.7577 17.731H85.6942L84.1599 28.8432H87.3238ZM83.476 13.7715H88.2657L91.9292 36.379H88.4107L87.7611 31.8435V31.9086H83.7023L83.0527 36.379H79.8125L83.4773 13.7715H83.476Z" fill="black"/>
<path id="path44" d="M96.8652 13.7715H100.267L101.842 31.1423H101.907L103.578 13.7715H107.434L109.105 31.1423H109.17L110.745 13.7715H113.793L111.512 36.379H107.11L105.507 21.1796H105.443L103.84 36.379H99.1495L96.8678 13.7715H96.8652Z" fill="black"/>
<path id="path48" d="M121.112 28.8432L119.546 17.731H119.483L117.948 28.8432H121.112ZM117.264 13.7715H122.054L125.718 36.379H122.224L121.575 31.8435V31.9086H117.515L116.865 36.379H113.6L117.264 13.7715Z" fill="black"/>
<path id="path52" d="M127.85 35.1926C126.972 34.2142 126.533 32.8105 126.533 30.9814V29.7374H129.838V31.2867C129.838 32.7492 130.447 33.481 131.666 33.481C132.265 33.481 132.719 33.3035 133.029 32.9484C133.339 32.5933 133.494 32.0186 133.494 31.2228C133.494 30.2764 133.281 29.4436 132.853 28.722C132.425 28.0016 131.634 27.1356 130.48 26.124C129.026 24.8327 128.012 23.6666 127.433 22.623C126.856 21.5795 126.568 20.4019 126.568 19.0901C126.568 17.3045 127.016 15.9225 127.914 14.9441C128.811 13.9658 130.115 13.4766 131.826 13.4766C133.537 13.4766 134.792 13.9658 135.658 14.9441C136.523 15.9238 136.957 17.3275 136.957 19.1553V20.0315H133.652V18.8819C133.652 18.1079 133.502 17.5434 133.202 17.1883C132.902 16.8332 132.463 16.6557 131.885 16.6557C130.706 16.6557 130.119 17.3773 130.119 18.8181C130.119 19.6355 130.338 20.3993 130.778 21.1095C131.216 21.8196 132.014 22.6792 133.17 23.6908C134.647 24.9821 135.664 26.1547 136.221 27.2084C136.778 28.2622 137.056 29.4998 137.056 30.9189C137.056 32.7696 136.601 34.1887 135.691 35.1785C134.781 36.1684 133.459 36.6627 131.725 36.6627C130.011 36.6627 128.717 36.1735 127.839 35.1951" fill="black"/>
<path id="path56" d="M138.482 13.7715H142.042V22.9678H145.728V13.7715H149.287V36.379H145.855V26.1609H142.042V36.379H138.482V13.7715Z" fill="black"/>
<path id="path60" d="M16.5309 7.86155C14.5111 11.1365 12.3425 14.2044 10.0328 17.1715C8.46413 19.1858 7.01373 21.2677 5.96248 23.6102C4.66462 26.4981 4.05573 29.4601 4.72309 32.6366C6.08578 39.12 12.5814 43.3771 19.0479 41.9747C25.7901 40.5122 29.9583 33.8296 28.335 27.1048C27.6015 24.0675 26.1842 21.3622 24.3397 18.8792C22.3897 16.2544 20.3673 13.682 18.5559 10.9564C17.8886 9.95243 17.2352 8.93701 16.5322 7.86155M16.5487 0C16.8627 0.62969 17.1551 1.2019 17.4347 1.7805C19.5106 6.06444 22.2309 9.93455 25.0744 13.7204C26.7549 15.9594 28.5091 18.1435 29.7917 20.6546C31.3133 23.6332 32.4027 26.7433 32.3366 30.1357C32.226 35.8106 29.7803 40.2453 25.091 43.4052C23.2287 44.6608 21.1529 45.4003 18.9322 45.7515C10.7344 47.0454 2.99939 41.603 1.15875 33.6073C0.744348 31.8051 0.587994 29.9774 0.821889 28.1649C1.12824 25.7918 1.89475 23.5323 2.93838 21.3673C4.30869 18.5241 6.24341 16.0731 8.12728 13.5799C10.5476 10.379 12.8319 7.0837 14.7564 3.55207C15.3767 2.41403 15.9259 1.23767 16.5475 0" fill="black"/>
<path id="path64" d="M22.998 25.2847C22.7806 25.2847 22.5607 25.2962 22.5607 25.5273C22.5607 25.747 22.7806 25.7892 22.9649 25.7892C23.1251 25.7892 23.3285 25.77 23.3412 25.5682C23.3552 25.3358 23.1556 25.2974 22.998 25.2859M20.1925 24.1696C20.0412 23.8541 19.7578 23.7622 19.4438 23.7775C19.1908 23.7903 18.8794 23.8733 18.9074 24.1773C18.9391 24.5158 19.2976 24.5886 19.5709 24.5924C19.8251 24.5962 20.1023 24.5081 20.1925 24.1696ZM15.2083 28.0602C15.4536 27.9605 15.8617 27.972 15.835 27.6118C15.8083 27.2261 15.4244 27.1597 15.0913 27.1597C14.8142 27.1597 14.4863 27.2287 14.4863 27.5518C14.4863 27.9695 14.893 27.9759 15.2083 28.0614M9.88972 28.4459C9.51473 28.4651 9.10795 28.5289 9.11304 28.9542C9.11812 29.4396 9.61515 29.4741 9.96345 29.538C10.3562 29.6095 10.8329 29.2557 10.7643 28.9913C10.6486 28.5481 10.2698 28.4689 9.89099 28.4459M20.5256 26.9668C20.1811 27.0486 19.7616 27.0256 19.6968 27.4982C19.6574 27.7855 20.1722 28.1074 20.612 28.0627C20.9438 28.0282 21.3823 27.9746 21.3658 27.548C21.3467 27.0907 20.9018 27.0256 20.5268 26.9681M14.2091 31.132C14.5638 31.1345 14.8968 31.0541 15.1409 30.9033C15.6824 30.5713 15.7104 30.0706 15.2083 29.6772C14.6884 29.2697 13.6587 29.2276 13.1109 29.5916C12.6304 29.9109 12.6037 30.3835 13.0549 30.7488C13.3892 31.0196 13.7846 31.1269 14.2104 31.132M12.7193 25.3894C13.06 25.4086 13.4007 25.4316 13.7426 25.4482C14.7672 25.4993 15.6189 25.1914 16.3511 24.4136C17.1532 23.5604 18.1739 23.0776 19.3815 23.0942C20.476 23.1095 21.5768 23.0316 22.6166 23.5182C23.2649 23.8222 23.8357 24.2182 24.2958 24.7635C25.6051 26.3154 25.0636 28.3258 23.1035 29.2659C22.2187 29.6899 21.2717 29.8151 20.3196 29.8023C19.1222 29.787 18.1688 30.1166 17.4252 31.1384C16.6892 32.15 15.5515 32.6034 14.3642 32.818C12.2134 33.2075 10.2228 32.7873 8.61347 31.2342C6.97748 29.6555 7.32324 27.3462 9.29736 26.2158C10.3562 25.6104 11.5016 25.3511 12.7181 25.3869" fill="#05AFEE"/>
<path id="path68" d="M23.04 31.9499C22.8671 31.9627 22.7768 32.0649 22.7565 32.222C22.7349 32.3868 22.815 32.5094 22.9789 32.5337C23.1645 32.5618 23.2268 32.4149 23.2459 32.2667C23.2662 32.1122 23.2167 31.9832 23.0412 31.9487M24.798 30.5858C24.7535 30.4045 24.6823 30.209 24.451 30.1899C24.1904 30.1694 24.0632 30.3534 24.048 30.5897C24.034 30.8042 24.1319 30.9869 24.3709 31.0035C24.634 31.0227 24.7395 30.8374 24.798 30.5846M14.466 35.3743C14.7011 35.2747 14.8638 35.1188 14.8244 34.8493C14.7939 34.6411 14.6719 34.4725 14.4367 34.4981C14.1888 34.5249 14.0732 34.7127 14.0757 34.9451C14.0782 35.1878 14.2308 35.3257 14.4672 35.3743M20.9158 31.9678C20.8803 31.6306 20.7493 31.3356 20.382 31.3266C19.9854 31.3164 19.8163 31.623 19.8023 31.9768C19.7883 32.3178 19.951 32.5899 20.3273 32.6039C20.7404 32.6192 20.8675 32.3191 20.9158 31.9678ZM11.138 34.6079C11.0808 34.2822 10.9741 33.9501 10.5393 33.9463C10.097 33.9425 9.9012 34.2388 9.88467 34.6399C9.86942 35.0154 10.0372 35.3143 10.4364 35.3807C10.7592 35.4343 11.1304 35.0179 11.138 34.6079ZM7.98174 31.8273C8.86139 32.5132 9.65841 33.0305 10.5647 33.3485C12.1308 33.899 13.7083 33.8786 15.2909 33.4175C15.61 33.3243 15.9303 33.1646 16.1223 33.6461C16.2227 33.899 16.5049 33.9208 16.735 33.825C17.0121 33.71 17.171 33.4367 17.1023 33.1646C16.9892 32.7112 17.1812 32.457 17.5066 32.2067C17.7189 32.0432 17.9273 31.8478 18.0672 31.6217C18.6188 30.7263 19.4756 30.5743 20.4137 30.5935C21.5489 30.6152 22.6294 30.4083 23.6463 29.8782C24.2488 29.564 24.7293 29.1119 25.1831 28.6035C25.9471 30.748 25.6535 32.6294 22.8353 33.5261C21.8908 33.8262 20.9031 33.6921 19.9409 33.8199C19.2646 33.9105 18.6722 34.1737 18.2845 34.7331C16.36 37.5099 11.6274 37.5073 9.28596 35.3487C8.27411 34.4151 8.10504 33.2195 7.98047 31.8248" fill="#0F75BC"/>
</g>
</svg>
