<svg width="141" height="204" viewBox="0 0 141 204" fill="none" xmlns="http://www.w3.org/2000/svg">
<g id="Isolation_Mode" clip-path="url(#clip0_598_8639)">
<g id="g268">
<path id="path270" d="M70.522 34.9078C61.5127 49.4461 51.8535 63.0697 41.5555 76.2523C34.5617 85.2024 28.0965 94.439 23.4046 104.844C17.6223 117.663 14.9018 130.823 17.8756 144.921C23.9443 173.711 52.9108 192.614 81.7452 186.387C111.802 179.895 130.394 150.223 123.146 120.363C119.875 106.872 113.553 94.8689 105.337 83.8356C96.647 72.174 87.6266 60.755 79.5424 48.6525C76.5687 44.1885 73.65 39.6914 70.522 34.9078ZM70.5991 0.000280072C71.9979 2.79993 73.2976 5.33505 74.5531 7.90324C83.8048 26.9277 95.9311 44.1114 108.619 60.9203C116.12 70.8624 123.928 80.562 129.645 91.7165C136.429 104.943 141.286 118.754 140.989 133.811C140.493 159.007 129.59 178.704 108.685 192.736C100.381 198.313 91.1291 201.597 81.2276 203.152C44.6834 208.894 10.1879 184.733 1.98253 149.22C0.132196 141.217 -0.56168 133.094 0.484641 125.059C1.85037 114.522 5.26468 104.491 9.92356 94.8689C16.0363 82.2484 24.6602 71.3584 33.0638 60.292C43.8464 46.0843 54.0342 31.4468 62.6141 15.7621C65.3786 10.7139 67.8236 5.48937 70.5991 -0.0107422" fill="white"/>
</g>
<g id="g272">
<path id="path274" d="M99.3562 112.273C98.387 112.273 97.4067 112.328 97.4067 113.353C97.4067 114.323 98.387 114.521 99.213 114.51C99.9289 114.51 100.832 114.422 100.887 113.529C100.953 112.493 100.061 112.328 99.3562 112.273ZM86.8444 107.313C86.1726 105.913 84.906 105.505 83.5072 105.571C82.3838 105.626 80.985 106.001 81.1172 107.346C81.2604 108.845 82.8574 109.176 84.0799 109.187C85.2143 109.209 86.4479 108.812 86.8444 107.302M64.6183 124.574C65.7197 124.133 67.526 124.188 67.4159 122.579C67.2947 120.87 65.5876 120.573 64.1007 120.573C62.8671 120.573 61.4023 120.881 61.4023 122.314C61.4023 124.166 63.2196 124.199 64.6183 124.574ZM40.9054 126.282C39.2313 126.37 37.425 126.657 37.436 128.542C37.4581 130.702 39.6719 130.845 41.2248 131.132C42.976 131.452 45.1017 129.875 44.7933 128.707C44.2757 126.745 42.5905 126.392 40.8944 126.282M88.3093 119.713C86.7783 120.077 84.906 119.977 84.6086 122.072C84.4324 123.35 86.7343 124.783 88.6837 124.574C90.1706 124.419 92.1201 124.177 92.043 122.281C91.9659 120.253 89.9724 119.955 88.3093 119.702M60.1467 138.197C61.7327 138.208 63.2086 137.845 64.2989 137.183C66.711 135.706 66.8321 133.491 64.5963 131.738C62.2724 129.931 57.6906 129.743 55.2455 131.352C53.1088 132.774 52.9877 134.869 54.9922 136.489C56.4791 137.69 58.2413 138.164 60.1467 138.186M53.5053 112.681C55.0252 112.769 56.5452 112.868 58.0651 112.945C62.6358 113.177 66.4246 111.81 69.6958 108.349C73.2753 104.568 77.824 102.419 83.2098 102.496C88.089 102.562 93.0012 102.221 97.638 104.381C100.535 105.726 103.079 107.489 105.127 109.914C110.965 116.803 108.553 125.731 99.8078 129.909C95.8648 131.793 91.6354 132.344 87.3951 132.289C82.0534 132.223 77.802 133.689 74.4978 138.219C71.2157 142.716 66.1383 144.722 60.8516 145.681C51.2585 147.412 42.3813 145.549 35.2112 138.649C27.92 131.639 29.462 121.388 38.2621 116.362C42.987 113.673 48.0865 112.526 53.5163 112.681" fill="white"/>
</g>
<g id="g276">
<path id="path278" d="M99.5439 141.879C98.7729 141.934 98.3654 142.386 98.2773 143.091C98.1781 143.819 98.5416 144.37 99.2685 144.48C100.095 144.601 100.37 143.951 100.458 143.301C100.546 142.617 100.326 142.033 99.5439 141.89M107.375 135.838C107.176 135.034 106.857 134.163 105.833 134.086C104.665 133.987 104.104 134.813 104.038 135.861C103.971 136.819 104.412 137.624 105.48 137.701C106.659 137.789 107.121 136.963 107.386 135.838M61.3256 157.111C62.3719 156.671 63.0989 155.976 62.9226 154.775C62.7905 153.849 62.2398 153.099 61.1934 153.21C60.081 153.331 59.5744 154.168 59.5854 155.194C59.5854 156.274 60.2793 156.88 61.3256 157.1M90.0719 141.978C89.9067 140.479 89.334 139.167 87.6929 139.134C85.9307 139.09 85.1707 140.446 85.1046 142.022C85.0385 143.543 85.7765 144.744 87.4506 144.811C89.2899 144.877 89.8626 143.543 90.0719 141.989M46.4789 153.717C46.2256 152.273 45.7409 150.796 43.8025 150.785C41.831 150.774 40.9609 152.085 40.8838 153.86C40.8177 155.524 41.5667 156.858 43.3399 157.144C44.7827 157.376 46.4348 155.535 46.4679 153.717M32.3921 141.372C36.313 144.414 39.8705 146.717 43.9126 148.128C50.8954 150.575 57.9333 150.487 64.9822 148.437C66.403 148.029 67.8348 147.313 68.6939 149.451C69.1455 150.575 70.4011 150.674 71.4254 150.245C72.6589 149.738 73.3638 148.525 73.0664 147.313C72.5598 145.296 73.4189 144.171 74.8617 143.058C75.8089 142.331 76.7451 141.46 77.3619 140.468C79.818 136.489 83.6398 135.816 87.8251 135.894C92.8804 135.993 97.7045 135.067 102.242 132.719C104.93 131.33 107.066 129.313 109.093 127.054C112.496 136.577 111.186 144.932 98.6297 148.911C94.4224 150.245 90.0168 149.649 85.7324 150.211C82.7146 150.608 80.0823 151.788 78.3531 154.268C69.7733 166.591 48.6706 166.591 38.2295 157.001C33.7138 152.857 32.9648 147.544 32.4031 141.35" fill="white"/>
</g>
</g>
<defs>
<clipPath id="clip0_598_8639">
<rect width="141" height="204" fill="white"/>
</clipPath>
</defs>
</svg>
