<svg fill="none" height="24" viewBox="0 0 24 24" width="24" xmlns="http://www.w3.org/2000/svg"><g stroke="#fff" stroke-linecap="round" stroke-linejoin="round" stroke-miterlimit="10" stroke-width="1.5"><path d="m12 15c2.7614 0 5-2.2386 5-5 0-2.76142-2.2386-5-5-5-2.76142 0-5 2.23858-5 5 0 2.7614 2.23858 5 5 5z"/><path d="m12 5v-2"/><path d="m7 9.70005c.5-.6 1.3-.9 2.2-.9 1.6 0 2.8 1.1 2.8 2.49995"/><path d="m12 11.3c0-1.39995 1.2-2.49995 2.8-2.49995.9 0 1.7.4 2.2.9"/><path d="m12 21v-2"/><path d="m18.4 21-1.9-3.2"/><path d="m4.2 14.5-1.2.7"/><path d="m21 15.2-1.2-.7"/><path d="m7.49998 17.8-1.9 3.2"/></g></svg>