<svg fill="none" height="24" viewBox="0 0 24 24" width="24" xmlns="http://www.w3.org/2000/svg"><g stroke="#fff" stroke-linecap="round" stroke-linejoin="round" stroke-width="1.5"><path d="m21 3-2.6 2.6" stroke-miterlimit="10"/><path d="m14.4 14.4-4.9.1.1-4.9c0-1.1.9-2.1 2.1-2.1.6 0 1.1.2 1.4.6.4.4.6.8.6 1.4v.8h.8c1.1 0 2 .8 2 2s-1 2.1-2.1 2.1z"/><path d="m5.63231 18.3677c3.50975 3.5097 9.22559 3.5097 12.73539 0 3.5097-3.5098 3.5097-9.22564 0-12.73539-3.5098-3.50975-9.22564-3.50975-12.73539 0s-3.50975 9.22559 0 12.73539z" stroke-miterlimit="10"/></g></svg>