<svg fill="none" height="24" viewBox="0 0 24 24" width="24" xmlns="http://www.w3.org/2000/svg"><g stroke="#fff" stroke-linecap="round" stroke-linejoin="round" stroke-miterlimit="10" stroke-width="1.5"><path d="m12 21c4.9706 0 9-4.0294 9-9 0-4.97056-4.0294-9-9-9-4.97056 0-9 4.02944-9 9 0 4.9706 4.02944 9 9 9z"/><path d="m21 3-2.6 2.6"/><path d="m10.2 20.8c-1.70002-.3-3.30002-1.2-4.60002-2.5s-2.1-2.9-2.5-4.6c2-1.6 4.9-1.5 6.7.3 1.90002 2 2.00002 4.9.40002 6.8z"/><path d="m13.7 20.8c-1.2.2-2.4.2-3.5 0-1.70005-.3-3.30005-1.2-4.60005-2.5s-2.1-2.9-2.5-4.6c-.2-1.2-.2-2.4 0-3.5 2.9-2.59996 7.40005-2.49996 10.20005.3 2.9 2.9 3 7.4.4 10.3z"/></g></svg>