<svg fill="none" height="24" viewBox="0 0 24 24" width="24" xmlns="http://www.w3.org/2000/svg"><g stroke="#fff" stroke-linecap="round" stroke-linejoin="round" stroke-miterlimit="10" stroke-width="1.5"><path d="m21 12c0 1.8-.6 3.6-1.5 5-.7 1-1.5 1.8-2.5 2.5-1.4 1-3.1 1.5-5 1.5-1.8 0-3.5-.5-5-1.5-1-.7-1.8-1.5-2.5-2.5-1-1.4-1.5-3.2-1.5-5 0-5 4-9 9-9s9 4 9 9z"/><path d="m17 19.5c-1.4 1-3.1 1.5-5 1.5-1.8 0-3.5-.5-5-1.5.3-2.5 2.4-4.5 5-4.5s4.7 2 5 4.5z"/><path d="m19.5 17c-.7 1-1.5 1.8-2.5 2.5-1.4 1-3.1 1.5-5 1.5-1.8 0-3.5-.5-5-1.5-1-.7-1.8-1.5-2.5-2.5.2-3.9 3.5-7 7.5-7s7.2 3.1 7.5 7z"/><path d="m12 3v-2"/></g></svg>