<svg fill="none" height="24" viewBox="0 0 24 24" width="24" xmlns="http://www.w3.org/2000/svg"><g stroke="#fff" stroke-linecap="round" stroke-linejoin="round" stroke-miterlimit="10" stroke-width="1.5"><path d="m12 21c4.9706 0 9-4.0294 9-9 0-4.97056-4.0294-9-9-9-4.97056 0-9 4.02944-9 9 0 4.9706 4.02944 9 9 9z"/><path d="m21 3-2.6 2.6"/><path d="m3.90002 8.00003c1-.2 2 .1 2.8.8 1.2 1.19997 1.2 3.09997 0 4.19997"/><path d="m6.69995 13.1c1.2-1.2 3.1-1.2 4.20005 0 1.1 1.2 1.2 3.1 0 4.2"/><path d="m10.9 17.2999c1.2-1.2 3.1-1.2 4.2 0 .7.7 1 1.8.8 2.8"/><path d="m8.5 3.6999c.9-.1 1.8.2 2.5.9 1.2 1.2 1.2 3.1 0 4.2"/><path d="m10.9 8.7999c1.2-1.2 3.1-1.2 4.2 0s1.2 3.1 0 4.2"/><path d="m15.2 13.1c1.2-1.2 3.1-1.2 4.2 0 .7.7 1 1.6.9 2.5"/></g></svg>