<svg fill="none" height="24" viewBox="0 0 24 24" width="24" xmlns="http://www.w3.org/2000/svg"><g stroke="#fff" stroke-linecap="round" stroke-linejoin="round" stroke-width="1.5"><path d="m12 16.5v.3c-.1 2.3-2.1 4.2-4.5 4.2-2.5 0-4.5-2-4.5-4.5h3.6c0-1.5 1.2-2.7 2.7-2.7 1.4 0 2.5 1.1 2.7 2.4z" stroke-miterlimit="10"/><path d="m12 16.5v.3c.1 2.4 2.1 4.2 4.5 4.2 2.5 0 4.5-2 4.5-4.5h-3.6c0-1.5-1.2-2.7-2.7-2.7-1.4 0-2.5 1.1-2.7 2.4z" stroke-miterlimit="10"/><path d="m15.8 7-3.8 4-3.79998-4c-.9-.9-.9-2.4 0-3.3.4-.5 1-.7 1.5-.7.59998 0 1.09998.2 1.59998.7l.7.7.7-.7c.9-.9 2.3-.9 3.2 0 .8.9.8 2.4-.1 3.3z"/></g></svg>