<svg fill="none" height="24" viewBox="0 0 24 24" width="24" xmlns="http://www.w3.org/2000/svg"><g stroke="#fff" stroke-linecap="round" stroke-linejoin="round" stroke-width="1.5"><path d="m3 17v-10c0-2.2 1.8-4 4-4h10c2.2 0 4 1.8 4 4v10c0 2.2-1.8 4-4 4h-10c-2.2 0-4-1.8-4-4z"/><path d="m15.5 5v-4"/><path d="m8.5 5v-4"/><path d="m8.80005 13c1.1 0 1.99995-.9 1.99995-2s-.89995-2-1.99995-2-2 .9-2 2"/><path d="m6.80005 15c0 1.1.9 2 2 2s1.99995-.9 1.99995-2-.89995-2-1.99995-2"/><path d="m17.2 17v-8l-3.4 3.4"/></g></svg>