<svg fill="none" height="24" viewBox="0 0 24 24" width="24" xmlns="http://www.w3.org/2000/svg"><path d="m7.72 4.76988 2.77 2.84m-.49 1.95-3.79 1.00002m7.2-7.35002-1 3.88m-.5 4.80002-2.8 2.82m6.28.74-2.8 2.83m-4.87-4.98 6.93 7.11c.1784.1879.3932.3375.6314.4398.2381.1022.4945.1549.7536.1549s.5155-.0527.7537-.1549c.2381-.1023.4529-.2519.6313-.4398.3667-.3818.5715-.8907.5715-1.42 0-.5294-.2048-1.0382-.5715-1.42l-6.93-7.12c-.3667-.3818-.57145-.89066-.57145-1.42002s.20475-1.0382.57145-1.42c.179-.18508.3935-.33226.6305-.43277.2371-.10052.492-.15232.7495-.15232s.5124.0518.7495.15232c.237.10051.4515.24769.6305.43277.1796.18232.3936.3271.6297.42593.236.09882.4894.14971.7453.14971s.5093-.05089.7453-.14971c.2361-.09883.4501-.24361.6297-.42593.3667-.3818.5715-.89064.5715-1.42s-.2048-1.0382-.5715-1.42c-.5384-.56017-1.1844-1.00583-1.8992-1.31025-.7149-.30442-1.4838-.46134-2.2608-.46134s-1.5459.15692-2.26076.46134c-.71484.30442-1.36083.75008-1.89924 1.31025-1.09763 1.15104-1.70665 2.68257-1.69919 4.27306.00746 1.59046.63081 3.11626 1.73919 4.25696z" stroke="#fff" stroke-linecap="round" stroke-linejoin="round" stroke-width="1.5"/></svg>