<svg fill="none" height="24" viewBox="0 0 24 24" width="24" xmlns="http://www.w3.org/2000/svg"><g stroke="#fff" stroke-linecap="round" stroke-linejoin="round" stroke-miterlimit="10" stroke-width="1.5"><path d="m21 12h-18"/><path d="m11 8h2c1 0 1.7-1.1 1.3-2l-1.1-2.2c-.5-1.1-2.1-1-2.6.1l-.90002 2.2c-.4.9.3 1.9 1.30002 1.9z"/><path d="m12 8v4"/><path d="m17.6 16.0001h-2c-1 0-1.7 1.1-1.3 2l1.2 2.2c.5 1.1 2.1 1 2.5-.1l.9-2.2c.4-.9-.3-1.9-1.3-1.9z"/><path d="m16.6 16v-4"/><path d="m8.4 16.0001h-2c-1 0-1.7 1.1-1.3 2l1.1 2.2c.5 1.1 2.1 1 2.6-.1l.9-2.2c.4-.9-.3-1.9-1.3-1.9z"/><path d="m7.40002 16v-4"/></g></svg>