<svg fill="none" height="24" viewBox="0 0 24 24" width="24" xmlns="http://www.w3.org/2000/svg"><g stroke="#fff" stroke-linecap="round" stroke-linejoin="round" stroke-miterlimit="10" stroke-width="1.5"><path d="m15.2 12.2-3.2-3.2-3.2 3.2c-.9.9-1.3 2.1-1.3 3.2s.5 2.3 1.3 3.2c.9.9 2 1.4 3.2 1.4s2.3-.5 3.2-1.3c1.8-1.8 1.8-4.7 0-6.5z"/><g fill="#fff"><path d="m12 4c.2761 0 .5-.22386.5-.5s-.2239-.5-.5-.5-.5.22386-.5.5.2239.5.5.5z"/><path d="m3.5 12.5c.27614 0 .5-.2239.5-.5s-.22386-.5-.5-.5-.5.2239-.5.5.22386.5.5.5z"/><path d="m20.5 12.5c.2761 0 .5-.2239.5-.5s-.2239-.5-.5-.5-.5.2239-.5.5.2239.5.5.5z"/><path d="m18 6.5c.2761 0 .5-.22386.5-.5s-.2239-.5-.5-.5-.5.22386-.5.5.2239.5.5.5z"/><path d="m6 6.5c.27614 0 .5-.22386.5-.5s-.22386-.5-.5-.5-.5.22386-.5.5.22386.5.5.5z"/></g></g></svg>