<svg fill="none" height="24" viewBox="0 0 24 24" width="24" xmlns="http://www.w3.org/2000/svg"><g stroke="#fff" stroke-linecap="round" stroke-linejoin="round" stroke-width="1.5"><g stroke-miterlimit="10"><path d="m12 5.5c0-1.4 1.1-2.5 2.5-2.5s2.5 1.1 2.5 2.5-1.1 2.5-2.5 2.5"/><path d="m12 5.5c0-1.4-1.1-2.5-2.5-2.5s-2.5 1.1-2.5 2.5 1.1 2.5 2.5 2.5"/><path d="m19 21h-14c-1.1 0-2-.9-2-2v-9c0-1.1.9-2 2-2h14c1.1 0 2 .9 2 2v9c0 1.1-.9 2-2 2z"/></g><path d="m15 14.5001-3 3-3.00002-3c-.7-.7-.7-1.8 0-2.5.3-.3.8-.5 1.20002-.5.4 0 .9.2 1.2.5l.5.5.5-.5c.7-.7 1.8-.7 2.5 0 .8.7.8 1.8.1 2.5z"/></g></svg>