<svg fill="none" height="24" viewBox="0 0 24 24" width="24" xmlns="http://www.w3.org/2000/svg"><g stroke="#fff" stroke-linecap="round" stroke-linejoin="round" stroke-miterlimit="10" stroke-width="1.5"><path d="m10 17.5c0 1.1.9 2 2 2s2-.9 2-2"/><path d="m10 14c0-1.1-.9-2-2-2s-2 .9-2 2"/><path d="m18 14c0-1.1-.9-2-2-2s-2 .9-2 2"/><path d="m3 17.5c0 1.9 1.6 3.5 3.5 3.5s3.5-1.6 3.5-3.5"/><path d="m14 17.5c0 1.9 1.6 3.5 3.5 3.5s3.5-1.6 3.5-3.5"/><path d="m3 9.8c2.6-1.8 5.7-2.8 9-2.8s6.4 1 9 2.8"/><path d="m18 8.2v-5.2"/><path d="m6 8.2v-5.2"/></g></svg>