<svg fill="none" height="24" viewBox="0 0 24 24" width="24" xmlns="http://www.w3.org/2000/svg"><g stroke="#fff" stroke-linecap="round" stroke-linejoin="round" stroke-miterlimit="10" stroke-width="1.5"><path d="m18 15c0 3.3-2.7 6-6 6s-6-2.7-6-6c0-2.3 1.2-4.2 3.1-5.19995.7.69995 1.8 1.19995 2.9 1.19995s2.2-.5 2.9-1.19995c1.8.99995 3.1 2.89995 3.1 5.19995z"/><path d="m16 7c0 1.1-.4 2-1.1 2.8-.7.7-1.8 1.2-2.9 1.2s-2.2-.5-2.9-1.2c-.7-.8-1.1-1.7-1.1-2.8 0-2.2 1.8-4 4-4s4 1.8 4 4z"/><path d="m17.5 12.6 1.5-2.3v-2.3"/><path d="m19 10.3h2"/><path d="m6.5 12.6-1.5-2.3v-2.3"/><path d="m5 10.3h-2"/></g></svg>