<svg fill="none" height="24" viewBox="0 0 24 24" width="24" xmlns="http://www.w3.org/2000/svg"><g stroke="#fff" stroke-linecap="round" stroke-linejoin="round" stroke-miterlimit="10" stroke-width="1.5"><path d="m8.4 21c-2-1.2-3.4-3.5-3.4-6 0-2.6 1.4-4.8 3.5-6.1 1-.6 2.2-.9 3.5-.9 3.9 0 7 3.1 7 7 0 2.5-1.4 4.8-3.4 6"/><path d="m4 10.2c2.4-1.4 5.1-2.2 8-2.2s5.7.8 8 2.2"/><path d="m7 8.8v-5.8h10v5.8"/><path d="m9.5 14c.27614 0 .5-.2239.5-.5s-.22386-.5-.5-.5-.5.2239-.5.5.22386.5.5.5z" fill="#fff"/><path d="m14.5 14c.2761 0 .5-.2239.5-.5s-.2239-.5-.5-.5-.5.2239-.5.5.2239.5.5.5z" fill="#fff"/><path d="m11 17h2l-1 4z"/></g></svg>