<svg fill="none" height="24" viewBox="0 0 24 24" width="24" xmlns="http://www.w3.org/2000/svg"><g stroke="#fff" stroke-linecap="round" stroke-linejoin="round" stroke-width="1.5"><path d="m12 21v-7"/><path d="m12 10v-7"/><path d="m16.5 19.8-3.5-6.1"/><path d="m11 10.3-3.5-6.10005"/><path d="m11 13.7-3.5 6.1"/><path d="m16.5 4.19995-3.5 6.10005"/><path d="m19.8 7.5-6.1 3.5"/><path d="m10.3 13-6.10005 3.5"/><path d="m19.8 16.5-6.1-3.5"/><path d="m10.3 11-6.10005-3.5"/><path d="m14 12c0 .4-.1.7-.3 1s-.4.5-.7.7-.6.3-1 .3-.7-.1-1-.3-.5-.4-.7-.7-.3-.6-.3-1 .1-.7.3-1 .4-.5.7-.7.6-.3 1-.3.7.1 1 .3.5.4.7.7.3.6.3 1z"/><path d="m21 12h-7"/><path d="m10 12h-7"/></g></svg>