<svg fill="none" height="24" viewBox="0 0 24 24" width="24" xmlns="http://www.w3.org/2000/svg"><g stroke="#fff" stroke-linecap="round" stroke-linejoin="round" stroke-miterlimit="10" stroke-width="1.5"><path d="m5 10.5c0 3 1.8 5.6 4.4 6.8 1 .5 2 .7 3.1.7s2.2-.2 3.1-.7c.8-.4 1.5-.9 2.2-1.5 1.4-1.4 2.2-3.2 2.2-5.3 0-1.3-.3-2.4-.9-3.5-1.2-2.4-3.8-4-6.6-4-.3 0-.7 0-1 .1-3 .4-5.5 2.6-6.2 5.5-.2.6-.3 1.2-.3 1.9z"/><path d="m8.9 17.1001-1.4 3.9h10l-1.4-3.9"/><path d="m20 11c0-.2 0-.4 0-.5s0-.4 0-.50005c-.3-2.7-2.6-4.8-5.3-4.8-2.9 0-5.2 2.2-5.3 5.00005v.3.3"/><path d="m15.7 10.5c0 1.8-1.4 3.2-3.2 3.2s-3.20005-1.4-3.20005-3.2"/></g></svg>