<svg fill="none" height="24" viewBox="0 0 24 24" width="24" xmlns="http://www.w3.org/2000/svg"><g stroke="#fff" stroke-linecap="round" stroke-linejoin="round" stroke-miterlimit="10" stroke-width="1.5"><path d="m12 3c0 1.1-.9 2-2 2"/><path d="m14 5c-1.1 0-2-.9-2-2"/><path d="m12 6c0 1.7-1.3 3-3 3"/><path d="m15 9c-1.7 0-3-1.3-3-3"/><path d="m12 9c0 2.2-1.8 4-4 4"/><path d="m16 13c-2.2 0-4-1.8-4-4"/><path d="m12 12c0 2.8-2.2 5-5 5"/><path d="m17 17c-2.8 0-5-2.2-5-5"/><path d="m12 20v-17"/><path d="m5 20.9999c3.9-1.3 10.1-1.3 14 0"/></g></svg>