<svg fill="none" height="24" viewBox="0 0 24 24" width="24" xmlns="http://www.w3.org/2000/svg"><g stroke="#fff" stroke-linecap="round" stroke-linejoin="round" stroke-miterlimit="10"><path d="m21.1 16c0 .6-.6 1.1-1.7 1.5-.9.3-2 .5-3.3.5s-2.4-.2-3.3-.5c-1-.4-1.7-.9-1.7-1.5 0-1.1 2.2-2 5-2s5 .9 5 2z"/><path d="m21.1 16v3c0 .6-.7 1.1-1.7 1.5-.9.3-2 .5-3.3.5s-2.4-.2-3.3-.5c-1-.4-1.7-.9-1.7-1.5v-3c0 .6.7 1.1 1.7 1.5.9.3 2.1.5 3.3.5 1.3 0 2.4-.2 3.3-.5 1-.4 1.7-.9 1.7-1.5z"/><path d="m13.1 7h-2l-2.00002-4h6.00002z"/><path d="m17.4 10c-1.1-1.8-3.1-3-5.3-3-1.5 0-2.89998.5-3.89998 1.4-1.1.8-1.9 2.1-2.2 3.5l-.9 4.3c-.5 2.2.9 4.2 3 4.7"/></g></svg>