<svg fill="none" height="24" viewBox="0 0 24 24" width="24" xmlns="http://www.w3.org/2000/svg"><g stroke="#fff" stroke-linecap="round" stroke-linejoin="round"><path d="m15.8 3h1.2c2.2 0 4 1.8 4 4v1.1"/><path d="m3 8.3v-1.3c0-2.2 1.8-4 4-4h1.1"/><path d="m8.3 20.9999h-1.3c-2.2 0-4-1.8-4-4v-1.1"/><path d="m20.9999 15.7998v1.2c0 2.2-1.8 4-4 4h-1.1"/><g stroke-miterlimit="10"><path d="m17 10.5c0 .6-.6 1.1-1.7 1.5-.9.3-2 .5-3.3.5s-2.4-.2-3.3-.5c-1-.4-1.7-.9-1.7-1.5 0-1.1 2.2-2 5-2s5 .9 5 2z"/><path d="m17 10.5v3c0 .6-.7 1.1-1.7 1.5-.9.3-2 .5-3.3.5s-2.4-.2-3.3-.5c-1-.4-1.7-.9-1.7-1.5v-3c0 .6.7 1.1 1.7 1.5.9.3 2.1.5 3.3.5 1.3 0 2.4-.2 3.3-.5 1.1-.4 1.7-.9 1.7-1.5z"/></g></g></svg>