<svg fill="none" height="24" viewBox="0 0 24 24" width="24" xmlns="http://www.w3.org/2000/svg"><g stroke="#fff" stroke-linecap="round" stroke-linejoin="round"><g stroke-miterlimit="10"><path d="m21 16c0 .6-.6 1.1-1.7 1.5-.9.3-2 .5-3.3.5s-2.4-.2-3.3-.5c-1-.4-1.7-.9-1.7-1.5 0-1.1 2.2-2 5-2s5 .9 5 2z"/><path d="m21 16v3c0 .6-.7 1.1-1.7 1.5-.9.3-2 .5-3.3.5s-2.4-.2-3.3-.5c-1-.4-1.7-.9-1.7-1.5v-3c0 .6.7 1.1 1.7 1.5.9.3 2.1.5 3.3.5 1.3 0 2.4-.2 3.3-.5 1.1-.4 1.7-.9 1.7-1.5z"/><path d="m8 13c-1.3 0-2.4-.2-3.3-.5-1-.4-1.7-.9-1.7-1.5 0-1.1 2.2-2 5-2s5 .9 5 2"/><path d="m8 13c-1.3 0-2.4-.2-3.3-.5-1.1-.4-1.7-.9-1.7-1.5v3c0 .6.7 1.1 1.7 1.5.9.3 2 .5 3.3.5"/></g><path d="m16 8 5-5"/><path d="m17.3 3h3.7v3.7"/></g></svg>