<svg fill="none" height="24" viewBox="0 0 24 24" width="24" xmlns="http://www.w3.org/2000/svg"><g stroke="#fff" stroke-linecap="round" stroke-linejoin="round" stroke-miterlimit="10"><path d="m10 8.5c0 2.2 1.3 4.2 3.2 5 .7.3 1.5.5 2.3.5s1.6-.2 2.3-.5c1.9-.8 3.2-2.8 3.2-5 0-3-2.5-5.5-5.5-5.5s-5.5 2.5-5.5 5.5z"/><path d="m10 15.5c0 .6.7 1.2 1.8 1.6 1 .3 2.2.6 3.7.6 1.4 0 2.7-.2 3.6-.6 1.1-.4 1.9-1 1.9-1.6 0-.9-1.3-1.7-3.2-2-.7.3-1.5.5-2.3.5s-1.6-.2-2.3-.5c-1.9.4-3.2 1.1-3.2 2z"/><path d="m10 15.5v3.3c0 .7.7 1.3 1.9 1.7 1 .3 2.2.5 3.6.5s2.7-.2 3.6-.5c1.1-.4 1.9-1 1.9-1.7v-3.3c0 .6-.7 1.2-1.8 1.6-1 .3-2.3.6-3.7.6s-2.7-.2-3.7-.6c-1.1-.3-1.8-.9-1.8-1.6z"/><path d="m2.9999 10.9998c.8-.1 1.5-.3 2.1-.5 1.1-.4 1.8-1 1.8-1.6 0-1-1.7-1.9-4-2.1"/><path d="m3 20.9c2.3-.3 4-1.1 4-2.1v-3.3c0 .7-.7 1.2-1.9 1.7-.6.2-1.3.4-2.1.5"/><path d="m3 14.2999c.8-.1 1.5-.2 2.1-.5 1.1-.4 1.9-1 1.9-1.7v-3.2c0 .7-.7 1.2-1.8 1.6-.7.3-1.4.4-2.2.5"/><path d="m3 17.6001c.8-.1 1.5-.2 2.1-.5 1.1-.4 1.9-1 1.9-1.7v-3.3c0 .7-.7 1.2-1.9 1.7-.6.2-1.3.4-2.1.5"/></g></svg>