<svg fill="none" height="24" viewBox="0 0 24 24" width="24" xmlns="http://www.w3.org/2000/svg"><g stroke="#fff" stroke-linecap="round" stroke-linejoin="round"><path d="m13 4.6c1.4 0 2.8.4 4 1.1.7.4 1.4.9 1.9 1.5m-1-4.2 1.1 4.2"/><path d="m11 19.3998c-1.4 0-2.8-.4-4-1.1-.7-.4-1.4-.9-1.9-1.5m1 4.2-1.1-4.2"/><path d="m21 12-3 3-3-3"/><path d="m18 15v6"/><path d="m15 16h6"/><path d="m2.1001 9h4"/><path d="m2.1001 6h4"/><path d="m9.0001 9.9c-.4 1.2-1.5 2.1-2.9 2.1-.8 0-1.6-.3-2.1-.9s-.9-1.3-.9-2.1v-3c0-1.7 1.3-3 3-3 .8 0 1.6.3 2.1.9.3.3.6.8.8 1.2"/></g></svg>