<svg fill="none" height="24" viewBox="0 0 24 24" width="24" xmlns="http://www.w3.org/2000/svg"><g stroke="#fff" stroke-linecap="round" stroke-linejoin="round"><path d="m13 4.6c1.4 0 2.8.4 4 1.1.7.4 1.4.9 1.9 1.5m-1-4.2 1.1 4.2"/><path d="m11 19.3998c-1.4 0-2.8-.4-4-1.1-.7-.4-1.4-.9-1.9-1.5m1 4.2-1.1-4.2"/><path d="m17.5 12v1m2.4 1.5c-.2-.9-1-1.5-1.9-1.5h-1c-1.1 0-2 .9-2 2s.9 2 2 2h1c1.1 0 2 .9 2 2s-.9 2-2 2h-1c-.9 0-1.7-.7-1.9-1.5m2.4 1.5v1"/><path d="m3 12h6"/><path d="m3 8h4"/><path d="m5 12v-7c0-1.1.9-2 2-2s2 .9 2 2"/></g></svg>