<svg fill="none" height="24" viewBox="0 0 24 24" width="24" xmlns="http://www.w3.org/2000/svg"><g stroke="#fff" stroke-linecap="round" stroke-linejoin="round"><path d="m13 4.6c1.4 0 2.8.4 4 1.1.7.4 1.4.9 1.9 1.5m-1-4.2 1.1 4.2"/><path d="m11 19.3998c-1.4 0-2.8-.4-4-1.1-.7-.4-1.4-.9-1.9-1.5m1 4.2-1.1-4.2"/><path d="m14 18h4"/><path d="m14 15h4"/><path d="m21 18.9c-.4068 1.2-1.5254 2.1-2.9492 2.1-.8135 0-1.6271-.3-2.1355-.9-.5085-.6-.9153-1.3-.9153-2.1v-3c0-1.7 1.322-3 3.0508-3 .8136 0 1.6272.3 2.1356.9.3051.3.6102.8.8136 1.2"/><path d="m6.5 3v1m2.4 1.5c-.2-.9-1-1.5-1.9-1.5h-1c-1.1 0-2 .9-2 2s.9 2 2 2h1c1.1 0 2 .9 2 2s-.9 2-2 2h-1c-.9 0-1.7-.7-1.9-1.5m2.4 1.5v1"/></g></svg>