<svg fill="none" height="24" viewBox="0 0 24 24" width="24" xmlns="http://www.w3.org/2000/svg"><g stroke="#fff" stroke-linecap="round" stroke-linejoin="round"><path d="m4 7.9c.4-.8 1-1.6 1.6-2.2 1.7-1.7 3.9-2.7 6.4-2.7 2.3 0 4.4.9 6 2.3s2.7 3.4 2.9 5.7"/><path d="m4 7.9v-4.9"/><path d="m19.9 16.1c-.4.8-1 1.6-1.6 2.2-1.6 1.7-3.9 2.7-6.4 2.7-2.3 0-4.4-.9-6-2.3-1.6-1.5-2.7-3.5-2.9-5.7"/><path d="m20 16.1001v4.9"/><path d="m15 8-6 8m-1-6.5c0 .8.7 1.5 1.5 1.5s1.5-.7 1.5-1.5-.7-1.5-1.5-1.5-1.5.7-1.5 1.5zm5 5c0 .8.7 1.5 1.5 1.5s1.5-.7 1.5-1.5-.7-1.5-1.5-1.5-1.5.7-1.5 1.5z"/></g></svg>