<svg fill="none" height="24" viewBox="0 0 24 24" width="24" xmlns="http://www.w3.org/2000/svg"><g stroke="#fff" stroke-linecap="round" stroke-linejoin="round"><path d="m20.9 11c-.5-4.5-4.3-8-8.9-8-.7 0-1.4.1-2 .2-.3.1-.7.2-1 .3-3.2 1.1-5.6 4-5.9 7.5-.1.3-.1.6-.1 1 0 3.9 2.5 7.3 6 8.5"/><path d="m12 7v5"/><path d="m7 12h5"/><g stroke-miterlimit="10"><path d="m22 16c0 .6-.6 1.1-1.7 1.5-.9.3-2 .5-3.3.5s-2.4-.2-3.3-.5c-1-.4-1.7-.9-1.7-1.5 0-1.1 2.2-2 5-2s5 .9 5 2z"/><path d="m22 16v3c0 .6-.7 1.1-1.7 1.5-.9.3-2 .5-3.3.5s-2.4-.2-3.3-.5c-1-.4-1.7-.9-1.7-1.5v-3c0 .6.7 1.1 1.7 1.5.9.3 2.1.5 3.3.5 1.3 0 2.4-.2 3.3-.5 1-.4 1.7-.9 1.7-1.5z"/></g></g></svg>