<svg width="18" height="18" viewBox="0 0 18 18" fill="none" xmlns="http://www.w3.org/2000/svg">
<g id="2 User">
<path id="Stroke 1" fill-rule="evenodd" clip-rule="evenodd" d="M6.99464 11.6719C10.0688 11.6719 12.6963 12.1377 12.6963 13.9985C12.6963 15.8594 10.0863 16.3385 6.99464 16.3385C3.91964 16.3385 1.29297 15.8769 1.29297 14.0152C1.29297 12.1535 3.90214 11.6719 6.99464 11.6719Z" stroke="white" stroke-width="1.5" stroke-linecap="round" stroke-linejoin="round"/>
<path id="Stroke 3" fill-rule="evenodd" clip-rule="evenodd" d="M6.99484 9.01634C4.97651 9.01634 3.33984 7.38051 3.33984 5.36217C3.33984 3.34384 4.97651 1.70801 6.99484 1.70801C9.01234 1.70801 10.649 3.34384 10.649 5.36217C10.6565 7.37301 9.03151 9.00884 7.02068 9.01634H6.99484Z" stroke="white" stroke-width="1.5" stroke-linecap="round" stroke-linejoin="round"/>
<path id="Stroke 5" d="M12.7383 8.06741C14.0724 7.87991 15.0999 6.73491 15.1024 5.34908C15.1024 3.98324 14.1066 2.84991 12.8008 2.63574" stroke="white" stroke-width="1.5" stroke-linecap="round" stroke-linejoin="round"/>
<path id="Stroke 7" d="M14.4961 11.2764C15.7886 11.4689 16.6911 11.9222 16.6911 12.8555C16.6911 13.498 16.2661 13.9147 15.5794 14.1755" stroke="white" stroke-width="1.5" stroke-linecap="round" stroke-linejoin="round"/>
</g>
</svg>
