<svg width="18" height="18" viewBox="0 0 18 18" fill="none" xmlns="http://www.w3.org/2000/svg">
<g id="solar:document-bold">
<path id="Vector" fill-rule="evenodd" clip-rule="evenodd" d="M3.61162 2.76103C2.7793 3.59264 2.7793 4.93203 2.7793 7.61009V10.4508C2.7793 13.1288 2.7793 14.4682 3.61162 15.2998C4.44323 16.1322 5.78262 16.1322 8.46068 16.1322H9.88102C12.5591 16.1322 13.8985 16.1322 14.7301 15.2998C15.5624 14.4682 15.5624 13.1288 15.5624 10.4508V7.61009C15.5624 4.93203 15.5624 3.59264 14.7301 2.76103C13.8985 1.92871 12.5591 1.92871 9.88102 1.92871H8.46068C5.78262 1.92871 4.44323 1.92871 3.61162 2.76103ZM6.33016 7.07746C6.1889 7.07746 6.05342 7.13358 5.95353 7.23346C5.85365 7.33335 5.79753 7.46883 5.79753 7.61009C5.79753 7.75135 5.85365 7.88683 5.95353 7.98672C6.05342 8.0866 6.1889 8.14272 6.33016 8.14272H12.0115C12.1528 8.14272 12.2883 8.0866 12.3882 7.98672C12.4881 7.88683 12.5442 7.75135 12.5442 7.61009C12.5442 7.46883 12.4881 7.33335 12.3882 7.23346C12.2883 7.13358 12.1528 7.07746 12.0115 7.07746H6.33016ZM6.33016 9.91815C6.1889 9.91815 6.05342 9.97427 5.95353 10.0742C5.85365 10.174 5.79753 10.3095 5.79753 10.4508C5.79753 10.592 5.85365 10.7275 5.95353 10.8274C6.05342 10.9273 6.1889 10.9834 6.33016 10.9834H9.88102C10.0223 10.9834 10.1578 10.9273 10.2576 10.8274C10.3575 10.7275 10.4136 10.592 10.4136 10.4508C10.4136 10.3095 10.3575 10.174 10.2576 10.0742C10.1578 9.97427 10.0223 9.91815 9.88102 9.91815H6.33016Z" fill="white"/>
</g>
</svg>
