<svg width="13" height="12" viewBox="0 0 13 12" fill="none" xmlns="http://www.w3.org/2000/svg">
<path d="M12.1875 5.21485H2.55125L5.50063 1.78944C5.63854 1.629 5.70489 1.42215 5.68508 1.21441C5.66527 1.00666 5.56093 0.815036 5.395 0.681682C5.22907 0.548328 5.01516 0.484171 4.80031 0.503324C4.58547 0.522478 4.38729 0.623374 4.24937 0.783816L0.186875 5.49768C0.159543 5.53517 0.135102 5.57456 0.11375 5.61553C0.11375 5.65481 0.11375 5.67838 0.0568751 5.71766C0.0200473 5.80774 0.000764661 5.90363 0 6.00049C0.000764661 6.09735 0.0200473 6.19324 0.0568751 6.28332C0.0568751 6.32261 0.0568749 6.34617 0.11375 6.38546C0.135102 6.42642 0.159543 6.46581 0.186875 6.5033L4.24937 11.2172C4.32577 11.3059 4.42143 11.3772 4.52956 11.4261C4.63769 11.4749 4.75564 11.5002 4.875 11.5C5.06484 11.5004 5.24882 11.4364 5.395 11.3193C5.47727 11.2533 5.54528 11.1723 5.59513 11.0809C5.64498 10.9895 5.67569 10.8895 5.6855 10.7866C5.69531 10.6837 5.68403 10.5799 5.65231 10.4813C5.62058 10.3826 5.56904 10.2909 5.50063 10.2115L2.55125 6.78614H12.1875C12.403 6.78614 12.6097 6.70336 12.762 6.55603C12.9144 6.40869 13 6.20886 13 6.00049C13 5.79213 12.9144 5.59229 12.762 5.44496C12.6097 5.29762 12.403 5.21485 12.1875 5.21485Z" fill="#F9F9F9"/>
</svg>
