<svg width="16" height="17" viewBox="0 0 16 17" fill="none" xmlns="http://www.w3.org/2000/svg">
<path fill-rule="evenodd" clip-rule="evenodd" d="M0.571429 17H16V15.7857H1.14286V0H0V17H0.571429Z" fill="white"/>
<path d="M3 5C3 4.44772 3.44772 4 4 4C4.55228 4 5 4.44772 5 5V14H3V5Z" fill="white"/>
<path d="M6 3C6 2.44772 6.44772 2 7 2C7.55228 2 8 2.44772 8 3V14H6V3Z" fill="white"/>
<path d="M9 10C9 9.44772 9.44772 9 10 9C10.5523 9 11 9.44772 11 10V14H9V10Z" fill="white"/>
<path d="M12 6C12 5.44772 12.4477 5 13 5C13.5523 5 14 5.44772 14 6V14H12V6Z" fill="white"/>
</svg>
