<svg width="20" height="21" viewBox="0 0 20 21" fill="none" xmlns="http://www.w3.org/2000/svg">
<g clip-path="url(#clip0_1194_50829)">
<path fill-rule="evenodd" clip-rule="evenodd" d="M9.99746 1.77441C8.43259 1.77441 6.94351 2.43787 5.85369 3.60028C4.76634 4.76012 4.16412 6.32269 4.16412 7.94108C4.16412 10.9381 3.56286 12.8052 3.00551 13.8951C2.72602 14.4416 2.45391 14.8001 2.26504 15.0127C2.17039 15.1193 2.09603 15.1899 2.05128 15.2297C2.02888 15.2496 2.01386 15.2618 2.00736 15.267L2.00489 15.2689C1.71632 15.4803 1.59453 15.8529 1.7036 16.1945C1.81388 16.54 2.13486 16.7744 2.49745 16.7744H17.4975C17.8601 16.7744 18.181 16.54 18.2913 16.1945C18.4004 15.8529 18.2786 15.4803 17.99 15.2689L17.9876 15.267C17.9811 15.2618 17.966 15.2496 17.9436 15.2297C17.8989 15.1899 17.8245 15.1193 17.7299 15.0127C17.541 14.8001 17.2689 14.4416 16.9894 13.8951C16.4321 12.8052 15.8308 10.9381 15.8308 7.94108C15.8308 6.32269 15.2286 4.76014 14.1412 3.6003C13.0517 2.43913 11.5617 1.77441 9.99746 1.77441ZM2.00489 15.2689L2.00736 15.267L2.00489 15.2689ZM2.00736 15.267L2.00414 15.2695L2.00736 15.267ZM15.5055 14.6539C15.5887 14.8167 15.6724 14.9677 15.7553 15.1077H4.2396C4.32254 14.9677 4.40619 14.8167 4.4894 14.6539C5.18205 13.2995 5.83079 11.1665 5.83079 7.94108C5.83079 6.73114 6.28191 5.58037 7.06955 4.74022C7.8564 3.90096 8.91065 3.44108 9.99746 3.44108C11.0831 3.44108 12.1383 3.90154 12.9253 4.7402L14.2156 9.46694C14.382 11.8571 14.9285 13.5256 15.5055 14.6539ZM14.2156 9.46694C14.1822 8.98795 14.1641 8.4795 14.1641 7.94108C14.1641 6.73126 13.7128 5.58034 12.9253 4.7402L14.2156 9.46694Z" fill="#5C5E64"/>
<path d="M9.27698 18.0236C9.04639 17.6253 8.53657 17.4893 8.13827 17.7199C7.73996 17.9505 7.604 18.4603 7.8346 18.8586C8.05414 19.2378 8.36954 19.5527 8.74915 19.7715C9.12877 19.9904 9.55926 20.1056 9.99746 20.1056C10.4356 20.1056 10.8661 19.9904 11.2458 19.7715C11.6254 19.5527 11.9408 19.2378 12.1603 18.8586C12.3909 18.4603 12.2549 17.9505 11.8566 17.7199C11.4583 17.4893 10.9485 17.6253 10.7179 18.0236C10.6448 18.1499 10.5397 18.2548 10.4133 18.3277C10.2868 18.4006 10.1434 18.439 9.99746 18.439C9.85149 18.439 9.70809 18.4006 9.58163 18.3277C9.45518 18.2548 9.35012 18.1499 9.27698 18.0236Z" fill="#5C5E64"/>
</g>
<defs>
<clipPath id="clip0_1194_50829">
<rect width="20" height="20" fill="white" transform="translate(0 0.941895)"/>
</clipPath>
</defs>
</svg>
