<svg width="18" height="18" viewBox="0 0 18 18" fill="none" xmlns="http://www.w3.org/2000/svg">
<path d="M14.999 8.57077V13.5705C14.999 13.9493 14.8485 14.3127 14.5806 14.5806C14.3127 14.8485 13.9493 14.999 13.5705 14.999H3.57106C3.19221 14.999 2.82887 14.8485 2.56097 14.5806C2.29308 14.3127 2.14258 13.9493 2.14258 13.5705V8.57077H14.999ZM11.4277 2.14258C11.6172 2.14258 11.7988 2.21783 11.9328 2.35178C12.0667 2.48572 12.142 2.66739 12.142 2.85682V3.57106H13.5705C13.9493 3.57106 14.3127 3.72157 14.5806 3.98946C14.8485 4.25735 14.999 4.62069 14.999 4.99955V7.14228H2.14258V4.99955C2.14258 4.62069 2.29308 4.25735 2.56097 3.98946C2.82887 3.72157 3.19221 3.57106 3.57106 3.57106H4.99955V2.85682C4.99955 2.66739 5.0748 2.48572 5.20875 2.35178C5.34269 2.21783 5.52436 2.14258 5.71379 2.14258C5.90322 2.14258 6.08489 2.21783 6.21884 2.35178C6.35279 2.48572 6.42804 2.66739 6.42804 2.85682V3.57106H10.7135V2.85682C10.7135 2.66739 10.7887 2.48572 10.9227 2.35178C11.0566 2.21783 11.2383 2.14258 11.4277 2.14258Z" fill="#363636"/>
</svg>
