<svg width="69" height="65" viewBox="0 0 69 65" fill="none" xmlns="http://www.w3.org/2000/svg">
<path d="M54.6667 0C58.2913 0 61.7675 1.43988 64.3305 4.00287C66.8935 6.56587 68.3333 10.042 68.3333 13.6667V41C68.3333 44.6246 66.8935 48.1008 64.3305 50.6638C61.7675 53.2268 58.2913 54.6667 54.6667 54.6667H38.5263L22.2562 64.4281C21.7662 64.7221 21.2103 64.8886 20.6393 64.9122C20.0684 64.9358 19.5006 64.8159 18.988 64.5633C18.4754 64.3108 18.0343 63.9337 17.7051 63.4665C17.376 62.9994 17.1692 62.4572 17.1038 61.8895L17.0833 61.5V54.6667H13.6667C10.1603 54.6667 6.78814 53.319 4.24756 50.9024C1.70698 48.4859 0.1924 45.1853 0.0170837 41.6833L0 41V13.6667C0 10.042 1.43988 6.56587 4.00287 4.00287C6.56587 1.43988 10.042 0 13.6667 0H54.6667ZM41 30.75H20.5C19.5938 30.75 18.7248 31.11 18.0841 31.7507C17.4433 32.3915 17.0833 33.2605 17.0833 34.1667C17.0833 35.0728 17.4433 35.9419 18.0841 36.5826C18.7248 37.2234 19.5938 37.5833 20.5 37.5833H41C41.9062 37.5833 42.7752 37.2234 43.4159 36.5826C44.0567 35.9419 44.4167 35.0728 44.4167 34.1667C44.4167 33.2605 44.0567 32.3915 43.4159 31.7507C42.7752 31.11 41.9062 30.75 41 30.75ZM47.8333 17.0833H20.5C19.5938 17.0833 18.7248 17.4433 18.0841 18.0841C17.4433 18.7248 17.0833 19.5938 17.0833 20.5C17.0833 21.4062 17.4433 22.2752 18.0841 22.9159C18.7248 23.5567 19.5938 23.9167 20.5 23.9167H47.8333C48.7395 23.9167 49.6085 23.5567 50.2493 22.9159C50.89 22.2752 51.25 21.4062 51.25 20.5C51.25 19.5938 50.89 18.7248 50.2493 18.0841C49.6085 17.4433 48.7395 17.0833 47.8333 17.0833Z" fill="#4EABE9"/>
</svg>
