<svg width="21" height="21" viewBox="0 0 21 21" fill="none" xmlns="http://www.w3.org/2000/svg">
<path d="M14.875 2.625H6.125C4.2 2.625 2.625 4.2 2.625 6.125V14.875C2.625 15.4875 2.8 16.0125 3.0625 16.5375C4.025 14.7875 4.9875 12.8625 5.8625 11.2875C6.3875 10.2375 7.9625 10.4125 8.3125 11.55L9.45 15.75C10.325 14.525 11.725 13.9125 13.125 13.9125C14.0875 13.9125 15.05 14.175 15.925 14.7875L18.025 16.3625C18.2875 15.925 18.375 15.4 18.375 14.7875V6.125C18.375 4.2 16.8 2.625 14.875 2.625ZM13.125 9.625C12.1625 9.625 11.375 8.8375 11.375 7.875C11.375 6.9125 12.1625 6.125 13.125 6.125C14.0875 6.125 14.875 6.9125 14.875 7.875C14.875 8.8375 14.0875 9.625 13.125 9.625ZM18.025 16.45C17.5 17.5875 16.275 18.375 14.875 18.375H6.125C4.8125 18.375 3.675 17.675 3.0625 16.5375C4.025 14.7875 4.9875 12.8625 5.8625 11.2875C6.3875 10.2375 7.9625 10.4125 8.3125 11.55L9.45 15.75C10.325 14.525 11.725 13.9125 13.125 13.9125C14.0875 13.9125 15.05 14.175 15.925 14.7875L18.025 16.45ZM14.875 7.875C14.875 8.8375 14.0875 9.625 13.125 9.625C12.1625 9.625 11.375 8.8375 11.375 7.875C11.375 6.9125 12.1625 6.125 13.125 6.125C14.0875 6.125 14.875 6.9125 14.875 7.875Z" stroke="#5B5B5B" stroke-width="1.5" stroke-linecap="round" stroke-linejoin="round"/>
</svg>
