<svg width="15" height="15" viewBox="0 0 15 15" fill="none" xmlns="http://www.w3.org/2000/svg">
<g id="u:copy-alt">
<path id="Vector" d="M10.0673 11.907H5.41292C4.95001 11.907 4.50606 11.7231 4.17873 11.3958C3.8514 11.0685 3.66751 10.6245 3.66751 10.1616V4.34359C3.66751 4.18928 3.60622 4.0413 3.49711 3.93219C3.388 3.82308 3.24001 3.76178 3.08571 3.76178C2.93141 3.76178 2.78342 3.82308 2.67431 3.93219C2.5652 4.0413 2.50391 4.18928 2.50391 4.34359V10.1616C2.50391 10.9331 2.81039 11.6731 3.35594 12.2186C3.90148 12.7642 4.6414 13.0706 5.41292 13.0706H10.0673C10.2217 13.0706 10.3696 13.0093 10.4787 12.9002C10.5879 12.7911 10.6492 12.6431 10.6492 12.4888C10.6492 12.3345 10.5879 12.1865 10.4787 12.0774C10.3696 11.9683 10.2217 11.907 10.0673 11.907ZM12.9764 5.47229C12.9703 5.41884 12.9586 5.36618 12.9415 5.3152V5.26284C12.9135 5.20301 12.8762 5.14803 12.8309 5.09993L9.3401 1.60911C9.292 1.56386 9.23701 1.52654 9.17719 1.49857H9.12483L8.93865 1.43457H6.57653C6.11362 1.43457 5.66967 1.61846 5.34234 1.94579C5.01501 2.27312 4.83112 2.71707 4.83112 3.17998V8.99801C4.83112 9.46093 5.01501 9.90488 5.34234 10.2322C5.66967 10.5595 6.11362 10.7434 6.57653 10.7434H11.231C11.6939 10.7434 12.1378 10.5595 12.4651 10.2322C12.7925 9.90488 12.9764 9.46093 12.9764 8.99801V5.50719C12.9764 5.50719 12.9764 5.50719 12.9764 5.47229ZM9.48555 3.41852L10.9924 4.92539H10.0673C9.91305 4.92539 9.76506 4.86409 9.65595 4.75498C9.54684 4.64587 9.48555 4.49789 9.48555 4.34359V3.41852ZM11.8128 8.99801C11.8128 9.15232 11.7515 9.3003 11.6424 9.40941C11.5332 9.51852 11.3853 9.57982 11.231 9.57982H6.57653C6.42223 9.57982 6.27424 9.51852 6.16513 9.40941C6.05602 9.3003 5.99473 9.15232 5.99473 8.99801V3.17998C5.99473 3.02568 6.05602 2.87769 6.16513 2.76858C6.27424 2.65947 6.42223 2.59818 6.57653 2.59818H8.32194V4.34359C8.32194 4.8065 8.50583 5.25045 8.83316 5.57778C9.16049 5.90511 9.60444 6.089 10.0673 6.089H11.8128V8.99801Z" fill="#8B8D97"/>
</g>
</svg>
