<svg width="29" height="29" viewBox="0 0 29 29" fill="none" xmlns="http://www.w3.org/2000/svg">
<g id="ic:round-notifications">
<path id="Vector" d="M14.5002 26.5833C15.8294 26.5833 16.9169 25.4958 16.9169 24.1666H12.0836C12.0836 24.8075 12.3382 25.4222 12.7914 25.8754C13.2446 26.3286 13.8593 26.5833 14.5002 26.5833ZM21.7502 19.3333V13.2916C21.7502 9.582 19.7686 6.47659 16.3127 5.65492V4.83325C16.3127 3.83034 15.5032 3.02075 14.5002 3.02075C13.4973 3.02075 12.6877 3.83034 12.6877 4.83325V5.65492C9.21983 6.47659 7.25025 9.56992 7.25025 13.2916V19.3333L5.6915 20.892C4.93025 21.6533 5.46191 22.9583 6.53733 22.9583H22.4511C23.5265 22.9583 24.0702 21.6533 23.309 20.892L21.7502 19.3333Z" fill="#F9F9FB"/>
</g>
</svg>
