<svg width="56" height="57" viewBox="0 0 56 57" fill="none" xmlns="http://www.w3.org/2000/svg">
<g id="material-symbols-light:download">
<path id="Vector" d="M27.6458 37.3848L27.9993 37.7382L28.3529 37.3848L36.6105 29.1295L36.9617 28.7784L36.613 28.4248L34.9587 26.7472L34.6052 26.3886L34.2491 26.7447L29.666 31.3278V12.3516V11.8516H29.166H26.8327H26.3327V12.3516V31.3278L21.7472 26.7423L21.3907 26.3858L21.0372 26.7453L19.3852 28.4253L19.0375 28.7789L19.3882 29.1295L27.6458 37.3848ZM11.166 41.2476L11.166 41.2483C11.1678 42.4484 11.5746 43.4756 12.3928 44.2938C13.2111 45.1121 14.2377 45.5182 15.4367 45.5182H40.562H40.5627C41.7629 45.5165 42.79 45.1097 43.6082 44.2915C44.4265 43.4732 44.8327 42.4466 44.8327 41.2476V35.5939V35.0939H44.3327H41.9994H41.4994V35.5939L41.4993 41.2476L41.4994 41.2497C41.5002 41.4537 41.4218 41.6605 41.1987 41.8824C40.9737 42.1063 40.766 42.1849 40.5644 42.1849L15.4343 42.1849L15.4322 42.1849C15.2304 42.1858 15.0243 42.1079 14.8018 41.8843C14.5785 41.6597 14.4993 41.4514 14.4993 41.2476V35.5939V35.0939H13.9993H11.666H11.166V35.5939L11.166 41.2476Z" fill="#3573B7" stroke="#3573B7"/>
</g>
</svg>
