<svg width="7" height="20" viewBox="0 0 7 20" fill="none" xmlns="http://www.w3.org/2000/svg">
<path d="M7 3.4582C6.99997 2.80818 6.81454 2.17134 6.46498 1.62069C6.11543 1.07003 5.61589 0.627871 5.02365 0.3449C4.43142 0.0619298 3.77046 -0.0503917 3.11658 0.0208159C2.4627 0.0920235 1.84237 0.343877 1.32671 0.747496C0.811059 1.15112 0.420963 1.69016 0.201158 2.30282C-0.0186473 2.91547 -0.0592626 3.57693 0.0839692 4.21135C0.227201 4.84577 0.548481 5.42746 1.01097 5.88972C1.47345 6.35198 2.05842 6.67609 2.6988 6.82489V18.6667L3.5 20L4.30121 18.6667V6.82489C5.06823 6.64454 5.75152 6.21438 6.24107 5.60368C6.73062 4.99298 6.99794 4.23726 7 3.4582ZM4.51205 3.2082C4.3369 3.2082 4.16569 3.15688 4.02007 3.06073C3.87444 2.96458 3.76094 2.82793 3.69391 2.66804C3.62689 2.50815 3.60935 2.33222 3.64352 2.16248C3.67769 1.99275 3.76203 1.83684 3.88588 1.71447C4.00972 1.59209 4.16751 1.50876 4.33929 1.475C4.51107 1.44123 4.68912 1.45856 4.85093 1.52479C5.01274 1.59102 5.15105 1.70317 5.24835 1.84706C5.34565 1.99096 5.39759 2.16013 5.39759 2.33319C5.39759 2.56526 5.30429 2.78782 5.13822 2.95191C4.97215 3.11601 4.74691 3.2082 4.51205 3.2082Z" fill="white"/>
</svg>
