<svg width="144" height="145" viewBox="0 0 144 145" fill="none" xmlns="http://www.w3.org/2000/svg">
<path d="M34.5 5.5C18 5.5 4.5 19 4.5 35.5V110.5C4.5 127 18 140.5 34.5 140.5H109.5C126 140.5 139.5 127 139.5 110.5V35.5C139.5 19 126 5.5 109.5 5.5" stroke="white" stroke-width="8" stroke-miterlimit="10" stroke-linecap="round" stroke-linejoin="round"/>
<path d="M139.5 80.5V110.5C139.5 127 126 140.5 109.5 140.5H34.5C18 140.5 4.5 127 4.5 110.5V80.5H49.5C49.5 93.25 59.25 103 72 103C84.75 103 94.5 93.25 94.5 80.5H139.5Z" stroke="white" stroke-width="8" stroke-miterlimit="10" stroke-linecap="round" stroke-linejoin="round"/>
<path d="M72.918 4.34277L72.918 64.3428" stroke="white" stroke-width="8" stroke-linecap="round" stroke-linejoin="round"/>
<path d="M50.418 41.8428L72.918 64.3428" stroke="white" stroke-width="8" stroke-linecap="round" stroke-linejoin="round"/>
<path d="M72.9194 64.3428L95.4194 41.8428" stroke="white" stroke-width="8" stroke-linecap="round" stroke-linejoin="round"/>
</svg>

