<svg width="20" height="16" viewBox="0 0 20 16" fill="none" xmlns="http://www.w3.org/2000/svg">
<g id="Group">
<path id="Vector" d="M7.49956 1.40148C8.34625 1.13307 9.22946 0.997642 10.1177 1.00003C13.7673 1.00003 16.251 3.18179 17.732 5.10524C18.4738 6.07045 18.8447 6.55131 18.8447 7.98167C18.8447 9.41291 18.4738 9.89377 17.732 10.8581C16.251 12.7815 13.7673 14.9633 10.1177 14.9633C6.46802 14.9633 3.9843 12.7815 2.50332 10.8581C1.76152 9.89464 1.39062 9.41203 1.39062 7.98167C1.39062 6.55043 1.76152 6.06958 2.50332 5.10524C2.9557 4.51416 3.45947 3.96425 4.00874 3.46193" stroke="#6E7079" stroke-width="1.30906" stroke-linecap="round"/>
<path id="Vector_2" d="M12.7362 7.9814C12.7362 8.67576 12.4604 9.34169 11.9694 9.83268C11.4784 10.3237 10.8125 10.5995 10.1181 10.5995C9.42375 10.5995 8.75782 10.3237 8.26683 9.83268C7.77584 9.34169 7.5 8.67576 7.5 7.9814C7.5 7.28703 7.77584 6.6211 8.26683 6.13011C8.75782 5.63912 9.42375 5.36328 10.1181 5.36328C10.8125 5.36328 11.4784 5.63912 11.9694 6.13011C12.4604 6.6211 12.7362 7.28703 12.7362 7.9814Z" stroke="#6E7079" stroke-width="1.30906"/>
</g>
</svg>
