<svg width="14" height="14" viewBox="0 0 14 14" fill="none" xmlns="http://www.w3.org/2000/svg">
<path d="M11.55 4.9C12.901 4.9 14 3.801 14 2.45C14 1.099 12.901 0 11.55 0C10.199 0 9.10001 1.099 9.10001 2.45C9.10001 3.801 10.199 4.9 11.55 4.9Z" fill="#4EABE9"/>
<path d="M12.6 10.5V6.15299C12.25 6.25099 11.9 6.29999 11.55 6.29999H11.2V10.5C11.2 11.662 10.262 12.6 9.1 12.6H3.5C2.338 12.6 1.4 11.662 1.4 10.5V4.89999C1.4 3.73799 2.338 2.79999 3.5 2.79999H7.7V2.44999C7.7 2.09999 7.749 1.74999 7.847 1.39999H3.5C1.568 1.39999 0 2.96799 0 4.89999V10.5C0 12.432 1.568 14 3.5 14H9.1C11.032 14 12.6 12.432 12.6 10.5Z" fill="#C6C7CE"/>
</svg>
