<svg width="22" height="22" viewBox="0 0 22 22" fill="none" xmlns="http://www.w3.org/2000/svg">
<path id="Vector" d="M9.9 16.5H12.1V9.9H9.9V16.5ZM11 7.7C11.3117 7.7 11.5731 7.5944 11.7843 7.3832C11.9955 7.172 12.1007 6.91093 12.1 6.6C12.1 6.28833 11.9944 6.0269 11.7832 5.8157C11.572 5.6045 11.3109 5.49927 11 5.5C10.6883 5.5 10.4269 5.6056 10.2157 5.8168C10.0045 6.028 9.89927 6.28907 9.9 6.6C9.9 6.91167 10.0056 7.1731 10.2168 7.3843C10.428 7.5955 10.6891 7.70073 11 7.7ZM11 22C9.47833 22 8.04833 21.7111 6.71 21.1332C5.37167 20.5553 4.2075 19.7718 3.2175 18.7825C2.2275 17.7925 1.44393 16.6283 0.8668 15.29C0.289667 13.9517 0.000733333 12.5217 0 11C0 9.47833 0.288933 8.04833 0.8668 6.71C1.44467 5.37167 2.22823 4.2075 3.2175 3.2175C4.2075 2.2275 5.37167 1.44393 6.71 0.8668C8.04833 0.289667 9.47833 0.000733333 11 0C12.5217 0 13.9517 0.288933 15.29 0.8668C16.6283 1.44467 17.7925 2.22823 18.7825 3.2175C19.7725 4.2075 20.5564 5.37167 21.1343 6.71C21.7122 8.04833 22.0007 9.47833 22 11C22 12.5217 21.7111 13.9517 21.1332 15.29C20.5553 16.6283 19.7718 17.7925 18.7825 18.7825C17.7925 19.7725 16.6283 20.5564 15.29 21.1343C13.9517 21.7122 12.5217 22.0007 11 22ZM11 19.8C13.4567 19.8 15.5375 18.9475 17.2425 17.2425C18.9475 15.5375 19.8 13.4567 19.8 11C19.8 8.54333 18.9475 6.4625 17.2425 4.7575C15.5375 3.0525 13.4567 2.2 11 2.2C8.54333 2.2 6.4625 3.0525 4.7575 4.7575C3.0525 6.4625 2.2 8.54333 2.2 11C2.2 13.4567 3.0525 15.5375 4.7575 17.2425C6.4625 18.9475 8.54333 19.8 11 19.8Z" fill="black"/>
</svg>
