<svg width="82" height="81" viewBox="0 0 82 81" fill="none" xmlns="http://www.w3.org/2000/svg">
<path d="M60.6089 17.2705H3.6244C1.62497 17.2705 0 18.8757 0 20.8507V79.9294L12.8658 67.2205H60.6089C62.6084 67.2205 64.2333 65.614 64.2333 63.639V20.8507C64.2333 18.8757 62.6084 17.2705 60.6089 17.2705ZM13.6667 48.2989C10.6518 48.2989 8.2 45.877 8.2 42.8989C8.2 39.9208 10.6518 37.4989 13.6667 37.4989C16.6815 37.4989 19.1333 39.9208 19.1333 42.8989C19.1333 45.877 16.6815 48.2989 13.6667 48.2989ZM31.4333 48.2989C28.4185 48.2989 25.9667 45.877 25.9667 42.8989C25.9667 39.9208 28.4185 37.4989 31.4333 37.4989C34.4482 37.4989 36.9 39.9208 36.9 42.8989C36.9 45.877 34.4482 48.2989 31.4333 48.2989ZM49.2 48.2989C46.1851 48.2989 43.7333 45.877 43.7333 42.8989C43.7333 39.9208 46.1851 37.4989 49.2 37.4989C52.2149 37.4989 54.6667 39.9208 54.6667 42.8989C54.6667 45.877 52.2149 48.2989 49.2 48.2989Z" fill="#E1E1E1"/>
<path d="M78.3756 1.07056H17.2911C15.2917 1.07056 13.6667 2.67571 13.6667 4.65076V14.5706H60.6089C64.1144 14.5706 66.9667 17.388 66.9667 20.8508V55.049H82V4.65076C82 2.67571 80.375 1.07056 78.3756 1.07056Z" fill="#EFEFEF"/>
</svg>
