<svg width="19" height="21" fill="none" xmlns="http://www.w3.org/2000/svg">
    <path d="M2.265 17.23c-.259 0-.513-.07-.736-.203a1.487 1.487 0 0 1-.536-.554A1.536 1.536 0 0 1 1 14.97m1.266 2.26 10.626-.2m-10.626.2h3.676m-3.676 0 3.842-.2M1 14.97l.174.098-.174-.098Zm0 0c.49-.869 1.247-3.39 1.247-6.7 0-1.98.763-3.879 2.123-5.28A7.15 7.15 0 0 1 9.501.8a7.15 7.15 0 0 1 5.132 2.19 7.584 7.584 0 0 1 2.123 5.28c0 3.308.757 5.832 1.246 6.7l-.174.098.174-.098a1.534 1.534 0 0 1-.53 2.056 1.437 1.437 0 0 1-.735.205h-3.68m0 0c.012-.056.022-.112.031-.169l-.197-.031m.167.2h-.167v-.2m.167.2a3.764 3.764 0 0 1-1.202 2.077 3.576 3.576 0 0 1-2.357.892c-.864 0-1.7-.317-2.357-.892a3.763 3.763 0 0 1-1.201-2.077m6.95-.2a3.569 3.569 0 0 1-1.167 2.127A3.377 3.377 0 0 1 9.5 20a3.377 3.377 0 0 1-2.225-.843 3.569 3.569 0 0 1-1.167-2.126m-.166.2h.166v-.2m-.166.2a3.804 3.804 0 0 1-.031-.169l.197-.031m2.062 1.186c.38.31.85.478 1.332.478l-1.332-.478Zm0 0a2.222 2.222 0 0 1-.69-.986m.69.986-.69-.986m0 0h4.043c-.136.388-.374.73-.69.986-.38.31-.849.478-1.331.478l-2.022-1.464ZM15.27 8.27c0 3.33.732 6.177 1.436 7.443H2.296C3.001 14.45 3.732 11.6 3.732 8.27c0-1.58.609-3.095 1.691-4.21a5.681 5.681 0 0 1 4.078-1.742 5.68 5.68 0 0 1 4.077 1.741 6.048 6.048 0 0 1 1.692 4.21Z" fill="#fff" stroke="#fff" stroke-width=".4"/>
</svg>
