<svg width="19" height="22" viewBox="0 0 19 22" fill="none" xmlns="http://www.w3.org/2000/svg">
<path d="M2.26536 18.2309H2.26522C2.00613 18.2307 1.75203 18.1601 1.52863 18.0267C1.30527 17.8932 1.12076 17.7019 0.993109 17.4726H0.993109C0.865481 17.2433 0.799017 16.9838 0.800011 16.7203C0.801005 16.4568 0.869371 16.198 0.998637 15.9697M2.26536 18.2309L12.8908 18.0309M2.26536 18.2309H5.94059M2.26536 18.2309L6.10743 18.0309M0.998637 15.9697C0.998688 15.9696 0.998739 15.9696 0.99879 15.9695L1.17279 16.0681L0.998582 15.9698C0.9986 15.9698 0.998619 15.9698 0.998637 15.9697ZM0.998637 15.9697C1.48835 15.1012 2.24625 12.5791 2.24625 9.26984C2.24625 7.29062 3.00916 5.3913 4.36898 3.99001C5.729 2.58851 7.57488 1.8 9.5009 1.8C11.4269 1.8 13.2728 2.58851 14.6328 3.99001C15.9926 5.3913 16.7556 7.29062 16.7556 9.26984C16.7556 12.5783 17.5126 15.1015 18.0023 15.9698L17.8281 16.0681L18.0021 15.9695C18.1317 16.1981 18.1989 16.4569 18.2 16.7197C18.2011 16.9831 18.1348 17.2424 18.0074 17.4717C17.88 17.7009 17.6958 17.8923 17.4727 18.0259C17.2496 18.1595 16.9958 18.2304 16.7369 18.2309L16.7364 18.2309H13.0576M13.0576 18.2309C13.0691 18.1751 13.0793 18.1189 13.0883 18.0623L12.8908 18.0309M13.0576 18.2309H12.8908V18.0309M13.0576 18.2309C12.8919 19.0387 12.4705 19.77 11.8559 20.308C11.1987 20.8834 10.3634 21.2 9.4991 21.2C8.63476 21.2 7.79947 20.8834 7.14224 20.308C6.52765 19.77 6.10627 19.0387 5.94059 18.2309M12.8908 18.0309C12.759 18.8599 12.3455 19.6137 11.7242 20.1575C11.1029 20.7014 10.3143 21 9.4991 21C8.68391 21 7.89526 20.7014 7.27398 20.1575C6.6527 19.6137 6.23924 18.8599 6.10743 18.0309M5.94059 18.2309H6.10743V18.0309M5.94059 18.2309C5.92914 18.1751 5.9189 18.1189 5.90992 18.0623L6.10743 18.0309M8.16933 19.2174C8.54917 19.527 9.0183 19.6948 9.50084 19.695L8.16933 19.2174ZM8.16933 19.2174C7.85422 18.9606 7.61574 18.6186 7.47944 18.2309M8.16933 19.2174L7.47944 18.2309M7.47944 18.2309H11.5224C11.3861 18.6186 11.1476 18.9606 10.8325 19.2174C10.4526 19.527 9.9835 19.6948 9.50097 19.695L7.47944 18.2309ZM15.2702 9.26984C15.2702 12.5991 16.0023 15.4465 16.7065 16.7125H2.29628C3.00066 15.4506 3.73158 12.5995 3.73158 9.26984C3.73158 7.68952 4.34083 6.1751 5.42348 5.05942C6.50594 3.94395 7.97276 3.31844 9.5009 3.31844C11.0291 3.31844 12.4959 3.94395 13.5783 5.05942C14.661 6.1751 15.2702 7.68952 15.2702 9.26984Z" fill="white" stroke="white" stroke-width="0.4"/>
<circle cx="15" cy="4" r="4" fill="#20B708"/>
</svg>
