<svg width="102" height="102" viewBox="0 0 102 102" fill="none" xmlns="http://www.w3.org/2000/svg">
<path d="M51 102C79.1665 102 102 79.1665 102 51C102 22.8335 79.1665 0 51 0C22.8335 0 0 22.8335 0 51C0 79.1665 22.8335 102 51 102Z" fill="#F3F7FF"/>
<path fill-rule="evenodd" clip-rule="evenodd" d="M50.6133 5.74805C39.0153 5.74805 29.6133 15.1501 29.6133 26.748V39.0004H26C23.7909 39.0004 22 40.7912 22 43.0004V83.0004C22 85.2095 23.7909 87.0004 26 87.0004H75C77.2091 87.0004 79 85.2095 79 83.0004V43.0004C79 40.7912 77.2091 39.0004 75 39.0004H71.6133V26.748C71.6133 15.1501 62.2113 5.74805 50.6133 5.74805ZM36.6133 26.748V39.748H64.6133V35.3557V26.748C64.6133 19.1205 58.5135 12.9177 50.9259 12.7515L50.6133 12.748C42.8813 12.748 36.6133 19.0161 36.6133 26.748Z" fill="white"/>
<path d="M26.3018 87.0004H24.1053C22.3903 87.0004 21 85.6572 21 84.0004V43.0004C21 41.3435 22.3903 40.0004 24.1053 40.0004H76.8947C78.6097 40.0004 80 41.3435 80 43.0004V84.0004C80 85.6572 78.6097 87.0004 76.8947 87.0004H30.5233" stroke="#0B1956" stroke-width="2.5" stroke-linecap="round"/>
<path fill-rule="evenodd" clip-rule="evenodd" d="M47.4648 69.3232L47.4649 74.0004C47.4649 75.6573 48.8677 77.0004 50.5981 77.0004H50.6678C52.3982 77.0004 53.8011 75.6573 53.8011 74.0004L53.8012 73.4177C58.9949 76.2023 64.8112 78.0494 71 78.7195L70.9993 83.0004C70.9993 83.5527 70.5317 84.0004 69.9549 84.0004H25.0444C24.4676 84.0004 24 83.5527 24 83.0004V44.0006C24 43.4484 24.4676 43.0006 25.0444 43.0006L31.0243 43.0004C33.055 53.586 39.0427 62.8462 47.4648 69.3232Z" fill="#E8F0FE"/>
<path fill-rule="evenodd" clip-rule="evenodd" d="M50.6133 52.748C54.2031 52.748 57.1133 55.6262 57.1133 59.1766C57.1133 61.6432 55.7086 63.7854 53.6473 64.8634L53.6466 73.748C53.6466 75.4049 52.3035 76.748 50.6466 76.748H50.5799C48.9231 76.748 47.5799 75.4049 47.5799 73.748L47.5793 64.8634C45.5179 63.7854 44.1133 61.6432 44.1133 59.1766C44.1133 55.6262 47.0234 52.748 50.6133 52.748Z" stroke="#0B1956" stroke-width="2.5"/>
<path d="M74.6133 82.248V66.0177M74.5008 61.9912V59.2792" stroke="#FB9EBB" stroke-width="2.5" stroke-linecap="round" stroke-linejoin="round"/>
<path d="M50.6133 5.74805C39.0153 5.74805 29.6133 15.1501 29.6133 26.748V39.748H71.6133V26.748C71.6133 15.1501 62.2113 5.74805 50.6133 5.74805Z" stroke="#0B1956" stroke-width="2.5" stroke-linejoin="round"/>
<path d="M64.6133 39.748H36.6133V26.748C36.6133 19.0161 42.8813 12.748 50.6133 12.748L50.9259 12.7515C58.5135 12.9177 64.6133 19.1205 64.6133 26.748C64.6133 30.5737 64.6133 33.4429 64.6133 35.3557V39.748Z" stroke="#0B1956" stroke-width="2.5" stroke-linecap="round" stroke-linejoin="round"/>
<path fill-rule="evenodd" clip-rule="evenodd" d="M39.5728 12.9596C40.0446 13.4636 40.0186 14.2546 39.5146 14.7265C36.5114 17.5382 34.6777 21.3893 34.4206 25.5369L34.4001 25.9527L34.3044 28.5594V36.4731C34.3044 37.1635 33.7448 37.7231 33.0544 37.7231C32.4072 37.7231 31.8749 37.2312 31.8109 36.6009L31.8044 36.4731L31.8053 28.5139L31.9018 25.8618C32.0826 20.8918 34.2243 16.2548 37.806 12.9015C38.31 12.4296 39.101 12.4557 39.5728 12.9596ZM48.1669 9.23327C48.3104 9.90853 47.8794 10.5723 47.2041 10.7159C45.4327 11.0924 43.7557 11.7561 42.2264 12.6766C41.635 13.0327 40.8669 12.8418 40.5108 12.2503C40.1548 11.6589 40.3457 10.8908 40.9371 10.5347C42.7034 9.47158 44.6403 8.705 46.6843 8.2705C47.3595 8.12695 48.0233 8.558 48.1669 9.23327Z" fill="#E8F0FE"/>
</svg>
