<svg width="12" height="13" viewBox="0 0 12 13" fill="none" xmlns="http://www.w3.org/2000/svg">
<path fill-rule="evenodd" clip-rule="evenodd" d="M4.02227 4.40884C4.02227 3.88963 4.22853 3.39169 4.59566 3.02456C4.96279 2.65743 5.46073 2.45117 5.97994 2.45117C6.49914 2.45117 6.99708 2.65743 7.36422 3.02456C7.73135 3.39169 7.9376 3.88963 7.9376 4.40884C7.9376 4.92804 7.73135 5.42598 7.36422 5.79311C6.99708 6.16025 6.49914 6.3665 5.97994 6.3665C5.46073 6.3665 4.96279 6.16025 4.59566 5.79311C4.22853 5.42598 4.02227 4.92804 4.02227 4.40884ZM4.02227 7.34533C3.37327 7.34533 2.75084 7.60315 2.29193 8.06206C1.83301 8.52098 1.5752 9.1434 1.5752 9.79241C1.5752 10.1818 1.72989 10.5553 2.00524 10.8306C2.28058 11.106 2.65404 11.2607 3.04344 11.2607H8.91643C9.30584 11.2607 9.67929 11.106 9.95464 10.8306C10.23 10.5553 10.3847 10.1818 10.3847 9.79241C10.3847 9.1434 10.1269 8.52098 9.66795 8.06206C9.20903 7.60315 8.58661 7.34533 7.9376 7.34533H4.02227Z" fill="#AEAEAE"/>
</svg>
