<svg width="22" height="21" viewBox="0 0 22 21" fill="none" xmlns="http://www.w3.org/2000/svg">
<path id="Vector" d="M19.1815 14.0736L16.3191 13.7468C15.9825 13.7072 15.6413 13.7445 15.3212 13.8558C15.0011 13.967 14.7104 14.1494 14.4709 14.3891L12.3973 16.4627C9.19813 14.8356 6.59781 12.2353 4.97076 9.03616L7.0556 6.95132C7.54018 6.46673 7.77684 5.79057 7.69796 5.10314L7.37114 2.26324C7.30725 1.71349 7.04342 1.20644 6.62988 0.838616C6.21634 0.470796 5.68198 0.267899 5.12853 0.268556H3.17892C1.90548 0.268556 0.846152 1.32788 0.925038 2.60133C1.52232 12.2254 9.21933 19.9111 18.8321 20.5084C20.1056 20.5873 21.1649 19.528 21.1649 18.2545V16.3049C21.1762 15.1667 20.3197 14.2088 19.1815 14.0736Z" fill="#4EABE9"/>
</svg>
