<svg fill="none" height="25" viewBox="0 0 20 25" width="20" xmlns="http://www.w3.org/2000/svg"><g fill="#4eabe9"><path d="m10 .00000001c-2.63493-.00012882-5.16343 1.01658999-7.03595 2.82917999-1.87251 1.81259-2.9377007 4.27455-2.96405 6.85079 0 6.69773 8.8125 14.15333 9.1875 14.47103.22642.1894.51456.2934.8125.2934.2979 0 .5861-.104.8125-.2934.4375-.3177 9.1875-7.7733 9.1875-14.47103-.0263-2.57624-1.0915-5.0382-2.9641-6.85079-1.8725-1.81259-4.401-2.82930881-7.0359-2.82917999zm0 13.44439999c-.86529 0-1.71115-.2509-2.43062-.7209-.71946-.4701-1.28022-1.1382-1.61135-1.9198-.33114-.7817-.41778-1.64181-.24897-2.47161.16881-.82981.58549-1.59203 1.19735-2.19029.61185-.59825 1.3914-1.00567 2.24007-1.17073s1.72832-.08035 2.52772.24343c.7995.32377 1.4827.87206 1.9635 1.57554.4807.70347.7373 1.53053.7373 2.3766 0 1.13456-.4609 2.22256-1.2814 3.02486-.8205.8022-1.9333 1.2529-3.0936 1.2529z"/><circle cx="10.0001" cy="8.88873" r="2.22222"/></g></svg>