<svg width="18" height="19" viewBox="0 0 18 19" fill="none" xmlns="http://www.w3.org/2000/svg">
<g clip-path="url(#clip0_496_11349)">
<path d="M8.90481 2.08008C10.676 2.08008 12.3746 2.78368 13.627 4.03609C14.8795 5.28851 15.5831 6.98715 15.5831 8.75833C15.5831 11.0393 14.3394 12.9063 13.029 14.2456C12.3742 14.9074 11.6598 15.5075 10.8949 16.0384L10.5788 16.2535L10.4304 16.3522L10.1507 16.5303L9.90136 16.6824L9.59267 16.862C9.38305 16.9813 9.14601 17.0441 8.90481 17.0441C8.66362 17.0441 8.42657 16.9813 8.21695 16.862L7.90827 16.6824L7.52241 16.445L7.37994 16.3522L7.07571 16.1497C6.25056 15.5912 5.48189 14.9535 4.78062 14.2456C3.4702 12.9055 2.22656 11.0393 2.22656 8.75833C2.22656 6.98715 2.93016 5.28851 4.18258 4.03609C5.43499 2.78368 7.13363 2.08008 8.90481 2.08008ZM8.90481 6.53224C8.61248 6.53224 8.32301 6.58982 8.05293 6.70169C7.78285 6.81357 7.53744 6.97754 7.33073 7.18425C7.12402 7.39096 6.96005 7.63636 6.84818 7.90644C6.73631 8.17652 6.67873 8.46599 6.67873 8.75833C6.67873 9.05066 6.73631 9.34013 6.84818 9.61021C6.96005 9.88029 7.12402 10.1257 7.33073 10.3324C7.53744 10.5391 7.78285 10.7031 8.05293 10.815C8.32301 10.9268 8.61248 10.9844 8.90481 10.9844C9.49521 10.9844 10.0614 10.7499 10.4789 10.3324C10.8964 9.91493 11.1309 9.34872 11.1309 8.75833C11.1309 8.16793 10.8964 7.60172 10.4789 7.18425C10.0614 6.76678 9.49521 6.53224 8.90481 6.53224Z" fill="#272727"/>
</g>
<defs>
<clipPath id="clip0_496_11349">
<rect width="17.8087" height="17.8087" fill="white" transform="translate(0 0.595703)"/>
</clipPath>
</defs>
</svg>
