<svg width="131" height="118" viewBox="0 0 131 118" fill="none" xmlns="http://www.w3.org/2000/svg">
<path d="M49.9636 83.4491L106.428 103.519C107.377 103.858 108.39 103.981 109.393 103.881C110.396 103.781 111.364 103.459 112.226 102.94C113.087 102.42 113.821 101.716 114.374 100.878C114.927 100.04 115.284 99.0905 115.42 98.098L126.939 11.5734C127.64 6.3054 122.148 2.3758 117.302 4.66756L7.83488 56.5896C2.42272 59.1564 2.82863 66.9178 8.4868 68.9162L23.4932 74.2209L31.673 77.0749M71.6491 91.1494L59.4103 111.476C55.4126 116.414 47.3621 113.621 47.3621 107.302V91.0271C47.3623 87.956 48.526 84.9974 50.6217 82.7401L74.429 57.0724" stroke="white" stroke-width="7" stroke-linecap="round" stroke-linejoin="round"/>
</svg>
