<svg width="15" height="15" viewBox="0 0 15 15" fill="none" xmlns="http://www.w3.org/2000/svg">
<path d="M12.8229 5.14517H2.35041C2.11188 5.14517 1.91406 4.94735 1.91406 4.70881C1.91406 4.47027 2.11188 4.27246 2.35041 4.27246H12.8229C13.0614 4.27246 13.2592 4.47027 13.2592 4.70881C13.2592 4.94735 13.0614 5.14517 12.8229 5.14517Z" fill="#00092E"/>
<path d="M11.0781 8.05337H4.09651C3.85797 8.05337 3.66016 7.85556 3.66016 7.61702C3.66016 7.37848 3.85797 7.18066 4.09651 7.18066H11.0781C11.3167 7.18066 11.5145 7.37848 11.5145 7.61702C11.5145 7.85556 11.3167 8.05337 11.0781 8.05337Z" fill="#00092E"/>
<path d="M8.75185 10.9625H6.42463C6.18609 10.9625 5.98828 10.7647 5.98828 10.5262C5.98828 10.2877 6.18609 10.0898 6.42463 10.0898H8.75185C8.99039 10.0898 9.1882 10.2877 9.1882 10.5262C9.1882 10.7647 8.99039 10.9625 8.75185 10.9625Z" fill="#00092E"/>
</svg>
