<svg width="25" height="25" viewBox="0 0 25 25" fill="none" xmlns="http://www.w3.org/2000/svg">
<path d="M11.5177 2.74487C12.3133 2.74504 13.0762 3.06122 13.6387 3.62387L21.3487 11.3339C21.9881 11.9734 22.3472 12.8406 22.3472 13.7449C22.3472 14.6491 21.9881 15.5164 21.3487 16.1559L15.7567 21.7479C15.1172 22.3872 14.25 22.7464 13.3457 22.7464C12.4414 22.7464 11.5742 22.3872 10.9347 21.7479L3.2247 14.0379C2.66205 13.4754 2.34587 12.7125 2.3457 11.9169V6.74487C2.3457 5.68401 2.76713 4.66659 3.51728 3.91645C4.26742 3.1663 5.28484 2.74487 6.3457 2.74487H11.5177ZM7.8457 6.24487C7.34113 6.24471 6.85514 6.43528 6.48516 6.77837C6.11517 7.12146 5.88855 7.59172 5.8507 8.09487L5.8457 8.24487C5.8457 8.64044 5.963 9.02711 6.18276 9.35601C6.40253 9.68491 6.71488 9.94126 7.08034 10.0926C7.44579 10.244 7.84792 10.2836 8.23588 10.2064C8.62385 10.1293 8.98021 9.93879 9.25992 9.65909C9.53962 9.37938 9.7301 9.02302 9.80727 8.63505C9.88444 8.24709 9.84484 7.84496 9.69346 7.47951C9.54209 7.11405 9.28574 6.8017 8.95684 6.58193C8.62794 6.36217 8.24127 6.24487 7.8457 6.24487Z" fill="#0B1956"/>
</svg>
