<svg width="27" height="27" viewBox="0 0 27 27" fill="none" xmlns="http://www.w3.org/2000/svg">
<g clip-path="url(#clip0_496_11467)">
<path d="M15.9922 18.9287L16.0781 18.9336C16.2755 18.9632 16.4394 19.1175 16.4561 19.332L16.5352 20.377L16.5459 20.4648C16.6212 20.8956 17.0009 21.2217 17.4453 21.2217H22.2783C22.7524 21.2217 23.153 20.8501 23.1885 20.377L23.2676 19.332L23.2832 19.2441C23.3403 19.0474 23.5312 18.9208 23.7324 18.9287H23.7373L23.8242 18.9443C23.9921 18.9921 24.1157 19.1367 24.1377 19.3096L24.1396 19.3984L24.0605 20.4434C23.9902 21.371 23.2084 22.0967 22.2783 22.0967H17.4453C16.5734 22.0967 15.8309 21.4593 15.6836 20.6152L15.6621 20.4434L15.583 19.3984C15.5649 19.1576 15.7462 18.9468 15.9873 18.9287H15.9922ZM20.3994 13.6221C21.051 13.6221 21.5955 14.0834 21.7266 14.6963L22.4434 14.6973L22.6172 14.7061C23.4783 14.7937 24.1514 15.5245 24.1514 16.4102V17.8428C24.1514 17.9596 24.105 18.0698 24.0254 18.1504L23.9346 18.2207C22.9162 18.817 21.6388 19.167 20.2988 19.2305V19.8623L20.29 19.9502C20.2493 20.1496 20.0727 20.2998 19.8613 20.2998C19.62 20.2995 19.4238 20.1037 19.4238 19.8623V19.2305C18.1713 19.1714 16.9721 18.8618 15.9883 18.333L15.7891 18.2207C15.6546 18.1424 15.5723 17.9983 15.5723 17.8428V16.4062C15.5723 15.4636 16.341 14.6973 17.2852 14.6973L17.9961 14.6963C18.1271 14.0833 18.6725 13.6221 19.3242 13.6221H20.3994ZM17.2852 15.5723C16.8229 15.5723 16.4473 15.947 16.4473 16.4062V17.584C17.4039 18.0876 18.6014 18.366 19.8516 18.3672H19.8652L20.0615 18.3662L20.5127 18.3428C21.5289 18.2638 22.4849 17.9995 23.2764 17.583V16.4102C23.2764 15.9475 22.9024 15.5724 22.4434 15.5723H17.2852ZM19.3242 14.4971C19.1645 14.4971 19.0236 14.5761 18.9355 14.6963H20.7881C20.7 14.5761 20.5591 14.4971 20.3994 14.4971H19.3242Z" fill="#8E9295" stroke="#8E9295" stroke-width="0.25"/>
</g>
<path d="M22.7665 11.4441C21.9241 7.54808 18.6599 4.59973 14.5532 4.17854C14.2373 4.07324 13.8162 4.07324 13.5003 4.07324C8.97244 4.07324 5.18172 7.23218 4.23403 11.4441C4.12874 12.0759 4.02344 12.813 4.02344 13.5501C4.02344 18.815 8.23536 23.0269 13.5003 23.0269C13.8162 23.0269 14.2373 23.0269 14.5532 22.9216" stroke="#8E9295" stroke-width="1.57947" stroke-linecap="round" stroke-linejoin="round"/>
<path d="M13.5 8.28516V13.5501" stroke="#8E9295" stroke-width="1.57947" stroke-linecap="round" stroke-linejoin="round"/>
<path d="M8.23535 13.5498H13.5003" stroke="#8E9295" stroke-width="1.57947" stroke-linecap="round" stroke-linejoin="round"/>
<defs>
<clipPath id="clip0_496_11467">
<rect width="10" height="10" fill="white" transform="translate(14.8643 12.9141)"/>
</clipPath>
</defs>
</svg>
