<svg fill="none" height="24" viewBox="0 0 24 24" width="24" xmlns="http://www.w3.org/2000/svg"><g stroke="#8e9295"><path d="m19 21.3647c1.9429 0 3.6-1.4666 3.6-3.3731 0-1.0111-.4421-1.9977-.9508-2.8095-.5152-.8223-1.1408-1.5311-1.5959-2.0005-.5817-.5999-1.5249-.5999-2.1066 0-.4551.4694-1.0807 1.1782-1.5959 2.0005-.5087.8118-.9508 1.7984-.9508 2.8095 0 1.9065 1.6571 3.3731 3.6 3.3731z" stroke-width="1.2"/><g stroke-linecap="round"><path d="m18.9998 19.7052c-.2549 0-.5074-.0457-.7429-.1343-.2355-.0887-.4495-.2187-.6297-.3826-.1803-.1638-.3233-.3584-.4208-.5725-.0976-.2141-.1478-.4436-.1478-.6753"/><path d="m20.8 10c-.8-3.7-3.9-6.5-7.8-6.9-.3-.1-.7-.1-1-.1-4.3 0-7.9 3-8.8 7-.1.6-.2 1.3-.2 2 0 5 4 9 9 9 .3 0 .7 0 1-.1" stroke-linejoin="round" stroke-width="1.5"/><path d="m12 7v5" stroke-linejoin="round" stroke-width="1.5"/><path d="m7 12h5" stroke-linejoin="round" stroke-width="1.5"/></g></g></svg>