<svg fill="none" height="13" viewBox="0 0 21 13" width="21" xmlns="http://www.w3.org/2000/svg">
    <path d="M14.1342 5.61434C15.5934 5.61434 16.7624 4.43648 16.7624 2.97733C16.7624 1.51819 15.5934 0.340332 14.1342 0.340332C12.6751 0.340332 11.4972 1.51819 11.4972 2.97733C11.4972 4.43648 12.6751 5.61434 14.1342 5.61434ZM7.10222 5.61434C8.56137 5.61434 9.73044 4.43648 9.73044 2.97733C9.73044 1.51819 8.56137 0.340332 7.10222 0.340332C5.64308 0.340332 4.46522 1.51819 4.46522 2.97733C4.46522 4.43648 5.64308 5.61434 7.10222 5.61434ZM7.10222 7.37234C5.05415 7.37234 0.949219 8.40077 0.949219 10.4488V12.6463H13.2552V10.4488C13.2552 8.40077 9.1503 7.37234 7.10222 7.37234ZM14.1342 7.37234C13.8793 7.37234 13.5893 7.38992 13.2816 7.41629C14.3012 8.15465 15.0132 9.14792 15.0132 10.4488V12.6463H20.2872V10.4488C20.2872 8.40077 16.1823 7.37234 14.1342 7.37234Z"
        fill="#53545C"
        id="Vector" />
</svg>
