<svg width="24" height="24" viewBox="0 0 24 24" fill="none" xmlns="http://www.w3.org/2000/svg">
<path d="M12.6535 4.04534L12.1337 4.58603L12.6535 4.04534C12.0049 3.42184 10.9951 3.42184 10.3465 4.04534L10.8663 4.58603L10.3465 4.04534C9.51078 4.84872 8.00445 6.3993 6.70196 8.29554C5.41284 10.1723 4.25 12.4922 4.25 14.8151C4.25 18.6021 7.55256 21.5735 11.5 21.5735C15.4474 21.5735 18.75 18.6021 18.75 14.8151C18.75 12.4922 17.5872 10.1723 16.298 8.29554C14.9955 6.3993 13.4892 4.84872 12.6535 4.04534Z" stroke="#8E9295" stroke-width="1.5"/>
<path d="M11.4998 18.5299C10.9475 18.5299 10.4006 18.431 9.89031 18.2388C9.38002 18.0467 8.91637 17.765 8.52582 17.41C8.13527 17.0549 7.82546 16.6334 7.6141 16.1695C7.40273 15.7057 7.29395 15.2085 7.29395 14.7063" stroke="#8E9295" stroke-width="1.5" stroke-linecap="round"/>
</svg>
