<svg width="26" height="26" viewBox="0 0 26 26" fill="none" xmlns="http://www.w3.org/2000/svg">
<path fill-rule="evenodd" clip-rule="evenodd" d="M22.6587 16.2628C23.0889 16.2951 23.4108 16.6711 23.3785 17.1013L23.1806 19.7149C23.0171 21.8711 21.1973 23.5597 19.0358 23.5597H6.95249C4.79103 23.5597 2.97124 21.8711 2.8077 19.7149L2.60978 17.1013C2.57749 16.6711 2.9004 16.2951 3.33061 16.2628C3.7629 16.2472 4.13582 16.5524 4.16915 16.9836L4.36603 19.5961C4.46811 20.942 5.60353 21.9972 6.95249 21.9972H19.0358C20.3848 21.9972 21.5212 20.942 21.6223 19.5961L21.8202 16.9836C21.8535 16.5524 22.2358 16.2461 22.6587 16.2628ZM14.3381 2.99707C15.9037 2.99707 17.2007 4.17026 17.396 5.68356L19.4476 5.68447C21.6309 5.68447 23.4059 7.46467 23.4059 9.65426V13.2365C23.4059 13.5147 23.258 13.7709 23.0195 13.9105C20.4483 15.4162 17.1912 16.2945 13.7752 16.4116L13.7756 18.2852C13.7756 18.7164 13.4256 19.0664 12.9944 19.0664C12.5631 19.0664 12.2131 18.7164 12.2131 18.2852L12.2124 16.4119C8.79986 16.2958 5.54255 15.4174 2.96947 13.9105C2.72988 13.7709 2.58301 13.5147 2.58301 13.2365V9.64384C2.58301 7.46051 4.36322 5.68447 6.55176 5.68447L8.59271 5.68356C8.78805 4.17026 10.0851 2.99707 11.6506 2.99707H14.3381ZM19.4476 7.24697H6.55176C5.22467 7.24697 4.14551 8.32197 4.14551 9.64384V12.7813C6.61812 14.1248 9.73533 14.8612 12.9799 14.8626L12.9944 14.8612L13.0059 14.8617L13.5019 14.8565C16.5705 14.7834 19.4977 14.0554 21.8434 12.7813V9.65426C21.8434 8.32613 20.7695 7.24697 19.4476 7.24697ZM14.3381 4.55957H11.6506C10.9492 4.55957 10.3571 5.03694 10.1822 5.68382H15.8065C15.6316 5.03694 15.0395 4.55957 14.3381 4.55957Z" fill="#0B1956"/>
</svg>
