<svg width="20" height="21" fill="none" xmlns="http://www.w3.org/2000/svg">
    <path fill-rule="evenodd" clip-rule="evenodd" d="M7.5 2.191A2.187 2.187 0 0 0 5.312 4.38V5.94H3.75a2.5 2.5 0 0 0-2.5 2.5v8.75a2.5 2.5 0 0 0 2.5 2.5h12.5a2.5 2.5 0 0 0 2.5-2.5v-8.75a2.5 2.5 0 0 0-2.5-2.5h-1.563V4.38A2.188 2.188 0 0 0 12.5 2.19h-5Zm5.313 3.75V4.38a.312.312 0 0 0-.313-.313h-5a.312.312 0 0 0-.313.313V5.94h5.625ZM3.75 7.816h12.5a.625.625 0 0 1 .625.625v1.25H3.125v-1.25a.625.625 0 0 1 .625-.625Zm-.625 3.75v5.625a.625.625 0 0 0 .625.625h12.5a.624.624 0 0 0 .625-.625v-5.625H3.125Z" fill="#5C5E64"/>
</svg>
