<svg fill="none" height="24" viewBox="0 0 24 24" width="24" xmlns="http://www.w3.org/2000/svg"><g stroke="#fff" stroke-width="1.5"><path d="m19 10h-3c-1.1 0-2-.9-2-2v-3c0-1.1.9-2 2-2h3c1.1 0 2 .9 2 2v3c0 1.1-.9 2-2 2z" stroke-linecap="round" stroke-linejoin="round"/><path d="m8 21h-3c-1.1 0-2-.9-2-2v-3c0-1.1.9-2 2-2h3c1.1 0 2 .9 2 2v3c0 1.1-.9 2-2 2z" stroke-linecap="round" stroke-linejoin="round"/><circle cx="17.5" cy="17.5" r="3.5" transform="matrix(0 -1 1 0 0 35)"/><circle cx="6.5" cy="6.5" r="3.5" transform="matrix(0 -1 1 0 0 13)"/></g></svg>