<svg fill="none" height="24" viewBox="0 0 24 24" width="24" xmlns="http://www.w3.org/2000/svg"><g stroke="#fff" stroke-width="1.5"><path d="m10 5v3c0 1.1-.9 2-2 2h-3c-1.1 0-2-.9-2-2v-3c0-1.1.9-2 2-2h3c1.1 0 2 .9 2 2z" stroke-linecap="round" stroke-linejoin="round"/><path d="m21 16v3c0 1.1-.9 2-2 2h-3c-1.1 0-2-.9-2-2v-3c0-1.1.9-2 2-2h3c1.1 0 2 .9 2 2z" stroke-linecap="round" stroke-linejoin="round"/><circle cx="17.5" cy="6.5" r="3.5" transform="matrix(-1 0 0 -1 35 13)"/><circle cx="6.5" cy="17.5" r="3.5" transform="matrix(-1 0 0 -1 13 35)"/></g></svg>