<svg fill="none" height="24" viewBox="0 0 24 24" width="24" xmlns="http://www.w3.org/2000/svg"><g stroke="#fff" stroke-linecap="round" stroke-linejoin="round" stroke-miterlimit="10" stroke-width="1.5"><path d="m19 19v-14c0-1.1-.9-2-2-2h-10c-1.1 0-2 .9-2 2v14c0 1.1.9 2 2 2h10c1.1 0 2-.9 2-2z"/><path d="m19 7h-14"/><path d="m9.25 14c0 .1381-.11192.25-.25.25s-.25-.1119-.25-.25.11193-.25.25-.25.25.1119.25.25z"/><path d="m12.25 14c0 .1381-.1119.25-.25.25s-.25-.1119-.25-.25.1119-.25.25-.25.25.1119.25.25z"/><path d="m15.25 14c0 .1381-.1119.25-.25.25s-.25-.1119-.25-.25.1119-.25.25-.25.25.1119.25.25z"/><path d="m9.25 17c0 .1381-.11192.25-.25.25s-.25-.1119-.25-.25.11193-.25.25-.25.25.1119.25.25z"/><path d="m12.25 17c0 .1381-.1119.25-.25.25s-.25-.1119-.25-.25.1119-.25.25-.25.25.1119.25.25z"/><path d="m15.25 17c0 .1381-.1119.25-.25.25s-.25-.1119-.25-.25.1119-.25.25-.25.25.1119.25.25z"/><path d="m9.25 11c0 .1381-.11192.25-.25.25s-.25-.1119-.25-.25.11193-.25.25-.25.25.1119.25.25z"/><path d="m12.25 11c0 .1381-.1119.25-.25.25s-.25-.1119-.25-.25.1119-.25.25-.25.25.1119.25.25z"/><path d="m15.25 11c0 .1381-.1119.25-.25.25s-.25-.1119-.25-.25.1119-.25.25-.25.25.1119.25.25z"/></g></svg>