<svg fill="none" height="24" viewBox="0 0 24 24" width="24" xmlns="http://www.w3.org/2000/svg"><g stroke="#fff" stroke-linecap="round" stroke-linejoin="round" stroke-width="1.5"><path d="m15.8 3h1.2c2.2 0 4 1.8 4 4v1.1"/><path d="m3 8.3v-1.3c0-2.2 1.8-4 4-4h1.1"/><path d="m8.3 20.9999h-1.3c-2.2 0-4-1.8-4-4v-1.1"/><path d="m20.9999 15.8v1.2c0 2.2-1.8 4-4 4h-1.1"/><path d="m15.5 16h-7c-.8 0-1.5-.7-1.5-1.5v-5c0-.8.7-1.5 1.5-1.5h7c.8 0 1.5.7 1.5 1.5v5c0 .8-.7 1.5-1.5 1.5z"/><path d="m7 11h10"/></g></svg>