<svg fill="none" height="24" viewBox="0 0 24 24" width="24" xmlns="http://www.w3.org/2000/svg"><g stroke="#fff" stroke-linecap="round" stroke-linejoin="round" stroke-width="1.5"><path d="m17 16h2c1.1 0 2-.9 2-2v-8c0-1.1-.9-2-2-2h-14c-1.1 0-2 .9-2 2v8c0 1.1.9 2 2 2h2"/><path d="m10 16.9999c1.1-1.3 2.9-1.3 4 0" stroke-miterlimit="10"/><path d="m12.75 19.5c0 .4142-.3358.75-.75.75s-.75-.3358-.75-.75.3358-.75.75-.75.75.3358.75.75z"/><path clip-rule="evenodd" d="m12 12c-1.1 0-2-.9-2-2s.9-2 2-2 2 .9 2 2-.9 2-2 2z" fill-rule="evenodd"/><path d="m7 8v4"/><path d="m17 8v4"/></g></svg>