<svg fill="none" height="24" viewBox="0 0 24 24" width="24" xmlns="http://www.w3.org/2000/svg"><g stroke="#fff" stroke-linecap="round" stroke-linejoin="round" stroke-width="1.5"><path d="m4 12v-9h3c1.1 0 2 .9 2 2s-.9 2-2 2h-4"/><path d="m8 10h-5"/><path d="m13 4.6c1.4 0 2.8.4 4 1.1.7.4 1.4.9 1.9 1.5m-1-4.2 1.1 4.2"/><path d="m11 19.4c-1.4 0-2.8-.4-4-1.1-.7-.4-1.4-.9-1.9-1.5m1 4.2-1.1-4.2"/><path d="m14.1001 18h4"/><path d="m14.1001 15h4"/><path d="m21.0001 18.9c-.4 1.2-1.5 2.1-2.9 2.1-.8 0-1.6-.3-2.1-.9s-.9-1.3-.9-2.1v-3c0-1.7 1.3-3 3-3 .8 0 1.6.3 2.1.9.3.3.6.8.8 1.2"/></g></svg>