<svg fill="none" height="24" viewBox="0 0 24 24" width="24" xmlns="http://www.w3.org/2000/svg"><g stroke="#fff" stroke-linecap="round" stroke-linejoin="round" stroke-width="1.5"><path d="m13 4.6c1.4 0 2.8.4 4 1.1.7.4 1.4.9 1.9 1.5m-1-4.2 1.1 4.2"/><path d="m11 19.4c-1.4 0-2.8-.4-4-1.1-.7-.4-1.4-.9-1.9-1.5m1 4.2-1.1-4.2"/><path d="m17 12v1"/><path d="m18 17h-3v-4h3c1.1 0 2 .9 2 2s-.9 2-2 2z"/><path d="m18 21h-3v-4h3c1.1 0 2 .9 2 2s-.9 2-2 2z"/><path d="m17 21v1"/><path d="m3 12h6"/><path d="m3 9h4"/><path d="m5 12v-7c0-1.1.9-2 2-2s2 .9 2 2"/><path d="m3 7h4"/></g></svg>