<svg fill="none" height="24" viewBox="0 0 24 24" width="24" xmlns="http://www.w3.org/2000/svg"><g stroke="#fff" stroke-linecap="round" stroke-linejoin="round" stroke-width="1.5"><path d="m4 7.9c.4-.8 1-1.6 1.6-2.2 1.7-1.7 3.9-2.7 6.4-2.7 2.3 0 4.4.9 6 2.3s2.7 3.4 2.9 5.7"/><path d="m4 7.9v-4.9"/><path d="m19.9 16.1c-.4.8-1 1.6-1.6 2.2-1.6 1.7-3.9 2.7-6.4 2.7-2.3 0-4.4-.9-6-2.3-1.6-1.5-2.7-3.5-2.9-5.7"/><path d="m20 16.1001v4.9"/><path d="m8 13.5h4"/><path d="m8 10.5h4"/><path d="m14.9 14.9c-.4 1.2-1.5 2.1-2.9 2.1-.8 0-1.6-.3-2.1-.9s-.9-1.3-.9-2.1v-4c0-1.7 1.3-3 3-3 .8 0 1.6.3 2.1.9.3.3.6.8.8 1.2"/></g></svg>