<svg fill="none" height="24" viewBox="0 0 24 24" width="24" xmlns="http://www.w3.org/2000/svg"><g stroke="#fff" stroke-linecap="round" stroke-linejoin="round" stroke-width="1.5"><path d="m4 12v-9h3c1.1 0 2 .9 2 2s-.9 2-2 2h-4"/><path d="m8 10h-5"/><path d="m13 4.6c1.4 0 2.8.4 4 1.1.7.4 1.4.9 1.9 1.5m-1-4.2 1.1 4.2"/><path d="m11 19.4c-1.4 0-2.8-.4-4-1.1-.7-.4-1.4-.9-1.9-1.5m1 4.2-1.1-4.2"/><path d="m15 21h6"/><path d="m15 18h4"/><path d="m17 21v-7c0-1.1.9-2 2-2s2 .9 2 2"/><path d="m15 16h4"/></g></svg>