<svg fill="none" height="24" viewBox="0 0 24 24" width="24" xmlns="http://www.w3.org/2000/svg"><g stroke="#fff" stroke-linecap="round" stroke-linejoin="round" stroke-width="1.5"><path d="m13 4.6c1.4 0 2.8.4 4 1.1.7.4 1.4.9 1.9 1.5m-1-4.2 1.1 4.2"/><path d="m11 19.4c-1.4 0-2.8-.4-4-1.1-.7-.4-1.4-.9-1.9-1.5m1 4.2-1.1-4.2"/><path d="m15 19h6"/><path d="m21 12-3 3-3-3"/><path d="m18 15v6"/><path d="m15 16h6"/><path d="m6 2v1"/><path d="m7 7h-3v-4h3c1.1 0 2 .9 2 2s-.9 2-2 2z"/><path d="m7 11h-3v-4h3c1.1 0 2 .9 2 2s-.9 2-2 2z"/><path d="m6 11v1"/></g></svg>