<svg fill="none" height="24" viewBox="0 0 24 24" width="24" xmlns="http://www.w3.org/2000/svg"><g stroke="#fff" stroke-linecap="round" stroke-linejoin="round" stroke-miterlimit="10" stroke-width="1.5"><path d="m10.2 7c1.1045 0 2-.89543 2-2s-.8955-2-2-2c-1.10462 0-2.00005.89543-2.00005 2s.89543 2 2.00005 2z"/><path d="m14.2 7c1.1045 0 2-.89543 2-2s-.8955-2-2-2c-1.1046 0-2 .89543-2 2s.8954 2 2 2z"/><path d="m7.69998 20 4.50002-1 4.5 1c2.1.5 4-1.4 3.6-3.5l-.9-4.9c-.2-1-1-1.6-2-1.6h-10.50002c-1 0-1.8.7-2 1.6l-.9 4.9c-.3 2.2 1.6 4 3.7 3.5z"/><path d="m6.19995 7h12.00005"/></g></svg>