<svg fill="none" height="24" viewBox="0 0 24 24" width="24" xmlns="http://www.w3.org/2000/svg"><g stroke="#fff" stroke-linecap="round" stroke-linejoin="round" stroke-miterlimit="10"><path d="m12 3v-2"/><path d="m21 12c0 3.6-2.1 6.7-5.2 8.2-1.2.5-2.5.8-3.8.8s-2.6-.3-3.8-.8c-1-.4-1.8-1.1-2.6-1.8-1.6-1.7-2.6-3.9-2.6-6.4 0-1.5.4-2.9 1-4.2 1.5-2.8 4.5-4.8 8-4.8.4 0 .8 0 1.2.1 3.6.5 6.6 3.1 7.5 6.6.2.7.3 1.5.3 2.3z"/><path d="m3 12.7c0-.2 0-.4 0-.7s0-.4 0-.7c.3-3.2 3.1-5.8 6.4-5.8 3.4 0 6.2 2.7 6.4 6v.4.4"/><path d="m8.09998 12c0 2.1 1.7 3.9 3.90002 3.9 2.1 0 3.9-1.7 3.9-3.9"/></g></svg>