<svg fill="none" height="24" viewBox="0 0 24 24" width="24" xmlns="http://www.w3.org/2000/svg"><g stroke="#fff" stroke-linecap="round" stroke-linejoin="round" stroke-miterlimit="10"><path d="m12 21c4.9706 0 9-4.0294 9-9 0-4.97056-4.0294-9-9-9-4.97056 0-9 4.02944-9 9 0 4.9706 4.02944 9 9 9z"/><path d="m12 3v-2"/><path d="m3.5 14.9c.5-.9 1.4-1.4 2.5-1.4 1.7 0 3 1.3 3 3"/><path d="m9 16.5c0-1.7 1.3-3 3-3s3 1.3 3 3"/><path d="m15 16.5c0-1.7 1.3-3 3-3 1.1 0 2 .6 2.5 1.4"/><path d="m3.69995 8.6c.5-.7 1.3-1.1 2.3-1.1 1.7 0 3 1.3 3 3"/><path d="m9 10.5c0-1.7 1.3-3 3-3s3 1.3 3 3"/><path d="m15 10.5c0-1.7 1.3-3 3-3 1 0 1.8.4 2.3 1.1"/></g></svg>