<svg fill="none" height="24" viewBox="0 0 24 24" width="24" xmlns="http://www.w3.org/2000/svg"><g stroke="#fff" stroke-linecap="round" stroke-linejoin="round"><path d="m12 21c4.9706 0 9-4.0294 9-9 0-4.97056-4.0294-9-9-9-4.97056 0-9 4.02944-9 9 0 4.9706 4.02944 9 9 9z"/><path d="m12 3v-2"/><path d="m11.9999 13.2c1.4359 0 2.6-1.1641 2.6-2.6 0-1.43594-1.1641-2.6-2.6-2.6s-2.6 1.16406-2.6 2.6c0 1.4359 1.1641 2.6 2.6 2.6z"/><path d="m12.0001 21.0002c2.1539 0 3.9-1.7461 3.9-3.9s-1.7461-3.9-3.9-3.9c-2.15391 0-3.9 1.7461-3.9 3.9s1.74609 3.9 3.9 3.9z"/></g></svg>