<svg fill="none" height="24" viewBox="0 0 24 24" width="24" xmlns="http://www.w3.org/2000/svg"><g stroke="#fff" stroke-linecap="round" stroke-linejoin="round"><path d="m6.69995 9.1001c1.3.3 2.3 1.5 2.3 2.9"/><path d="m9 12c0-1.7 1.3-3 3-3s3 1.3 3 3"/><path d="m15 12.0001c0-1.4 1-2.6 2.3-2.9"/><path d="m20 17v-.7c0-.5-.3-.9-.8-1.2l-.7-.3c-.4-.1-.7-.4-.7-.8l-.6-5.7c-.2-1.4-1.1-2.5-2.4-3.1l-1.3-.5c-.4-.2-.7-.6-.8-1l-.2-.7h-1l-.2.7c-.1.4-.4.8-.8 1l-1.3.5c-1.3.6-2.2 1.7-2.4 3.1l-.6 5.7c0 .4-.3.7-.7.8l-.7.3c-.5.3-.8.7-.8 1.2v.7z"/><path d="m8 17c0 2.2 1.8 4 4 4s4-1.8 4-4"/></g></svg>