<svg fill="none" height="24" viewBox="0 0 24 24" width="24" xmlns="http://www.w3.org/2000/svg"><g stroke="#fff" stroke-linecap="round" stroke-linejoin="round"><path d="m5 12h14c1.1 0 2 .9 2 2v5c0 1.1-.9 2-2 2h-14c-1.1 0-2-.9-2-2v-5c0-1.1.9-2 2-2z"/><path d="m12 3 1.8 1.8c1 1 1 2.6 0 3.5-1 1-2.6 1-3.5 0-.99995-1-.99995-2.6 0-3.5z"/><path d="m12 12v-3"/><path d="m3 15.7999c.6-.6 1.4-.9 2.3-.9 1.8 0 3.3 1.5 3.3 3.3"/><path d="m8.69995 18.3c0-1.8 1.50005-3.3 3.30005-3.3s3.3 1.5 3.3 3.3"/><path d="m15.4 18.3c0-1.8 1.5-3.3 3.3-3.3.9 0 1.7.4 2.3.9"/></g></svg>