<svg fill="none" height="24" viewBox="0 0 24 24" width="24" xmlns="http://www.w3.org/2000/svg"><path d="m7.72 4.77012 2.77 2.84m-.49 1.95-3.79.99998m7.2-7.34998-1 3.88m-.5 4.79998-2.8 2.82m6.28.74-2.8 2.83m-4.87-4.98 6.93 7.11c.1784.1879.3932.3376.6314.4398.2381.1022.4945.155.7536.155s.5155-.0528.7537-.155c.2381-.1022.4529-.2519.6313-.4398.3667-.3818.5715-.8906.5715-1.42 0-.5293-.2048-1.0382-.5715-1.42l-6.93-7.12c-.3667-.3818-.57145-.89062-.57145-1.41998s.20475-1.0382.57145-1.42c.179-.18508.3935-.33225.6305-.43277.2371-.10051.492-.15231.7495-.15231s.5124.0518.7495.15231c.237.10052.4515.24769.6305.43277.1796.18232.3936.3271.6297.42593.236.09883.4894.14972.7453.14972s.5093-.05089.7453-.14972c.2361-.09883.4501-.24361.6297-.42593.3667-.38179.5715-.89064.5715-1.42s-.2048-1.0382-.5715-1.42c-.5384-.56016-1.1844-1.00582-1.8992-1.31024-.7149-.30443-1.4838-.46134-2.2608-.46134s-1.5459.15691-2.26076.46134c-.71484.30442-1.36083.75008-1.89924 1.31024-1.09763 1.15105-1.70665 2.68258-1.69919 4.27306.00746 1.59052.63081 3.11622 1.73919 4.25692z" stroke="#fff" stroke-linecap="round" stroke-linejoin="round"/></svg>