<svg fill="none" height="24" viewBox="0 0 24 24" width="24" xmlns="http://www.w3.org/2000/svg"><g stroke="#fff" stroke-linecap="round" stroke-linejoin="round" stroke-miterlimit="10"><path d="m3 14.0999c.6-.7 1.5-1.2 2.5-1.2 1.8 0 3.2 1.4 3.2 3.2"/><path d="m8.80005 16.0999c0-1.8 1.39995-3.2 3.19995-3.2s3.2 1.4 3.2 3.2"/><path d="m15.2 16.0999c0-1.8 1.4-3.2 3.2-3.2 1 0 1.9.5 2.5 1.2"/><path d="m12 5.5c0-1.4 1.1-2.5 2.5-2.5s2.5 1.1 2.5 2.5-1.1 2.5-2.5 2.5"/><path d="m12 5.5c0-1.4-1.1-2.5-2.5-2.5s-2.5 1.1-2.5 2.5 1.1 2.5 2.5 2.5"/><path d="m19 21h-14c-1.1 0-2-.9-2-2v-9c0-1.1.9-2 2-2h14c1.1 0 2 .9 2 2v9c0 1.1-.9 2-2 2z"/></g></svg>