<svg fill="none" height="24" viewBox="0 0 24 24" width="24" xmlns="http://www.w3.org/2000/svg"><g stroke="#fff" stroke-linecap="round" stroke-linejoin="round" stroke-miterlimit="10"><path d="m10 12h-5c-1.10457 0-2 .8954-2 2v5c0 1.1046.89543 2 2 2h5c1.1046 0 2-.8954 2-2v-5c0-1.1046-.8954-2-2-2z"/><path d="m5.5 10 2 2 2-2"/><path d="m19 5h-5c-1.1046 0-2 .89543-2 2v12c0 1.1046.8954 2 2 2h5c1.1046 0 2-.8954 2-2v-12c0-1.10457-.8954-2-2-2z"/><path d="m14.5 3 2 2 2-2"/><path d="m21 9.7002-9 6.5"/><path d="m21 15.8999-7.1 5.1"/><path d="m19.1 5-7.1 5.1"/></g></svg>