<svg fill="none" height="24" viewBox="0 0 24 24" width="24" xmlns="http://www.w3.org/2000/svg"><g stroke="#fff" stroke-linecap="round" stroke-linejoin="round" stroke-miterlimit="10"><path d="m12 17.5999v-3.2-.1-2.3-5.6"/><path d="m15.2 3-3.2 3.4"/><path d="m8.80005 3 3.19995 3.4"/><path d="m8.80005 21.0001 3.19995-3.4"/><path d="m15.2 21.0001-3.2-3.4"/><path d="m16.6 14.8002-2.7-1.6-1.9-1.2-4.59998-2.8"/><path d="m6.19995 4.6001 1.2 4.6"/><path d="m3 10.4002 4.4-1.2"/><path d="m17.8 19.3998-1.2-4.6"/><path d="m21 13.6001-4.4 1.2"/><path d="m7.40002 14.8002 2.69998-1.6 1.9-1.2 4.6-2.8"/><path d="m17.8 4.6001-1.2 4.6"/><path d="m21 10.4002-4.4-1.2"/><path d="m6.19995 19.3998 1.2-4.6"/><path d="m3 13.6001 4.4 1.2"/></g></svg>