<svg fill="none" height="24" viewBox="0 0 24 24" width="24" xmlns="http://www.w3.org/2000/svg"><g stroke="#fff" stroke-linecap="round" stroke-linejoin="round" stroke-miterlimit="10"><path d="m12 21v-6.5"/><path d="m12 9.5v-6.5"/><path d="m21 12h-6.5"/><path d="m9.5 12h-6.5"/><path d="m10.2 13.7998-4.60002 4.6"/><path d="m18.4 5.6001-4.6 4.6"/><path d="m14.5 12c0 .7-.3 1.3-.7 1.8-.5.4-1.1.7-1.8.7s-1.3-.3-1.8-.7c-.5-.5-.7-1.1-.7-1.8s.3-1.3.7-1.8c.5-.4 1.1-.7 1.8-.7s1.3.3 1.8.7c.4.5.7 1.1.7 1.8z"/><path d="m18.4 18.3998-4.6-4.6"/><path d="m10.2 10.2001-4.60002-4.6"/></g></svg>