<svg fill="none" height="24" viewBox="0 0 24 24" width="24" xmlns="http://www.w3.org/2000/svg"><path d="m16.0434 7.986v5.4048c0 1.3012.9012 2.4021 2.1028 2.6023s2.3031-.7006 2.6035-1.9017c.3004-1.4012.4005-2.9026-.1002-4.40389-.9012-3.5031-3.9052-6.10541-7.51-6.60586-5.90783-.80071-11.01463 4.40391-10.01329 10.50935.6008 3.7033 3.70493 6.7059 7.40989 7.3065 2.7036.4003 5.2069-.4004 7.0093-1.9017m-5.5073-3.0027c-2.20296 0-4.00536-1.8016-4.00536-4.0035 0-2.202 1.8024-4.0036 4.00536-4.0036 2.2029 0 4.0053 1.8016 4.0053 4.0036 0 2.2019-1.8024 4.0035-4.0053 4.0035z" stroke="#fff" stroke-linecap="round" stroke-miterlimit="10" stroke-width="1.5"/></svg>