<svg fill="none" height="24" viewBox="0 0 24 24" width="24" xmlns="http://www.w3.org/2000/svg"><g stroke="#fff" stroke-linecap="round" stroke-linejoin="round" stroke-miterlimit="10" stroke-width="1.5"><path d="m16 20c-.5.2-.9.4-1.4.6-.8.3-1.7.4-2.6.4-5 0-9-4-9-9s4-9 9-9c.5 0 1 0 1.5.1"/><path d="m20.9001 10.5c.1.5.1 1 .1 1.5 0 2.1-.7 4-1.9 5.5"/><path d="m21.0001 21c-.3 0-.6 0-.9 0-1.4 0-2.8-.3-4-1"/><path d="m19.1001 17.5c.1 1.4.9 2.6 1.9 3.4"/><path d="m19 7c1.1046 0 2-.89543 2-2s-.8954-2-2-2-2 .89543-2 2 .8954 2 2 2z"/><path d="m12 9c.5523 0 1-.44772 1-1s-.4477-1-1-1-1 .44772-1 1 .4477 1 1 1z" fill="#fff"/><path d="m8.12598 15c.44404-1.7252 2.01012-3 3.87402-3 1.8638 0 3.4299 1.2748 3.8739 3"/></g></svg>