<svg fill="none" height="24" viewBox="0 0 24 24" width="24" xmlns="http://www.w3.org/2000/svg"><g stroke="#fff" stroke-linecap="round" stroke-linejoin="round" stroke-width="1.5"><path d="m8 20c.5.2.9.4 1.4.6.8.3 1.7.4 2.6.4 5 0 9-4 9-9 0-.5 0-1-.1-1.5" stroke-miterlimit="10"/><path d="m4.9 17.5c-1.2-1.5-1.9-3.4-1.9-5.5 0-5 4-9 9-9 .5 0 1 0 1.5.1" stroke-miterlimit="10"/><path d="m3 21h.9c1.5 0 2.8-.3 4-1" stroke-miterlimit="10"/><path d="m4.9 17.5c-.1 1.4-.9 2.6-1.9 3.5" stroke-miterlimit="10"/><path d="m19 7c1.1046 0 2-.89543 2-2s-.8954-2-2-2-2 .89543-2 2 .8954 2 2 2z" stroke-miterlimit="10"/><path d="m12 11v5"/></g><path d="m12 9c.6 0 1-.4 1-1s-.4-1-1-1-1 .4-1 1 .4 1 1 1z" fill="#fff"/></svg>