<svg fill="none" height="24" viewBox="0 0 24 24" width="24" xmlns="http://www.w3.org/2000/svg"><g stroke="#fff" stroke-linecap="round" stroke-linejoin="round" stroke-miterlimit="10" stroke-width="1.5"><path d="m16 20c-.5.2-.9.4-1.4.6-.8.3-1.7.4-2.6.4-5 0-9-4-9-9s4-9 9-9c.5 0 1 0 1.5.1"/><path d="m20.9001 10.5c.1.5.1 1 .1 1.5 0 2.1-.7 4-1.9 5.5"/><path d="m21.0001 21c-.3 0-.6 0-.9 0-1.4 0-2.8-.3-4-1"/><path d="m19.1001 17.5c.1 1.4.9 2.6 1.9 3.4"/><path d="m19 7c1.1046 0 2-.89543 2-2s-.8954-2-2-2-2 .89543-2 2 .8954 2 2 2z"/><g fill="#fff"><path d="m9.5 10c.27614 0 .5-.22386.5-.5s-.22386-.5-.5-.5-.5.22386-.5.5.22386.5.5.5z"/><path d="m14.5 10c.2761 0 .5-.22386.5-.5s-.2239-.5-.5-.5-.5.22386-.5.5.2239.5.5.5z"/></g></g></svg>