<svg fill="none" height="24" viewBox="0 0 24 24" width="24" xmlns="http://www.w3.org/2000/svg"><g stroke="#fff" stroke-linecap="round" stroke-linejoin="round" stroke-miterlimit="10" stroke-width="1.5"><path d="m17 21h-10c-2.2 0-4-1.8-4-4v-10c0-2.2 1.8-4 4-4h10c2.2 0 4 1.8 4 4v10c0 2.2-1.8 4-4 4z"/><path d="m1 9h4"/><path d="m1 15h4"/><path d="m12.504 17c-.9486-.7927-1.6419-1.7378-2.0797-2.7744m2.0797 2.7744c-.9851-.8232-1.6784-1.7683-2.0797-2.7744m2.0797 2.7744h.9487c.2919 0 .5108-.1829.5108-.4268v-1.4634c.0365-.5183-.4378-.9147-1.0216-.9147l-2.5176.0305m0 0c-.54733-1.4329-.58382-2.9878 0-4.45121m0 0c.4013-1.0061 1.0946-1.95122 2.0797-2.77439h.9487c.2919 0 .5473.21341.5473.45732v1.46341c0 .48781-.4743.88415-1.0946.85366z"/></g></svg>