<svg fill="none" height="24" viewBox="0 0 24 24" width="24" xmlns="http://www.w3.org/2000/svg"><g stroke="#fff" stroke-linecap="round" stroke-linejoin="round" stroke-width="1.5"><g stroke-miterlimit="10"><path d="m17 21h-10c-2.2 0-4-1.8-4-4v-10c0-2.2 1.8-4 4-4h10c2.2 0 4 1.8 4 4v10c0 2.2-1.8 4-4 4z"/><path d="m1 9h4"/><path d="m1 15h4"/></g><path d="m12 11c1.1046 0 2-.8954 2-2 0-1.10457-.8954-2-2-2s-2 .89543-2 2c0 1.1046.8954 2 2 2z"/><path d="m8.5 17v-.5c0-.95.4-1.85 1-2.5.65-.65 1.5-1 2.5-1 1.95 0 3.5 1.55 3.5 3.5v.5"/></g></svg>