<svg fill="none" height="24" viewBox="0 0 24 24" width="24" xmlns="http://www.w3.org/2000/svg"><g stroke="#fff" stroke-linecap="round" stroke-linejoin="round" stroke-width="1.5"><path d="m3 8v-1c0-2.2 1.8-4 4-4h1"/><path d="m16 3h1c2.2 0 4 1.8 4 4v1"/><path d="m21 16v1c0 2.2-1.8 4-4 4h-1"/><path d="m8 21h-1c-2.2 0-4-1.8-4-4v-1"/><path clip-rule="evenodd" d="m11 11.1818v3.8182h-4v-3.8182c0-1.19998.9-2.1818 2-2.1818s2 .98182 2 2.1818z" fill-rule="evenodd"/><path clip-rule="evenodd" d="m17 11.1818v3.8182h-10v-3.8182c0-1.19998 1-2.1818 2.22222-2.1818h5.55558c1.2222 0 2.2222.98182 2.2222 2.1818z" fill-rule="evenodd"/><path d="m14 7v4"/><path d="m14 15v2"/></g></svg>