<svg fill="none" height="24" viewBox="0 0 24 24" width="24" xmlns="http://www.w3.org/2000/svg"><g stroke="#fff" stroke-linecap="round" stroke-linejoin="round" stroke-width="1.5"><path d="m10 3.9999c1.1-1.3 2.9-1.3 4 0" stroke-miterlimit="10"/><path d="m12.75 6.5c0 .41421-.3358.75-.75.75s-.75-.33579-.75-.75.3358-.75.75-.75.75.33579.75.75z" fill="#fff"/><path d="m17.5 5h.5c1.7 0 3 1.3 3 3v8c0 1.7-1.3 3-3 3h-12c-1.7 0-3-1.3-3-3v-8c0-1.7 1.3-3 3-3h.5"/><path d="m20.9001 7.19995-6.6 5.80005-2.3 2-2.3-2-6.6-5.80005"/><path d="m9.6999 13-5.8 5.2"/><path d="m20.1 18.2-5.8-5.2"/></g></svg>