<svg fill="none" height="24" viewBox="0 0 24 24" width="24" xmlns="http://www.w3.org/2000/svg"><g stroke="#fff" stroke-linecap="round" stroke-linejoin="round" stroke-width="1.5"><path d="m21 9.1001v8.9c0 1.7-1.3 3-3 3h-12c-1.7 0-3-1.3-3-3v-8.9"/><path d="m3 9.1001 6.7 5.9 2.3 2 2.3-2 6.7-5.9"/><path d="m3 9.1 3-2.6"/><path d="m18 6.5 3 2.6"/><path d="m9.6999 15-5.8 5.2"/><path d="m20.1 20.2-5.8-5.2"/><path d="m18 11.8v-5.3-1.5c0-1.1-.9-2-2-2h-8c-1.1 0-2 .9-2 2v1.5 5.3"/><path d="m10 9c0 .36837.0916.70858.2541 1 .3375.6052.9809 1 1.7459 1 1.1333 0 2-.8667 2-2 0-1.13333-.8667-2-2-2" stroke-miterlimit="10"/></g></svg>