<svg fill="none" height="24" viewBox="0 0 24 24" width="24" xmlns="http://www.w3.org/2000/svg"><g stroke="#fff" stroke-linecap="round" stroke-linejoin="round" stroke-width="1.5"><path d="m3 8v-1c0-2.2 1.8-4 4-4h1"/><path d="m16 3h1c2.2 0 4 1.8 4 4v1"/><path d="m21 16v1c0 2.2-1.8 4-4 4h-1"/><path d="m8 21h-1c-2.2 0-4-1.8-4-4v-1"/><g stroke-miterlimit="10"><path d="m15.3333 7h-6.66663c-.94445 0-1.66667.73125-1.66667 1.6875v6.3125h6.6667 3.3333v-6.3125"/><path d="m17 15h-3v-6.3125c0-.95625.65-1.6875 1.5-1.6875s1.5.73125 1.5 1.6875z"/><path d="m7 17v-2"/><path d="m14 17v-2"/><path d="m17 17v-2"/><path d="m11 10h-1"/></g></g></svg>