<svg fill="none" height="24" viewBox="0 0 24 24" width="24" xmlns="http://www.w3.org/2000/svg"><g stroke="#fff" stroke-linecap="round" stroke-linejoin="round" stroke-width="1.5"><path d="m3 8v-1c0-2.2 1.8-4 4-4h1"/><path d="m16 3h1c2.2 0 4 1.8 4 4v1"/><path d="m21 16v1c0 2.2-1.8 4-4 4h-1"/><path d="m8 21h-1c-2.2 0-4-1.8-4-4v-1"/><g stroke-miterlimit="10"><path d="m8 17c.55228 0 1-.4477 1-1s-.44772-1-1-1-1 .4477-1 1 .44772 1 1 1z"/><path d="m7 11.1c.3-.1.7-.1 1-.1 2.8 0 5 2.2 5 5 0 .3 0 .7-.1 1"/><path d="m16.9 17c0-.3.1-.6.1-1 0-5-4-9-9-9-.3 0-.7 0-1 .1"/></g></g></svg>