<svg fill="none" height="24" viewBox="0 0 24 24" width="24" xmlns="http://www.w3.org/2000/svg"><g stroke="#fff" stroke-linecap="round" stroke-linejoin="round" stroke-miterlimit="10" stroke-width="1.5"><path d="m12 13c.5523 0 1-.4477 1-1s-.4477-1-1-1-1 .4477-1 1 .4477 1 1 1z" fill="#fff"/><path d="m6.4 19c-2.1-1.6-3.4-4.2-3.4-7s1.3-5.4 3.4-7"/><path d="m8.9 15.9001c-1.2-.9-1.9-2.3-1.9-3.9s.7-3 1.9-3.9"/><path d="m17.6001 5c2.1 1.6 3.4 4.2 3.4 7s-1.3 5.4-3.4 7"/><path d="m15.1001 8.1001c1.2.9 1.9 2.3 1.9 3.9s-.7 3-1.9 3.9"/><path d="m12 13v8"/></g></svg>