<svg fill="none" height="24" viewBox="0 0 24 24" width="24" xmlns="http://www.w3.org/2000/svg"><g stroke="#fff" stroke-linecap="round" stroke-linejoin="round" stroke-width="1.5"><path d="m5 21c1.10457 0 2-.8954 2-2s-.89543-2-2-2-2 .8954-2 2 .89543 2 2 2z"/><path d="m12 21c1.1046 0 2-.8954 2-2s-.8954-2-2-2-2 .8954-2 2 .8954 2 2 2z"/><path d="m19 21c1.1046 0 2-.8954 2-2s-.8954-2-2-2-2 .8954-2 2 .8954 2 2 2z"/><path d="m19.478 11.2949c-.3866.5322-1.1025.8297-1.7069.655l-.7691-.2332c-.7692-.2331-1.1517-.9986-1.0943-1.76557l.1118-.59026c.0578-.88498-.3796-1.70919-1.2039-1.88316-.9344-.17358-1.8687-.34715-2.8586-.34357s-1.98013.12514-2.86077.36426c-.82546.17994-1.26801 1.00734-1.16062 1.83274l.05333.53067c.10739.82539-.38997 1.59399-1.10544 1.77359l-.77066.2387c-.60548.1791-1.26467-.0544-1.70276-.6427l-.71139-1.1181-.43773-.70626c-.43772-.70624-.32439-1.76838.33702-2.24265 1.15802-1.00694 2.48009-1.71954 3.85661-2.25539 1.43169-.59503 2.97221-.83654 4.56721-.9013s3.1338.28359 4.5617.86827c1.318.58508 2.6905 1.34692 3.8422 2.3455.6032.52868.7651 1.53084.3229 2.24026z"/></g></svg>