<svg fill="none" height="24" viewBox="0 0 24 24" width="24" xmlns="http://www.w3.org/2000/svg"><g stroke="#fff" stroke-linecap="round" stroke-linejoin="round" stroke-width="1.5"><path d="m20.2949 4.52201c.5322.38663.8297 1.10248.655 1.70685l-.2332.76917c-.2331.76917-.9986 1.15171-1.7656 1.09431l-.5902-.11184c-.885-.05778-1.7092.37957-1.8832 1.20392-.1736.93438-.3471 1.86868-.3436 2.85858.0036.9899.1252 1.9801.3643 2.8608.1799.8254 1.0073 1.268 1.8327 1.1606l.5307-.0533c.8254-.1074 1.594.3899 1.7736 1.1054l.2387.7707c.1791.6054-.0544 1.2646-.6427 1.7027l-1.1181.7114-.7063.4377c-.7062.4378-1.7683.3244-2.2426-.337-1.0069-1.158-1.7196-2.4801-2.2554-3.8566-.595-1.4317-.8365-2.9722-.9013-4.5672s.2836-3.13376.8683-4.56174c.585-1.31799 1.3469-2.69043 2.3455-3.84214.5286-.60326 1.5308-.76509 2.2402-.32291z"/><path d="m10.2949 4.52201c.5322.38663.8297 1.10248.655 1.70685l-.2332.76917c-.2331.76917-.99856 1.15171-1.76557 1.09431l-.59026-.11184c-.88498-.05778-1.70919.37957-1.88316 1.20392-.17358.93438-.34715 1.86868-.34357 2.85858s.12514 1.9801.36426 2.8608c.17994.8254 1.00734 1.268 1.83274 1.1606l.53067-.0533c.8254-.1074 1.59399.3899 1.77359 1.1054l.2387.7707c.1791.6054-.0544 1.2646-.6427 1.7027l-1.11813.7114-.70623.4377c-.70624.4378-1.76838.3244-2.24265-.337-1.00694-1.158-1.71954-2.4801-2.25539-3.8566-.59503-1.4317-.83654-2.9722-.9013-4.5672s.28359-3.13376.86827-4.56174c.58508-1.31799 1.34692-2.69043 2.3455-3.84214.52868-.60326 1.53084-.76509 2.24026-.32291z"/></g></svg>