<svg fill="none" height="24" viewBox="0 0 24 24" width="24" xmlns="http://www.w3.org/2000/svg"><g stroke="#fff" stroke-linecap="round" stroke-width="1.5"><path d="m19.478 19.2949c-.3866.5322-1.1025.8297-1.7069.655l-.7691-.2332c-.7692-.2331-1.1517-.9986-1.0943-1.7656l.1118-.5902c.0578-.885-.3796-1.7092-1.2039-1.8832-.9344-.1736-1.8687-.3471-2.8586-.3436-.9899.0036-1.98013.1252-2.86077.3643-.82546.1799-1.26801 1.0073-1.16062 1.8327l.05333.5307c.10739.8254-.38997 1.594-1.10544 1.7736l-.77066.2387c-.60548.1791-1.26467-.0544-1.70276-.6427l-.71139-1.1181-.43773-.7063c-.43772-.7062-.32439-1.7683.33702-2.2426 1.15802-1.0069 2.48009-1.7196 3.85661-2.2554 1.43169-.595 2.97221-.8365 4.56721-.9013s3.1338.2836 4.5617.8683c1.318.5851 2.6905 1.3469 3.8422 2.3455.6032.5286.7651 1.5308.3229 2.2402z" stroke-linejoin="round"/><path d="m12 3v5"/><path d="m16 6-1 2"/><path d="m8 6 1 2"/><path d="m18.01 9h-.01"/><path d="m6.01 9h-.01"/></g></svg>