<svg fill="none" height="24" viewBox="0 0 24 24" width="24" xmlns="http://www.w3.org/2000/svg"><g stroke="#fff" stroke-linecap="round" stroke-width="1.5"><path d="m7.3276 3.01517c.80336-.09975 1.70714.29923 2.10882.99745l.5021.8977c.50208.8977.20088 1.89515-.5021 2.49362l-.60252.39898c-.80336.69821-1.10462 1.7954-.5021 2.69308.70294.9975 1.40588 1.9949 2.3097 2.8926.9037.8977 1.9079 1.6957 2.9121 2.2942.9038.5984 2.0084.2992 2.611-.4988l.4016-.4987c.6026-.798 1.7072-.9974 2.5105-.4987l.9038.4987c.703.399 1.1046 1.1969 1.0042 2.0946l-.3012 1.596-.2009.9974c-.2008.9975-1.205 1.7954-2.2092 1.5959-1.908-.1995-3.7156-.7979-5.4227-1.5959-1.8076-.7979-3.41428-1.9949-4.92058-3.3913s-2.61092-3.0921-3.41428-4.8875c-.70294-1.69567-1.30546-3.59082-1.5063-5.48597-.10042-.99745.60252-1.99489 1.60672-2.19438z" stroke-linejoin="round"/><path d="m21 3v6"/><path d="m17 3v6"/></g></svg>