<svg fill="none" height="24" viewBox="0 0 24 24" width="24" xmlns="http://www.w3.org/2000/svg"><g stroke="#fff" stroke-linecap="round" stroke-linejoin="round" stroke-miterlimit="10" stroke-width="1.5"><path d="m19.4 21c-2.6 0-5.1-.6-7.4-1.7m7.4 1.7c-2.7 0-5.2-.6-7.4-1.7m7.4 1.7 1.3-1.3c.4-.4.4-1 0-1.4l-2.4-2.4c-.8-.9-2.1-.9-2.9-.1l-3.4 3.5m0 0c-3.1-1.6-5.7-4.1-7.3-7.3m0 0c-1.1-2.2-1.7-4.7-1.7-7.4l1.3-1.3c.4-.4 1.1-.4 1.5 0l2.4 2.4c.8.8.8 2.1-.1 2.9z"/><path d="m21 3.53333c0 .86667-.2 1.7-.5667 2.46667m.5667-2.46667c0 .9-.2 1.73334-.5667 2.46667m.5667-2.46667-.4333-.43333c-.1334-.13333-.3334-.13333-.4667 0l-.8.8c-.3.26667-.3.7-.0333.96667l1.1666 1.13333m0 0c-.5333 1.03333-1.3666 1.9-2.4333 2.43333m0 0c-.7333.36667-1.5667.56667-2.4667.56667l-.4333-.43333c-.1333-.13334-.1333-.36667 0-.5l.8-.8c.2667-.26667.7-.26667.9667.03333z"/></g></svg>