<svg fill="none" height="24" viewBox="0 0 24 24" width="24" xmlns="http://www.w3.org/2000/svg"><g stroke="#fff" stroke-linecap="round" stroke-linejoin="round" stroke-width="2"><path d="m3 8v-1c0-2.2 1.8-4 4-4h1"/><path d="m16 3h1c2.2 0 4 1.8 4 4v1"/><path d="m21 16v1c0 2.2-1.8 4-4 4h-1"/><path d="m8 21h-1c-2.2 0-4-1.8-4-4v-1"/><path d="m17 12c0 2.7778-2.2222 5-5 5-.5 0-1-.0556-1.4444-.2222-.2778-.0556-.5556-.1667-.77782-.3334-.66667.3334-1.44445.5556-2.22222.5556-.16667 0-.33334 0-.5 0 .55555-.4444 1-1.1111 1.05555-1.8889-.72222-.8889-1.11111-1.9444-1.11111-3.1111 0-2.77778 2.22222-5 5-5 2.7778 0 5 2.22222 5 5z" stroke-miterlimit="10"/></g></svg>