<svg fill="none" height="24" viewBox="0 0 24 24" width="24" xmlns="http://www.w3.org/2000/svg"><g stroke="#fff" stroke-linecap="round" stroke-linejoin="round" stroke-miterlimit="10" stroke-width="2"><path d="m21 7v8c0 1.7-1.3 3-3 3h-7l-3 3v-3h-2c-1.7 0-3-1.3-3-3v-8c0-1.7 1.3-3 3-3h12c1.7 0 3 1.3 3 3z"/><path d="m9.5 9c.27614 0 .5-.22386.5-.5s-.22386-.5-.5-.5-.5.22386-.5.5.22386.5.5.5z" fill="#fff"/><path d="m14.5 9c.2761 0 .5-.22386.5-.5s-.2239-.5-.5-.5-.5.22386-.5.5.2239.5.5.5z" fill="#fff"/><path d="m16 13c-2.2 1.3-5.8 1.3-8 0"/></g></svg>