<svg fill="none" height="24" viewBox="0 0 24 24" width="24" xmlns="http://www.w3.org/2000/svg"><g stroke="#fff" stroke-linecap="round" stroke-linejoin="round" stroke-width="2"><path d="m19.1 17.5c1.2-1.5 1.9-3.4 1.9-5.5 0-5-4-9-9-9s-9 4-9 9 4 9 9 9c.9 0 1.8-.1 2.6-.4.5-.1 1-.3 1.4-.6" stroke-miterlimit="10"/><path d="m21 21c-.3 0-.6 0-.9 0-1.5 0-2.8-.3-4-1" stroke-miterlimit="10"/><path d="m19.1 17.5c.1 1.4.9 2.6 1.9 3.5" stroke-miterlimit="10"/><path d="m12 11v5"/></g><path d="m12 9c.6 0 1-.4 1-1s-.4-1-1-1-1 .4-1 1 .4 1 1 1z" fill="#fff"/></svg>