<svg fill="none" height="24" viewBox="0 0 24 24" width="24" xmlns="http://www.w3.org/2000/svg"><g stroke="#fff" stroke-linecap="round" stroke-linejoin="round" stroke-width="2"><g stroke-miterlimit="10"><path d="m4.9 17.5c-1.2-1.5-1.9-3.4-1.9-5.5 0-5 4-9 9-9s9 4 9 9-4 9-9 9c-.9 0-1.8-.1-2.6-.4-.5-.1-1-.3-1.4-.6"/><path d="m3 21h.9c1.5 0 2.8-.3 4-1"/><path d="m4.9 17.5c-.1 1.4-.9 2.6-1.9 3.5"/></g><path d="m12 8 3.5 2.7222v3.5c0 .4278-.3937.7778-.875.7778h-5.25c-.48125 0-.875-.35-.875-.7778v-3.5z"/></g></svg>