<svg fill="none" height="24" viewBox="0 0 24 24" width="24" xmlns="http://www.w3.org/2000/svg"><g stroke="#fff" stroke-linecap="round" stroke-linejoin="round" stroke-width="2"><g stroke-miterlimit="10"><path d="m19.1 17.5c1.2-1.5 1.9-3.4 1.9-5.5 0-5-4-9-9-9s-9 4-9 9 4 9 9 9c.9 0 1.8-.1 2.6-.4.5-.1 1-.3 1.4-.6"/><path d="m21 21c-.3 0-.6 0-.9 0-1.5 0-2.8-.3-4-1"/><path d="m19.1 17.5c.1 1.4.9 2.6 1.9 3.5"/></g><path d="m15.4043 12.5145-3.4043 3.4855-3.40426-3.4855c-.79432-.8133-.79432-2.0913 0-2.90454.45391-.34855.90781-.58091 1.36171-.58091.56735 0 1.02125.23236 1.47515.58091l.5674.58094.5674-.58094c.7943-.81328 2.0425-.81328 2.8369 0 .7943.81324.7943 2.09124 0 2.90454z"/></g></svg>