<svg fill="none" height="24" viewBox="0 0 24 24" width="24" xmlns="http://www.w3.org/2000/svg"><g stroke="#fff" stroke-linecap="round" stroke-linejoin="round" stroke-width="2"><path d="m3 8v-1c0-2.2 1.8-4 4-4h1"/><path d="m16 3h1c2.2 0 4 1.8 4 4v1"/><path d="m21 16v1c0 2.2-1.8 4-4 4h-1"/><path d="m8 21h-1c-2.2 0-4-1.8-4-4v-1"/><path d="m17 9.66667v4.66663c0 .9445-.7222 1.6667-1.6667 1.6667h-1.6666l-1.6667 2-1.6667-2h-1.66663c-.94445 0-1.66667-.7222-1.66667-1.6667v-4.66663c0-.94445.72222-1.66667 1.66667-1.66667h6.66663c.9445 0 1.6667.72222 1.6667 1.66667z" stroke-miterlimit="10"/></g></svg>