<svg fill="none" height="24" viewBox="0 0 24 24" width="24" xmlns="http://www.w3.org/2000/svg"><g stroke="#fff" stroke-linecap="round" stroke-linejoin="round" stroke-width="2"><path d="m12 21c3.4 0 6.4-1.9 7.9-4.7"/><path d="m3 12c0-5 4-9 9-9s9 4 9 9"/><path d="m7 11-4 1v4l4 1z"/><path d="m21 12v4l-1.1.3-2.9.7v-6z"/><g fill="#fff" stroke-miterlimit="10"><path d="m10.5 14.5c-.2761 0-.5-.2239-.5-.5s.2239-.5.5-.5.5.2239.5.5-.2239.5-.5.5z"/><path d="m13.5 14.5c-.2761 0-.5-.2239-.5-.5s.2239-.5.5-.5.5.2239.5.5-.2239.5-.5.5z"/></g></g></svg>