<svg fill="none" height="24" viewBox="0 0 24 24" width="24" xmlns="http://www.w3.org/2000/svg"><g stroke="#fff" stroke-linejoin="round" stroke-width="2"><g stroke-linecap="round"><path d="m3 8v-1c0-2.2 1.8-4 4-4h1"/><path d="m16 3h1c2.2 0 4 1.8 4 4v1"/><path d="m21 16v1c0 2.2-1.8 4-4 4h-1"/><path d="m8 21h-1c-2.2 0-4-1.8-4-4v-1"/></g><path clip-rule="evenodd" d="m13.4557 10.3333h2.3334c.7957 0 1.3791.8586 1.167 1.6162l-1.22 3.9394c-.2122.6566-.8487 1.1111-1.5383 1.1111h-3.9778c-.68956 0-1.22-.505-1.22-1.1616v-4.6465c0-.4545.21217-.9091.53044-1.26261l2.33396-2.52525c.2121-.25252.5834-.40404.9547-.40404.9018 0 1.5383.85859 1.2731 1.61616z" fill-rule="evenodd"/></g></svg>