<svg fill="none" height="24" viewBox="0 0 24 24" width="24" xmlns="http://www.w3.org/2000/svg"><g stroke="#fff" stroke-linecap="round" stroke-linejoin="round" stroke-width="2"><path d="m10.6 13.4-2.60002 2.6s0 0-.1 0c-1.5-1.4-2.6-3.1-3.4-4.9-.7-1.7-1.3-3.6-1.5-5.5-.1-1 .6-2 1.6-2.2l2.7-.4c.8-.1 1.7.3 2.1 1l.5.9c.50002.9.20002 1.9-.5 2.5l-.6.4c-.8.7-1.1 1.8-.5 2.7.7 1 1.4 2 2.30002 2.9z"/><path d="m13.4 15.6c.1 0 .1.1.1.1.9.6 2 .3 2.6-.5l.4-.5c.6-.8 1.7-1 2.5-.5l.9.5c.7.4 1.1 1.2 1 2.1l-.3 1.6-.2 1c-.2 1-1.2 1.8-2.2 1.6-1.9-.2-3.7-.8-5.4-1.6-.7-.3-1.4-.7-2.1-1.1"/><path d="m8 16-4 4"/><path d="m20.0001 4-9.4 9.4"/></g></svg>