<svg fill="none" height="24" viewBox="0 0 24 24" width="24" xmlns="http://www.w3.org/2000/svg"><g stroke="#fff" stroke-linecap="round" stroke-linejoin="round" stroke-width="2"><path d="m19.4 21c-2.6 0-5.1-.6-7.4-1.7m7.4 1.7c-2.7 0-5.2-.6-7.4-1.7m7.4 1.7 1.3-1.3c.4-.4.4-1 0-1.4l-2.4-2.4c-.8-.9-2.1-.9-2.9-.1l-3.4 3.5m0 0c-3.1-1.6-5.7-4.1-7.3-7.3m0 0c-1.1-2.2-1.7-4.7-1.7-7.4l1.3-1.3c.4-.4 1.1-.4 1.5 0l2.4 2.4c.8.8.8 2.1-.1 2.9z" stroke-miterlimit="10"/><path d="m18 3 3 2.33333v3c0 .36667-.3375.66667-.75.66667h-4.5c-.4125 0-.75-.3-.75-.66667v-3z"/></g></svg>