<svg fill="none" height="24" viewBox="0 0 24 24" width="24" xmlns="http://www.w3.org/2000/svg"><g stroke="#fff" stroke-linecap="round" stroke-linejoin="round" stroke-miterlimit="10" stroke-width="2"><path d="m3 6.75605c1.42683-1.423 3.12805-2.46288 4.9939-3.11964m-4.9939 3.11964c1.48171-1.47773 3.18293-2.51761 4.9939-3.11964m-4.9939 3.11964v1.42299c0 .43785.32927.76623.76829.76623h2.63415c.93293.05473 1.64634-.65677 1.64634-1.53246l-.05488-3.7764m0 0c2.5793-.82096 5.3781-.87569 8.0122 0m0 0c1.811.60203 3.5122 1.64191 4.9939 3.11964v1.42299c0 .43785-.3841.82096-.8232.82096h-2.6341c-.8781 0-1.5915-.7115-1.5366-1.64192z"/><path d="m3 18.756c1.42683-1.4229 3.12805-2.4628 4.9939-3.1196m-4.9939 3.1196c1.48171-1.4777 3.18293-2.5176 4.9939-3.1196m-4.9939 3.1196v1.423c0 .4379.32927.7663.76829.7663h2.63415c.93293.0547 1.64634-.6568 1.64634-1.5325l-.05488-3.7764m0 0c2.5793-.821 5.3781-.8757 8.0122 0m0 0c1.811.602 3.5122 1.6419 4.9939 3.1196v1.423c0 .4379-.3841.821-.8232.821h-2.6341c-.8781 0-1.5915-.7115-1.5366-1.6419z"/></g></svg>