<svg fill="none" height="24" viewBox="0 0 24 24" width="24" xmlns="http://www.w3.org/2000/svg" xmlns:xlink="http://www.w3.org/1999/xlink"><clipPath id="a"><path d="m0 0h24v24h-24z"/></clipPath><g clip-path="url(#a)" stroke="#fff" stroke-linecap="round" stroke-width="2"><path d="m6.75605 21c-1.423-1.4268-2.46288-3.128-3.11964-4.9939m3.11964 4.9939c-1.47773-1.4817-2.51761-3.1829-3.11964-4.9939m3.11964 4.9939h1.42299c.43785 0 .76623-.3293.76623-.7683v-2.6341c.05473-.933-.65677-1.6464-1.53246-1.6464l-3.7764.0549m0 0c-.82096-2.5793-.87569-5.3781 0-8.0122m0 0c.60203-1.81097 1.64191-3.51219 3.11964-4.9939h1.42299c.43785 0 .82096.38415.82096.82317v2.63415c0 .87805-.7115 1.59146-1.64192 1.53658z" stroke-linejoin="round" stroke-miterlimit="10"/><path d="m14 12h6"/></g></svg>