<svg fill="none" height="24" viewBox="0 0 24 24" width="24" xmlns="http://www.w3.org/2000/svg"><g stroke="#fff" stroke-linecap="round" stroke-linejoin="round" stroke-width="2"><path d="m19.4 21c-2.6 0-5.1-.6-7.4-1.7m7.4 1.7c-2.7 0-5.2-.6-7.4-1.7m7.4 1.7 1.3-1.3c.4-.4.4-1 0-1.4l-2.4-2.4c-.8-.9-2.1-.9-2.9-.1l-3.4 3.5m0 0c-3.1-1.6-5.7-4.1-7.3-7.3m0 0c-1.1-2.2-1.7-4.7-1.7-7.4l1.3-1.3c.4-.4 1.1-.4 1.5 0l2.4 2.4c.8.8.8 2.1-.1 2.9z" stroke-miterlimit="10"/><path d="m20.5532 5.51037-2.5532 2.48963-2.5532-2.48963c-.5957-.58091-.5957-1.49377 0-2.07469.3404-.24896.6809-.41493 1.0213-.41493.4255 0 .7659.16597 1.1064.41493l.4255.41494.4255-.41494c.5958-.58091 1.5319-.58091 2.1277 0 .5957.58092.5957 1.49378 0 2.07469z"/></g></svg>