<svg fill="none" height="24" viewBox="0 0 24 24" width="24" xmlns="http://www.w3.org/2000/svg"><g stroke="#fff" stroke-linecap="round" stroke-linejoin="round" stroke-width="2"><path d="m3 8v-1c0-2.2 1.8-4 4-4h1"/><path d="m16 3h1c2.2 0 4 1.8 4 4v1"/><path d="m21 16v1c0 2.2-1.8 4-4 4h-1"/><path d="m8 21h-1c-2.2 0-4-1.8-4-4v-1"/><path d="m16.1111 17c-1.4444 0-2.8333-.3333-4.1111-.9444m4.1111.9444c-1.5 0-2.8889-.3333-4.1111-.9444m4.1111.9444.7222-.7222c.2223-.2222.2223-.5556 0-.7778l-1.3333-1.3333c-.4444-.5-1.1667-.5-1.6111-.0556l-1.8889 1.9445m0 0c-1.7222-.8889-3.16667-2.2778-4.05556-4.0556m0 0c-.61111-1.2222-.94444-2.61111-.94444-4.11111l.72222-.72222c.22222-.22223.61111-.22223.83334 0l1.33333 1.33333c.44441.44444.44441 1.16667-.05556 1.6111z" stroke-miterlimit="10"/></g></svg>