<svg fill="none" height="24" viewBox="0 0 24 24" width="24" xmlns="http://www.w3.org/2000/svg"><g stroke="#fff" stroke-linecap="round" stroke-linejoin="round" stroke-miterlimit="10" stroke-width="2"><path d="m6.75605 21c-1.423-1.4268-2.46288-3.128-3.11964-4.9939m3.11964 4.9939c-1.47773-1.4817-2.51761-3.1829-3.11964-4.9939m3.11964 4.9939h1.42299c.43785 0 .76623-.3293.76623-.7683v-2.6341c.05473-.933-.65677-1.6464-1.53246-1.6464l-3.7764.0549m0 0c-.82096-2.5793-.87569-5.3781 0-8.0122m0 0c.60203-1.81097 1.64191-3.51219 3.11964-4.9939h1.42299c.43785 0 .82096.38415.82096.82317v2.63415c0 .87805-.7115 1.59146-1.64192 1.53658z"/><path d="m18.756 21c-1.4229-1.4268-2.4628-3.128-3.1196-4.9939m3.1196 4.9939c-1.4777-1.4817-2.5176-3.1829-3.1196-4.9939m3.1196 4.9939h1.423c.4379 0 .7663-.3293.7663-.7683v-2.6341c.0547-.933-.6568-1.6464-1.5325-1.6464l-3.7764.0549m0 0c-.8209-2.5793-.8757-5.3781 0-8.0122m0 0c.602-1.81097 1.6419-3.51219 3.1196-4.9939h1.423c.4379 0 .821.38415.821.82317v2.63415c0 .87805-.7115 1.59146-1.6419 1.53658z"/></g></svg>