<svg fill="none" height="24" viewBox="0 0 24 24" width="24" xmlns="http://www.w3.org/2000/svg"><g stroke="#fff" stroke-linecap="round" stroke-linejoin="round" stroke-miterlimit="10" stroke-width="2"><path d="m16.5 21c-1.5 0-1.5-1.8-3-1.8s-1.5 1.8-3 1.8-1.5-1.8-3-1.8c-.7 0-1.7 1.5-2.3 1.2-.5-.3.2-2-.1-2.5-.2-.6-2.1-.7-2.1-1.4 0-1.5 1.8-1.5 1.8-3s-1.8-1.5-1.8-3 1.8-1.5 1.8-3c0-.7-1.5-1.7-1.2-2.3.3-.5 2 .2 2.5-.1.6-.2.7-2.1 1.4-2.1 1.5 0 1.5 1.8 3 1.8s1.5-1.8 3-1.8 1.5 1.8 3 1.8c.7 0 1.7-1.5 2.3-1.2.5.3-.2 2 .1 2.5.2.6 2.1.7 2.1 1.4 0 1.5-1.8 1.5-1.8 3s1.8 1.5 1.8 3-1.8 1.5-1.8 3c0 .7 1.5 1.7 1.2 2.3-.3.5-2-.2-2.5.1-.6.2-.7 2.1-1.4 2.1z"/><path d="m9 10h3"/><path d="m9 13h6"/></g></svg>