<svg fill="none" height="24" viewBox="0 0 24 24" width="24" xmlns="http://www.w3.org/2000/svg"><g stroke="#fff" stroke-linecap="round" stroke-width="2"><path d="m16.5 21c-1.5 0-1.5-1.8-3-1.8s-1.5 1.8-3 1.8-1.5-1.8-3-1.8c-.7 0-1.7 1.5-2.3 1.2-.5-.3.2-2-.1-2.5-.2-.6-2.1-.7-2.1-1.4 0-1.5 1.8-1.5 1.8-3s-1.8-1.5-1.8-3 1.8-1.5 1.8-3c0-.7-1.5-1.7-1.2-2.3.3-.5 2 .2 2.5-.1.6-.2.7-2.1 1.4-2.1 1.5 0 1.5 1.8 3 1.8s1.5-1.8 3-1.8 1.5 1.8 3 1.8c.7 0 1.7-1.5 2.3-1.2.5.3-.2 2 .1 2.5.2.6 2.1.7 2.1 1.4 0 1.5-1.8 1.5-1.8 3s1.8 1.5 1.8 3-1.8 1.5-1.8 3c0 .7 1.5 1.7 1.2 2.3-.3.5-2-.2-2.5.1-.6.2-.7 2.1-1.4 2.1z" stroke-linejoin="round" stroke-miterlimit="10"/><path d="m8.5 12.3972c.97887-.63 1.9712-1.2456 2.924-1.9148.3501-.2459.576-.4647.9892-.82202.1373-.11875.3795-.4046.2576-.59475-.1428-.14063-.5447-.01702-.6708.01934-.4826.13913-.6558.67867-.7681 1.11213-.3081 1.1899-.4026 2.4428-.5882 3.6555-.0469.3068-.1071.6128-.1434.9212-.0083.0712-.0362.2757.0025.2151.0772-.1207.0364-.4216.0826-.5657.1736-.5411.5255-1.0519.9455-1.4313.4974-.4492 1.7007-1.2345 2.0611-.2369.1109.3069.1268.6356.0924.9574-.0263.2456-.0138.2141.1191.0242.2325-.3325.8798-1.1345 1.3635-1.0275.287.0634.2992.7584.333.9936"/></g></svg>