<svg fill="none" height="24" viewBox="0 0 24 24" width="24" xmlns="http://www.w3.org/2000/svg"><g stroke="#fff" stroke-linecap="round" stroke-width="2"><g stroke-linejoin="round" stroke-miterlimit="10"><path d="m21 12c0 1.8-.6 3.6-1.5 5-.7 1-1.5 1.8-2.5 2.5-1.4 1-3.1 1.5-5 1.5-1.8 0-3.5-.5-5-1.5-1-.7-1.8-1.5-2.5-2.5-1-1.4-1.5-3.2-1.5-5 0-5 4-9 9-9s9 4 9 9z"/><path d="m9.5 9c.27614 0 .5-.22386.5-.5s-.22386-.5-.5-.5-.5.22386-.5.5.22386.5.5.5z" fill="#fff"/><path d="m14.5 9c.2761 0 .5-.22386.5-.5s-.2239-.5-.5-.5-.5.22386-.5.5.2239.5.5.5z" fill="#fff"/></g><path d="m8.08545 15.4677c.11984-.6755.37992-1.3118.76662-1.8798.31656-.4651.80922-.9201 1.40463-.9426.3996-.015.8602.1671.9478.596.089.4364-.0201.9329-.1208 1.3573-.0459.1935-.0839.3899-.1418.5803-.0025.0081-.0977.3252-.0945.1575.0194-1.0092.7507-2.2778 1.7118-2.6412.3743-.1415.9351-.1807 1.1184.2573.1681.4016.1356.959.0053 1.3652-.0606.1889-.2363.7445-.2363.5461 0-.5144.2515-.9785.5303-1.3967.4885-.7327 1.9903-1.7621 2.2369-.3098.0826.4863-.0735.9388-.0735 1.4177"/></g></svg>