<svg fill="none" height="24" viewBox="0 0 24 24" width="24" xmlns="http://www.w3.org/2000/svg"><path d="m8.2 13.2c-.1-.4-.2-.8-.2-1.2s.1-.8.2-1.2m0 2.4-3.7 3.7c-1-1.4-1.5-3.1-1.5-4.9s.5-3.5 1.5-4.9l3.7 3.7m0 2.4-5.2 5.2 2.6 2.6 5.2-5.2m-2.6-2.6c.4 1.3 1.3 2.2 2.6 2.6m-2.6-2.6c.4 1.2 1.4 2.2 2.6 2.6m-2.6-5-5.2-5.2 2.6-2.6 5.2 5.2m-2.6 2.6c.4-1.2 1.3-2.2 2.6-2.6m-2.6 2.6c.4-1.2 1.4-2.2 2.6-2.6m0 0-3.7-3.7c1.4-1 3.1-1.5 4.9-1.5s3.5.5 4.9 1.5m-6.1 3.7c.4-.1.8-.2 1.2-.2s.8.1 1.2.2m3.7-3.7-3.7 3.7m3.7-3.7 1.5-1.5 2.6 2.6-5.2 5.2m-2.6-2.6c1.2.4 2.2 1.4 2.6 2.6m-2.6-2.6c1.2.4 2.2 1.3 2.6 2.6m0 0 3.7-3.7c1 1.4 1.5 3.1 1.5 4.9s-.5 3.5-1.5 4.9l-3.7-3.7m0-2.4c.1.4.2.8.2 1.2s-.1.8-.2 1.2m0 0c-.4 1.2-1.4 2.2-2.6 2.6m2.6-2.6c-.4 1.2-1.3 2.2-2.6 2.6m2.6-2.6 5.2 5.2-2.6 2.6-1.5-1.5m-3.7-3.7 3.7 3.7m-3.7-3.7c-.4.1-.8.2-1.2.2s-.8-.1-1.2-.2m6.1 3.7c-1.4 1-3.1 1.5-4.9 1.5s-3.5-.5-4.9-1.5l3.7-3.7" stroke="#fff" stroke-linecap="round" stroke-linejoin="round" stroke-width="2"/></svg>