<svg fill="none" height="24" viewBox="0 0 24 24" width="24" xmlns="http://www.w3.org/2000/svg"><g stroke="#fff" stroke-linecap="round" stroke-linejoin="round" stroke-width="2"><path d="m12 21c4.9706 0 9-4.0294 9-9 0-4.97056-4.0294-9-9-9-4.97056 0-9 4.02944-9 9 0 4.9706 4.02944 9 9 9z" stroke-miterlimit="10"/><path d="m9.87864 14.1213c3.51476 3.5147 7.31376 5.4142 8.48526 4.2427 1.1716-1.1716-.7279-4.9706-4.2426-8.48533-3.5147-3.51472-7.31372-5.41421-8.4853-4.24264-1.17157 1.17157.72793 4.97057 4.24264 8.48527z"/><path d="m14.1212 14.1213c3.5148-3.5147 5.4143-7.31372 4.2427-8.48529s-4.9706.72792-8.48529 4.24264c-3.51472 3.51475-5.41421 7.31375-4.24264 8.48525 1.17157 1.1716 4.97053-.7279 8.48523-4.2426z"/></g></svg>