<svg fill="none" height="24" viewBox="0 0 24 24" width="24" xmlns="http://www.w3.org/2000/svg"><g stroke="#fff" stroke-linecap="round" stroke-linejoin="round" stroke-width="1.5"><path d="m12 21h-3c-2.2 0-4-1.8-4-4v-7h4c1.1 0 2-.9 2-2v-5h4c2.2 0 4 1.8 4 4v5"/><path d="m5 10c0-.64614.22653-1.27184.64018-1.76822l3.71964-4.46356c.40564-.48677 1.00658-.76822 1.64018-.76822"/><path d="m13 13.7111c0 1.1556.2667 2.2667.7556 3.2889m-.7556-3.2889c0 1.2.2667 2.3111.7556 3.2889m-.7556-3.2889.5778-.5778c.1778-.1777.4444-.1777.6222 0l1.0667 1.0667c.4.3556.4.9333.0444 1.2889l-1.5555 1.5111m0 0c.7111 1.3778 1.8222 2.5333 3.2444 3.2444m0 0c.9778.4889 2.0889.7556 3.2889.7556l.5778-.5778c.1777-.1778.1777-.4889 0-.6666l-1.0667-1.0667c-.3556-.3556-.9333-.3556-1.2889.0444z" stroke-miterlimit="10"/></g></svg>