<svg fill="none" height="24" viewBox="0 0 24 24" width="24" xmlns="http://www.w3.org/2000/svg"><g stroke="#fff" stroke-linecap="round" stroke-linejoin="round" stroke-width="1.5"><path clip-rule="evenodd" d="m5 10v7c0 2.2 1.8 4 4 4h6c2.2 0 4-1.8 4-4v-10c0-2.2-1.8-4-4-4h-4v5c0 1.1-.9 2-2 2z" fill-rule="evenodd"/><path d="m5 10c0-.64614.22653-1.27184.64018-1.76822l3.71964-4.46356c.40564-.48677 1.00658-.76822 1.64018-.76822"/><path d="m12 15v2"/><path d="m10 16 2 1"/><path d="m12 17 2-1"/></g></svg>