<svg fill="none" height="24" viewBox="0 0 24 24" width="24" xmlns="http://www.w3.org/2000/svg"><g stroke="#fff" stroke-linecap="round" stroke-linejoin="round" stroke-width="1.5"><path d="m9 21c-2.2 0-4-1.8-4-4v-7h4c1.1 0 2-.9 2-2v-5h4c2.2 0 4 1.8 4 4v2.5"/><path d="m5 10c0-.64614.22653-1.27184.64018-1.76822l3.71964-4.46356c.40564-.48677 1.00658-.76822 1.64018-.76822"/><path d="m21 14.3333c0 .3556-.1333.6667-.4.9334l-.4.4-4.5778 4.6222c-.4444.4444-1.0666.7111-1.7333.7111h-.4445c-.2222 0-.4444-.2222-.4444-.4444v-.4445c0-.6667.2667-1.2444.7111-1.7333l4.6222-4.5778.4-.4c.5334-.5333 1.3778-.5333 1.9111 0 .2223.2667.3556.6222.3556.9333z"/></g></svg>