<svg width="170" height="80" viewBox="0 0 170 80" fill="none" xmlns="http://www.w3.org/2000/svg">
<g clip-path="url(#clip0_1221_817)">
<mask id="mask0_1221_817" style="mask-type:luminance" maskUnits="userSpaceOnUse" x="-1" y="-106" width="171" height="226">
<path d="M151.947 -105.215H17.9072C7.96985 -105.215 -0.0859375 -97.1718 -0.0859375 -87.2501V101.155C-0.0859375 111.076 7.96985 119.119 17.9072 119.119H151.947C161.884 119.119 169.94 111.076 169.94 101.155V-87.2501C169.94 -97.1718 161.884 -105.215 151.947 -105.215Z" fill="white"/>
</mask>
<g mask="url(#mask0_1221_817)">
<path d="M9.12624 -2.45684C8.23558 -2.25025 7.34492 -2.78021 7.10201 -3.66048L4.16913 -14.2237C3.92622 -15.113 4.43003 -16.0472 5.31169 -16.3076C5.96844 -16.4873 6.6162 -16.2987 7.03903 -15.8675L2.00096 -30.2842L1.30823 -29.7991C1.15529 -29.6913 0.993349 -29.6105 0.813417 -29.5656L0.723454 -29.5386L0.543522 -29.5117L-10.1084 -28.2272L-9.87449 -21.1401L-4.69247 -21.8048C-4.44957 -21.8318 -4.20666 -21.8138 -3.97275 -21.742L-0.715998 -20.7359C0.183658 -20.4575 0.687465 -19.5054 0.408572 -18.6071C0.237638 -18.0592 -0.185201 -17.637 -0.733991 -17.4753C-1.05787 -17.3765 -1.39973 -17.3855 -1.72361 -17.4753L-4.6295 -18.3736L-9.36168 -17.7718L-7.03158 -9.19361C-7.03158 -9.19361 -2.06548 -10.9631 -2.05648 -10.9631C-1.11184 -11.2416 -0.185201 -10.7835 0.120683 -9.93016C0.273623 -9.50799 0.246634 -9.04091 0.0577068 -8.63671C-0.140217 -8.22352 -0.482084 -7.91812 -0.913919 -7.76542L-6.13192 -5.90606L-5.6821 -4.23535L1.86602 -6.61568C2.80166 -6.89413 3.71931 -6.4001 3.9982 -5.50186C4.13315 -5.07071 4.09716 -4.61261 3.88124 -4.2084C3.67432 -3.8042 3.31446 -3.50778 2.88262 -3.37305L-5.89801 -0.606482C-5.99697 0.130072 -6.10493 0.965435 -6.23088 1.85469L-3.45995 2.19601C-2.5333 2.31278 -1.86756 3.1661 -1.98451 4.09129C-2.06548 4.76496 -2.5423 5.32187 -3.19005 5.5105C-3.41496 5.57338 -3.64887 5.60032 -3.88278 5.56439L-6.75268 5.2051C-7.03158 6.90277 -7.31947 8.33994 -7.58936 9.49866L1.3982 12.5167L7.61481 17.7445L5.33868 2.2499C5.17675 1.14507 5.86049 0.067194 6.94007 -0.25617C7.03903 -0.283117 7.14699 -0.310066 7.25495 -0.328032C7.84872 -0.417854 8.45149 -0.265154 8.93731 0.094141C9.42312 0.453434 9.738 0.983397 9.82796 1.58521L12.1221 17.1786L14.2093 16.5049L17.0612 15.6606L15.8377 -4.03775L9.12624 -2.48379V-2.45684Z" fill="#F1F3F4"/>
<path d="M15.5499 20.8697L7.38106 23.5105L-0.877773 16.5582L-9.77536 13.5671C-10.0543 13.6389 -10.3511 13.6389 -10.63 13.5671L-16.001 12.1299L-15.4522 29.0437L-13.1401 34.9002L-0.715836 83.36L34.1008 73.659L17.916 20.1691L15.5409 20.8697H15.5499Z" fill="#DBDBDB"/>
<path d="M158.073 -42.1776L171.208 7.56673L179.458 -1.90966L168.275 -38.405C167.969 -39.411 168.383 -40.4889 169.292 -41.0188L171.766 -42.474L160.313 -78.583C160.178 -79.0052 160.169 -79.4543 160.295 -79.8765L161.168 -83.0293L151.785 -80.7747C153.503 -70.3462 155.617 -57.3667 158.064 -42.1686L158.073 -42.1776Z" fill="#F1F3F4"/>
<path d="M70.5101 96.4476L62.0894 72.9229L40.4526 78.95L41.1634 81.3124L51.6623 104.945L64.1316 120.323L67.7572 128.389L78.9939 125.065L70.5101 96.4476Z" fill="#DBDBDB"/>
<path d="M39.5436 8.528L37.6543 0.147461L20.8218 2.923L21.5325 14.3037L39.5436 8.528Z" fill="#F1F3F4"/>
<path d="M151.389 -40.8842L150.283 -47.7197L140.953 -47.3964H140.782L143.724 -29.3239C143.742 -29.2071 143.751 -29.0993 143.751 -28.9915L143.931 -10.1376L148.861 2.77008L161.69 14.1058L165.577 16.6568L166.503 16.3604L151.38 -40.8931L151.389 -40.8842Z" fill="#F1F3F4"/>
<path d="M167.925 23.0615L164.2 24.2471L128.934 22.8369L127.233 33.0319L146.999 34.1277L169.067 31.9989L167.925 23.0615Z" fill="#F1F3F4"/>
<path d="M169.076 36.5527L147.26 38.6546C147.143 38.6636 147.035 38.6636 146.918 38.6546L129.167 37.6755L132.469 42.2835C132.559 42.4182 132.64 42.553 132.703 42.6967L137.516 53.7001L151.29 75.0601C151.965 76.111 151.659 77.5123 150.615 78.1949L146.126 81.0962L147.341 96.0159L150.012 104.082L162.869 100.283L169.058 36.5617L169.076 36.5527Z" fill="#E8E8E8"/>
<path d="M142.959 97.1838C142.905 97.0132 142.869 96.8335 142.851 96.6539L141.501 80.1084C141.43 79.273 141.825 78.4736 142.527 78.0245L146.252 75.6172L133.603 56.0087C133.54 55.9009 133.477 55.8021 133.432 55.6943L128.636 44.7448L122.627 36.3643L122.537 36.1397C122.492 36.0679 122.438 35.9421 122.393 35.8074C122.339 35.6188 122.321 35.4571 122.312 35.3493C122.312 35.3493 122.276 35.2146 122.285 35.0349V34.8643C122.285 34.8643 122.312 34.7924 122.312 34.7744L124.336 22.6572H124.264L115.474 25.5945L65.8765 70.102L74.8011 95.037L83.3208 123.781L145.64 105.367L142.923 97.1838H142.959Z" fill="#F1F3F4"/>
<path d="M185.405 37.6581C185.189 37.694 184.973 37.694 184.757 37.6671L175.913 36.5892L169.931 98.1902L196.632 90.3037C208.661 86.7467 215.525 74.1355 211.963 62.135L203.812 34.6221L185.405 37.6491V37.6581Z" fill="#F1F3F4"/>
<path d="M59.399 66.6082L54.6758 56.3324L40.6592 12.9297L22.2612 18.8311L38.482 72.4378L59.399 66.6082Z" fill="#F0F0F0"/>
<path d="M139.216 -28.7577L138.991 -30.168L106.037 -20.0898L106.325 -19.8383C106.424 -19.7574 106.532 -19.6406 106.631 -19.5239L121.898 0.0127468C122.069 0.237307 122.204 0.48881 122.285 0.767262L126.783 15.9474L158.343 17.214L145.451 5.81534C145.181 5.5818 144.965 5.26743 144.83 4.9261L139.549 -8.88877C139.45 -9.14027 139.405 -9.40076 139.396 -9.67023L139.216 -28.7577Z" fill="#F0F0F0"/>
<path d="M67.271 -3.1123L44.8516 8.87913L45.1754 11.484L44.9865 11.5469L58.9402 54.743L62.9886 63.5727L103.086 27.5894L85.3541 26.3768L77.4281 18.0501L73.3616 -0.821815L67.271 -3.1123Z" fill="#F1F3F4"/>
<path d="M20.0933 -77.6489L28.1992 -50.3066L40.0476 -52.2558L53.1376 -54.0343L56.0255 -44.2884L51.6712 -43.004L49.8898 -49.0222L40.7224 -47.7826L29.4947 -45.9322L39.5978 -11.8532L43.2954 4.55759L66.9383 -8.08956L77.2754 -4.2002L81.5937 15.8394L87.4235 21.9654L107.792 23.3577L111.993 19.5851L122.114 16.1987L118.039 2.45573L103.185 -16.5599L93.7211 -24.7069C93.7211 -24.7069 93.6131 -24.8417 93.5861 -24.8776C93.4691 -25.0123 93.3612 -25.165 93.2802 -25.3357C93.2442 -25.4165 93.2083 -25.4884 93.1813 -25.5692L93.1003 -25.7848L90.7522 -35.0097L79.0297 -54.8607C78.9307 -55.0224 78.8587 -55.202 78.8048 -55.3906L68.3688 -91.9219L20.1023 -77.6669L20.0933 -77.6489Z" fill="#F1F3F4"/>
<path d="M24.4204 -81.0527L33.3 -57.0788L35.3962 -50.0097L40.2544 -39.6261L42.9893 -30.3833L45.8682 -14.6821L49.7367 -1.63974L52.4717 7.60309L60.7125 29.4033L68.9534 51.2034L77.653 64.5871C77.653 64.5871 84.4634 75.5816 84.9492 77.2074C85.435 78.8421 88.8178 90.2497 88.8178 90.2497L97.5804 101.846L104.832 110.343L113.837 114.772L119.901 121.257" stroke="#DBDBDB" stroke-width="3.79" stroke-miterlimit="10"/>
<path d="M135.105 -115.724L141.556 -76.6504L142.959 -65.2428C142.959 -65.2428 144.848 -57.527 144.983 -54.4101C145.118 -51.2932 145.37 -41.1252 146.009 -38.9515C146.657 -36.7777 148.717 -27.1397 149.904 -23.1605C151.083 -19.1723 152.909 -13.0194 152.909 -13.0194L157.713 0.53498L160.439 8.39454L165.567 16.6673L167.529 21.6705L175.904 39.2938L182.256 56.7286L184.28 67.5613L186.601 76.7233L189.57 88.059L189.957 101.344" stroke="#DBDBDB" stroke-width="1.26" stroke-miterlimit="10"/>
<path d="M81.5669 70.8213L88.0714 74.8005L94.4859 76.4532L100.496 76.7496L109.591 78.4922L117.283 79.4713L122.492 82.0672L126.874 87.8698L129.321 95.1275L131.75 100.319L136.059 102.888L137.355 107.236L139.073 112.05" stroke="#DBDBDB" stroke-width="1.26" stroke-miterlimit="10"/>
<path d="M59.759 -95.6309C59.759 -95.6309 63.2407 -81.8789 63.1777 -80.0914C63.1147 -78.3039 60.3258 -72.7438 60.3258 -72.7438C60.3258 -72.7438 58.6434 -73.4265 57.8427 -71.127C57.042 -68.8185 56.2953 -65.3513 57.276 -65.0459C58.2566 -64.7405 60.8296 -64.0309 60.8296 -64.0309L62.8178 -64.3184L64.6351 -62.1985C64.6351 -62.1985 65.6967 -61.6237 64.959 -61.1117C64.2213 -60.5997 64.5272 -61.5788 63.4836 -60.0877C62.449 -58.5966 61.0545 -57.3032 61.0545 -57.3032L62.7908 -55.4528L64.8241 -54.5725C64.8241 -54.5725 66.5154 -56.8451 67.3251 -54.1324C68.1348 -51.4107 68.2607 -49.9736 66.0026 -49.6053C63.7445 -49.237 63.2137 -52.0305 62.6559 -48.9136C62.0981 -45.7968 62.278 -43.1919 62.278 -43.1919L65.6427 -41.8266L65.9036 -38.9522L63.5016 -37.0569C63.5016 -37.0569 61.5943 -36.491 60.8566 -35.979C60.1189 -35.4671 57.5638 -34.1197 57.5638 -34.1197L56.1604 -29.8621C56.1604 -29.8621 53.6953 -26.1793 54.1002 -24.823C54.505 -23.4666 53.3715 -19.2898 53.3445 -18.3916C53.3175 -17.4934 52.1299 -14.4843 52.1299 -14.4843L53.0026 -8.53796L51.1403 -3.84917L50.5825 -0.732296L54.0732 10.0555L56.6732 12.8311C56.6732 12.8311 59.0843 15.9659 60.1099 17.43C61.1355 18.9031 63.5915 23.1967 63.5915 23.1967C63.5915 23.1967 63.7265 24.6339 65.04 28.0921C66.3535 31.5503 67.7299 36.1672 67.7299 36.1672L67.2621 44.5837" stroke="#DBDBDB" stroke-width="1.26" stroke-miterlimit="10"/>
<path d="M176.4 -85.2563C176.067 -85.7593 175.563 -86.1096 174.969 -86.2353L166.359 -88.0588L162.509 -109.769C162.293 -111 161.105 -111.826 159.882 -111.601C159.792 -111.584 159.711 -111.566 159.621 -111.539C158.514 -111.215 157.831 -110.11 158.038 -108.97L161.78 -87.8522L151.047 -85.2652C145.919 -116.209 145.523 -116.766 145.074 -117.413L144.426 -118.338L139.766 -115.096L140.071 -114.656L139.064 -114.35C139.703 -112.212 145.056 -79.8309 149.545 -52.2012L140.908 -51.8958L128.223 -52.0844C128.097 -52.0844 127.971 -52.0844 127.845 -52.0575L116.896 -50.3958C116.788 -50.3778 116.689 -50.3598 116.59 -50.3239C116.384 -50.261 116.186 -50.1712 115.997 -50.0544L98.1205 -38.4672C97.7247 -38.2067 97.4188 -37.8384 97.2478 -37.3983L95.7634 -33.6526L95.0617 -36.3833C95.0077 -36.5989 94.9267 -36.7965 94.8188 -36.9761L88.5212 -47.6471L91.2561 -45.9854C91.8049 -45.6531 92.4707 -45.5632 93.1364 -45.7608L122.681 -55.2732C122.888 -55.336 123.077 -55.4348 123.257 -55.5516L134.781 -63.2944C135.366 -63.6896 135.744 -64.3453 135.78 -65.0549L136.482 -78.6632C136.5 -79.0854 136.401 -79.4986 136.203 -79.8758L133.279 -85.1395L135.582 -92.8733C135.69 -93.2326 135.708 -93.6098 135.627 -93.9781L130.076 -120.71C129.95 -121.302 129.608 -121.814 129.105 -122.147C128.601 -122.479 127.989 -122.596 127.404 -122.47L127.206 -122.416C126.064 -122.084 125.398 -120.952 125.641 -119.784L131.075 -93.6098L128.997 -86.6395L124.462 -85.0946L121.97 -93.4931L117.841 -109.41C117.688 -109.994 117.319 -110.488 116.797 -110.793C116.276 -111.098 115.664 -111.188 115.025 -111.018C113.837 -110.667 113.145 -109.464 113.451 -108.269L116.177 -97.7507L85.5613 -88.427C84.9316 -88.2384 84.4188 -87.7803 84.1579 -87.1875C83.9689 -86.7653 83.915 -86.2892 83.9959 -85.8401L75.5931 -83.1634L72.7052 -93.2775C72.5433 -93.8614 72.1564 -94.3464 71.6257 -94.6338C71.0949 -94.9303 70.4831 -95.0021 69.8803 -94.8225C68.6928 -94.4722 68 -93.2146 68.3419 -92.0289L78.8229 -55.3271C78.8769 -55.1384 78.9579 -54.9588 79.0478 -54.7971L90.7703 -34.9461L93.1184 -25.7212L93.1994 -25.5056C93.2264 -25.4248 93.2624 -25.3529 93.2984 -25.2721C93.3793 -25.1014 93.4873 -24.9487 93.6042 -24.814C93.6312 -24.7781 93.7392 -24.6433 93.7392 -24.6433L103.204 -16.4963L118.057 2.51929L122.132 16.2623L112.011 19.6487L107.81 23.4212L87.4416 22.029L81.6118 15.903L77.2935 -4.13662L66.9564 -8.02599L43.3135 4.62117L39.6159 -11.7896L29.5128 -45.8686L40.7405 -47.719L49.908 -48.9586L51.6893 -42.9404L56.0436 -44.2249L53.1557 -53.9707L40.0657 -52.1922L28.2173 -50.243L19.3197 -80.2621L14.9654 -78.9776L35.2256 -10.6488L36.674 -4.22645L20.5522 -1.57666L20.2373 -6.67863L-4.64713 -72.9684L-8.9025 -71.3785L15.1543 -7.28944L13.7418 -6.96607L3.76464 -35.512L1.71343 -39.7786L-6.5634 -60.3841C-6.8243 -61.0219 -7.42707 -61.4351 -8.1108 -61.444L-18.2229 -61.6057C-18.3939 -61.6057 -18.5648 -61.5878 -18.7357 -61.5339C-19.4015 -61.3363 -19.8783 -60.7614 -19.9503 -60.0697L-21.9025 -40.2187L-32.6354 -40.066L-29.3517 -67.5431C-29.2347 -68.4772 -29.9095 -69.3216 -30.8451 -69.4294C-31.079 -69.4563 -31.3039 -69.4294 -31.5288 -69.3755C-32.1856 -69.1868 -32.6534 -68.6209 -32.7344 -67.9473L-36.27 -38.3414V-38.3145L-33.8499 -0.130501C-33.823 0.318619 -33.616 0.740791 -33.2742 1.03721C-32.9323 1.33363 -32.4915 1.48633 -32.0506 1.45938C-31.9247 1.45938 -31.7897 1.43243 -31.6638 1.3965C-30.8991 1.17194 -30.3953 0.453354 -30.4492 -0.33709L-31.5738 -18.1132L-28.3351 -18.0054L-27.9122 1.20788C-27.8942 2.04324 -27.2555 2.75284 -26.4188 2.86063L-10.135 4.88165C-10.5849 7.5584 -10.9357 9.0854 -11.1876 9.96567L-16.0997 8.65424L-16.1177 8.17818L-17.6741 8.23207L-30.7371 4.73793C-31.043 4.65709 -31.3579 4.6571 -31.6638 4.74693C-32.2396 4.91759 -32.6714 5.35771 -32.8243 5.94156C-33.0672 6.84879 -32.5185 7.78296 -31.6188 8.02548L-20.571 10.9807L-19.9503 30.0502L-17.4672 36.3738L-5.07897 84.6539L-11.3586 86.4055L-9.53226 92.9536L1.24561 89.9535L6.64354 104.703C7.05738 105.825 8.27192 106.436 9.42348 106.095L30.1515 99.9688L31.2761 104.738L27.7765 110.442C27.1197 111.511 27.4616 112.903 28.5232 113.559C29.072 113.891 29.7377 113.981 30.3585 113.802C30.8983 113.64 31.3571 113.29 31.654 112.814L35.6484 106.31C35.9633 105.798 36.0623 105.188 35.9183 104.604L34.5149 98.6844L42.8097 96.2322L46.0035 103.436L37.1689 122.272L-0.544704 102.897C-1.06651 102.628 -1.66928 102.574 -2.22706 102.735C-2.82084 102.906 -3.32464 103.328 -3.60353 103.876C-3.88243 104.415 -3.9364 105.026 -3.74747 105.61C-3.55855 106.185 -3.1627 106.661 -2.62291 106.93L37.1868 127.383C37.7086 127.652 38.3024 127.706 38.9502 127.518C39.5259 127.32 40.0118 126.889 40.2727 126.332L48.6575 108.457L60.173 122.658L66.2997 136.293L70.4471 134.434L64.1315 120.395L51.6623 105.017L41.1633 81.3844L40.4526 79.022L62.0983 72.9859L70.5191 96.5106L79.7585 127.67L84.1129 126.386L74.8374 95.1094L65.9128 70.1744L115.511 25.6668L124.3 22.7206H124.372L122.348 34.8378C122.348 34.8558 122.33 34.9276 122.33 34.9276V35.0983C122.312 35.269 122.33 35.4127 122.339 35.4127C122.339 35.5205 122.357 35.6821 122.42 35.8708C122.465 36.0055 122.519 36.1402 122.564 36.2031L122.654 36.4277L128.664 44.8082L133.459 55.7577C133.504 55.8655 133.558 55.9643 133.63 56.0721L146.279 75.6806L142.554 78.0878C141.853 78.5459 141.457 79.3454 141.529 80.1717L142.878 96.7172C142.896 96.8969 142.932 97.0765 142.986 97.2472L146.675 108.367C147.062 109.535 148.285 110.182 149.545 109.805C150.121 109.616 150.588 109.212 150.858 108.673C151.128 108.134 151.173 107.514 150.984 106.948L147.377 96.0795L146.162 81.1598L150.651 78.2585C151.704 77.5848 152.001 76.1746 151.326 75.1237L137.552 53.7636L132.739 42.7602C132.676 42.6165 132.595 42.4818 132.505 42.3471L129.204 37.7391L146.954 38.7182C147.062 38.7182 147.179 38.7182 147.296 38.7182L169.112 36.6163L162.275 106.993L169.058 107.649L175.959 36.6522L184.802 37.7301C185.018 37.7571 185.234 37.7571 185.45 37.7211L206.52 34.254C206.619 34.236 206.709 34.218 206.799 34.1911C207.896 33.8677 208.58 32.7719 208.391 31.6491C208.292 31.0473 207.968 30.5263 207.474 30.176C206.979 29.8257 206.376 29.6819 205.782 29.7807L185.027 33.194L175.932 32.0892L174.564 21.0229L199.8 12.9837L197.73 6.50746L174.933 13.7742L197.245 -11.8525L192.107 -16.3167L183.03 -5.88819L173.197 -37.9732L175.689 -39.4373C176.606 -39.9762 177.02 -41.0631 176.696 -42.0781L164.902 -79.265L166.062 -83.4328L174.078 -81.7352C174.447 -81.6543 174.834 -81.6723 175.194 -81.7801C175.995 -82.0136 176.597 -82.6693 176.768 -83.4867C176.894 -84.0796 176.777 -84.6814 176.453 -85.1934L176.4 -85.2563ZM171.775 -42.4913L169.301 -41.0361C168.393 -40.5062 167.979 -39.4283 168.285 -38.4223L179.467 -1.92697L171.218 7.54941L158.083 -42.1949C155.626 -57.402 153.521 -70.3815 151.803 -80.801L161.186 -83.0556L160.314 -79.9028C160.197 -79.4806 160.197 -79.0315 160.332 -78.6093L171.784 -42.5003L171.775 -42.4913ZM139.217 -28.7573L139.397 -9.66975C139.397 -9.40028 139.451 -9.1398 139.55 -8.8883L144.831 4.92657C144.966 5.2679 145.172 5.57329 145.451 5.81581L158.343 17.2144L126.784 15.9479L122.285 0.767738C122.204 0.49826 122.069 0.237778 121.898 0.0132217L106.631 -19.5234C106.532 -19.6491 106.424 -19.7569 106.325 -19.8378L106.037 -20.0893L138.992 -30.1675L139.217 -28.7573ZM128.934 22.8374L164.2 24.2476L167.925 23.0619L169.067 31.9994L146.99 34.1192L127.224 33.0234L128.934 22.8284V22.8374ZM165.577 16.6665L161.69 14.1155L148.861 2.77979L143.931 -10.1279L143.751 -28.9818C143.751 -29.0896 143.742 -29.1974 143.724 -29.3142L140.782 -47.3956H140.953L150.283 -47.719L151.389 -40.8834L166.512 16.3701L165.586 16.6665H165.577ZM136.167 -47.4585L138.245 -34.6766L101.962 -23.5834L97.9946 -26.9967L101.197 -35.0898L118.057 -46.0124L128.34 -47.5663L136.167 -47.4495V-47.4585ZM89.115 -83.5676C89.2949 -83.9808 89.3489 -84.4299 89.2769 -84.87L117.292 -93.4033L117.571 -92.3254L120.135 -83.6664L112.542 -81.0795L79.2997 -70.139L76.8167 -78.8339L87.7385 -82.31C88.3592 -82.5077 88.8631 -82.9568 89.124 -83.5586L89.115 -83.5676ZM92.7316 -50.4317L84.4727 -55.4618C84.2568 -55.5965 84.0139 -55.6863 83.771 -55.7402L83.0873 -56.899L80.5502 -65.7825L113.99 -76.7859L129.761 -82.1484L131.912 -78.277L131.3 -66.4562L120.99 -59.5308L92.7406 -50.4317H92.7316ZM5.63593 88.6601L26.1301 82.9473L29.0989 95.4777L10.1792 101.065L5.63593 88.6511V88.6601ZM-13.1309 34.9097L-15.443 29.0532L-15.9918 12.1394L-10.6208 13.5766C-10.342 13.6484 -10.0451 13.6574 -9.76617 13.5766L-0.86858 16.5677L7.39025 23.52L15.5591 20.8792L17.9342 20.1786L34.119 73.6685L-0.697643 83.3695L-13.1219 34.9097H-13.1309ZM-9.31634 -58.1206L-1.41737 -38.4582L0.597862 -34.2634L0.822777 -33.6077L-0.310791 -32.8173L-10.243 -31.6226L-10.4859 -38.7816C-10.5129 -39.6978 -11.2956 -40.4343 -12.2132 -40.4253L-18.5108 -40.3355L-16.7475 -58.2463L-9.33434 -58.1296L-9.31634 -58.1206ZM9.94528 -6.13969L8.09199 -12.8226L10.3951 -6.2385L9.95427 -6.13969H9.94528ZM-25.1593 -28.1375H-13.5177L-13.2748 -20.9696L-25.0063 -21.3648L-25.1593 -28.1285V-28.1375ZM-12.834 -17.5652L-9.07343 -3.70547L-24.6645 -5.81633L-24.9344 -17.9695L-12.834 -17.5652ZM-13.6347 -31.5328H-26.8956C-27.0575 -31.5328 -27.2285 -31.5148 -27.3814 -31.4699C-27.6603 -31.3891 -27.9212 -31.2364 -28.1101 -31.0298C-28.434 -30.7064 -28.605 -30.2573 -28.596 -29.7992L-28.416 -21.4905L-31.7987 -21.6073L-32.7524 -36.7336L-13.8056 -37.0031L-13.6257 -31.5418L-13.6347 -31.5328ZM-9.37932 -0.310143C-9.46029 0.264725 -9.54126 0.857559 -9.62223 1.44141L-24.5475 -0.408951L-24.5925 -2.36711L-9.37932 -0.310143ZM14.2096 16.5407L12.1224 17.2144L9.82832 1.62106C9.73836 1.01924 9.42348 0.489288 8.93766 0.129997C8.45185 -0.229301 7.84908 -0.381996 7.25531 -0.292175C7.14735 -0.274208 7.03939 -0.256256 6.94043 -0.220329C5.86984 0.0940552 5.1771 1.17194 5.33904 2.28575L7.61517 17.7803L1.39856 12.5526L-7.58901 9.5345C-7.31911 8.37578 -7.04022 6.93861 -6.75233 5.24094L-3.88242 5.60025C-3.64851 5.6272 -3.41461 5.60025 -3.18969 5.54636C-2.54194 5.35773 -2.06512 4.80082 -1.98415 4.12714C-1.8672 3.20196 -2.53294 2.34863 -3.45959 2.23186L-6.23053 1.89053C-6.10457 1.00127 -5.99661 0.165909 -5.89765 -0.570641L2.88298 -3.3372C3.31482 -3.47193 3.67468 -3.76836 3.8816 -4.17256C4.08852 -4.57677 4.13351 -5.03487 3.99856 -5.46602C3.71967 -6.35527 2.80201 -6.8493 1.86637 -6.57983L-5.68174 -4.19951L-6.13156 -5.87022L-0.913559 -7.72957C-0.481724 -7.88227 -0.139862 -8.19666 0.0580635 -8.60086C0.255989 -9.01405 0.273979 -9.47215 0.12104 -9.89432C-0.184845 -10.7476 -1.10249 -11.2057 -2.05613 -10.9273L-7.03122 -9.15776L-9.36132 -17.7359L-4.62914 -18.3377L-1.72325 -17.4395C-1.39938 -17.3407 -1.05751 -17.3407 -0.733631 -17.4395C-0.184841 -17.6012 0.237995 -18.0233 0.408928 -18.5713C0.68782 -19.4695 0.184013 -20.4216 -0.715641 -20.7001L-3.97239 -21.7061C-4.2063 -21.778 -4.44921 -21.7959 -4.69212 -21.769L-9.87413 -21.1043L-10.108 -28.1914L0.543877 -29.4758L0.723812 -29.5028L0.813778 -29.5297C0.984711 -29.5836 1.15564 -29.6645 1.30858 -29.7633L2.00132 -30.2483L7.03939 -15.8316C6.61655 -16.2628 5.9688 -16.4514 5.31205 -16.2718C4.43939 -16.0113 3.92658 -15.0771 4.16949 -14.1879L7.10237 -3.62463C7.34527 -2.74436 8.23593 -2.21441 9.12659 -2.42101L15.838 -3.97495L17.0616 15.7233L14.2096 16.5677V16.5407ZM33.4533 94.1932L30.5024 81.7257L36.0713 80.1717L36.872 82.8215L40.9384 91.9746L33.4533 94.1842V94.1932ZM45.1758 11.4837L44.8519 8.88779L67.2713 -3.10366L73.362 -0.813156L77.4194 18.0498L85.3454 26.3764L103.078 27.589L62.98 63.5723L58.9315 54.7517L44.9779 11.5466L45.1668 11.4837H45.1758ZM21.5328 14.3131L20.8221 2.93249L37.6547 0.165916L39.5439 8.53746L21.5328 14.3131ZM38.4824 72.4469L22.2706 18.8402L40.6685 12.9388L54.6851 56.3416L59.3993 66.6264L38.4824 72.4559V72.4469Z" fill="white"/>
</g>
</g>
<defs>
<clipPath id="clip0_1221_817">
<path d="M0 13C0 5.8203 5.8203 0 13 0H157C164.18 0 170 5.8203 170 13V80H0V13Z" fill="white"/>
</clipPath>
</defs>
</svg>
