<svg width="170" height="80" viewBox="0 0 170 80" fill="none" xmlns="http://www.w3.org/2000/svg">
<path d="M176.4 -85.2563C176.067 -85.7593 175.563 -86.1096 174.969 -86.2353L166.359 -88.0588L162.509 -109.769C162.293 -111 161.105 -111.826 159.882 -111.601C159.792 -111.584 159.711 -111.566 159.621 -111.539C158.514 -111.215 157.831 -110.11 158.038 -108.97L161.78 -87.8522L151.047 -85.2652C145.919 -116.209 145.523 -116.766 145.074 -117.413L144.426 -118.338L139.766 -115.096L140.071 -114.656L139.064 -114.35C139.703 -112.212 145.056 -79.8309 149.545 -52.2012L140.908 -51.8958L128.223 -52.0844C128.097 -52.0844 127.971 -52.0844 127.845 -52.0575L116.896 -50.3958C116.788 -50.3778 116.689 -50.3598 116.59 -50.3239C116.384 -50.261 116.186 -50.1712 115.997 -50.0544L98.1205 -38.4672C97.7247 -38.2067 97.4188 -37.8384 97.2478 -37.3983L95.7634 -33.6526L95.0617 -36.3833C95.0077 -36.5989 94.9267 -36.7965 94.8188 -36.9761L88.5212 -47.6471L91.2561 -45.9854C91.8049 -45.6531 92.4707 -45.5632 93.1364 -45.7608L122.681 -55.2732C122.888 -55.336 123.077 -55.4348 123.257 -55.5516L134.781 -63.2944C135.366 -63.6896 135.744 -64.3453 135.78 -65.0549L136.482 -78.6632C136.5 -79.0854 136.401 -79.4986 136.203 -79.8758L133.279 -85.1395L135.582 -92.8733C135.69 -93.2326 135.708 -93.6098 135.627 -93.9781L130.076 -120.71C129.95 -121.302 129.608 -121.814 129.105 -122.147C128.601 -122.479 127.989 -122.596 127.404 -122.47L127.206 -122.416C126.064 -122.084 125.398 -120.952 125.641 -119.784L131.075 -93.6098L128.997 -86.6395L124.462 -85.0946L121.97 -93.4931L117.841 -109.41C117.688 -109.994 117.319 -110.488 116.797 -110.793C116.276 -111.098 115.664 -111.188 115.025 -111.018C113.837 -110.667 113.145 -109.464 113.451 -108.269L116.177 -97.7507L85.5613 -88.427C84.9316 -88.2384 84.4188 -87.7803 84.1579 -87.1875C83.9689 -86.7653 83.915 -86.2892 83.9959 -85.8401L75.5931 -83.1634L72.7052 -93.2775C72.5433 -93.8614 72.1564 -94.3464 71.6257 -94.6338C71.0949 -94.9303 70.4831 -95.0021 69.8803 -94.8225C68.6928 -94.4722 68 -93.2146 68.3419 -92.0289L78.8229 -55.3271C78.8769 -55.1384 78.9579 -54.9588 79.0478 -54.7971L90.7703 -34.9461L93.1184 -25.7212L93.1994 -25.5056C93.2264 -25.4248 93.2624 -25.3529 93.2984 -25.2721C93.3793 -25.1014 93.4873 -24.9487 93.6042 -24.814C93.6312 -24.7781 93.7392 -24.6433 93.7392 -24.6433L103.204 -16.4963L118.057 2.51929L122.132 16.2623L112.011 19.6487L107.81 23.4212L87.4416 22.029L81.6118 15.903L77.2935 -4.13662L66.9564 -8.02599L43.3135 4.62117L39.6159 -11.7896L29.5128 -45.8686L40.7405 -47.719L49.908 -48.9586L51.6893 -42.9404L56.0436 -44.2249L53.1557 -53.9707L40.0657 -52.1922L28.2173 -50.243L19.3197 -80.2621L14.9654 -78.9776L35.2256 -10.6488L36.674 -4.22645L20.5522 -1.57666L20.2373 -6.67863L-4.64713 -72.9684L-8.9025 -71.3785L15.1543 -7.28944L13.7418 -6.96607L3.76464 -35.512L1.71343 -39.7786L-6.5634 -60.3841C-6.8243 -61.0219 -7.42707 -61.4351 -8.1108 -61.444L-18.2229 -61.6057C-18.3939 -61.6057 -18.5648 -61.5878 -18.7357 -61.5339C-19.4015 -61.3363 -19.8783 -60.7614 -19.9503 -60.0697L-21.9025 -40.2187L-32.6354 -40.066L-29.3517 -67.5431C-29.2347 -68.4772 -29.9095 -69.3216 -30.8451 -69.4294C-31.079 -69.4563 -31.3039 -69.4294 -31.5288 -69.3755C-32.1856 -69.1868 -32.6534 -68.6209 -32.7344 -67.9473L-36.27 -38.3414V-38.3145L-33.8499 -0.130501C-33.823 0.318619 -33.616 0.740791 -33.2742 1.03721C-32.9323 1.33363 -32.4915 1.48633 -32.0506 1.45938C-31.9247 1.45938 -31.7897 1.43243 -31.6638 1.3965C-30.8991 1.17194 -30.3953 0.453354 -30.4492 -0.33709L-31.5738 -18.1132L-28.3351 -18.0054L-27.9122 1.20788C-27.8942 2.04324 -27.2555 2.75284 -26.4188 2.86063L-10.135 4.88165C-10.5849 7.5584 -10.9357 9.0854 -11.1876 9.96567L-16.0997 8.65424L-16.1177 8.17818L-17.6741 8.23207L-30.7371 4.73793C-31.043 4.65709 -31.3579 4.6571 -31.6638 4.74693C-32.2396 4.91759 -32.6714 5.35771 -32.8243 5.94156C-33.0672 6.84879 -32.5185 7.78296 -31.6188 8.02548L-20.571 10.9807L-19.9503 30.0502L-17.4672 36.3738L-5.07897 84.6539L-11.3586 86.4055L-9.53226 92.9536L1.24561 89.9535L6.64354 104.703C7.05738 105.825 8.27192 106.436 9.42348 106.095L30.1515 99.9688L31.2761 104.738L27.7765 110.442C27.1197 111.511 27.4616 112.903 28.5232 113.559C29.072 113.891 29.7377 113.981 30.3585 113.802C30.8983 113.64 31.3571 113.29 31.654 112.814L35.6484 106.31C35.9633 105.798 36.0623 105.188 35.9183 104.604L34.5149 98.6844L42.8097 96.2322L46.0035 103.436L37.1689 122.272L-0.544704 102.897C-1.06651 102.628 -1.66928 102.574 -2.22706 102.735C-2.82084 102.906 -3.32464 103.328 -3.60353 103.876C-3.88243 104.415 -3.9364 105.026 -3.74747 105.61C-3.55855 106.185 -3.1627 106.661 -2.62291 106.93L37.1868 127.383C37.7086 127.652 38.3024 127.706 38.9502 127.518C39.5259 127.32 40.0118 126.889 40.2727 126.332L48.6575 108.457L60.173 122.658L66.2997 136.293L70.4471 134.434L64.1315 120.395L51.6623 105.017L41.1633 81.3844L40.4526 79.022L62.0983 72.9859L70.5191 96.5106L79.7585 127.67L84.1129 126.386L74.8374 95.1094L65.9128 70.1744L115.511 25.6668L124.3 22.7206H124.372L122.348 34.8378C122.348 34.8558 122.33 34.9276 122.33 34.9276V35.0983C122.312 35.269 122.33 35.4127 122.339 35.4127C122.339 35.5205 122.357 35.6821 122.42 35.8708C122.465 36.0055 122.519 36.1402 122.564 36.2031L122.654 36.4277L128.664 44.8082L133.459 55.7577C133.504 55.8655 133.558 55.9643 133.63 56.0721L146.279 75.6806L142.554 78.0878C141.853 78.5459 141.457 79.3454 141.529 80.1717L142.878 96.7172C142.896 96.8969 142.932 97.0765 142.986 97.2472L146.675 108.367C147.062 109.535 148.285 110.182 149.545 109.805C150.121 109.616 150.588 109.212 150.858 108.673C151.128 108.134 151.173 107.514 150.984 106.948L147.377 96.0795L146.162 81.1598L150.651 78.2585C151.704 77.5848 152.001 76.1746 151.326 75.1237L137.552 53.7636L132.739 42.7602C132.676 42.6165 132.595 42.4818 132.505 42.3471L129.204 37.7391L146.954 38.7182C147.062 38.7182 147.179 38.7182 147.296 38.7182L169.112 36.6163L162.275 106.993L169.058 107.649L175.959 36.6522L184.802 37.7301C185.018 37.7571 185.234 37.7571 185.45 37.7211L206.52 34.254C206.619 34.236 206.709 34.218 206.799 34.1911C207.896 33.8677 208.58 32.7719 208.391 31.6491C208.292 31.0473 207.968 30.5263 207.474 30.176C206.979 29.8257 206.376 29.6819 205.782 29.7807L185.027 33.194L175.932 32.0892L174.564 21.0229L199.8 12.9837L197.73 6.50746L174.933 13.7742L197.245 -11.8525L192.107 -16.3167L183.03 -5.88819L173.197 -37.9732L175.689 -39.4373C176.606 -39.9762 177.02 -41.0631 176.696 -42.0781L164.902 -79.265L166.062 -83.4328L174.078 -81.7352C174.447 -81.6543 174.834 -81.6723 175.194 -81.7801C175.995 -82.0136 176.597 -82.6693 176.768 -83.4867C176.894 -84.0796 176.777 -84.6814 176.453 -85.1934L176.4 -85.2563ZM171.775 -42.4913L169.301 -41.0361C168.393 -40.5062 167.979 -39.4283 168.285 -38.4223L179.467 -1.92697L171.218 7.54941L158.083 -42.1949C155.626 -57.402 153.521 -70.3815 151.803 -80.801L161.186 -83.0556L160.314 -79.9028C160.197 -79.4806 160.197 -79.0315 160.332 -78.6093L171.784 -42.5003L171.775 -42.4913ZM139.217 -28.7573L139.397 -9.66975C139.397 -9.40028 139.451 -9.1398 139.55 -8.8883L144.831 4.92657C144.966 5.2679 145.172 5.57329 145.451 5.81581L158.343 17.2144L126.784 15.9479L122.285 0.767738C122.204 0.49826 122.069 0.237778 121.898 0.0132217L106.631 -19.5234C106.532 -19.6491 106.424 -19.7569 106.325 -19.8378L106.037 -20.0893L138.992 -30.1675L139.217 -28.7573ZM128.934 22.8374L164.2 24.2476L167.925 23.0619L169.067 31.9994L146.99 34.1192L127.224 33.0234L128.934 22.8284V22.8374ZM165.577 16.6665L161.69 14.1155L148.861 2.77979L143.931 -10.1279L143.751 -28.9818C143.751 -29.0896 143.742 -29.1974 143.724 -29.3142L140.782 -47.3956H140.953L150.283 -47.719L151.389 -40.8834L166.512 16.3701L165.586 16.6665H165.577ZM136.167 -47.4585L138.245 -34.6766L101.962 -23.5834L97.9946 -26.9967L101.197 -35.0898L118.057 -46.0124L128.34 -47.5663L136.167 -47.4495V-47.4585ZM89.115 -83.5676C89.2949 -83.9808 89.3489 -84.4299 89.2769 -84.87L117.292 -93.4033L117.571 -92.3254L120.135 -83.6664L112.542 -81.0795L79.2997 -70.139L76.8167 -78.8339L87.7385 -82.31C88.3592 -82.5077 88.8631 -82.9568 89.124 -83.5586L89.115 -83.5676ZM92.7316 -50.4317L84.4727 -55.4618C84.2568 -55.5965 84.0139 -55.6863 83.771 -55.7402L83.0873 -56.899L80.5502 -65.7825L113.99 -76.7859L129.761 -82.1484L131.912 -78.277L131.3 -66.4562L120.99 -59.5308L92.7406 -50.4317H92.7316ZM5.63593 88.6601L26.1301 82.9473L29.0989 95.4777L10.1792 101.065L5.63593 88.6511V88.6601ZM-13.1309 34.9097L-15.443 29.0532L-15.9918 12.1394L-10.6208 13.5766C-10.342 13.6484 -10.0451 13.6574 -9.76617 13.5766L-0.86858 16.5677L7.39025 23.52L15.5591 20.8792L17.9342 20.1786L34.119 73.6685L-0.697643 83.3695L-13.1219 34.9097H-13.1309ZM-9.31634 -58.1206L-1.41737 -38.4582L0.597862 -34.2634L0.822777 -33.6077L-0.310791 -32.8173L-10.243 -31.6226L-10.4859 -38.7816C-10.5129 -39.6978 -11.2956 -40.4343 -12.2132 -40.4253L-18.5108 -40.3355L-16.7475 -58.2463L-9.33434 -58.1296L-9.31634 -58.1206ZM9.94528 -6.13969L8.09199 -12.8226L10.3951 -6.2385L9.95427 -6.13969H9.94528ZM-25.1593 -28.1375H-13.5177L-13.2748 -20.9696L-25.0063 -21.3648L-25.1593 -28.1285V-28.1375ZM-12.834 -17.5652L-9.07343 -3.70547L-24.6645 -5.81633L-24.9344 -17.9695L-12.834 -17.5652ZM-13.6347 -31.5328H-26.8956C-27.0575 -31.5328 -27.2285 -31.5148 -27.3814 -31.4699C-27.6603 -31.3891 -27.9212 -31.2364 -28.1101 -31.0298C-28.434 -30.7064 -28.605 -30.2573 -28.596 -29.7992L-28.416 -21.4905L-31.7987 -21.6073L-32.7524 -36.7336L-13.8056 -37.0031L-13.6257 -31.5418L-13.6347 -31.5328ZM-9.37932 -0.310143C-9.46029 0.264725 -9.54126 0.857559 -9.62223 1.44141L-24.5475 -0.408951L-24.5925 -2.36711L-9.37932 -0.310143ZM14.2096 16.5407L12.1224 17.2144L9.82832 1.62106C9.73836 1.01924 9.42348 0.489288 8.93766 0.129997C8.45185 -0.229301 7.84908 -0.381996 7.25531 -0.292175C7.14735 -0.274208 7.03939 -0.256256 6.94043 -0.220329C5.86984 0.0940552 5.1771 1.17194 5.33904 2.28575L7.61517 17.7803L1.39856 12.5526L-7.58901 9.5345C-7.31911 8.37578 -7.04022 6.93861 -6.75233 5.24094L-3.88242 5.60025C-3.64851 5.6272 -3.41461 5.60025 -3.18969 5.54636C-2.54194 5.35773 -2.06512 4.80082 -1.98415 4.12714C-1.8672 3.20196 -2.53294 2.34863 -3.45959 2.23186L-6.23053 1.89053C-6.10457 1.00127 -5.99661 0.165909 -5.89765 -0.570641L2.88298 -3.3372C3.31482 -3.47193 3.67468 -3.76836 3.8816 -4.17256C4.08852 -4.57677 4.13351 -5.03487 3.99856 -5.46602C3.71967 -6.35527 2.80201 -6.8493 1.86637 -6.57983L-5.68174 -4.19951L-6.13156 -5.87022L-0.913559 -7.72957C-0.481724 -7.88227 -0.139862 -8.19666 0.0580635 -8.60086C0.255989 -9.01405 0.273979 -9.47215 0.12104 -9.89432C-0.184845 -10.7476 -1.10249 -11.2057 -2.05613 -10.9273L-7.03122 -9.15776L-9.36132 -17.7359L-4.62914 -18.3377L-1.72325 -17.4395C-1.39938 -17.3407 -1.05751 -17.3407 -0.733631 -17.4395C-0.184841 -17.6012 0.237995 -18.0233 0.408928 -18.5713C0.68782 -19.4695 0.184013 -20.4216 -0.715641 -20.7001L-3.97239 -21.7061C-4.2063 -21.778 -4.44921 -21.7959 -4.69212 -21.769L-9.87413 -21.1043L-10.108 -28.1914L0.543877 -29.4758L0.723812 -29.5028L0.813778 -29.5297C0.984711 -29.5836 1.15564 -29.6645 1.30858 -29.7633L2.00132 -30.2483L7.03939 -15.8316C6.61655 -16.2628 5.9688 -16.4514 5.31205 -16.2718C4.43939 -16.0113 3.92658 -15.0771 4.16949 -14.1879L7.10237 -3.62463C7.34527 -2.74436 8.23593 -2.21441 9.12659 -2.42101L15.838 -3.97495L17.0616 15.7233L14.2096 16.5677V16.5407ZM33.4533 94.1932L30.5024 81.7257L36.0713 80.1717L36.872 82.8215L40.9384 91.9746L33.4533 94.1842V94.1932ZM45.1758 11.4837L44.8519 8.88779L67.2713 -3.10366L73.362 -0.813156L77.4194 18.0498L85.3454 26.3764L103.078 27.589L62.98 63.5723L58.9315 54.7517L44.9779 11.5466L45.1668 11.4837H45.1758ZM21.5328 14.3131L20.8221 2.93249L37.6547 0.165916L39.5439 8.53746L21.5328 14.3131ZM38.4824 72.4469L22.2706 18.8402L40.6685 12.9388L54.6851 56.3416L59.3993 66.6264L38.4824 72.4559V72.4469Z" fill="white"/>
</svg>
