<svg fill="none" height="24" viewBox="0 0 24 24" width="24" xmlns="http://www.w3.org/2000/svg" xmlns:xlink="http://www.w3.org/1999/xlink"><clipPath id="a"><path d="m0 0h24v24h-24z" transform="matrix(1 0 0 -1 0 24)"/></clipPath><g clip-path="url(#a)" stroke="#fff" stroke-linecap="round" stroke-linejoin="round" stroke-width="2"><path d="m3 17v-10c0-2.2 1.8-4 4-4h10c2.2 0 4 1.8 4 4v10c0 2.2-1.8 4-4 4h-10c-2.2 0-4-1.8-4-4z"/><path d="m3 9h18"/><path d="m15.5 5v-4"/><path d="m8.5 5v-4"/><path d="m13.5 13 2 2-2 2"/><path d="m15.5 15h-7"/></g></svg>