<svg fill="none" height="24" viewBox="0 0 24 24" width="24" xmlns="http://www.w3.org/2000/svg"><g stroke="#fff" stroke-linecap="round" stroke-linejoin="round" stroke-width="2"><path d="m13.7 18.4c-.5.2-1.1.2-1.7.2-5.7 0-9-6.5-9-6.5.5-.9 1.1-1.8 1.8-2.59999m5.5.89999c.2-.2.5-.4.8-.59999.3-.1.6-.2 1-.2.3 0 .7 0 1 .2.3.1.6.29999.8.49999.1.2.3.5.4.8s.2.6.2 1c0 .3-.1.7-.2 1-.1.2-.3.5-.6.7m-6.6-6.59999c1.4-1.1 3.1-1.7 4.9-1.7 5.7 0 9 6.49999 9 6.49999-1 1.9-2.4 3.6-4.1 4.9z"/><path d="m21 21-18-18"/></g></svg>