<svg fill="none" height="24" viewBox="0 0 24 24" width="24" xmlns="http://www.w3.org/2000/svg"><path d="m20 15.5v-7c0-.7-.4-1.4-1-1.7l-6-3.5c-.6-.4-1.4-.4-2 0l-6 3.5c-.6.4-1 1-1 1.7v7c0 .7.4 1.4 1 1.7l6 3.5c.6.4 1.4.4 2 0l6-3.5c.6-.3 1-1 1-1.7z" stroke="#fff" stroke-linecap="round" stroke-linejoin="round" stroke-width="2"/><path d="m12 13v-5" stroke="#fff" stroke-linecap="round" stroke-linejoin="round" stroke-width="2"/><path d="m12 15c-.6 0-1 .4-1 1s.4 1 1 1 1-.4 1-1-.4-1-1-1z" fill="#fff"/></svg>