<svg width="211" height="211" viewBox="0 0 211 211" fill="none" xmlns="http://www.w3.org/2000/svg">
<path d="M210.604 105.489C210.604 163.623 163.477 210.75 105.343 210.75C47.2097 210.75 0.0830078 163.623 0.0830078 105.489C0.0830078 47.3557 47.2097 0.229004 105.343 0.229004C163.477 0.229004 210.604 47.3557 210.604 105.489ZM23.5759 105.489C23.5759 150.648 60.1845 187.257 105.343 187.257C150.502 187.257 187.111 150.648 187.111 105.489C187.111 60.3305 150.502 23.7219 105.343 23.7219C60.1845 23.7219 23.5759 60.3305 23.5759 105.489Z" fill="#FAFAFA"/>
<path d="M4.95972 105.489C2.26639 105.489 0.0712188 103.305 0.195921 100.614C1.19877 78.9777 8.85715 58.132 22.1845 40.9577C36.5103 22.4967 56.5718 9.32744 79.2076 3.52535C101.843 -2.27673 125.766 -0.381768 147.206 8.91162C168.646 18.205 186.384 34.3684 197.625 54.8546C208.866 75.3408 212.97 98.985 209.291 122.061C205.612 145.137 194.359 166.333 177.306 182.309C160.252 198.284 138.368 208.131 115.101 210.297C93.4555 212.312 71.759 207.573 52.9709 196.796C50.6346 195.456 49.971 192.431 51.4178 190.159L58.7986 178.57C60.2455 176.298 63.2536 175.644 65.6075 176.953C79.9818 184.946 96.4715 188.436 112.923 186.905C130.997 185.222 147.997 177.573 161.245 165.163C174.492 152.753 183.233 136.288 186.091 118.362C188.949 100.437 185.761 82.0696 177.029 66.1557C168.297 50.2418 154.518 37.6859 137.863 30.4667C121.208 23.2475 102.624 21.7754 85.0408 26.2826C67.4571 30.7897 51.8731 41.0197 40.7446 55.3605C30.6151 68.4138 24.7014 84.1975 23.7213 100.615C23.5608 103.304 21.3926 105.489 18.6992 105.489H4.95972Z" fill="#0B1956"/>
<path d="M81.6698 119.459C79.1066 119.459 76.8121 119.005 74.7863 118.095C72.7605 117.144 71.1688 115.863 70.0112 114.25C68.8536 112.597 68.2748 110.716 68.2748 108.607C68.2748 106.953 68.6056 105.506 69.267 104.266C69.9285 102.984 70.7967 101.868 71.8716 100.917C72.9879 99.9665 74.1661 99.1603 75.4064 98.4988V98.2507C73.9181 97.1345 72.6365 95.8322 71.5616 94.3439C70.4866 92.8555 69.9492 91.0778 69.9492 89.0107C69.9492 86.9022 70.466 85.0625 71.4995 83.4914C72.5331 81.8791 73.9388 80.6595 75.7165 79.8326C77.5356 78.9644 79.582 78.5303 81.8559 78.5303C85.4113 78.5303 88.2226 79.5226 90.2898 81.507C92.3982 83.4501 93.4525 86.0133 93.4525 89.1967C93.4525 90.4783 93.1837 91.6979 92.6463 92.8555C92.1502 94.0131 91.4887 95.0467 90.6618 95.9562C89.8763 96.8658 89.0495 97.6306 88.1813 98.2507V98.4988C89.3802 99.1603 90.4965 99.9665 91.53 100.917C92.5636 101.827 93.3904 102.922 94.0106 104.204C94.6721 105.444 95.0028 106.953 95.0028 108.731C95.0028 110.757 94.4447 112.576 93.3284 114.188C92.2122 115.801 90.6618 117.082 88.6774 118.033C86.6929 118.984 84.3571 119.459 81.6698 119.459ZM84.2744 96.4523C85.3493 95.3774 86.1555 94.2819 86.6929 93.1656C87.2717 92.0494 87.5611 90.8711 87.5611 89.6308C87.5611 88.4732 87.3338 87.4397 86.879 86.5301C86.4242 85.6206 85.7627 84.9178 84.8945 84.4216C84.0264 83.8842 82.9721 83.6155 81.7318 83.6155C80.2022 83.6155 78.9205 84.0909 77.887 85.0418C76.8534 85.9927 76.3366 87.3156 76.3366 89.0107C76.3366 90.3336 76.688 91.4499 77.3909 92.3594C78.135 93.2276 79.1066 93.9925 80.3055 94.6539C81.5045 95.2741 82.8274 95.8735 84.2744 96.4523ZM81.7938 114.374C83.0755 114.374 84.1917 114.147 85.1426 113.692C86.1348 113.196 86.8997 112.514 87.4371 111.646C88.0159 110.778 88.3053 109.723 88.3053 108.483C88.3053 107.077 87.8712 105.92 87.003 105.01C86.1762 104.059 85.0392 103.253 83.5923 102.592C82.1866 101.889 80.5949 101.186 78.8172 100.483C77.6182 101.351 76.6054 102.426 75.7785 103.708C74.9517 104.948 74.5382 106.333 74.5382 107.863C74.5382 109.186 74.8483 110.343 75.4684 111.336C76.1299 112.287 76.9981 113.031 78.073 113.568C79.1893 114.106 80.4295 114.374 81.7938 114.374ZM97.2588 123.415L104.103 97.8591H106.394L99.5501 123.415H97.2588ZM108.884 118.715V115.954H113.055V103.675H109.618V101.56C110.539 101.384 111.342 101.178 112.027 100.943C112.713 100.689 113.349 100.385 113.937 100.033H116.463V115.954H120.135V118.715H108.884ZM128.556 119.068C127.538 119.068 126.637 118.95 125.854 118.715C125.07 118.48 124.375 118.167 123.768 117.775C123.161 117.364 122.632 116.933 122.182 116.483L123.739 114.309C124.307 114.838 124.943 115.308 125.648 115.719C126.353 116.111 127.176 116.307 128.116 116.307C128.821 116.307 129.438 116.169 129.966 115.895C130.515 115.602 130.945 115.19 131.259 114.662C131.572 114.113 131.729 113.467 131.729 112.723C131.729 111.607 131.406 110.745 130.759 110.138C130.133 109.531 129.31 109.227 128.292 109.227C127.704 109.227 127.195 109.315 126.764 109.492C126.353 109.648 125.864 109.913 125.296 110.285L123.68 109.257L124.238 100.033H134.226V102.882H127.176L126.794 107.406C127.185 107.21 127.567 107.063 127.939 106.965C128.331 106.848 128.772 106.789 129.261 106.789C130.319 106.789 131.288 107.004 132.169 107.435C133.07 107.847 133.785 108.483 134.314 109.345C134.862 110.206 135.136 111.303 135.136 112.635C135.136 114.006 134.823 115.171 134.196 116.13C133.589 117.09 132.786 117.824 131.788 118.333C130.789 118.823 129.712 119.068 128.556 119.068Z" fill="black"/>
</svg>
