<svg width="138" height="71" viewBox="0 0 138 71" fill="none" xmlns="http://www.w3.org/2000/svg">
<path d="M126.27 60.842V62.192H125.01V65H123.21V62.192H117.18V61.022L123.516 52.4H125.01V60.842H126.27ZM123.228 57.098C123.228 56.786 123.246 56.474 123.282 56.162C123.318 55.85 123.348 55.604 123.372 55.424C123.408 55.232 123.432 55.112 123.444 55.064L123.156 55.01C123.108 55.118 122.976 55.352 122.76 55.712C122.556 56.06 122.316 56.426 122.04 56.81L120.204 59.312C120 59.588 119.796 59.84 119.592 60.068C119.4 60.284 119.238 60.452 119.106 60.572C118.986 60.692 118.908 60.764 118.872 60.788L118.926 61.076C119.034 61.052 119.268 61.01 119.628 60.95C120 60.89 120.36 60.86 120.708 60.86L123.228 60.842V57.098ZM132.497 55.496C133.757 55.496 134.675 55.796 135.251 56.396C135.827 56.996 136.115 57.95 136.115 59.258V65H134.315V59.276C134.315 58.46 134.171 57.83 133.883 57.386C133.607 56.942 133.061 56.72 132.245 56.72C131.621 56.72 131.093 56.876 130.661 57.188C130.229 57.5 130.013 58.004 130.013 58.7V65H128.213V51.68H130.013V55.1C130.013 55.364 129.989 55.628 129.941 55.892C129.905 56.144 129.863 56.354 129.815 56.522C129.767 56.69 129.737 56.798 129.725 56.846L130.013 57.008C130.289 56.504 130.655 56.126 131.111 55.874C131.567 55.622 132.029 55.496 132.497 55.496Z" fill="#48A984"/>
<path d="M109.5 54L104 64H115L109.5 54Z" fill="#48A984"/>
<path d="M12.825 57.35C12.825 59.5287 12.35 61.2197 11.4 62.423C10.4627 63.6263 8.987 64.228 6.973 64.228C4.959 64.228 3.48333 63.6327 2.546 62.442C1.60867 61.2387 1.14 59.5413 1.14 57.35C1.14 55.146 1.615 53.4487 2.565 52.258C3.515 51.0673 4.98433 50.472 6.973 50.472C8.96167 50.472 10.431 51.0673 11.381 52.258C12.3437 53.4487 12.825 55.146 12.825 57.35ZM6.992 62.746C8.38533 62.746 9.37333 62.2647 9.956 61.302C10.5387 60.3393 10.83 59.022 10.83 57.35C10.83 55.678 10.5387 54.3607 9.956 53.398C9.37333 52.4353 8.38533 51.954 6.992 51.954C5.59867 51.954 4.61067 52.4353 4.028 53.398C3.458 54.348 3.173 55.6653 3.173 57.35C3.173 59.0347 3.458 60.3583 4.028 61.321C4.61067 62.271 5.59867 62.746 6.992 62.746ZM16.1757 54.044C16.3403 54.044 16.486 54.082 16.6127 54.158C16.752 54.2213 16.8723 54.348 16.9737 54.538L17.2397 55.032H17.5437C17.9363 54.614 18.3163 54.3353 18.6837 54.196C19.051 54.044 19.5513 53.968 20.1847 53.968C21.5147 53.968 22.4837 54.2847 23.0917 54.918C23.6997 55.5513 24.0037 56.5583 24.0037 57.939V64H22.1037V57.958C22.1037 57.0967 21.958 56.4317 21.6667 55.963C21.3753 55.4943 20.8117 55.26 19.9757 55.26C19.4437 55.26 18.9877 55.3233 18.6077 55.45C18.2403 55.564 17.8983 55.7413 17.5817 55.982V64H15.6817V56.115L15.2447 54.044H16.1757ZM40.1417 61.663C40.1417 62.0937 40.186 62.404 40.2747 62.594C40.3633 62.7713 40.5597 62.9043 40.8637 62.993L40.5977 64.133C40.585 64.1457 40.5343 64.1647 40.4457 64.19C40.3697 64.2153 40.262 64.228 40.1227 64.228C39.7553 64.2153 39.4767 64.152 39.2867 64.038C39.0967 63.9367 38.913 63.7277 38.7357 63.411L38.4507 62.898H38.1467C37.8047 63.354 37.412 63.6897 36.9687 63.905C36.5253 64.1203 35.987 64.228 35.3537 64.228C34.3783 64.228 33.6057 63.9747 33.0357 63.468C32.4657 62.9487 32.1807 62.2077 32.1807 61.245C32.1807 60.257 32.4973 59.5223 33.1307 59.041C33.764 58.5597 34.752 58.2683 36.0947 58.167L38.2607 57.996V57.369C38.2607 56.609 38.096 56.0707 37.7667 55.754C37.4373 55.4247 36.8293 55.26 35.9427 55.26C35.2967 55.26 34.4037 55.3993 33.2637 55.678L32.9217 54.557C33.3523 54.3923 33.897 54.253 34.5557 54.139C35.2143 54.025 35.7843 53.968 36.2657 53.968C37.545 53.968 38.5077 54.2277 39.1537 54.747C39.8123 55.2537 40.1417 56.0707 40.1417 57.198V61.663ZM36.4367 59.307C34.8913 59.421 34.1187 60.0353 34.1187 61.15C34.1187 62.3407 34.714 62.936 35.9047 62.936C36.576 62.936 37.1333 62.7777 37.5767 62.461C38.0327 62.1317 38.2607 61.5997 38.2607 60.865V59.174L36.4367 59.307ZM46.9232 61.454C47.0372 60.96 47.1702 60.504 47.3222 60.086L49.4122 54.196H51.2932L47.6072 64H45.5172L41.8312 54.196H43.7122L45.8022 60.086C45.9542 60.504 46.0872 60.96 46.2012 61.454C46.3152 61.9353 46.3848 62.2457 46.4102 62.385H46.7142C46.7395 62.2457 46.8092 61.9353 46.9232 61.454ZM53.3557 55.393C54.0904 54.443 55.1607 53.968 56.5667 53.968C59.3027 53.968 60.6707 55.583 60.6707 58.813V59.516H54.2677C54.2677 61.758 55.1607 62.879 56.9467 62.879C57.4787 62.879 57.9664 62.841 58.4097 62.765C58.8657 62.6763 59.3724 62.537 59.9297 62.347L60.3097 63.487C59.1824 63.981 57.9917 64.228 56.7377 64.228C55.2684 64.228 54.1537 63.7657 53.3937 62.841C52.6337 61.9163 52.2537 60.6687 52.2537 59.098C52.2537 57.5653 52.621 56.3303 53.3557 55.393ZM54.7997 56.058C54.483 56.59 54.3057 57.35 54.2677 58.338H58.7707C58.7707 57.3627 58.6124 56.609 58.2957 56.077C57.979 55.5323 57.3964 55.26 56.5477 55.26C55.7117 55.26 55.129 55.526 54.7997 56.058ZM63.6933 54.044C63.858 54.044 64.0037 54.082 64.1303 54.158C64.2697 54.2213 64.39 54.348 64.4913 54.538L64.7573 55.032H65.0613C65.3527 54.614 65.6693 54.3353 66.0113 54.196C66.366 54.044 66.8663 53.968 67.5123 53.968C67.791 53.968 67.9557 53.9807 68.0063 54.006V55.564H67.2273C66.2393 55.564 65.5427 55.773 65.1373 56.191V64H63.2373V56.115L62.8003 54.044H63.6933ZM77.4366 61.663C77.4366 62.0937 77.4809 62.404 77.5696 62.594C77.6582 62.7713 77.8546 62.9043 78.1586 62.993L77.8926 64.133C77.8799 64.1457 77.8292 64.1647 77.7406 64.19C77.6646 64.2153 77.5569 64.228 77.4176 64.228C77.0502 64.2153 76.7716 64.152 76.5816 64.038C76.3916 63.9367 76.2079 63.7277 76.0306 63.411L75.7456 62.898H75.4416C75.0996 63.354 74.7069 63.6897 74.2636 63.905C73.8202 64.1203 73.2819 64.228 72.6486 64.228C71.6732 64.228 70.9006 63.9747 70.3306 63.468C69.7606 62.9487 69.4756 62.2077 69.4756 61.245C69.4756 60.257 69.7922 59.5223 70.4256 59.041C71.0589 58.5597 72.0469 58.2683 73.3896 58.167L75.5556 57.996V57.369C75.5556 56.609 75.3909 56.0707 75.0616 55.754C74.7322 55.4247 74.1242 55.26 73.2376 55.26C72.5916 55.26 71.6986 55.3993 70.5586 55.678L70.2166 54.557C70.6472 54.3923 71.1919 54.253 71.8506 54.139C72.5092 54.025 73.0792 53.968 73.5606 53.968C74.8399 53.968 75.8026 54.2277 76.4486 54.747C77.1072 55.2537 77.4366 56.0707 77.4366 57.198V61.663ZM73.7316 59.307C72.1862 59.421 71.4136 60.0353 71.4136 61.15C71.4136 62.3407 72.0089 62.936 73.1996 62.936C73.8709 62.936 74.4282 62.7777 74.8716 62.461C75.3276 62.1317 75.5556 61.5997 75.5556 60.865V59.174L73.7316 59.307ZM86.7932 64.323C86.8059 64.0063 86.8439 63.696 86.9072 63.392C86.9832 63.0753 87.0339 62.8727 87.0592 62.784L86.7552 62.613C86.4512 63.145 86.0522 63.5503 85.5582 63.829C85.0642 64.095 84.5385 64.228 83.9812 64.228C82.7652 64.228 81.8089 63.7783 81.1122 62.879C80.4155 61.967 80.0672 60.713 80.0672 59.117C80.0672 57.4957 80.4535 56.2353 81.2262 55.336C81.9989 54.424 83.1262 53.968 84.6082 53.968C85.5455 53.968 86.8945 54.158 88.6552 54.538V64.437C88.6552 65.2097 88.4652 65.8747 88.0852 66.432C87.7052 67.002 87.1922 67.4327 86.5462 67.724C85.9002 68.028 85.1845 68.18 84.3992 68.18C82.9679 68.18 81.6569 67.895 80.4662 67.325L80.9032 66.109C81.0172 66.1597 81.2705 66.261 81.6632 66.413C82.0559 66.565 82.4359 66.679 82.8032 66.755C83.1832 66.8437 83.5569 66.888 83.9242 66.888C84.8235 66.888 85.5139 66.6537 85.9952 66.185C86.4892 65.7163 86.7552 65.0957 86.7932 64.323ZM84.4942 62.936C85.1149 62.936 85.6469 62.7713 86.0902 62.442C86.5335 62.1127 86.7552 61.5807 86.7552 60.846V55.488C86.2612 55.3867 85.8939 55.3233 85.6532 55.298C85.4252 55.2727 85.0832 55.26 84.6272 55.26C83.7025 55.26 83.0439 55.5957 82.6512 56.267C82.2712 56.9383 82.0812 57.8883 82.0812 59.117C82.0812 59.9277 82.1382 60.6053 82.2522 61.15C82.3662 61.6947 82.5942 62.1317 82.9362 62.461C83.2909 62.7777 83.8102 62.936 84.4942 62.936ZM92.1907 55.393C92.9253 54.443 93.9957 53.968 95.4017 53.968C98.1377 53.968 99.5057 55.583 99.5057 58.813V59.516H93.1027C93.1027 61.758 93.9957 62.879 95.7817 62.879C96.3137 62.879 96.8013 62.841 97.2447 62.765C97.7007 62.6763 98.2073 62.537 98.7647 62.347L99.1447 63.487C98.0173 63.981 96.8267 64.228 95.5727 64.228C94.1033 64.228 92.9887 63.7657 92.2287 62.841C91.4687 61.9163 91.0887 60.6687 91.0887 59.098C91.0887 57.5653 91.456 56.3303 92.1907 55.393ZM93.6347 56.058C93.318 56.59 93.1407 57.35 93.1027 58.338H97.6057C97.6057 57.3627 97.4473 56.609 97.1307 56.077C96.814 55.5323 96.2313 55.26 95.3827 55.26C94.5467 55.26 93.964 55.526 93.6347 56.058Z" fill="#7D7D7D"/>
<path d="M23.814 36.558C23.814 41.64 19.32 45.378 12.474 45.378C5.502 45.378 1.008 41.64 1.008 36.558C1.008 33.702 2.814 31.602 5.376 30.258C3.318 28.956 1.89 27.15 1.89 24.588C1.89 19.842 6.006 16.188 12.474 16.188C18.816 16.188 22.974 19.842 22.974 24.588C22.974 27.15 21.546 28.956 19.488 30.258C22.008 31.602 23.814 33.702 23.814 36.558ZM9.324 24.84C9.324 26.478 10.458 27.528 12.474 27.528C14.406 27.528 15.54 26.478 15.54 24.84C15.54 22.992 14.406 21.858 12.474 21.858C10.458 21.858 9.324 22.992 9.324 24.84ZM8.484 36.39C8.484 38.448 9.87 39.708 12.474 39.708C14.952 39.708 16.422 38.448 16.422 36.39C16.422 34.542 14.952 33.198 12.474 33.198C9.87 33.198 8.484 34.542 8.484 36.39ZM34.3485 33.114V45H27.1665V14.844H34.3485V24.84C35.9865 23.076 37.6245 21.984 40.4805 21.984C44.9325 21.984 48.0825 24.966 48.0825 30.468V45H40.9005V32.862C40.9005 30.006 39.8925 28.452 37.7085 28.452C35.9445 28.452 34.3485 29.712 34.3485 33.114Z" fill="#33363F"/>
</svg>
