<svg width="129" height="129" viewBox="0 0 129 129" fill="none" xmlns="http://www.w3.org/2000/svg">
<path d="M129 64.5C129 100.122 100.122 129 64.5 129C28.8776 129 0 100.122 0 64.5C0 28.8776 28.8776 0 64.5 0C100.122 0 129 28.8776 129 64.5ZM14.3957 64.5C14.3957 92.1719 36.8281 114.604 64.5 114.604C92.1719 114.604 114.604 92.1719 114.604 64.5C114.604 36.8281 92.1719 14.3957 64.5 14.3957C36.8281 14.3957 14.3957 36.8281 14.3957 64.5Z" fill="#FAFAFA"/>
<path d="M2.98828 64.5C1.3379 64.5 -0.00722389 63.1612 0.0691895 61.5126C0.683702 48.2545 5.37649 35.481 13.543 24.9572C22.3214 13.6449 34.6144 5.57521 48.4848 2.01989C62.3552 -1.53543 77.0143 -0.37426 90.152 5.32041C103.29 11.0151 114.159 20.9195 121.047 33.4727C127.935 46.026 130.45 60.5143 128.196 74.6546C125.941 88.7948 119.046 101.783 108.596 111.572C98.1462 121.361 84.7361 127.395 70.4789 128.722C57.2155 129.957 43.9206 127.053 32.4079 120.45C30.9763 119.628 30.5697 117.775 31.4562 116.383L35.9789 109.281C36.8655 107.889 38.7088 107.488 40.1512 108.29C48.9593 113.188 59.0636 115.327 69.1445 114.389C80.2196 113.358 90.6368 108.671 98.7543 101.066C106.872 93.4618 112.228 83.3725 113.979 72.3882C115.731 61.4039 113.777 50.1492 108.426 40.3976C103.076 30.6461 94.6323 22.9523 84.4268 18.5286C74.2213 14.1049 62.8339 13.2029 52.0592 15.9647C41.2845 18.7266 31.7352 24.9952 24.916 33.7827C18.709 41.7813 15.0853 51.453 14.4847 61.5133C14.3864 63.1608 13.0578 64.5 11.4074 64.5H2.98828Z" fill="#007AD2"/>
<path d="M49.9934 73.456C48.4228 73.456 47.0168 73.1773 45.7754 72.62C44.5341 72.0373 43.5588 71.252 42.8494 70.264C42.1401 69.2507 41.7854 68.098 41.7854 66.806C41.7854 65.7927 41.9881 64.906 42.3934 64.146C42.7988 63.3607 43.3308 62.6767 43.9894 62.094C44.6734 61.5113 45.3954 61.0173 46.1554 60.612V60.46C45.2434 59.776 44.4581 58.978 43.7994 58.066C43.1408 57.154 42.8114 56.0647 42.8114 54.798C42.8114 53.506 43.1281 52.3787 43.7614 51.416C44.3948 50.428 45.2561 49.6807 46.3454 49.174C47.4601 48.642 48.7141 48.376 50.1074 48.376C52.2861 48.376 54.0088 48.984 55.2754 50.2C56.5674 51.3907 57.2134 52.9613 57.2134 54.912C57.2134 55.6973 57.0488 56.4447 56.7194 57.154C56.4154 57.8633 56.0101 58.4967 55.5034 59.054C55.0221 59.6113 54.5154 60.08 53.9834 60.46V60.612C54.7181 61.0173 55.4021 61.5113 56.0354 62.094C56.6688 62.6513 57.1754 63.3227 57.5554 64.108C57.9608 64.868 58.1634 65.7927 58.1634 66.882C58.1634 68.1233 57.8214 69.238 57.1374 70.226C56.4534 71.214 55.5034 71.9993 54.2874 72.582C53.0714 73.1647 51.6401 73.456 49.9934 73.456ZM51.5894 59.358C52.2481 58.6993 52.7421 58.028 53.0714 57.344C53.4261 56.66 53.6034 55.938 53.6034 55.178C53.6034 54.4687 53.4641 53.8353 53.1854 53.278C52.9068 52.7207 52.5014 52.29 51.9694 51.986C51.4374 51.6567 50.7914 51.492 50.0314 51.492C49.0941 51.492 48.3088 51.7833 47.6754 52.366C47.0421 52.9487 46.7254 53.7593 46.7254 54.798C46.7254 55.6087 46.9408 56.2927 47.3714 56.85C47.8274 57.382 48.4228 57.8507 49.1574 58.256C49.8921 58.636 50.7028 59.0033 51.5894 59.358ZM50.0694 70.34C50.8548 70.34 51.5388 70.2007 52.1214 69.922C52.7294 69.618 53.1981 69.2 53.5274 68.668C53.8821 68.136 54.0594 67.49 54.0594 66.73C54.0594 65.8687 53.7934 65.1593 53.2614 64.602C52.7548 64.0193 52.0581 63.5253 51.1714 63.12C50.3101 62.6893 49.3348 62.2587 48.2454 61.828C47.5108 62.36 46.8901 63.0187 46.3834 63.804C45.8768 64.564 45.6234 65.4127 45.6234 66.35C45.6234 67.1607 45.8134 67.87 46.1934 68.478C46.5988 69.0607 47.1308 69.5167 47.7894 69.846C48.4734 70.1753 49.2334 70.34 50.0694 70.34ZM59.5458 75.88L63.7398 60.22H65.1438L60.9498 75.88H59.5458ZM66.6693 73V71.308H69.2253V63.784H67.1193V62.488C67.6833 62.38 68.1753 62.254 68.5953 62.11C69.0153 61.954 69.4053 61.768 69.7653 61.552H71.3133V71.308H73.5633V73H66.6693ZM78.7239 73.216C78.0999 73.216 77.5479 73.144 77.0679 73C76.5879 72.856 76.1619 72.664 75.7899 72.424C75.4179 72.172 75.0939 71.908 74.8179 71.632L75.7719 70.3C76.1199 70.624 76.5099 70.912 76.9419 71.164C77.3739 71.404 77.8779 71.524 78.4539 71.524C78.8859 71.524 79.2639 71.44 79.5879 71.272C79.9239 71.092 80.1879 70.84 80.3799 70.516C80.5719 70.18 80.6679 69.784 80.6679 69.328C80.6679 68.644 80.4699 68.116 80.0739 67.744C79.6899 67.372 79.1859 67.186 78.5619 67.186C78.2019 67.186 77.8899 67.24 77.6259 67.348C77.3739 67.444 77.0739 67.606 76.7259 67.834L75.7359 67.204L76.0779 61.552H82.1979V63.298H77.8779L77.6439 66.07C77.8839 65.95 78.1179 65.86 78.3459 65.8C78.5859 65.728 78.8559 65.692 79.1559 65.692C79.8039 65.692 80.3979 65.824 80.9379 66.088C81.4899 66.34 81.9279 66.73 82.2519 67.258C82.5879 67.786 82.7559 68.458 82.7559 69.274C82.7559 70.114 82.5639 70.828 82.1799 71.416C81.8079 72.004 81.3159 72.454 80.7039 72.766C80.0919 73.066 79.4319 73.216 78.7239 73.216Z" fill="black"/>
</svg>
