<svg width="226" height="118" viewBox="0 0 226 118" fill="none" xmlns="http://www.w3.org/2000/svg">
<path d="M206.774 100.901V103.105H204.717V107.687H201.78V103.105H191.939V101.195L202.279 87.1245H204.717V100.901H206.774ZM201.809 94.7914C201.809 94.2822 201.839 93.7731 201.897 93.2639C201.956 92.7547 202.005 92.3533 202.044 92.0595C202.103 91.7462 202.142 91.5503 202.162 91.472L201.692 91.3839C201.613 91.5601 201.398 91.942 201.046 92.5295C200.713 93.0974 200.321 93.6947 199.871 94.3214L196.874 98.4045C196.541 98.8549 196.208 99.2662 195.876 99.6383C195.562 99.9908 195.298 100.265 195.082 100.461C194.887 100.657 194.759 100.774 194.701 100.813L194.789 101.283C194.965 101.244 195.347 101.176 195.934 101.078C196.541 100.98 197.129 100.931 197.697 100.931L201.809 100.901V94.7914ZM216.935 92.177C218.991 92.177 220.489 92.6666 221.429 93.6458C222.369 94.6249 222.839 96.1818 222.839 98.3164V107.687H219.902V98.3458C219.902 97.0141 219.667 95.986 219.197 95.2614C218.747 94.5368 217.856 94.1745 216.524 94.1745C215.506 94.1745 214.644 94.4291 213.939 94.9383C213.234 95.4474 212.881 96.2699 212.881 97.4058V107.687H209.944V85.9495H212.881V91.5308C212.881 91.9616 212.842 92.3924 212.764 92.8233C212.705 93.2345 212.637 93.5772 212.558 93.8514C212.48 94.1256 212.431 94.3018 212.411 94.3801L212.881 94.6445C213.332 93.822 213.929 93.2051 214.673 92.7939C215.417 92.3826 216.171 92.177 216.935 92.177Z" fill="#48A984"/>
<path d="M179.405 89.1107L170.43 105.43H188.381L179.405 89.1107Z" fill="#48A984"/>
<path d="M21.6377 95.5709C21.6377 99.1264 20.8625 101.886 19.3122 103.85C17.7825 105.814 15.3743 106.795 12.0876 106.795C8.80082 106.795 6.39261 105.824 4.86294 103.881C3.33326 101.917 2.56842 99.147 2.56842 95.5709C2.56842 91.9741 3.3436 89.2041 4.89395 87.261C6.44429 85.3179 8.84216 84.3464 12.0876 84.3464C15.333 84.3464 17.7308 85.3179 19.2812 87.261C20.8522 89.2041 21.6377 91.9741 21.6377 95.5709ZM12.1186 104.377C14.3924 104.377 16.0048 103.591 16.9556 102.02C17.9065 100.449 18.382 98.2995 18.382 95.5709C18.382 92.8423 17.9065 90.6925 16.9556 89.1215C16.0048 87.5504 14.3924 86.7649 12.1186 86.7649C9.84472 86.7649 8.23236 87.5504 7.28148 89.1215C6.35127 90.6718 5.88617 92.8216 5.88617 95.5709C5.88617 98.3202 6.35127 100.48 7.28148 102.051C8.23236 103.602 9.84472 104.377 12.1186 104.377ZM27.1058 90.1757C27.3745 90.1757 27.6123 90.2377 27.819 90.3617C28.0464 90.4651 28.2427 90.6718 28.4081 90.9819L28.8422 91.7881H29.3383C29.9791 91.1059 30.5993 90.6511 31.1987 90.4238C31.7982 90.1757 32.6147 90.0517 33.6483 90.0517C35.8188 90.0517 37.4001 90.5685 38.3923 91.602C39.3846 92.6356 39.8807 94.279 39.8807 96.5321V106.423H36.78V96.5631C36.78 95.1575 36.5423 94.0722 36.0668 93.3074C35.5914 92.5426 34.6715 92.1601 33.3072 92.1601C32.439 92.1601 31.6948 92.2635 31.0747 92.4702C30.4752 92.6563 29.9171 92.9457 29.4003 93.3384V106.423H26.2996V93.5555L25.5865 90.1757H27.1058ZM66.217 102.609C66.217 103.312 66.2893 103.819 66.434 104.129C66.5787 104.418 66.8991 104.635 67.3952 104.78L66.9611 106.64C66.9405 106.661 66.8578 106.692 66.7131 106.733C66.589 106.775 66.4133 106.795 66.186 106.795C65.5865 106.775 65.1317 106.671 64.8217 106.485C64.5116 106.32 64.2118 105.979 63.9224 105.462L63.4573 104.625H62.9612C62.4031 105.369 61.7623 105.917 61.0388 106.268C60.3153 106.62 59.4368 106.795 58.4032 106.795C56.8115 106.795 55.5506 106.382 54.6204 105.555C53.6902 104.708 53.2251 103.498 53.2251 101.927C53.2251 100.315 53.7418 99.116 54.7754 98.3305C55.809 97.545 57.4213 97.0696 59.6125 96.9042L63.1473 96.6251V95.6019C63.1473 94.3616 62.8785 93.4831 62.3411 92.9663C61.8036 92.4289 60.8114 92.1601 59.3644 92.1601C58.3102 92.1601 56.8529 92.3875 54.9924 92.8423L54.4343 91.0129C55.1371 90.7442 56.026 90.5168 57.1009 90.3307C58.1758 90.1447 59.106 90.0517 59.8915 90.0517C61.9793 90.0517 63.5504 90.4754 64.6046 91.323C65.6795 92.1498 66.217 93.4831 66.217 95.3229V102.609ZM60.1706 98.7646C57.6487 98.9507 56.3878 99.9532 56.3878 101.772C56.3878 103.715 57.3593 104.687 59.3024 104.687C60.398 104.687 61.3075 104.429 62.031 103.912C62.7752 103.374 63.1473 102.506 63.1473 101.307V98.5476L60.1706 98.7646ZM77.284 102.268C77.4701 101.462 77.6871 100.718 77.9352 100.036L81.3459 90.4238H84.4156L78.4003 106.423H74.9895L68.9742 90.4238H72.0438L75.4546 100.036C75.7027 100.718 75.9197 101.462 76.1058 102.268C76.2918 103.054 76.4055 103.56 76.4468 103.788H76.9429C76.9843 103.56 77.098 103.054 77.284 102.268ZM87.7816 92.3772C88.9805 90.8268 90.7272 90.0517 93.0217 90.0517C97.4867 90.0517 99.7192 92.6873 99.7192 97.9584V99.1057H89.2699C89.2699 102.765 90.7272 104.594 93.6419 104.594C94.5101 104.594 95.3059 104.532 96.0294 104.408C96.7736 104.263 97.6004 104.036 98.51 103.726L99.1301 105.586C97.2904 106.392 95.3473 106.795 93.3008 106.795C90.9029 106.795 89.0839 106.041 87.8436 104.532C86.6033 103.023 85.9832 100.987 85.9832 98.4235C85.9832 95.9223 86.5826 93.9069 87.7816 92.3772ZM90.1381 93.4624C89.6213 94.3306 89.3319 95.5709 89.2699 97.1833H96.6186C96.6186 95.5916 96.3602 94.3616 95.8434 93.4934C95.3266 92.6046 94.3757 92.1601 92.9907 92.1601C91.6264 92.1601 90.6756 92.5942 90.1381 93.4624ZM104.652 90.1757C104.921 90.1757 105.158 90.2377 105.365 90.3617C105.593 90.4651 105.789 90.6718 105.954 90.9819L106.388 91.7881H106.885C107.36 91.1059 107.877 90.6511 108.435 90.4238C109.014 90.1757 109.83 90.0517 110.884 90.0517C111.339 90.0517 111.608 90.0723 111.691 90.1137V92.6563H110.419C108.807 92.6563 107.67 92.9973 107.009 93.6795V106.423H103.908V93.5555L103.195 90.1757H104.652ZM127.08 102.609C127.08 103.312 127.153 103.819 127.297 104.129C127.442 104.418 127.762 104.635 128.258 104.78L127.824 106.64C127.804 106.661 127.721 106.692 127.576 106.733C127.452 106.775 127.277 106.795 127.049 106.795C126.45 106.775 125.995 106.671 125.685 106.485C125.375 106.32 125.075 105.979 124.786 105.462L124.321 104.625H123.824C123.266 105.369 122.626 105.917 121.902 106.268C121.179 106.62 120.3 106.795 119.266 106.795C117.675 106.795 116.414 106.382 115.484 105.555C114.553 104.708 114.088 103.498 114.088 101.927C114.088 100.315 114.605 99.116 115.639 98.3305C116.672 97.545 118.285 97.0696 120.476 96.9042L124.011 96.6251V95.6019C124.011 94.3616 123.742 93.4831 123.204 92.9663C122.667 92.4289 121.675 92.1601 120.228 92.1601C119.173 92.1601 117.716 92.3875 115.856 92.8423L115.298 91.0129C116 90.7442 116.889 90.5168 117.964 90.3307C119.039 90.1447 119.969 90.0517 120.755 90.0517C122.843 90.0517 124.414 90.4754 125.468 91.323C126.543 92.1498 127.08 93.4831 127.08 95.3229V102.609ZM121.034 98.7646C118.512 98.9507 117.251 99.9532 117.251 101.772C117.251 103.715 118.223 104.687 120.166 104.687C121.261 104.687 122.171 104.429 122.894 103.912C123.638 103.374 124.011 102.506 124.011 101.307V98.5476L121.034 98.7646ZM142.35 106.95C142.37 106.434 142.432 105.927 142.536 105.431C142.66 104.914 142.742 104.584 142.784 104.439L142.288 104.16C141.792 105.028 141.14 105.69 140.334 106.144C139.528 106.578 138.67 106.795 137.761 106.795C135.776 106.795 134.216 106.062 133.079 104.594C131.942 103.106 131.373 101.059 131.373 98.4546C131.373 95.8086 132.004 93.7518 133.265 92.2842C134.526 90.7958 136.365 90.0517 138.784 90.0517C140.314 90.0517 142.515 90.3617 145.388 90.9819V107.136C145.388 108.397 145.078 109.483 144.458 110.392C143.838 111.322 143.001 112.025 141.947 112.501C140.892 112.997 139.724 113.245 138.443 113.245C136.107 113.245 133.967 112.78 132.024 111.85L132.738 109.865C132.924 109.948 133.337 110.113 133.978 110.361C134.619 110.609 135.239 110.795 135.838 110.919C136.458 111.064 137.068 111.136 137.668 111.136C139.135 111.136 140.262 110.754 141.047 109.989C141.854 109.224 142.288 108.211 142.35 106.95ZM138.598 104.687C139.611 104.687 140.479 104.418 141.202 103.881C141.926 103.343 142.288 102.475 142.288 101.276V92.5322C141.481 92.3669 140.882 92.2635 140.489 92.2222C140.117 92.1808 139.559 92.1601 138.815 92.1601C137.306 92.1601 136.231 92.7079 135.59 93.8035C134.97 94.8991 134.66 96.4494 134.66 98.4546C134.66 99.7775 134.753 100.883 134.939 101.772C135.125 102.661 135.497 103.374 136.055 103.912C136.634 104.429 137.482 104.687 138.598 104.687ZM151.158 92.3772C152.357 90.8268 154.104 90.0517 156.398 90.0517C160.863 90.0517 163.096 92.6873 163.096 97.9584V99.1057H152.646C152.646 102.765 154.104 104.594 157.018 104.594C157.887 104.594 158.682 104.532 159.406 104.408C160.15 104.263 160.977 104.036 161.886 103.726L162.507 105.586C160.667 106.392 158.724 106.795 156.677 106.795C154.279 106.795 152.46 106.041 151.22 104.532C149.98 103.023 149.36 100.987 149.36 98.4235C149.36 95.9223 149.959 93.9069 151.158 92.3772ZM153.515 93.4624C152.998 94.3306 152.708 95.5709 152.646 97.1833H159.995C159.995 95.5916 159.737 94.3616 159.22 93.4934C158.703 92.6046 157.752 92.1601 156.367 92.1601C155.003 92.1601 154.052 92.5942 153.515 93.4624Z" fill="#7D7D7D"/>
<path d="M31.1301 56.8746C31.1301 58.5033 30.8177 60.0317 30.193 61.4597C29.5906 62.8876 28.7539 64.1371 27.6829 65.208C26.6119 66.279 25.3625 67.1268 23.9345 67.7516C22.5066 68.354 20.9782 68.6552 19.3495 68.6552H17.3079C15.6792 68.6552 14.1397 68.354 12.6894 67.7516C11.2615 67.1268 10.012 66.279 8.94104 65.208C7.87008 64.1371 7.02223 62.8876 6.3975 61.4597C5.79509 60.0317 5.49388 58.5033 5.49388 56.8746V52.8919C5.49388 50.8616 5.96242 49.0097 6.89952 47.3363C7.85892 45.6406 9.10838 44.2573 10.6479 43.1863C9.10838 42.1154 7.85892 40.732 6.89952 39.0364C5.96242 37.3407 5.49388 35.4776 5.49388 33.4473V31.1045C5.49388 29.4758 5.79509 27.9474 6.3975 26.5195C7.02223 25.0915 7.87008 23.8421 8.94104 22.7711C10.012 21.7001 11.2615 20.8634 12.6894 20.261C14.1397 19.6363 15.6792 19.3239 17.3079 19.3239H19.3495C20.9782 19.3239 22.5066 19.6363 23.9345 20.261C25.3625 20.8634 26.6119 21.7001 27.6829 22.7711C28.7539 23.8421 29.5906 25.0915 30.193 26.5195C30.8177 27.9474 31.1301 29.4758 31.1301 31.1045V33.4473C31.1301 35.4776 30.6615 37.3407 29.7244 39.0364C28.7873 40.732 27.549 42.1154 26.0095 43.1863C27.549 44.2573 28.7873 45.6406 29.7244 47.3363C30.6615 49.0097 31.1301 50.8616 31.1301 52.8919V56.8746ZM26.8127 31.1045C26.8127 30.0336 26.6119 29.0407 26.2103 28.1259C25.8087 27.1888 25.2621 26.3744 24.5704 25.6828C23.8788 24.9911 23.0644 24.4445 22.1273 24.0429C21.2125 23.6413 20.2196 23.4404 19.1487 23.4404H17.5087C16.4378 23.4404 15.4338 23.6413 14.4967 24.0429C13.5819 24.4445 12.7675 24.9911 12.0535 25.6828C11.3619 26.3744 10.8152 27.1888 10.4136 28.1259C10.012 29.0407 9.8112 30.0336 9.8112 31.1045V33.4473C9.8112 34.5182 10.012 35.5223 10.4136 36.4593C10.8152 37.3741 11.3619 38.1774 12.0535 38.869C12.7675 39.5607 13.5819 40.1073 14.4967 40.5089C15.4338 40.9105 16.4378 41.1113 17.5087 41.1113H19.1487C20.2196 41.1113 21.2125 40.9105 22.1273 40.5089C23.0644 40.1073 23.8788 39.5607 24.5704 38.869C25.2621 38.1774 25.8087 37.3741 26.2103 36.4593C26.6119 35.5223 26.8127 34.5182 26.8127 33.4473V31.1045ZM26.8127 52.8919C26.8127 51.821 26.6119 50.8281 26.2103 49.9133C25.8087 48.9762 25.2621 48.1619 24.5704 47.4702C23.8788 46.7785 23.0644 46.2319 22.1273 45.8303C21.2125 45.4287 20.2196 45.2279 19.1487 45.2279H17.5087C16.4378 45.2279 15.4338 45.4287 14.4967 45.8303C13.5819 46.2319 12.7675 46.7785 12.0535 47.4702C11.3619 48.1619 10.8152 48.9762 10.4136 49.9133C10.012 50.8281 9.8112 51.821 9.8112 52.8919V56.8746C9.8112 57.9456 10.012 58.9496 10.4136 59.8867C10.8152 60.8015 11.3619 61.6158 12.0535 62.3298C12.7675 63.0215 13.5819 63.5681 14.4967 63.9697C15.4338 64.3713 16.4378 64.5721 17.5087 64.5721H19.1487C20.2196 64.5721 21.2125 64.3713 22.1273 63.9697C23.0644 63.5681 23.8788 63.0215 24.5704 62.3298C25.2621 61.6158 25.8087 60.8015 26.2103 59.8867C26.6119 58.9496 26.8127 57.9456 26.8127 56.8746V52.8919ZM58.8747 67.9858V42.8851C58.8747 42.0596 58.7185 41.2898 58.4062 40.5759C58.0938 39.8396 57.6699 39.2037 57.1344 38.6682C56.5989 38.1327 55.963 37.7088 55.2267 37.3964C54.5128 37.0841 53.743 36.9279 52.9175 36.9279H50.1731C49.3476 36.9279 48.5667 37.0841 47.8304 37.3964C47.1164 37.7088 46.4917 38.1327 45.9562 38.6682C45.4207 39.2037 44.9968 39.8396 44.6845 40.5759C44.3721 41.2898 44.2159 42.0596 44.2159 42.8851V67.9858H40.0994V19.9933H44.2159V36.5932C45.153 35.4776 46.2797 34.6075 47.5961 33.9827C48.9125 33.358 50.3405 33.0457 51.88 33.0457H52.9175C54.3008 33.0457 55.606 33.3134 56.8332 33.8489C58.0603 34.362 59.1313 35.076 60.0461 35.9908C60.9609 36.9056 61.6748 37.9765 62.188 39.2037C62.7235 40.4308 62.9912 41.7361 62.9912 43.1194V67.9858H58.8747Z" fill="#33363F"/>
</svg>
