<svg width="252" height="220" viewBox="0 0 252 220" fill="none" xmlns="http://www.w3.org/2000/svg">
<path d="M33.545 148.425V162.667H30.9649V150.935H30.8815L27.5503 153.063V150.699L31.0901 148.425H33.545ZM46.0106 162.855C45.1714 162.855 44.4203 162.639 43.7574 162.208C43.0944 161.777 42.5705 161.151 42.1857 160.33C41.8009 159.51 41.6085 158.513 41.6085 157.34C41.6085 156.153 41.8032 155.152 42.1926 154.336C42.5867 153.515 43.1176 152.896 43.7852 152.479C44.4528 152.057 45.1969 151.846 46.0175 151.846C46.6434 151.846 47.158 151.953 47.5614 152.166C47.9647 152.375 48.2846 152.627 48.5211 152.924C48.7575 153.216 48.9406 153.492 49.0704 153.752H49.1748V148.425H51.6992V162.667H49.2234V160.984H49.0704C48.9406 161.244 48.7529 161.52 48.5071 161.812C48.2614 162.099 47.9369 162.345 47.5335 162.549C47.1302 162.753 46.6225 162.855 46.0106 162.855ZM46.7129 160.789C47.2461 160.789 47.7004 160.646 48.076 160.358C48.4515 160.066 48.7366 159.66 48.9314 159.141C49.1261 158.622 49.2234 158.017 49.2234 157.326C49.2234 156.635 49.1261 156.035 48.9314 155.525C48.7413 155.015 48.4585 154.619 48.0829 154.336C47.712 154.053 47.2554 153.912 46.7129 153.912C46.152 153.912 45.6837 154.058 45.3082 154.35C44.9326 154.642 44.6498 155.045 44.4597 155.56C44.2697 156.074 44.1746 156.663 44.1746 157.326C44.1746 157.994 44.2697 158.589 44.4597 159.113C44.6545 159.633 44.9396 160.043 45.3151 160.344C45.6953 160.641 46.1612 160.789 46.7129 160.789ZM59.0412 162.876C57.998 162.876 57.094 162.646 56.329 162.187C55.564 161.728 54.9706 161.086 54.5487 160.261C54.1314 159.436 53.9228 158.471 53.9228 157.368C53.9228 156.264 54.1314 155.298 54.5487 154.468C54.9706 153.638 55.564 152.994 56.329 152.535C57.094 152.076 57.998 151.846 59.0412 151.846C60.0843 151.846 60.9884 152.076 61.7534 152.535C62.5183 152.994 63.1095 153.638 63.5267 154.468C63.9486 155.298 64.1596 156.264 64.1596 157.368C64.1596 158.471 63.9486 159.436 63.5267 160.261C63.1095 161.086 62.5183 161.728 61.7534 162.187C60.9884 162.646 60.0843 162.876 59.0412 162.876ZM59.0551 160.859C59.6207 160.859 60.0936 160.704 60.4738 160.393C60.8539 160.078 61.1368 159.656 61.3222 159.127C61.5123 158.599 61.6073 158.01 61.6073 157.361C61.6073 156.707 61.5123 156.116 61.3222 155.588C61.1368 155.054 60.8539 154.63 60.4738 154.315C60.0936 154 59.6207 153.842 59.0551 153.842C58.4756 153.842 57.9934 154 57.6086 154.315C57.2284 154.63 56.9433 155.054 56.7532 155.588C56.5678 156.116 56.475 156.707 56.475 157.361C56.475 158.01 56.5678 158.599 56.7532 159.127C56.9433 159.656 57.2284 160.078 57.6086 160.393C57.9934 160.704 58.4756 160.859 59.0551 160.859ZM70.9557 162.876C69.8893 162.876 68.9737 162.641 68.2087 162.173C67.4484 161.705 66.8619 161.058 66.4493 160.233C66.0413 159.403 65.8373 158.448 65.8373 157.368C65.8373 156.283 66.0459 155.326 66.4632 154.496C66.8804 153.661 67.4692 153.012 68.2296 152.548C68.9945 152.08 69.8986 151.846 70.9418 151.846C71.8087 151.846 72.576 152.006 73.2436 152.326C73.9159 152.641 74.4514 153.089 74.8501 153.668C75.2488 154.243 75.476 154.915 75.5316 155.685H73.1254C73.028 155.17 72.7962 154.741 72.43 154.398C72.0684 154.051 71.5839 153.877 70.9765 153.877C70.4619 153.877 70.0099 154.016 69.6204 154.294C69.231 154.568 68.9273 154.962 68.7094 155.476C68.4962 155.991 68.3895 156.607 68.3895 157.326C68.3895 158.054 68.4962 158.68 68.7094 159.204C68.9227 159.723 69.2217 160.124 69.6065 160.407C69.996 160.685 70.4526 160.824 70.9765 160.824C71.3474 160.824 71.6789 160.755 71.971 160.615C72.2677 160.472 72.5157 160.265 72.7151 159.997C72.9145 159.728 73.0512 159.401 73.1254 159.016H75.5316C75.4713 159.772 75.2488 160.442 74.864 161.026C74.4792 161.605 73.9553 162.06 73.2923 162.389C72.6293 162.713 71.8505 162.876 70.9557 162.876ZM84.407 158.175V151.985H86.9245V162.667H84.4835V160.768H84.3723C84.1312 161.367 83.7348 161.856 83.1831 162.236C82.636 162.616 81.9614 162.806 81.1594 162.806C80.4593 162.806 79.8404 162.651 79.3026 162.34C78.7694 162.025 78.3521 161.568 78.0508 160.97C77.7494 160.367 77.5988 159.64 77.5988 158.786V151.985H80.1162V158.397C80.1162 159.074 80.3017 159.612 80.6726 160.01C81.0435 160.409 81.5303 160.609 82.133 160.609C82.5039 160.609 82.8632 160.518 83.2109 160.337C83.5586 160.156 83.8437 159.888 84.0663 159.531C84.2934 159.169 84.407 158.717 84.407 158.175ZM89.5132 162.667V151.985H91.9194V153.8H92.0446C92.2671 153.188 92.6357 152.711 93.1503 152.368C93.665 152.02 94.2793 151.846 94.9932 151.846C95.7165 151.846 96.3261 152.022 96.8222 152.375C97.3229 152.722 97.6753 153.198 97.8793 153.8H97.9905C98.227 153.207 98.6257 152.734 99.1867 152.382C99.7523 152.025 100.422 151.846 101.196 151.846C102.179 151.846 102.981 152.157 103.603 152.778C104.224 153.399 104.535 154.306 104.535 155.497V162.667H102.01V155.887C102.01 155.224 101.834 154.739 101.482 154.433C101.129 154.122 100.698 153.967 100.188 153.967C99.5808 153.967 99.1055 154.157 98.7625 154.537C98.424 154.913 98.2548 155.402 98.2548 156.005V162.667H95.786V155.782C95.786 155.231 95.6191 154.79 95.2853 154.461C94.9561 154.132 94.525 153.967 93.9918 153.967C93.6302 153.967 93.301 154.06 93.0043 154.245C92.7076 154.426 92.4711 154.683 92.295 155.017C92.1188 155.346 92.0307 155.731 92.0307 156.172V162.667H89.5132ZM111.817 162.876C110.746 162.876 109.822 162.653 109.043 162.208C108.268 161.758 107.673 161.123 107.255 160.303C106.838 159.477 106.63 158.506 106.63 157.389C106.63 156.29 106.838 155.326 107.255 154.496C107.677 153.661 108.266 153.012 109.022 152.548C109.778 152.08 110.665 151.846 111.685 151.846C112.344 151.846 112.965 151.953 113.549 152.166C114.138 152.375 114.657 152.699 115.107 153.14C115.561 153.58 115.918 154.141 116.178 154.823C116.437 155.499 116.567 156.306 116.567 157.243V158.015H107.812V156.318H114.154C114.149 155.836 114.045 155.407 113.841 155.031C113.637 154.651 113.352 154.352 112.986 154.134C112.624 153.916 112.202 153.807 111.72 153.807C111.205 153.807 110.753 153.932 110.364 154.183C109.975 154.428 109.671 154.753 109.453 155.156C109.24 155.555 109.131 155.993 109.126 156.471V157.952C109.126 158.573 109.24 159.106 109.467 159.551C109.694 159.992 110.012 160.33 110.42 160.567C110.828 160.799 111.305 160.915 111.852 160.915C112.218 160.915 112.55 160.864 112.847 160.762C113.143 160.655 113.401 160.5 113.619 160.296C113.837 160.092 114.001 159.839 114.112 159.538L116.463 159.802C116.315 160.423 116.032 160.966 115.614 161.429C115.202 161.888 114.673 162.245 114.029 162.5C113.384 162.75 112.647 162.876 111.817 162.876ZM121.214 156.408V162.667H118.697V151.985H121.103V153.8H121.228C121.474 153.202 121.866 152.727 122.404 152.375C122.946 152.022 123.616 151.846 124.413 151.846C125.151 151.846 125.793 152.004 126.34 152.319C126.891 152.634 127.318 153.091 127.619 153.689C127.925 154.287 128.076 155.013 128.071 155.866V162.667H125.554V156.255C125.554 155.541 125.368 154.982 124.998 154.579C124.631 154.176 124.124 153.974 123.475 153.974C123.034 153.974 122.642 154.071 122.299 154.266C121.961 154.456 121.694 154.732 121.5 155.094C121.309 155.455 121.214 155.893 121.214 156.408ZM135.965 151.985V153.932H129.824V151.985H135.965ZM131.34 149.426H133.857V159.454C133.857 159.793 133.908 160.052 134.01 160.233C134.117 160.409 134.256 160.53 134.428 160.595C134.599 160.66 134.789 160.692 134.998 160.692C135.156 160.692 135.299 160.68 135.429 160.657C135.564 160.634 135.666 160.613 135.735 160.595L136.159 162.563C136.025 162.609 135.832 162.66 135.582 162.716C135.336 162.771 135.035 162.804 134.678 162.813C134.047 162.832 133.48 162.737 132.974 162.528C132.469 162.315 132.068 161.985 131.771 161.54C131.479 161.095 131.335 160.539 131.34 159.871V149.426ZM149.736 158.175V151.985H152.253V162.667H149.812V160.768H149.701C149.46 161.367 149.064 161.856 148.512 162.236C147.965 162.616 147.29 162.806 146.488 162.806C145.788 162.806 145.169 162.651 144.631 162.34C144.098 162.025 143.681 161.568 143.38 160.97C143.078 160.367 142.928 159.64 142.928 158.786V151.985H145.445V158.397C145.445 159.074 145.63 159.612 146.001 160.01C146.372 160.409 146.859 160.609 147.462 160.609C147.833 160.609 148.192 160.518 148.54 160.337C148.887 160.156 149.173 159.888 149.395 159.531C149.622 159.169 149.736 158.717 149.736 158.175ZM154.842 166.673V151.985H157.318V153.752H157.464C157.594 153.492 157.777 153.216 158.013 152.924C158.25 152.627 158.57 152.375 158.973 152.166C159.376 151.953 159.891 151.846 160.517 151.846C161.342 151.846 162.086 152.057 162.749 152.479C163.417 152.896 163.945 153.515 164.335 154.336C164.729 155.152 164.926 156.153 164.926 157.34C164.926 158.513 164.733 159.51 164.349 160.33C163.964 161.151 163.44 161.777 162.777 162.208C162.114 162.639 161.363 162.855 160.524 162.855C159.912 162.855 159.404 162.753 159.001 162.549C158.597 162.345 158.273 162.099 158.027 161.812C157.786 161.52 157.598 161.244 157.464 160.984H157.359V166.673H154.842ZM157.311 157.326C157.311 158.017 157.408 158.622 157.603 159.141C157.802 159.66 158.087 160.066 158.458 160.358C158.834 160.646 159.288 160.789 159.821 160.789C160.378 160.789 160.844 160.641 161.219 160.344C161.595 160.043 161.877 159.633 162.068 159.113C162.262 158.589 162.36 157.994 162.36 157.326C162.36 156.663 162.265 156.074 162.075 155.56C161.884 155.045 161.602 154.642 161.226 154.35C160.851 154.058 160.382 153.912 159.821 153.912C159.284 153.912 158.827 154.053 158.451 154.336C158.076 154.619 157.791 155.015 157.596 155.525C157.406 156.035 157.311 156.635 157.311 157.326ZM169.599 148.425V162.667H167.082V148.425H169.599ZM176.847 162.876C175.804 162.876 174.9 162.646 174.135 162.187C173.37 161.728 172.777 161.086 172.355 160.261C171.937 159.436 171.729 158.471 171.729 157.368C171.729 156.264 171.937 155.298 172.355 154.468C172.777 153.638 173.37 152.994 174.135 152.535C174.9 152.076 175.804 151.846 176.847 151.846C177.89 151.846 178.794 152.076 179.559 152.535C180.324 152.994 180.915 153.638 181.333 154.468C181.755 155.298 181.966 156.264 181.966 157.368C181.966 158.471 181.755 159.436 181.333 160.261C180.915 161.086 180.324 161.728 179.559 162.187C178.794 162.646 177.89 162.876 176.847 162.876ZM176.861 160.859C177.427 160.859 177.9 160.704 178.28 160.393C178.66 160.078 178.943 159.656 179.128 159.127C179.318 158.599 179.413 158.01 179.413 157.361C179.413 156.707 179.318 156.116 179.128 155.588C178.943 155.054 178.66 154.63 178.28 154.315C177.9 154 177.427 153.842 176.861 153.842C176.282 153.842 175.799 154 175.415 154.315C175.034 154.63 174.749 155.054 174.559 155.588C174.374 156.116 174.281 156.707 174.281 157.361C174.281 158.01 174.374 158.599 174.559 159.127C174.749 159.656 175.034 160.078 175.415 160.393C175.799 160.704 176.282 160.859 176.861 160.859ZM187.176 162.883C186.499 162.883 185.89 162.762 185.347 162.521C184.809 162.275 184.383 161.914 184.068 161.436C183.757 160.959 183.602 160.37 183.602 159.67C183.602 159.067 183.713 158.569 183.935 158.175C184.158 157.78 184.462 157.465 184.846 157.229C185.231 156.992 185.665 156.814 186.147 156.693C186.634 156.568 187.137 156.478 187.656 156.422C188.282 156.357 188.789 156.299 189.179 156.248C189.568 156.193 189.851 156.109 190.027 155.998C190.208 155.882 190.299 155.703 190.299 155.462V155.421C190.299 154.897 190.143 154.491 189.833 154.204C189.522 153.916 189.075 153.772 188.49 153.772C187.874 153.772 187.385 153.907 187.023 154.176C186.666 154.445 186.425 154.762 186.3 155.129L183.949 154.795C184.135 154.146 184.441 153.603 184.867 153.167C185.294 152.727 185.815 152.398 186.432 152.18C187.049 151.957 187.73 151.846 188.477 151.846C188.991 151.846 189.503 151.906 190.013 152.027C190.523 152.147 190.989 152.347 191.411 152.625C191.833 152.899 192.172 153.272 192.427 153.745C192.686 154.218 192.816 154.809 192.816 155.518V162.667H190.396V161.2H190.312C190.159 161.496 189.944 161.775 189.666 162.034C189.392 162.289 189.047 162.495 188.63 162.653C188.217 162.806 187.732 162.883 187.176 162.883ZM187.83 161.033C188.335 161.033 188.773 160.933 189.144 160.734C189.515 160.53 189.8 160.261 190 159.927C190.204 159.593 190.306 159.229 190.306 158.835V157.576C190.227 157.641 190.092 157.702 189.902 157.757C189.717 157.813 189.508 157.862 189.276 157.903C189.044 157.945 188.815 157.982 188.588 158.015C188.361 158.047 188.164 158.075 187.997 158.098C187.621 158.149 187.285 158.232 186.988 158.348C186.692 158.464 186.457 158.627 186.286 158.835C186.114 159.039 186.029 159.303 186.029 159.628C186.029 160.092 186.198 160.442 186.536 160.678C186.875 160.915 187.306 161.033 187.83 161.033ZM199.311 162.855C198.472 162.855 197.721 162.639 197.058 162.208C196.395 161.777 195.871 161.151 195.486 160.33C195.102 159.51 194.909 158.513 194.909 157.34C194.909 156.153 195.104 155.152 195.493 154.336C195.888 153.515 196.418 152.896 197.086 152.479C197.754 152.057 198.498 151.846 199.318 151.846C199.944 151.846 200.459 151.953 200.862 152.166C201.266 152.375 201.585 152.627 201.822 152.924C202.058 153.216 202.241 153.492 202.371 153.752H202.476V148.425H205V162.667H202.524V160.984H202.371C202.241 161.244 202.054 161.52 201.808 161.812C201.562 162.099 201.238 162.345 200.834 162.549C200.431 162.753 199.923 162.855 199.311 162.855ZM200.014 160.789C200.547 160.789 201.001 160.646 201.377 160.358C201.752 160.066 202.037 159.66 202.232 159.141C202.427 158.622 202.524 158.017 202.524 157.326C202.524 156.635 202.427 156.035 202.232 155.525C202.042 155.015 201.759 154.619 201.384 154.336C201.013 154.053 200.556 153.912 200.014 153.912C199.453 153.912 198.984 154.058 198.609 154.35C198.233 154.642 197.951 155.045 197.761 155.56C197.57 156.074 197.475 156.663 197.475 157.326C197.475 157.994 197.57 158.589 197.761 159.113C197.955 159.633 198.24 160.043 198.616 160.344C198.996 160.641 199.462 160.789 200.014 160.789ZM212.412 162.876C211.341 162.876 210.416 162.653 209.637 162.208C208.863 161.758 208.267 161.123 207.85 160.303C207.432 159.477 207.224 158.506 207.224 157.389C207.224 156.29 207.432 155.326 207.85 154.496C208.271 153.661 208.86 153.012 209.616 152.548C210.372 152.08 211.259 151.846 212.279 151.846C212.938 151.846 213.559 151.953 214.143 152.166C214.732 152.375 215.251 152.699 215.701 153.14C216.155 153.58 216.512 154.141 216.772 154.823C217.032 155.499 217.161 156.306 217.161 157.243V158.015H208.406V156.318H214.748C214.744 155.836 214.639 155.407 214.435 155.031C214.231 154.651 213.946 154.352 213.58 154.134C213.218 153.916 212.796 153.807 212.314 153.807C211.8 153.807 211.348 153.932 210.958 154.183C210.569 154.428 210.265 154.753 210.047 155.156C209.834 155.555 209.725 155.993 209.72 156.471V157.952C209.72 158.573 209.834 159.106 210.061 159.551C210.288 159.992 210.606 160.33 211.014 160.567C211.422 160.799 211.899 160.915 212.446 160.915C212.813 160.915 213.144 160.864 213.441 160.762C213.737 160.655 213.995 160.5 214.213 160.296C214.431 160.092 214.595 159.839 214.706 159.538L217.057 159.802C216.909 160.423 216.626 160.966 216.209 161.429C215.796 161.888 215.267 162.245 214.623 162.5C213.979 162.75 213.241 162.876 212.412 162.876ZM223.255 162.855C222.416 162.855 221.665 162.639 221.002 162.208C220.339 161.777 219.815 161.151 219.43 160.33C219.045 159.51 218.853 158.513 218.853 157.34C218.853 156.153 219.048 155.152 219.437 154.336C219.831 153.515 220.362 152.896 221.03 152.479C221.697 152.057 222.441 151.846 223.262 151.846C223.888 151.846 224.403 151.953 224.806 152.166C225.209 152.375 225.529 152.627 225.766 152.924C226.002 153.216 226.185 153.492 226.315 153.752H226.419V148.425H228.944V162.667H226.468V160.984H226.315C226.185 161.244 225.997 161.52 225.752 161.812C225.506 162.099 225.181 162.345 224.778 162.549C224.375 162.753 223.867 162.855 223.255 162.855ZM223.957 160.789C224.491 160.789 224.945 160.646 225.32 160.358C225.696 160.066 225.981 159.66 226.176 159.141C226.371 158.622 226.468 158.017 226.468 157.326C226.468 156.635 226.371 156.035 226.176 155.525C225.986 155.015 225.703 154.619 225.327 154.336C224.957 154.053 224.5 153.912 223.957 153.912C223.396 153.912 222.928 154.058 222.553 154.35C222.177 154.642 221.894 155.045 221.704 155.56C221.514 156.074 221.419 156.663 221.419 157.326C221.419 157.994 221.514 158.589 221.704 159.113C221.899 159.633 222.184 160.043 222.56 160.344C222.94 160.641 223.406 160.789 223.957 160.789Z" fill="black"/>
<path d="M4.62424 191.282V196.202H3.6991V191.296L1.03842 185.918H2.03528L4.15091 190.192L6.26654 185.918H7.2634L4.62424 191.282ZM12.7569 194.186C12.7569 194.483 12.6995 194.763 12.5847 195.026C12.4748 195.288 12.3218 195.518 12.1258 195.714C11.9297 195.91 11.7002 196.065 11.4373 196.18C11.1743 196.29 10.8946 196.345 10.5982 196.345H10.0101C9.7137 196.345 9.43401 196.29 9.17105 196.18C8.90809 196.065 8.6786 195.91 8.48257 195.714C8.28655 195.518 8.13116 195.288 8.01642 195.026C7.90645 194.763 7.85147 194.483 7.85147 194.186V190.873C7.85147 190.577 7.90645 190.297 8.01642 190.034C8.13116 189.771 8.28655 189.542 8.48257 189.346C8.6786 189.15 8.90809 188.997 9.17105 188.887C9.43401 188.772 9.7137 188.714 10.0101 188.714H10.5982C10.8946 188.714 11.1743 188.772 11.4373 188.887C11.7002 188.997 11.9297 189.15 12.1258 189.346C12.3218 189.542 12.4748 189.771 12.5847 190.034C12.6995 190.297 12.7569 190.577 12.7569 190.873V194.186ZM11.8748 190.823C11.8748 190.646 11.8413 190.481 11.7744 190.328C11.7074 190.17 11.6166 190.034 11.5018 189.919C11.3871 189.805 11.2508 189.714 11.093 189.647C10.9401 189.58 10.7751 189.546 10.5982 189.546H10.0101C9.83323 189.546 9.66589 189.58 9.50812 189.647C9.35512 189.714 9.22125 189.805 9.10651 189.919C8.99176 190.034 8.90092 190.17 8.83398 190.328C8.76705 190.481 8.73358 190.646 8.73358 190.823V194.237C8.73358 194.414 8.76705 194.581 8.83398 194.739C8.90092 194.892 8.99176 195.026 9.10651 195.14C9.22125 195.255 9.35512 195.346 9.50812 195.413C9.66589 195.48 9.83323 195.513 10.0101 195.513H10.5982C10.7751 195.513 10.9401 195.48 11.093 195.413C11.2508 195.346 11.3871 195.255 11.5018 195.14C11.6166 195.026 11.7074 194.892 11.7744 194.739C11.8413 194.581 11.8748 194.414 11.8748 194.237V190.823ZM19.1324 196.202L18.6448 195.456C18.444 195.728 18.193 195.946 17.8918 196.108C17.5905 196.266 17.2607 196.345 16.9021 196.345H16.6797C16.3833 196.345 16.1036 196.29 15.8407 196.18C15.5777 196.065 15.3482 195.91 15.1522 195.714C14.9562 195.518 14.8008 195.288 14.686 195.026C14.5761 194.763 14.5211 194.483 14.5211 194.186V188.858H15.4032V194.237C15.4032 194.414 15.4367 194.581 15.5036 194.739C15.5705 194.892 15.6614 195.026 15.7761 195.14C15.8909 195.255 16.0247 195.346 16.1777 195.413C16.3355 195.48 16.5028 195.513 16.6797 195.513H17.2678C17.4447 195.513 17.6097 195.48 17.7627 195.413C17.9204 195.346 18.0567 195.255 18.1714 195.14C18.2862 195.026 18.377 194.892 18.444 194.739C18.5109 194.581 18.5444 194.414 18.5444 194.237V188.858H19.4265V196.202H19.1324ZM29.4811 194.186C29.4811 194.483 29.4237 194.763 29.309 195.026C29.199 195.288 29.046 195.518 28.85 195.714C28.654 195.91 28.4245 196.065 28.1615 196.18C27.8986 196.29 27.6189 196.345 27.3224 196.345H26.7344C26.4379 196.345 26.1583 196.29 25.8953 196.18C25.6323 196.065 25.4028 195.91 25.2068 195.714C25.0108 195.518 24.8554 195.288 24.7407 195.026C24.6307 194.763 24.5757 194.483 24.5757 194.186V190.873C24.5757 190.577 24.6307 190.297 24.7407 190.034C24.8554 189.771 25.0108 189.542 25.2068 189.346C25.4028 189.15 25.6323 188.997 25.8953 188.887C26.1583 188.772 26.4379 188.714 26.7344 188.714H27.3224C27.6189 188.714 27.8986 188.772 28.1615 188.887C28.4245 188.997 28.654 189.15 28.85 189.346C29.046 189.542 29.199 189.771 29.309 190.034C29.4237 190.297 29.4811 190.577 29.4811 190.873V191.167L28.599 191.311V190.823C28.599 190.646 28.5655 190.481 28.4986 190.328C28.4317 190.17 28.3408 190.034 28.2261 189.919C28.1113 189.805 27.9751 189.714 27.8173 189.647C27.6643 189.58 27.4993 189.546 27.3224 189.546H26.7344C26.5575 189.546 26.3901 189.58 26.2324 189.647C26.0794 189.714 25.9455 189.805 25.8307 189.919C25.716 190.034 25.6252 190.17 25.5582 190.328C25.4913 190.481 25.4578 190.646 25.4578 190.823V194.237C25.4578 194.414 25.4913 194.581 25.5582 194.739C25.6252 194.892 25.716 195.026 25.8307 195.14C25.9455 195.255 26.0794 195.346 26.2324 195.413C26.3901 195.48 26.5575 195.513 26.7344 195.513H27.3224C27.4993 195.513 27.6643 195.48 27.8173 195.413C27.9751 195.346 28.1113 195.255 28.2261 195.14C28.3408 195.026 28.4317 194.892 28.4986 194.739C28.5655 194.581 28.599 194.414 28.599 194.237V193.749L29.4811 193.892V194.186ZM35.8567 196.202L35.369 195.47C35.1682 195.733 34.9172 195.946 34.616 196.108C34.3148 196.266 33.9849 196.345 33.6263 196.345H33.404C33.1076 196.345 32.8279 196.29 32.5649 196.18C32.302 196.065 32.0725 195.91 31.8764 195.714C31.6804 195.518 31.525 195.288 31.4103 195.026C31.3003 194.763 31.2453 194.483 31.2453 194.186V194.115C31.2453 193.818 31.3003 193.539 31.4103 193.276C31.525 193.013 31.6804 192.783 31.8764 192.587C32.0725 192.391 32.302 192.238 32.5649 192.128C32.8279 192.013 33.1076 191.956 33.404 191.956H35.2686V190.823C35.2686 190.646 35.2351 190.481 35.1682 190.328C35.1013 190.17 35.0104 190.034 34.8957 189.919C34.7809 189.805 34.6447 189.714 34.4869 189.647C34.3339 189.58 34.169 189.546 33.9921 189.546H33.4757C33.2988 189.546 33.1315 189.58 32.9737 189.647C32.8207 189.714 32.6868 189.805 32.5721 189.919C32.4573 190.034 32.3665 190.17 32.2996 190.328C32.2326 190.481 32.1992 190.646 32.1992 190.823V191.088L31.317 190.945V190.873C31.317 190.577 31.372 190.297 31.482 190.034C31.5967 189.771 31.7521 189.542 31.9482 189.346C32.1442 189.15 32.3737 188.997 32.6366 188.887C32.8996 188.772 33.1793 188.714 33.4757 188.714H33.9921C34.2885 188.714 34.5682 188.772 34.8311 188.887C35.0941 188.997 35.3236 189.15 35.5196 189.346C35.7156 189.542 35.8686 189.771 35.9786 190.034C36.0934 190.297 36.1507 190.577 36.1507 190.873V196.202H35.8567ZM35.2686 192.645H33.404C33.2271 192.645 33.0598 192.678 32.902 192.745C32.749 192.812 32.6151 192.905 32.5004 193.025C32.3856 193.139 32.2948 193.276 32.2278 193.433C32.1609 193.586 32.1274 193.751 32.1274 193.928V194.237C32.1274 194.414 32.1609 194.581 32.2278 194.739C32.2948 194.892 32.3856 195.026 32.5004 195.14C32.6151 195.255 32.749 195.346 32.902 195.413C33.0598 195.48 33.2271 195.513 33.404 195.513H33.9921C34.169 195.513 34.3339 195.48 34.4869 195.413C34.6447 195.346 34.7809 195.255 34.8957 195.14C35.0104 195.026 35.1013 194.892 35.1682 194.739C35.2351 194.581 35.2686 194.414 35.2686 194.237V192.645ZM41.9382 196.202V190.823C41.9382 190.646 41.9048 190.481 41.8378 190.328C41.7709 190.17 41.6801 190.034 41.5653 189.919C41.4506 189.805 41.3143 189.714 41.1565 189.647C41.0035 189.58 40.8386 189.546 40.6617 189.546H40.0736C39.8967 189.546 39.7294 189.58 39.5716 189.647C39.4186 189.714 39.2847 189.805 39.17 189.919C39.0552 190.034 38.9644 190.17 38.8975 190.328C38.8305 190.481 38.7971 190.646 38.7971 190.823V196.202H37.9149V188.858H38.209L38.6895 189.604C38.8903 189.331 39.1413 189.116 39.4425 188.958C39.7485 188.796 40.0808 188.714 40.4394 188.714H40.6617C40.9581 188.714 41.2378 188.772 41.5008 188.887C41.7637 188.997 41.9932 189.15 42.1892 189.346C42.3853 189.542 42.5383 189.771 42.6482 190.034C42.763 190.297 42.8203 190.577 42.8203 190.873V196.202H41.9382ZM52.5809 196.202L52.0933 195.456C51.8925 195.728 51.6414 195.946 51.3402 196.108C51.039 196.266 50.7091 196.345 50.3506 196.345H50.1282C49.8318 196.345 49.5521 196.29 49.2892 196.18C49.0262 196.065 48.7967 195.91 48.6007 195.714C48.4047 195.518 48.2493 195.288 48.1345 195.026C48.0246 194.763 47.9696 194.483 47.9696 194.186V188.858H48.8517V194.237C48.8517 194.414 48.8852 194.581 48.9521 194.739C49.019 194.892 49.1099 195.026 49.2246 195.14C49.3394 195.255 49.4732 195.346 49.6262 195.413C49.784 195.48 49.9513 195.513 50.1282 195.513H50.7163C50.8932 195.513 51.0582 195.48 51.2112 195.413C51.3689 195.346 51.5052 195.255 51.6199 195.14C51.7347 195.026 51.8255 194.892 51.8925 194.739C51.9594 194.581 51.9929 194.414 51.9929 194.237V188.858H52.875V196.202H52.5809ZM59.5446 194.186C59.5446 194.483 59.4872 194.763 59.3725 195.026C59.2625 195.288 59.1095 195.518 58.9135 195.714C58.7175 195.91 58.488 196.065 58.225 196.18C57.962 196.29 57.6824 196.345 57.3859 196.345H57.1636C56.8337 196.345 56.5277 196.278 56.2456 196.144C55.9636 196.01 55.7221 195.824 55.5213 195.585V199.142H54.6392V188.858H54.9332L55.4137 189.604C55.6145 189.331 55.8655 189.116 56.1667 188.958C56.4727 188.796 56.805 188.714 57.1636 188.714H57.3859C57.6824 188.714 57.962 188.772 58.225 188.887C58.488 188.997 58.7175 189.15 58.9135 189.346C59.1095 189.542 59.2625 189.771 59.3725 190.034C59.4872 190.297 59.5446 190.577 59.5446 190.873V194.186ZM58.6625 190.823C58.6625 190.646 58.629 190.481 58.5621 190.328C58.4951 190.17 58.4043 190.034 58.2896 189.919C58.1748 189.805 58.0385 189.714 57.8808 189.647C57.7278 189.58 57.5628 189.546 57.3859 189.546H56.7979C56.621 189.546 56.4536 189.58 56.2958 189.647C56.1428 189.714 56.009 189.805 55.8942 189.919C55.7795 190.034 55.6886 190.17 55.6217 190.328C55.5548 190.481 55.5213 190.646 55.5213 190.823V194.237C55.5213 194.414 55.5548 194.581 55.6217 194.739C55.6886 194.892 55.7795 195.026 55.8942 195.14C56.009 195.255 56.1428 195.346 56.2958 195.413C56.4536 195.48 56.621 195.513 56.7979 195.513H57.3859C57.5628 195.513 57.7278 195.48 57.8808 195.413C58.0385 195.346 58.1748 195.255 58.2896 195.14C58.4043 195.026 58.4951 194.892 58.5621 194.739C58.629 194.581 58.6625 194.414 58.6625 194.237V190.823ZM61.6028 196.202V185.918H62.485V196.202H61.6028ZM69.3123 194.186C69.3123 194.483 69.255 194.763 69.1402 195.026C69.0303 195.288 68.8773 195.518 68.6812 195.714C68.4852 195.91 68.2557 196.065 67.9928 196.18C67.7298 196.29 67.4501 196.345 67.1537 196.345H66.5656C66.2692 196.345 65.9895 196.29 65.7265 196.18C65.4636 196.065 65.2341 195.91 65.0381 195.714C64.842 195.518 64.6866 195.288 64.5719 195.026C64.4619 194.763 64.407 194.483 64.407 194.186V190.873C64.407 190.577 64.4619 190.297 64.5719 190.034C64.6866 189.771 64.842 189.542 65.0381 189.346C65.2341 189.15 65.4636 188.997 65.7265 188.887C65.9895 188.772 66.2692 188.714 66.5656 188.714H67.1537C67.4501 188.714 67.7298 188.772 67.9928 188.887C68.2557 188.997 68.4852 189.15 68.6812 189.346C68.8773 189.542 69.0303 189.771 69.1402 190.034C69.255 190.297 69.3123 190.577 69.3123 190.873V194.186ZM68.4302 190.823C68.4302 190.646 68.3968 190.481 68.3298 190.328C68.2629 190.17 68.1721 190.034 68.0573 189.919C67.9426 189.805 67.8063 189.714 67.6485 189.647C67.4955 189.58 67.3306 189.546 67.1537 189.546H66.5656C66.3887 189.546 66.2214 189.58 66.0636 189.647C65.9106 189.714 65.7767 189.805 65.662 189.919C65.5472 190.034 65.4564 190.17 65.3895 190.328C65.3225 190.481 65.2891 190.646 65.2891 190.823V194.237C65.2891 194.414 65.3225 194.581 65.3895 194.739C65.4564 194.892 65.5472 195.026 65.662 195.14C65.7767 195.255 65.9106 195.346 66.0636 195.413C66.2214 195.48 66.3887 195.513 66.5656 195.513H67.1537C67.3306 195.513 67.4955 195.48 67.6485 195.413C67.8063 195.346 67.9426 195.255 68.0573 195.14C68.1721 195.026 68.2629 194.892 68.3298 194.739C68.3968 194.581 68.4302 194.414 68.4302 194.237V190.823ZM75.6879 196.202L75.2003 195.47C74.9995 195.733 74.7484 195.946 74.4472 196.108C74.146 196.266 73.8161 196.345 73.4576 196.345H73.2352C72.9388 196.345 72.6591 196.29 72.3961 196.18C72.1332 196.065 71.9037 195.91 71.7077 195.714C71.5116 195.518 71.3563 195.288 71.2415 195.026C71.1316 194.763 71.0766 194.483 71.0766 194.186V194.115C71.0766 193.818 71.1316 193.539 71.2415 193.276C71.3563 193.013 71.5116 192.783 71.7077 192.587C71.9037 192.391 72.1332 192.238 72.3961 192.128C72.6591 192.013 72.9388 191.956 73.2352 191.956H75.0999V190.823C75.0999 190.646 75.0664 190.481 74.9995 190.328C74.9325 190.17 74.8417 190.034 74.7269 189.919C74.6122 189.805 74.4759 189.714 74.3181 189.647C74.1652 189.58 74.0002 189.546 73.8233 189.546H73.3069C73.13 189.546 72.9627 189.58 72.8049 189.647C72.6519 189.714 72.5181 189.805 72.4033 189.919C72.2886 190.034 72.1977 190.17 72.1308 190.328C72.0639 190.481 72.0304 190.646 72.0304 190.823V191.088L71.1483 190.945V190.873C71.1483 190.577 71.2033 190.297 71.3132 190.034C71.428 189.771 71.5834 189.542 71.7794 189.346C71.9754 189.15 72.2049 188.997 72.4679 188.887C72.7308 188.772 73.0105 188.714 73.3069 188.714H73.8233C74.1197 188.714 74.3994 188.772 74.6624 188.887C74.9253 188.997 75.1548 189.15 75.3509 189.346C75.5469 189.542 75.6999 189.771 75.8098 190.034C75.9246 190.297 75.982 190.577 75.982 190.873V196.202H75.6879ZM75.0999 192.645H73.2352C73.0583 192.645 72.891 192.678 72.7332 192.745C72.5802 192.812 72.4464 192.905 72.3316 193.025C72.2169 193.139 72.126 193.276 72.0591 193.433C71.9921 193.586 71.9587 193.751 71.9587 193.928V194.237C71.9587 194.414 71.9921 194.581 72.0591 194.739C72.126 194.892 72.2169 195.026 72.3316 195.14C72.4464 195.255 72.5802 195.346 72.7332 195.413C72.891 195.48 73.0583 195.513 73.2352 195.513H73.8233C74.0002 195.513 74.1652 195.48 74.3181 195.413C74.4759 195.346 74.6122 195.255 74.7269 195.14C74.8417 195.026 74.9325 194.892 74.9995 194.739C75.0664 194.581 75.0999 194.414 75.0999 194.237V192.645ZM82.3575 196.202L81.8699 195.456C81.6691 195.728 81.4181 195.946 81.1169 196.108C80.8156 196.266 80.4857 196.345 80.1272 196.345H79.9048C79.6084 196.345 79.3287 196.29 79.0658 196.18C78.8028 196.065 78.5733 195.91 78.3773 195.714C78.1813 195.518 78.0259 195.288 77.9111 195.026C77.8012 194.763 77.7462 194.483 77.7462 194.186V190.873C77.7462 190.577 77.8012 190.297 77.9111 190.034C78.0259 189.771 78.1813 189.542 78.3773 189.346C78.5733 189.15 78.8028 188.997 79.0658 188.887C79.3287 188.772 79.6084 188.714 79.9048 188.714H80.1272C80.4571 188.714 80.7631 188.781 81.0451 188.915C81.3272 189.049 81.5687 189.236 81.7695 189.475V185.918H82.6516V196.202H82.3575ZM81.7695 190.823C81.7695 190.646 81.736 190.481 81.6691 190.328C81.6021 190.17 81.5113 190.034 81.3965 189.919C81.2818 189.805 81.1455 189.714 80.9878 189.647C80.8348 189.58 80.6698 189.546 80.4929 189.546H79.9048C79.7279 189.546 79.5606 189.58 79.4028 189.647C79.2498 189.714 79.116 189.805 79.0012 189.919C78.8865 190.034 78.7956 190.17 78.7287 190.328C78.6618 190.481 78.6283 190.646 78.6283 190.823V194.237C78.6283 194.414 78.6618 194.581 78.7287 194.739C78.7956 194.892 78.8865 195.026 79.0012 195.14C79.116 195.255 79.2498 195.346 79.4028 195.413C79.5606 195.48 79.7279 195.513 79.9048 195.513H80.4929C80.6698 195.513 80.8348 195.48 80.9878 195.413C81.1455 195.346 81.2818 195.255 81.3965 195.14C81.5113 195.026 81.6021 194.892 81.6691 194.739C81.736 194.581 81.7695 194.414 81.7695 194.237V190.823ZM92.4122 196.202L91.9245 195.47C91.7237 195.733 91.4727 195.946 91.1715 196.108C90.8703 196.266 90.5404 196.345 90.1818 196.345H89.9595C89.663 196.345 89.3834 196.29 89.1204 196.18C88.8574 196.065 88.6279 195.91 88.4319 195.714C88.2359 195.518 88.0805 195.288 87.9658 195.026C87.8558 194.763 87.8008 194.483 87.8008 194.186V194.115C87.8008 193.818 87.8558 193.539 87.9658 193.276C88.0805 193.013 88.2359 192.783 88.4319 192.587C88.6279 192.391 88.8574 192.238 89.1204 192.128C89.3834 192.013 89.663 191.956 89.9595 191.956H91.8241V190.823C91.8241 190.646 91.7906 190.481 91.7237 190.328C91.6568 190.17 91.5659 190.034 91.4512 189.919C91.3364 189.805 91.2002 189.714 91.0424 189.647C90.8894 189.58 90.7244 189.546 90.5475 189.546H90.0312C89.8543 189.546 89.687 189.58 89.5292 189.647C89.3762 189.714 89.2423 189.805 89.1276 189.919C89.0128 190.034 88.922 190.17 88.855 190.328C88.7881 190.481 88.7546 190.646 88.7546 190.823V191.088L87.8725 190.945V190.873C87.8725 190.577 87.9275 190.297 88.0375 190.034C88.1522 189.771 88.3076 189.542 88.5036 189.346C88.6997 189.15 88.9291 188.997 89.1921 188.887C89.4551 188.772 89.7348 188.714 90.0312 188.714H90.5475C90.844 188.714 91.1237 188.772 91.3866 188.887C91.6496 188.997 91.8791 189.15 92.0751 189.346C92.2711 189.542 92.4241 189.771 92.5341 190.034C92.6488 190.297 92.7062 190.577 92.7062 190.873V196.202H92.4122ZM91.8241 192.645H89.9595C89.7826 192.645 89.6152 192.678 89.4575 192.745C89.3045 192.812 89.1706 192.905 89.0558 193.025C88.9411 193.139 88.8503 193.276 88.7833 193.433C88.7164 193.586 88.6829 193.751 88.6829 193.928V194.237C88.6829 194.414 88.7164 194.581 88.7833 194.739C88.8503 194.892 88.9411 195.026 89.0558 195.14C89.1706 195.255 89.3045 195.346 89.4575 195.413C89.6152 195.48 89.7826 195.513 89.9595 195.513H90.5475C90.7244 195.513 90.8894 195.48 91.0424 195.413C91.2002 195.346 91.3364 195.255 91.4512 195.14C91.5659 195.026 91.6568 194.892 91.7237 194.739C91.7906 194.581 91.8241 194.414 91.8241 194.237V192.645ZM101.879 196.202V190.823C101.879 190.646 101.845 190.481 101.778 190.328C101.711 190.17 101.621 190.034 101.506 189.919C101.391 189.805 101.255 189.714 101.097 189.647C100.944 189.58 100.779 189.546 100.602 189.546H100.014C99.8372 189.546 99.6699 189.58 99.5121 189.647C99.3591 189.714 99.2252 189.805 99.1105 189.919C98.9957 190.034 98.9049 190.17 98.838 190.328C98.771 190.481 98.7375 190.646 98.7375 190.823V196.202H97.8554V188.858H98.1495L98.63 189.604C98.8308 189.331 99.0818 189.116 99.383 188.958C99.689 188.796 100.021 188.714 100.38 188.714H100.602C100.899 188.714 101.178 188.772 101.441 188.887C101.704 188.997 101.934 189.15 102.13 189.346C102.326 189.542 102.479 189.771 102.589 190.034C102.703 190.297 102.761 190.577 102.761 190.873V196.202H101.879ZM109.43 194.186C109.43 194.483 109.373 194.763 109.258 195.026C109.148 195.288 108.995 195.518 108.799 195.714C108.603 195.91 108.374 196.065 108.111 196.18C107.848 196.29 107.568 196.345 107.272 196.345H106.684C106.387 196.345 106.108 196.29 105.845 196.18C105.582 196.065 105.352 195.91 105.156 195.714C104.96 195.518 104.805 195.288 104.69 195.026C104.58 194.763 104.525 194.483 104.525 194.186V190.873C104.525 190.577 104.58 190.297 104.69 190.034C104.805 189.771 104.96 189.542 105.156 189.346C105.352 189.15 105.582 188.997 105.845 188.887C106.108 188.772 106.387 188.714 106.684 188.714H107.272C107.568 188.714 107.848 188.772 108.111 188.887C108.374 188.997 108.603 189.15 108.799 189.346C108.995 189.542 109.148 189.771 109.258 190.034C109.373 190.297 109.43 190.577 109.43 190.873V192.602H105.407V194.237C105.407 194.414 105.441 194.581 105.508 194.739C105.575 194.892 105.665 195.026 105.78 195.14C105.895 195.255 106.029 195.346 106.182 195.413C106.339 195.48 106.507 195.513 106.684 195.513H107.272C107.449 195.513 107.614 195.48 107.767 195.413C107.924 195.346 108.061 195.255 108.175 195.14C108.29 195.026 108.381 194.892 108.448 194.739C108.515 194.581 108.548 194.414 108.548 194.237V193.749L109.43 193.892V194.186ZM108.548 190.823C108.548 190.646 108.515 190.481 108.448 190.328C108.381 190.17 108.29 190.034 108.175 189.919C108.061 189.805 107.924 189.714 107.767 189.647C107.614 189.58 107.449 189.546 107.272 189.546H106.684C106.507 189.546 106.339 189.58 106.182 189.647C106.029 189.714 105.895 189.805 105.78 189.919C105.665 190.034 105.575 190.17 105.508 190.328C105.441 190.481 105.407 190.646 105.407 190.823V191.913H108.548V190.823ZM117.377 196.202H116.896L115.175 190.665L115.146 190.285L115.118 190.665L113.396 196.202H112.909L110.456 188.858H111.352L113.102 194.409L113.131 194.789L113.16 194.409L114.881 188.858H115.412L117.126 194.409L117.154 194.789L117.183 194.409L118.933 188.858H119.829L117.377 196.202ZM128.858 196.202L128.371 195.456C128.17 195.728 127.919 195.946 127.618 196.108C127.316 196.266 126.987 196.345 126.628 196.345H126.406C126.109 196.345 125.83 196.29 125.567 196.18C125.304 196.065 125.074 195.91 124.878 195.714C124.682 195.518 124.527 195.288 124.412 195.026C124.302 194.763 124.247 194.483 124.247 194.186V190.873C124.247 190.577 124.302 190.297 124.412 190.034C124.527 189.771 124.682 189.542 124.878 189.346C125.074 189.15 125.304 188.997 125.567 188.887C125.83 188.772 126.109 188.714 126.406 188.714H126.628C126.958 188.714 127.264 188.781 127.546 188.915C127.828 189.049 128.07 189.236 128.27 189.475V185.918H129.152V196.202H128.858ZM128.27 190.823C128.27 190.646 128.237 190.481 128.17 190.328C128.103 190.17 128.012 190.034 127.897 189.919C127.783 189.805 127.646 189.714 127.489 189.647C127.336 189.58 127.171 189.546 126.994 189.546H126.406C126.229 189.546 126.061 189.58 125.904 189.647C125.751 189.714 125.617 189.805 125.502 189.919C125.387 190.034 125.296 190.17 125.23 190.328C125.163 190.481 125.129 190.646 125.129 190.823V194.237C125.129 194.414 125.163 194.581 125.23 194.739C125.296 194.892 125.387 195.026 125.502 195.14C125.617 195.255 125.751 195.346 125.904 195.413C126.061 195.48 126.229 195.513 126.406 195.513H126.994C127.171 195.513 127.336 195.48 127.489 195.413C127.646 195.346 127.783 195.255 127.897 195.14C128.012 195.026 128.103 194.892 128.17 194.739C128.237 194.581 128.27 194.414 128.27 194.237V190.823ZM135.822 194.186C135.822 194.483 135.765 194.763 135.65 195.026C135.54 195.288 135.387 195.518 135.191 195.714C134.995 195.91 134.765 196.065 134.502 196.18C134.24 196.29 133.96 196.345 133.663 196.345H133.075C132.779 196.345 132.499 196.29 132.236 196.18C131.973 196.065 131.744 195.91 131.548 195.714C131.352 195.518 131.196 195.288 131.082 195.026C130.972 194.763 130.917 194.483 130.917 194.186V190.873C130.917 190.577 130.972 190.297 131.082 190.034C131.196 189.771 131.352 189.542 131.548 189.346C131.744 189.15 131.973 188.997 132.236 188.887C132.499 188.772 132.779 188.714 133.075 188.714H133.663C133.96 188.714 134.24 188.772 134.502 188.887C134.765 188.997 134.995 189.15 135.191 189.346C135.387 189.542 135.54 189.771 135.65 190.034C135.765 190.297 135.822 190.577 135.822 190.873V194.186ZM134.94 190.823C134.94 190.646 134.906 190.481 134.84 190.328C134.773 190.17 134.682 190.034 134.567 189.919C134.452 189.805 134.316 189.714 134.158 189.647C134.005 189.58 133.84 189.546 133.663 189.546H133.075C132.898 189.546 132.731 189.58 132.573 189.647C132.42 189.714 132.286 189.805 132.172 189.919C132.057 190.034 131.966 190.17 131.899 190.328C131.832 190.481 131.799 190.646 131.799 190.823V194.237C131.799 194.414 131.832 194.581 131.899 194.739C131.966 194.892 132.057 195.026 132.172 195.14C132.286 195.255 132.42 195.346 132.573 195.413C132.731 195.48 132.898 195.513 133.075 195.513H133.663C133.84 195.513 134.005 195.48 134.158 195.413C134.316 195.346 134.452 195.255 134.567 195.14C134.682 195.026 134.773 194.892 134.84 194.739C134.906 194.581 134.94 194.414 134.94 194.237V190.823ZM142.492 194.186C142.492 194.483 142.434 194.763 142.32 195.026C142.21 195.288 142.057 195.518 141.861 195.714C141.665 195.91 141.435 196.065 141.172 196.18C140.909 196.29 140.629 196.345 140.333 196.345H139.745C139.449 196.345 139.169 196.29 138.906 196.18C138.643 196.065 138.413 195.91 138.217 195.714C138.021 195.518 137.866 195.288 137.751 195.026C137.641 194.763 137.586 194.483 137.586 194.186V190.873C137.586 190.577 137.641 190.297 137.751 190.034C137.866 189.771 138.021 189.542 138.217 189.346C138.413 189.15 138.643 188.997 138.906 188.887C139.169 188.772 139.449 188.714 139.745 188.714H140.333C140.629 188.714 140.909 188.772 141.172 188.887C141.435 188.997 141.665 189.15 141.861 189.346C142.057 189.542 142.21 189.771 142.32 190.034C142.434 190.297 142.492 190.577 142.492 190.873V191.167L141.61 191.311V190.823C141.61 190.646 141.576 190.481 141.509 190.328C141.442 190.17 141.351 190.034 141.237 189.919C141.122 189.805 140.986 189.714 140.828 189.647C140.675 189.58 140.51 189.546 140.333 189.546H139.745C139.568 189.546 139.401 189.58 139.243 189.647C139.09 189.714 138.956 189.805 138.841 189.919C138.727 190.034 138.636 190.17 138.569 190.328C138.502 190.481 138.468 190.646 138.468 190.823V194.237C138.468 194.414 138.502 194.581 138.569 194.739C138.636 194.892 138.727 195.026 138.841 195.14C138.956 195.255 139.09 195.346 139.243 195.413C139.401 195.48 139.568 195.513 139.745 195.513H140.333C140.51 195.513 140.675 195.48 140.828 195.413C140.986 195.346 141.122 195.255 141.237 195.14C141.351 195.026 141.442 194.892 141.509 194.739C141.576 194.581 141.61 194.414 141.61 194.237V193.749L142.492 193.892V194.186ZM148.867 196.202L148.38 195.456C148.179 195.728 147.928 195.946 147.627 196.108C147.325 196.266 146.995 196.345 146.637 196.345H146.415C146.118 196.345 145.838 196.29 145.575 196.18C145.313 196.065 145.083 195.91 144.887 195.714C144.691 195.518 144.536 195.288 144.421 195.026C144.311 194.763 144.256 194.483 144.256 194.186V188.858H145.138V194.237C145.138 194.414 145.171 194.581 145.238 194.739C145.305 194.892 145.396 195.026 145.511 195.14C145.626 195.255 145.76 195.346 145.913 195.413C146.07 195.48 146.238 195.513 146.415 195.513H147.003C147.18 195.513 147.344 195.48 147.497 195.413C147.655 195.346 147.792 195.255 147.906 195.14C148.021 195.026 148.112 194.892 148.179 194.739C148.246 194.581 148.279 194.414 148.279 194.237V188.858H149.161V196.202H148.867ZM158.678 196.202V190.823C158.678 190.646 158.645 190.481 158.578 190.328C158.511 190.17 158.42 190.034 158.305 189.919C158.19 189.805 158.054 189.714 157.896 189.647C157.743 189.58 157.578 189.546 157.401 189.546H156.964C156.787 189.546 156.62 189.58 156.462 189.647C156.309 189.714 156.173 189.805 156.053 189.919C155.938 190.034 155.848 190.17 155.781 190.328C155.714 190.481 155.68 190.646 155.68 190.823V196.202H154.805V190.823C154.805 190.646 154.772 190.481 154.705 190.328C154.638 190.17 154.545 190.034 154.425 189.919C154.311 189.805 154.174 189.714 154.016 189.647C153.863 189.58 153.699 189.546 153.522 189.546H153.084C152.907 189.546 152.74 189.58 152.582 189.647C152.429 189.714 152.295 189.805 152.181 189.919C152.066 190.034 151.975 190.17 151.908 190.328C151.841 190.481 151.808 190.646 151.808 190.823V196.202H150.926V188.858H151.22L151.7 189.604C151.901 189.331 152.152 189.116 152.453 188.958C152.759 188.796 153.091 188.714 153.45 188.714H153.522C153.938 188.714 154.313 188.817 154.648 189.023C154.982 189.228 155.24 189.501 155.422 189.84C155.513 189.673 155.625 189.52 155.759 189.381C155.893 189.243 156.041 189.126 156.204 189.03C156.366 188.93 156.543 188.853 156.735 188.801C156.926 188.743 157.124 188.714 157.33 188.714H157.401C157.698 188.714 157.978 188.772 158.241 188.887C158.504 188.997 158.733 189.15 158.929 189.346C159.125 189.542 159.278 189.771 159.388 190.034C159.503 190.297 159.56 190.577 159.56 190.873V196.202H158.678ZM166.23 194.186C166.23 194.483 166.172 194.763 166.058 195.026C165.948 195.288 165.795 195.518 165.599 195.714C165.403 195.91 165.173 196.065 164.91 196.18C164.647 196.29 164.368 196.345 164.071 196.345H163.483C163.187 196.345 162.907 196.29 162.644 196.18C162.381 196.065 162.151 195.91 161.955 195.714C161.759 195.518 161.604 195.288 161.489 195.026C161.379 194.763 161.324 194.483 161.324 194.186V190.873C161.324 190.577 161.379 190.297 161.489 190.034C161.604 189.771 161.759 189.542 161.955 189.346C162.151 189.15 162.381 188.997 162.644 188.887C162.907 188.772 163.187 188.714 163.483 188.714H164.071C164.368 188.714 164.647 188.772 164.91 188.887C165.173 188.997 165.403 189.15 165.599 189.346C165.795 189.542 165.948 189.771 166.058 190.034C166.172 190.297 166.23 190.577 166.23 190.873V192.602H162.206V194.237C162.206 194.414 162.24 194.581 162.307 194.739C162.374 194.892 162.465 195.026 162.579 195.14C162.694 195.255 162.828 195.346 162.981 195.413C163.139 195.48 163.306 195.513 163.483 195.513H164.071C164.248 195.513 164.413 195.48 164.566 195.413C164.724 195.346 164.86 195.255 164.975 195.14C165.089 195.026 165.18 194.892 165.247 194.739C165.314 194.581 165.348 194.414 165.348 194.237V193.749L166.23 193.892V194.186ZM165.348 190.823C165.348 190.646 165.314 190.481 165.247 190.328C165.18 190.17 165.089 190.034 164.975 189.919C164.86 189.805 164.724 189.714 164.566 189.647C164.413 189.58 164.248 189.546 164.071 189.546H163.483C163.306 189.546 163.139 189.58 162.981 189.647C162.828 189.714 162.694 189.805 162.579 189.919C162.465 190.034 162.374 190.17 162.307 190.328C162.24 190.481 162.206 190.646 162.206 190.823V191.913H165.348V190.823ZM172.017 196.202V190.823C172.017 190.646 171.984 190.481 171.917 190.328C171.85 190.17 171.759 190.034 171.644 189.919C171.53 189.805 171.393 189.714 171.236 189.647C171.083 189.58 170.918 189.546 170.741 189.546H170.153C169.976 189.546 169.808 189.58 169.651 189.647C169.498 189.714 169.364 189.805 169.249 189.919C169.134 190.034 169.043 190.17 168.977 190.328C168.91 190.481 168.876 190.646 168.876 190.823V196.202H167.994V188.858H168.288L168.769 189.604C168.969 189.331 169.22 189.116 169.522 188.958C169.828 188.796 170.16 188.714 170.518 188.714H170.741C171.037 188.714 171.317 188.772 171.58 188.887C171.843 188.997 172.072 189.15 172.268 189.346C172.464 189.542 172.617 189.771 172.727 190.034C172.842 190.297 172.899 190.577 172.899 190.873V196.202H172.017ZM177.339 196.202C177.071 196.202 176.817 196.151 176.578 196.051C176.344 195.951 176.139 195.812 175.962 195.635C175.79 195.458 175.651 195.253 175.546 195.018C175.445 194.784 175.395 194.533 175.395 194.265V189.697H174.076V188.858H175.395V187.094L176.277 186.95V188.858H178.142V189.697H176.277V194.308C176.277 194.457 176.304 194.595 176.356 194.724C176.413 194.849 176.49 194.959 176.586 195.054C176.681 195.15 176.794 195.226 176.923 195.284C177.052 195.336 177.19 195.363 177.339 195.363H178.142V196.202H177.339ZM188.06 194.186C188.06 194.483 188.003 194.763 187.888 195.026C187.778 195.288 187.625 195.518 187.429 195.714C187.233 195.91 187.004 196.065 186.741 196.18C186.478 196.29 186.198 196.345 185.902 196.345H185.313C185.017 196.345 184.737 196.29 184.474 196.18C184.211 196.065 183.982 195.91 183.786 195.714C183.59 195.518 183.435 195.288 183.32 195.026C183.21 194.763 183.155 194.483 183.155 194.186V185.918H184.037V189.475C184.238 189.236 184.479 189.049 184.761 188.915C185.043 188.781 185.349 188.714 185.679 188.714H185.902C186.198 188.714 186.478 188.772 186.741 188.887C187.004 188.997 187.233 189.15 187.429 189.346C187.625 189.542 187.778 189.771 187.888 190.034C188.003 190.297 188.06 190.577 188.06 190.873V194.186ZM187.178 190.823C187.178 190.646 187.145 190.481 187.078 190.328C187.011 190.17 186.92 190.034 186.805 189.919C186.69 189.805 186.554 189.714 186.396 189.647C186.243 189.58 186.078 189.546 185.902 189.546H185.313C185.137 189.546 184.969 189.58 184.811 189.647C184.658 189.714 184.525 189.805 184.41 189.919C184.295 190.034 184.204 190.17 184.137 190.328C184.07 190.481 184.037 190.646 184.037 190.823V194.237C184.037 194.414 184.07 194.581 184.137 194.739C184.204 194.892 184.295 195.026 184.41 195.14C184.525 195.255 184.658 195.346 184.811 195.413C184.969 195.48 185.137 195.513 185.313 195.513H185.902C186.078 195.513 186.243 195.48 186.396 195.413C186.554 195.346 186.69 195.255 186.805 195.14C186.92 195.026 187.011 194.892 187.078 194.739C187.145 194.581 187.178 194.414 187.178 194.237V190.823ZM191.015 199.142H190.161L191.467 195.571L189.086 188.858H189.968L191.883 194.423L191.911 194.803L191.94 194.423L193.848 188.858H194.73L191.015 199.142ZM199.226 187.094V185.918H200.252V187.094H199.226ZM199.298 196.202V188.858H200.18V196.202H199.298ZM209.998 196.202V190.823C209.998 190.646 209.965 190.481 209.898 190.328C209.831 190.17 209.74 190.034 209.625 189.919C209.511 189.805 209.374 189.714 209.217 189.647C209.064 189.58 208.899 189.546 208.722 189.546H208.284C208.107 189.546 207.94 189.58 207.782 189.647C207.629 189.714 207.493 189.805 207.373 189.919C207.259 190.034 207.168 190.17 207.101 190.328C207.034 190.481 207 190.646 207 190.823V196.202H206.126V190.823C206.126 190.646 206.092 190.481 206.025 190.328C205.958 190.17 205.865 190.034 205.745 189.919C205.631 189.805 205.494 189.714 205.337 189.647C205.184 189.58 205.019 189.546 204.842 189.546H204.404C204.227 189.546 204.06 189.58 203.902 189.647C203.749 189.714 203.615 189.805 203.501 189.919C203.386 190.034 203.295 190.17 203.228 190.328C203.161 190.481 203.128 190.646 203.128 190.823V196.202H202.246V188.858H202.54L203.02 189.604C203.221 189.331 203.472 189.116 203.773 188.958C204.079 188.796 204.412 188.714 204.77 188.714H204.842C205.258 188.714 205.633 188.817 205.968 189.023C206.302 189.228 206.561 189.501 206.742 189.84C206.833 189.673 206.946 189.52 207.079 189.381C207.213 189.243 207.361 189.126 207.524 189.03C207.687 188.93 207.863 188.853 208.055 188.801C208.246 188.743 208.444 188.714 208.65 188.714H208.722C209.018 188.714 209.298 188.772 209.561 188.887C209.824 188.997 210.053 189.15 210.249 189.346C210.445 189.542 210.598 189.771 210.708 190.034C210.823 190.297 210.88 190.577 210.88 190.873V196.202H209.998ZM217.55 194.186C217.55 194.483 217.493 194.763 217.378 195.026C217.268 195.288 217.115 195.518 216.919 195.714C216.723 195.91 216.493 196.065 216.23 196.18C215.967 196.29 215.688 196.345 215.391 196.345H215.169C214.839 196.345 214.533 196.278 214.251 196.144C213.969 196.01 213.727 195.824 213.527 195.585V199.142H212.645V188.858H212.939L213.419 189.604C213.62 189.331 213.871 189.116 214.172 188.958C214.478 188.796 214.81 188.714 215.169 188.714H215.391C215.688 188.714 215.967 188.772 216.23 188.887C216.493 188.997 216.723 189.15 216.919 189.346C217.115 189.542 217.268 189.771 217.378 190.034C217.493 190.297 217.55 190.577 217.55 190.873V194.186ZM216.668 190.823C216.668 190.646 216.634 190.481 216.567 190.328C216.501 190.17 216.41 190.034 216.295 189.919C216.18 189.805 216.044 189.714 215.886 189.647C215.733 189.58 215.568 189.546 215.391 189.546H214.803C214.626 189.546 214.459 189.58 214.301 189.647C214.148 189.714 214.014 189.805 213.9 189.919C213.785 190.034 213.694 190.17 213.627 190.328C213.56 190.481 213.527 190.646 213.527 190.823V194.237C213.527 194.414 213.56 194.581 213.627 194.739C213.694 194.892 213.785 195.026 213.9 195.14C214.014 195.255 214.148 195.346 214.301 195.413C214.459 195.48 214.626 195.513 214.803 195.513H215.391C215.568 195.513 215.733 195.48 215.886 195.413C216.044 195.346 216.18 195.255 216.295 195.14C216.41 195.026 216.501 194.892 216.567 194.739C216.634 194.581 216.668 194.414 216.668 194.237V190.823ZM224.22 194.186C224.22 194.483 224.162 194.763 224.047 195.026C223.937 195.288 223.784 195.518 223.588 195.714C223.392 195.91 223.163 196.065 222.9 196.18C222.637 196.29 222.357 196.345 222.061 196.345H221.473C221.176 196.345 220.897 196.29 220.634 196.18C220.371 196.065 220.141 195.91 219.945 195.714C219.749 195.518 219.594 195.288 219.479 195.026C219.369 194.763 219.314 194.483 219.314 194.186V190.873C219.314 190.577 219.369 190.297 219.479 190.034C219.594 189.771 219.749 189.542 219.945 189.346C220.141 189.15 220.371 188.997 220.634 188.887C220.897 188.772 221.176 188.714 221.473 188.714H222.061C222.357 188.714 222.637 188.772 222.9 188.887C223.163 188.997 223.392 189.15 223.588 189.346C223.784 189.542 223.937 189.771 224.047 190.034C224.162 190.297 224.22 190.577 224.22 190.873V194.186ZM223.337 190.823C223.337 190.646 223.304 190.481 223.237 190.328C223.17 190.17 223.079 190.034 222.965 189.919C222.85 189.805 222.714 189.714 222.556 189.647C222.403 189.58 222.238 189.546 222.061 189.546H221.473C221.296 189.546 221.129 189.58 220.971 189.647C220.818 189.714 220.684 189.805 220.569 189.919C220.454 190.034 220.364 190.17 220.297 190.328C220.23 190.481 220.196 190.646 220.196 190.823V194.237C220.196 194.414 220.23 194.581 220.297 194.739C220.364 194.892 220.454 195.026 220.569 195.14C220.684 195.255 220.818 195.346 220.971 195.413C221.129 195.48 221.296 195.513 221.473 195.513H222.061C222.238 195.513 222.403 195.48 222.556 195.413C222.714 195.346 222.85 195.255 222.965 195.14C223.079 195.026 223.17 194.892 223.237 194.739C223.304 194.581 223.337 194.414 223.337 194.237V190.823ZM228.142 189.697C227.966 189.697 227.798 189.73 227.64 189.797C227.487 189.864 227.354 189.955 227.239 190.07C227.124 190.185 227.033 190.321 226.966 190.479C226.899 190.632 226.866 190.797 226.866 190.974V196.202H225.984V188.858H226.278L226.758 189.604C226.959 189.331 227.21 189.116 227.511 188.958C227.817 188.796 228.15 188.714 228.508 188.714H229.025V189.697H228.142ZM232.876 196.202C232.608 196.202 232.355 196.151 232.116 196.051C231.881 195.951 231.676 195.812 231.499 195.635C231.327 195.458 231.188 195.253 231.083 195.018C230.982 194.784 230.932 194.533 230.932 194.265V189.697H229.613V188.858H230.932V187.094L231.814 186.95V188.858H233.679V189.697H231.814V194.308C231.814 194.457 231.841 194.595 231.893 194.724C231.951 194.849 232.027 194.959 232.123 195.054C232.218 195.15 232.331 195.226 232.46 195.284C232.589 195.336 232.728 195.363 232.876 195.363H233.679V196.202H232.876ZM235.529 187.094V185.918H236.555V187.094H235.529ZM235.601 196.202V188.858H236.483V196.202H235.601ZM242.572 196.202V190.823C242.572 190.646 242.538 190.481 242.471 190.328C242.404 190.17 242.314 190.034 242.199 189.919C242.084 189.805 241.948 189.714 241.79 189.647C241.637 189.58 241.472 189.546 241.295 189.546H240.707C240.53 189.546 240.363 189.58 240.205 189.647C240.052 189.714 239.918 189.805 239.804 189.919C239.689 190.034 239.598 190.17 239.531 190.328C239.464 190.481 239.431 190.646 239.431 190.823V196.202H238.548V188.858H238.843L239.323 189.604C239.524 189.331 239.775 189.116 240.076 188.958C240.382 188.796 240.714 188.714 241.073 188.714H241.295C241.592 188.714 241.871 188.772 242.134 188.887C242.397 188.997 242.627 189.15 242.823 189.346C243.019 189.542 243.172 189.771 243.282 190.034C243.397 190.297 243.454 190.577 243.454 190.873V196.202H242.572ZM250.195 197.127C250.195 197.423 250.138 197.696 250.023 197.944C249.913 198.193 249.76 198.406 249.564 198.583C249.368 198.76 249.139 198.896 248.876 198.991C248.613 199.092 248.333 199.142 248.037 199.142H247.671C247.374 199.142 247.095 199.092 246.832 198.991C246.569 198.896 246.339 198.76 246.143 198.583C245.947 198.406 245.792 198.193 245.677 197.944C245.567 197.696 245.512 197.423 245.512 197.127V197.098C245.512 196.811 245.565 196.548 245.67 196.309C245.775 196.07 245.919 195.862 246.1 195.685C245.871 195.547 245.687 195.36 245.548 195.126C245.414 194.887 245.347 194.624 245.347 194.337C245.347 194.079 245.402 193.84 245.512 193.62C245.622 193.395 245.773 193.213 245.964 193.075C245.734 192.874 245.553 192.633 245.419 192.35C245.285 192.068 245.218 191.76 245.218 191.425V190.873C245.218 190.577 245.273 190.297 245.383 190.034C245.498 189.771 245.653 189.542 245.849 189.346C246.045 189.15 246.275 188.997 246.538 188.887C246.801 188.772 247.08 188.714 247.377 188.714H247.743C248.101 188.714 248.431 188.796 248.732 188.958C249.038 189.116 249.292 189.331 249.492 189.604L249.973 188.858H250.267V191.425C250.267 191.722 250.21 192.001 250.095 192.264C249.985 192.527 249.832 192.757 249.636 192.953C249.44 193.149 249.21 193.304 248.947 193.419C248.684 193.529 248.405 193.584 248.108 193.584H246.832C246.731 193.584 246.636 193.606 246.545 193.649C246.454 193.687 246.373 193.739 246.301 193.806C246.234 193.873 246.181 193.955 246.143 194.05C246.105 194.141 246.086 194.237 246.086 194.337C246.086 194.437 246.105 194.533 246.143 194.624C246.181 194.715 246.234 194.796 246.301 194.868C246.373 194.935 246.454 194.987 246.545 195.026C246.636 195.064 246.731 195.083 246.832 195.083H248.037C248.333 195.083 248.613 195.133 248.876 195.233C249.139 195.329 249.368 195.465 249.564 195.642C249.76 195.819 249.913 196.032 250.023 196.281C250.138 196.529 250.195 196.802 250.195 197.098V197.127ZM249.392 190.823C249.392 190.646 249.359 190.481 249.292 190.328C249.225 190.17 249.131 190.034 249.012 189.919C248.897 189.805 248.761 189.714 248.603 189.647C248.45 189.58 248.285 189.546 248.108 189.546H247.377C247.2 189.546 247.033 189.58 246.875 189.647C246.722 189.714 246.588 189.805 246.473 189.919C246.358 190.034 246.268 190.17 246.201 190.328C246.134 190.481 246.1 190.646 246.1 190.823V191.476C246.1 191.652 246.134 191.82 246.201 191.978C246.268 192.131 246.358 192.264 246.473 192.379C246.588 192.494 246.722 192.585 246.875 192.652C247.033 192.719 247.2 192.752 247.377 192.752H248.108C248.285 192.752 248.45 192.719 248.603 192.652C248.761 192.585 248.897 192.494 249.012 192.379C249.131 192.264 249.225 192.131 249.292 191.978C249.359 191.82 249.392 191.652 249.392 191.476V190.823ZM249.356 197.055C249.356 196.878 249.323 196.718 249.256 196.575C249.189 196.436 249.098 196.319 248.983 196.223C248.868 196.128 248.732 196.053 248.574 196.001C248.421 195.948 248.256 195.922 248.08 195.922H247.628C247.451 195.922 247.284 195.948 247.126 196.001C246.973 196.053 246.839 196.128 246.724 196.223C246.609 196.319 246.519 196.436 246.452 196.575C246.385 196.718 246.351 196.878 246.351 197.055V197.17C246.351 197.347 246.385 197.505 246.452 197.643C246.519 197.782 246.609 197.899 246.724 197.995C246.839 198.095 246.973 198.171 247.126 198.224C247.284 198.277 247.451 198.303 247.628 198.303H248.08C248.256 198.303 248.421 198.277 248.574 198.224C248.732 198.171 248.868 198.095 248.983 197.995C249.098 197.899 249.189 197.782 249.256 197.643C249.323 197.505 249.356 197.347 249.356 197.17V197.055ZM51.4765 213.186C51.4765 213.483 51.4191 213.763 51.3044 214.026C51.1944 214.288 51.0414 214.518 50.8454 214.714C50.6494 214.91 50.4199 215.065 50.1569 215.18C49.894 215.29 49.6143 215.345 49.3178 215.345H48.7298C48.4333 215.345 48.1536 215.29 47.8907 215.18C47.6277 215.065 47.3982 214.91 47.2022 214.714C47.0062 214.518 46.8508 214.288 46.7361 214.026C46.6261 213.763 46.5711 213.483 46.5711 213.186V209.873C46.5711 209.577 46.6261 209.297 46.7361 209.034C46.8508 208.771 47.0062 208.542 47.2022 208.346C47.3982 208.15 47.6277 207.997 47.8907 207.887C48.1536 207.772 48.4333 207.714 48.7298 207.714H49.3178C49.6143 207.714 49.894 207.772 50.1569 207.887C50.4199 207.997 50.6494 208.15 50.8454 208.346C51.0414 208.542 51.1944 208.771 51.3044 209.034C51.4191 209.297 51.4765 209.577 51.4765 209.873V213.186ZM50.5944 209.823C50.5944 209.646 50.5609 209.481 50.494 209.328C50.4271 209.17 50.3362 209.034 50.2215 208.919C50.1067 208.805 49.9705 208.714 49.8127 208.647C49.6597 208.58 49.4947 208.546 49.3178 208.546H48.7298C48.5529 208.546 48.3855 208.58 48.2278 208.647C48.0748 208.714 47.9409 208.805 47.8261 208.919C47.7114 209.034 47.6206 209.17 47.5536 209.328C47.4867 209.481 47.4532 209.646 47.4532 209.823V213.237C47.4532 213.414 47.4867 213.581 47.5536 213.739C47.6206 213.892 47.7114 214.026 47.8261 214.14C47.9409 214.255 48.0748 214.346 48.2278 214.413C48.3855 214.48 48.5529 214.513 48.7298 214.513H49.3178C49.4947 214.513 49.6597 214.48 49.8127 214.413C49.9705 214.346 50.1067 214.255 50.2215 214.14C50.3362 214.026 50.4271 213.892 50.494 213.739C50.5609 213.581 50.5944 213.414 50.5944 213.237V209.823ZM55.3994 208.697C55.2225 208.697 55.0551 208.73 54.8974 208.797C54.7444 208.864 54.6105 208.955 54.4958 209.07C54.381 209.185 54.2902 209.321 54.2232 209.479C54.1563 209.632 54.1228 209.797 54.1228 209.974V215.202H53.2407V207.858H53.5348L54.0153 208.604C54.2161 208.331 54.4671 208.116 54.7683 207.958C55.0743 207.796 55.4066 207.714 55.7651 207.714H56.2815V208.697H55.3994ZM65.8915 213.337C65.8915 213.633 65.8317 213.906 65.7122 214.155C65.5927 214.398 65.4301 214.609 65.2245 214.786C65.0189 214.963 64.7799 215.101 64.5074 215.202C64.2396 215.297 63.9575 215.345 63.6611 215.345H63.073C62.7766 215.345 62.4921 215.29 62.2196 215.18C61.9519 215.065 61.7152 214.91 61.5096 214.714C61.3088 214.518 61.1463 214.288 61.0219 214.026C60.9024 213.763 60.8427 213.483 60.8427 213.186V212.892L61.7248 212.749V213.237C61.7248 213.414 61.7606 213.581 61.8323 213.739C61.9088 213.892 62.0092 214.026 62.1335 214.14C62.2579 214.255 62.4013 214.346 62.5638 214.413C62.7264 214.48 62.8961 214.513 63.073 214.513H63.6611C63.838 214.513 64.0077 214.487 64.1703 214.434C64.3328 214.382 64.4763 214.308 64.6006 214.212C64.7297 214.112 64.8301 213.992 64.9018 213.853C64.9783 213.715 65.0165 213.557 65.0165 213.38C65.0165 213.117 64.9592 212.902 64.8444 212.735C64.7297 212.567 64.5767 212.429 64.3854 212.319C64.199 212.204 63.9838 212.111 63.74 212.039C63.5009 211.962 63.2547 211.888 63.0013 211.817C62.7479 211.74 62.4993 211.654 62.2555 211.558C62.0164 211.463 61.8013 211.339 61.61 211.186C61.4236 211.028 61.2729 210.832 61.1582 210.597C61.0435 210.363 60.9861 210.072 60.9861 209.723C60.9861 209.426 61.0435 209.156 61.1582 208.912C61.2729 208.664 61.4283 208.451 61.6244 208.274C61.8204 208.097 62.0475 207.961 62.3057 207.865C62.5686 207.765 62.8483 207.714 63.1447 207.714H63.6611C63.9575 207.714 64.2372 207.772 64.5002 207.887C64.7631 207.997 64.9926 208.15 65.1887 208.346C65.3847 208.542 65.5377 208.771 65.6476 209.034C65.7624 209.297 65.8198 209.577 65.8198 209.873V209.902L64.9377 210.045V209.823C64.9377 209.646 64.9042 209.481 64.8372 209.328C64.7703 209.17 64.6795 209.034 64.5647 208.919C64.45 208.805 64.3137 208.714 64.1559 208.647C64.003 208.58 63.838 208.546 63.6611 208.546H63.1447C62.9678 208.546 62.8005 208.573 62.6427 208.625C62.4897 208.678 62.3559 208.754 62.2411 208.855C62.1264 208.95 62.0355 209.068 61.9686 209.206C61.9017 209.345 61.8682 209.503 61.8682 209.68C61.8682 209.933 61.9256 210.141 62.0403 210.303C62.1551 210.461 62.3057 210.595 62.4921 210.705C62.6834 210.815 62.8985 210.908 63.1376 210.985C63.3814 211.056 63.6276 211.133 63.8763 211.214C64.1296 211.291 64.3759 211.379 64.6149 211.48C64.8588 211.58 65.0739 211.709 65.2604 211.867C65.4516 212.025 65.6046 212.223 65.7194 212.462C65.8341 212.696 65.8915 212.988 65.8915 213.337ZM72.4894 213.186C72.4894 213.483 72.432 213.763 72.3173 214.026C72.2073 214.288 72.0543 214.518 71.8583 214.714C71.6623 214.91 71.4328 215.065 71.1698 215.18C70.9068 215.29 70.6271 215.345 70.3307 215.345H69.7426C69.4462 215.345 69.1665 215.29 68.9036 215.18C68.6406 215.065 68.4111 214.91 68.2151 214.714C68.0191 214.518 67.8637 214.288 67.7489 214.026C67.639 213.763 67.584 213.483 67.584 213.186V209.873C67.584 209.577 67.639 209.297 67.7489 209.034C67.8637 208.771 68.0191 208.542 68.2151 208.346C68.4111 208.15 68.6406 207.997 68.9036 207.887C69.1665 207.772 69.4462 207.714 69.7426 207.714H70.3307C70.6271 207.714 70.9068 207.772 71.1698 207.887C71.4328 207.997 71.6623 208.15 71.8583 208.346C72.0543 208.542 72.2073 208.771 72.3173 209.034C72.432 209.297 72.4894 209.577 72.4894 209.873V210.167L71.6073 210.311V209.823C71.6073 209.646 71.5738 209.481 71.5069 209.328C71.4399 209.17 71.3491 209.034 71.2343 208.919C71.1196 208.805 70.9833 208.714 70.8256 208.647C70.6726 208.58 70.5076 208.546 70.3307 208.546H69.7426C69.5657 208.546 69.3984 208.58 69.2406 208.647C69.0876 208.714 68.9538 208.805 68.839 208.919C68.7243 209.034 68.6334 209.17 68.5665 209.328C68.4996 209.481 68.4661 209.646 68.4661 209.823V213.237C68.4661 213.414 68.4996 213.581 68.5665 213.739C68.6334 213.892 68.7243 214.026 68.839 214.14C68.9538 214.255 69.0876 214.346 69.2406 214.413C69.3984 214.48 69.5657 214.513 69.7426 214.513H70.3307C70.5076 214.513 70.6726 214.48 70.8256 214.413C70.9833 214.346 71.1196 214.255 71.2343 214.14C71.3491 214.026 71.4399 213.892 71.5069 213.739C71.5738 213.581 71.6073 213.414 71.6073 213.237V212.749L72.4894 212.892V213.186ZM78.865 215.202L78.3773 214.47C78.1765 214.733 77.9255 214.946 77.6243 215.108C77.3231 215.266 76.9932 215.345 76.6346 215.345H76.4123C76.1158 215.345 75.8361 215.29 75.5732 215.18C75.3102 215.065 75.0807 214.91 74.8847 214.714C74.6887 214.518 74.5333 214.288 74.4185 214.026C74.3086 213.763 74.2536 213.483 74.2536 213.186V213.115C74.2536 212.818 74.3086 212.539 74.4185 212.276C74.5333 212.013 74.6887 211.783 74.8847 211.587C75.0807 211.391 75.3102 211.238 75.5732 211.128C75.8361 211.013 76.1158 210.956 76.4123 210.956H78.2769V209.823C78.2769 209.646 78.2434 209.481 78.1765 209.328C78.1095 209.17 78.0187 209.034 77.904 208.919C77.7892 208.805 77.653 208.714 77.4952 208.647C77.3422 208.58 77.1772 208.546 77.0003 208.546H76.484C76.3071 208.546 76.1397 208.58 75.982 208.647C75.829 208.714 75.6951 208.805 75.5804 208.919C75.4656 209.034 75.3748 209.17 75.3078 209.328C75.2409 209.481 75.2074 209.646 75.2074 209.823V210.088L74.3253 209.945V209.873C74.3253 209.577 74.3803 209.297 74.4903 209.034C74.605 208.771 74.7604 208.542 74.9564 208.346C75.1524 208.15 75.3819 207.997 75.6449 207.887C75.9079 207.772 76.1876 207.714 76.484 207.714H77.0003C77.2968 207.714 77.5765 207.772 77.8394 207.887C78.1024 207.997 78.3319 208.15 78.5279 208.346C78.7239 208.542 78.8769 208.771 78.9869 209.034C79.1016 209.297 79.159 209.577 79.159 209.873V215.202H78.865ZM78.2769 211.645H76.4123C76.2354 211.645 76.068 211.678 75.9102 211.745C75.7573 211.812 75.6234 211.905 75.5086 212.025C75.3939 212.139 75.303 212.276 75.2361 212.433C75.1692 212.586 75.1357 212.751 75.1357 212.928V213.237C75.1357 213.414 75.1692 213.581 75.2361 213.739C75.303 213.892 75.3939 214.026 75.5086 214.14C75.6234 214.255 75.7573 214.346 75.9102 214.413C76.068 214.48 76.2354 214.513 76.4123 214.513H77.0003C77.1772 214.513 77.3422 214.48 77.4952 214.413C77.653 214.346 77.7892 214.255 77.904 214.14C78.0187 214.026 78.1095 213.892 78.1765 213.739C78.2434 213.581 78.2769 213.414 78.2769 213.237V211.645ZM84.9465 215.202V209.823C84.9465 209.646 84.913 209.481 84.8461 209.328C84.7792 209.17 84.6883 209.034 84.5736 208.919C84.4588 208.805 84.3226 208.714 84.1648 208.647C84.0118 208.58 83.8469 208.546 83.67 208.546H83.0819C82.905 208.546 82.7376 208.58 82.5799 208.647C82.4269 208.714 82.293 208.805 82.1783 208.919C82.0635 209.034 81.9727 209.17 81.9057 209.328C81.8388 209.481 81.8053 209.646 81.8053 209.823V215.202H80.9232V207.858H81.2173L81.6978 208.604C81.8986 208.331 82.1496 208.116 82.4508 207.958C82.7568 207.796 83.0891 207.714 83.4476 207.714H83.67C83.9664 207.714 84.2461 207.772 84.509 207.887C84.772 207.997 85.0015 208.15 85.1975 208.346C85.3935 208.542 85.5465 208.771 85.6565 209.034C85.7712 209.297 85.8286 209.577 85.8286 209.873V215.202H84.9465ZM91.6161 215.202V209.823C91.6161 209.646 91.5827 209.481 91.5157 209.328C91.4488 209.17 91.3579 209.034 91.2432 208.919C91.1284 208.805 90.9922 208.714 90.8344 208.647C90.6814 208.58 90.5165 208.546 90.3396 208.546H89.7515C89.5746 208.546 89.4073 208.58 89.2495 208.647C89.0965 208.714 88.9626 208.805 88.8479 208.919C88.7331 209.034 88.6423 209.17 88.5753 209.328C88.5084 209.481 88.4749 209.646 88.4749 209.823V215.202H87.5928V207.858H87.8869L88.3674 208.604C88.5682 208.331 88.8192 208.116 89.1204 207.958C89.4264 207.796 89.7587 207.714 90.1172 207.714H90.3396C90.636 207.714 90.9157 207.772 91.1786 207.887C91.4416 207.997 91.6711 208.15 91.8671 208.346C92.0632 208.542 92.2161 208.771 92.3261 209.034C92.4409 209.297 92.4982 209.577 92.4982 209.873V215.202H91.6161ZM94.4848 206.094V204.918H95.5103V206.094H94.4848ZM94.5565 215.202V207.858H95.4386V215.202H94.5565ZM101.527 215.202V209.823C101.527 209.646 101.494 209.481 101.427 209.328C101.36 209.17 101.269 209.034 101.154 208.919C101.04 208.805 100.903 208.714 100.746 208.647C100.593 208.58 100.428 208.546 100.251 208.546H99.6627C99.4858 208.546 99.3185 208.58 99.1607 208.647C99.0077 208.714 98.8738 208.805 98.7591 208.919C98.6443 209.034 98.5535 209.17 98.4865 209.328C98.4196 209.481 98.3861 209.646 98.3861 209.823V215.202H97.504V207.858H97.7981L98.2786 208.604C98.4794 208.331 98.7304 208.116 99.0316 207.958C99.3376 207.796 99.6699 207.714 100.028 207.714H100.251C100.547 207.714 100.827 207.772 101.09 207.887C101.353 207.997 101.582 208.15 101.778 208.346C101.974 208.542 102.127 208.771 102.237 209.034C102.352 209.297 102.409 209.577 102.409 209.873V215.202H101.527ZM109.151 216.127C109.151 216.423 109.093 216.696 108.979 216.944C108.869 217.193 108.716 217.406 108.52 217.583C108.324 217.76 108.094 217.896 107.831 217.991C107.568 218.092 107.289 218.142 106.992 218.142H106.626C106.33 218.142 106.05 218.092 105.787 217.991C105.524 217.896 105.295 217.76 105.099 217.583C104.903 217.406 104.747 217.193 104.633 216.944C104.523 216.696 104.468 216.423 104.468 216.127V216.098C104.468 215.811 104.52 215.548 104.625 215.309C104.731 215.07 104.874 214.862 105.056 214.685C104.826 214.547 104.642 214.36 104.504 214.126C104.37 213.887 104.303 213.624 104.303 213.337C104.303 213.079 104.358 212.84 104.468 212.62C104.578 212.395 104.728 212.213 104.919 212.075C104.69 211.874 104.508 211.633 104.374 211.35C104.241 211.068 104.174 210.76 104.174 210.425V209.873C104.174 209.577 104.229 209.297 104.339 209.034C104.453 208.771 104.609 208.542 104.805 208.346C105.001 208.15 105.23 207.997 105.493 207.887C105.756 207.772 106.036 207.714 106.332 207.714H106.698C107.057 207.714 107.387 207.796 107.688 207.958C107.994 208.116 108.247 208.331 108.448 208.604L108.928 207.858H109.222V210.425C109.222 210.722 109.165 211.001 109.05 211.264C108.94 211.527 108.787 211.757 108.591 211.953C108.395 212.149 108.166 212.304 107.903 212.419C107.64 212.529 107.36 212.584 107.064 212.584H105.787C105.687 212.584 105.591 212.606 105.5 212.649C105.41 212.687 105.328 212.739 105.257 212.806C105.19 212.873 105.137 212.955 105.099 213.05C105.061 213.141 105.041 213.237 105.041 213.337C105.041 213.437 105.061 213.533 105.099 213.624C105.137 213.715 105.19 213.796 105.257 213.868C105.328 213.935 105.41 213.987 105.5 214.026C105.591 214.064 105.687 214.083 105.787 214.083H106.992C107.289 214.083 107.568 214.133 107.831 214.233C108.094 214.329 108.324 214.465 108.52 214.642C108.716 214.819 108.869 215.032 108.979 215.281C109.093 215.529 109.151 215.802 109.151 216.098V216.127ZM108.348 209.823C108.348 209.646 108.314 209.481 108.247 209.328C108.18 209.17 108.087 209.034 107.967 208.919C107.853 208.805 107.716 208.714 107.559 208.647C107.406 208.58 107.241 208.546 107.064 208.546H106.332C106.155 208.546 105.988 208.58 105.83 208.647C105.677 208.714 105.543 208.805 105.429 208.919C105.314 209.034 105.223 209.17 105.156 209.328C105.089 209.481 105.056 209.646 105.056 209.823V210.476C105.056 210.652 105.089 210.82 105.156 210.978C105.223 211.131 105.314 211.264 105.429 211.379C105.543 211.494 105.677 211.585 105.83 211.652C105.988 211.719 106.155 211.752 106.332 211.752H107.064C107.241 211.752 107.406 211.719 107.559 211.652C107.716 211.585 107.853 211.494 107.967 211.379C108.087 211.264 108.18 211.131 108.247 210.978C108.314 210.82 108.348 210.652 108.348 210.476V209.823ZM108.312 216.055C108.312 215.878 108.278 215.718 108.211 215.575C108.144 215.436 108.053 215.319 107.939 215.223C107.824 215.128 107.688 215.053 107.53 215.001C107.377 214.948 107.212 214.922 107.035 214.922H106.583C106.406 214.922 106.239 214.948 106.081 215.001C105.928 215.053 105.794 215.128 105.68 215.223C105.565 215.319 105.474 215.436 105.407 215.575C105.34 215.718 105.307 215.878 105.307 216.055V216.17C105.307 216.347 105.34 216.505 105.407 216.643C105.474 216.782 105.565 216.899 105.68 216.995C105.794 217.095 105.928 217.171 106.081 217.224C106.239 217.277 106.406 217.303 106.583 217.303H107.035C107.212 217.303 107.377 217.277 107.53 217.224C107.688 217.171 107.824 217.095 107.939 216.995C108.053 216.899 108.144 216.782 108.211 216.643C108.278 216.505 108.312 216.347 108.312 216.17V216.055ZM120.41 215.202H119.93L118.209 209.665L118.18 209.285L118.151 209.665L116.43 215.202H115.942L113.49 207.858H114.386L116.136 213.409L116.165 213.789L116.193 213.409L117.914 207.858H118.445L120.159 213.409L120.188 213.789L120.217 213.409L121.966 207.858H122.863L120.41 215.202ZM124.118 206.094V204.918H125.143V206.094H124.118ZM124.19 215.202V207.858H125.072V215.202H124.19ZM129.812 215.202C129.544 215.202 129.291 215.151 129.052 215.051C128.818 214.951 128.612 214.812 128.435 214.635C128.263 214.458 128.125 214.253 128.019 214.018C127.919 213.784 127.869 213.533 127.869 213.265V208.697H126.549V207.858H127.869V206.094L128.751 205.95V207.858H130.615V208.697H128.751V213.308C128.751 213.457 128.777 213.595 128.83 213.724C128.887 213.849 128.964 213.959 129.059 214.054C129.155 214.15 129.267 214.226 129.396 214.284C129.525 214.336 129.664 214.363 129.812 214.363H130.615V215.202H129.812ZM136.267 215.202V209.823C136.267 209.646 136.233 209.481 136.166 209.328C136.099 209.17 136.009 209.034 135.894 208.919C135.779 208.805 135.643 208.714 135.485 208.647C135.332 208.58 135.167 208.546 134.99 208.546H134.402C134.225 208.546 134.058 208.58 133.9 208.647C133.747 208.714 133.613 208.805 133.498 208.919C133.384 209.034 133.293 209.17 133.226 209.328C133.159 209.481 133.126 209.646 133.126 209.823V215.202H132.243V204.918H133.126V208.475C133.326 208.236 133.568 208.049 133.85 207.915C134.132 207.781 134.438 207.714 134.768 207.714H134.99C135.287 207.714 135.566 207.772 135.829 207.887C136.092 207.997 136.322 208.15 136.518 208.346C136.714 208.542 136.867 208.771 136.977 209.034C137.091 209.297 137.149 209.577 137.149 209.873V215.202H136.267ZM143.489 218.142H142.635L143.94 214.571L141.559 207.858H142.441L144.356 213.423L144.385 213.803L144.414 213.423L146.321 207.858H147.203L143.489 218.142ZM152.998 213.186C152.998 213.483 152.941 213.763 152.826 214.026C152.716 214.288 152.563 214.518 152.367 214.714C152.171 214.91 151.941 215.065 151.679 215.18C151.416 215.29 151.136 215.345 150.839 215.345H150.251C149.955 215.345 149.675 215.29 149.412 215.18C149.149 215.065 148.92 214.91 148.724 214.714C148.528 214.518 148.372 214.288 148.258 214.026C148.148 213.763 148.093 213.483 148.093 213.186V209.873C148.093 209.577 148.148 209.297 148.258 209.034C148.372 208.771 148.528 208.542 148.724 208.346C148.92 208.15 149.149 207.997 149.412 207.887C149.675 207.772 149.955 207.714 150.251 207.714H150.839C151.136 207.714 151.416 207.772 151.679 207.887C151.941 207.997 152.171 208.15 152.367 208.346C152.563 208.542 152.716 208.771 152.826 209.034C152.941 209.297 152.998 209.577 152.998 209.873V213.186ZM152.116 209.823C152.116 209.646 152.083 209.481 152.016 209.328C151.949 209.17 151.858 209.034 151.743 208.919C151.628 208.805 151.492 208.714 151.334 208.647C151.181 208.58 151.016 208.546 150.839 208.546H150.251C150.074 208.546 149.907 208.58 149.749 208.647C149.596 208.714 149.462 208.805 149.348 208.919C149.233 209.034 149.142 209.17 149.075 209.328C149.008 209.481 148.975 209.646 148.975 209.823V213.237C148.975 213.414 149.008 213.581 149.075 213.739C149.142 213.892 149.233 214.026 149.348 214.14C149.462 214.255 149.596 214.346 149.749 214.413C149.907 214.48 150.074 214.513 150.251 214.513H150.839C151.016 214.513 151.181 214.48 151.334 214.413C151.492 214.346 151.628 214.255 151.743 214.14C151.858 214.026 151.949 213.892 152.016 213.739C152.083 213.581 152.116 213.414 152.116 213.237V209.823ZM159.374 215.202L158.886 214.456C158.685 214.728 158.434 214.946 158.133 215.108C157.832 215.266 157.502 215.345 157.143 215.345H156.921C156.625 215.345 156.345 215.29 156.082 215.18C155.819 215.065 155.589 214.91 155.393 214.714C155.197 214.518 155.042 214.288 154.927 214.026C154.817 213.763 154.762 213.483 154.762 213.186V207.858H155.644V213.237C155.644 213.414 155.678 213.581 155.745 213.739C155.812 213.892 155.903 214.026 156.017 214.14C156.132 214.255 156.266 214.346 156.419 214.413C156.577 214.48 156.744 214.513 156.921 214.513H157.509C157.686 214.513 157.851 214.48 158.004 214.413C158.162 214.346 158.298 214.255 158.413 214.14C158.527 214.026 158.618 213.892 158.685 213.739C158.752 213.581 158.786 213.414 158.786 213.237V207.858H159.668V215.202H159.374ZM163.591 208.697C163.414 208.697 163.246 208.73 163.089 208.797C162.936 208.864 162.802 208.955 162.687 209.07C162.572 209.185 162.481 209.321 162.414 209.479C162.348 209.632 162.314 209.797 162.314 209.974V215.202H161.432V207.858H161.726L162.206 208.604C162.407 208.331 162.658 208.116 162.96 207.958C163.265 207.796 163.598 207.714 163.956 207.714H164.473V208.697H163.591ZM173.939 213.186C173.939 213.483 173.882 213.763 173.767 214.026C173.657 214.288 173.504 214.518 173.308 214.714C173.112 214.91 172.883 215.065 172.62 215.18C172.357 215.29 172.077 215.345 171.781 215.345H171.193C170.896 215.345 170.616 215.29 170.353 215.18C170.09 215.065 169.861 214.91 169.665 214.714C169.469 214.518 169.314 214.288 169.199 214.026C169.089 213.763 169.034 213.483 169.034 213.186V209.873C169.034 209.577 169.089 209.297 169.199 209.034C169.314 208.771 169.469 208.542 169.665 208.346C169.861 208.15 170.09 207.997 170.353 207.887C170.616 207.772 170.896 207.714 171.193 207.714H171.781C172.077 207.714 172.357 207.772 172.62 207.887C172.883 207.997 173.112 208.15 173.308 208.346C173.504 208.542 173.657 208.771 173.767 209.034C173.882 209.297 173.939 209.577 173.939 209.873V210.167L173.057 210.311V209.823C173.057 209.646 173.024 209.481 172.957 209.328C172.89 209.17 172.799 209.034 172.684 208.919C172.569 208.805 172.433 208.714 172.275 208.647C172.122 208.58 171.958 208.546 171.781 208.546H171.193C171.016 208.546 170.848 208.58 170.691 208.647C170.538 208.714 170.404 208.805 170.289 208.919C170.174 209.034 170.083 209.17 170.016 209.328C169.949 209.481 169.916 209.646 169.916 209.823V213.237C169.916 213.414 169.949 213.581 170.016 213.739C170.083 213.892 170.174 214.026 170.289 214.14C170.404 214.255 170.538 214.346 170.691 214.413C170.848 214.48 171.016 214.513 171.193 214.513H171.781C171.958 214.513 172.122 214.48 172.275 214.413C172.433 214.346 172.569 214.255 172.684 214.14C172.799 214.026 172.89 213.892 172.957 213.739C173.024 213.581 173.057 213.414 173.057 213.237V212.749L173.939 212.892V213.186ZM180.315 215.202L179.827 214.47C179.626 214.733 179.375 214.946 179.074 215.108C178.773 215.266 178.443 215.345 178.084 215.345H177.862C177.566 215.345 177.286 215.29 177.023 215.18C176.76 215.065 176.531 214.91 176.335 214.714C176.139 214.518 175.983 214.288 175.868 214.026C175.758 213.763 175.703 213.483 175.703 213.186V213.115C175.703 212.818 175.758 212.539 175.868 212.276C175.983 212.013 176.139 211.783 176.335 211.587C176.531 211.391 176.76 211.238 177.023 211.128C177.286 211.013 177.566 210.956 177.862 210.956H179.727V209.823C179.727 209.646 179.693 209.481 179.626 209.328C179.559 209.17 179.469 209.034 179.354 208.919C179.239 208.805 179.103 208.714 178.945 208.647C178.792 208.58 178.627 208.546 178.45 208.546H177.934C177.757 208.546 177.59 208.58 177.432 208.647C177.279 208.714 177.145 208.805 177.03 208.919C176.915 209.034 176.825 209.17 176.758 209.328C176.691 209.481 176.657 209.646 176.657 209.823V210.088L175.775 209.945V209.873C175.775 209.577 175.83 209.297 175.94 209.034C176.055 208.771 176.21 208.542 176.406 208.346C176.602 208.15 176.832 207.997 177.095 207.887C177.358 207.772 177.637 207.714 177.934 207.714H178.45C178.747 207.714 179.026 207.772 179.289 207.887C179.552 207.997 179.782 208.15 179.978 208.346C180.174 208.542 180.327 208.771 180.437 209.034C180.552 209.297 180.609 209.577 180.609 209.873V215.202H180.315ZM179.727 211.645H177.862C177.685 211.645 177.518 211.678 177.36 211.745C177.207 211.812 177.073 211.905 176.959 212.025C176.844 212.139 176.753 212.276 176.686 212.433C176.619 212.586 176.586 212.751 176.586 212.928V213.237C176.586 213.414 176.619 213.581 176.686 213.739C176.753 213.892 176.844 214.026 176.959 214.14C177.073 214.255 177.207 214.346 177.36 214.413C177.518 214.48 177.685 214.513 177.862 214.513H178.45C178.627 214.513 178.792 214.48 178.945 214.413C179.103 214.346 179.239 214.255 179.354 214.14C179.469 214.026 179.559 213.892 179.626 213.739C179.693 213.581 179.727 213.414 179.727 213.237V211.645ZM190.126 215.202V209.823C190.126 209.646 190.092 209.481 190.025 209.328C189.958 209.17 189.867 209.034 189.753 208.919C189.638 208.805 189.502 208.714 189.344 208.647C189.191 208.58 189.026 208.546 188.849 208.546H188.412C188.235 208.546 188.067 208.58 187.91 208.647C187.757 208.714 187.62 208.805 187.501 208.919C187.386 209.034 187.295 209.17 187.228 209.328C187.161 209.481 187.128 209.646 187.128 209.823V215.202H186.253V209.823C186.253 209.646 186.219 209.481 186.153 209.328C186.086 209.17 185.992 209.034 185.873 208.919C185.758 208.805 185.622 208.714 185.464 208.647C185.311 208.58 185.146 208.546 184.969 208.546H184.532C184.355 208.546 184.188 208.58 184.03 208.647C183.877 208.714 183.743 208.805 183.628 208.919C183.513 209.034 183.423 209.17 183.356 209.328C183.289 209.481 183.255 209.646 183.255 209.823V215.202H182.373V207.858H182.667L183.148 208.604C183.348 208.331 183.599 208.116 183.901 207.958C184.207 207.796 184.539 207.714 184.898 207.714H184.969C185.385 207.714 185.761 207.817 186.095 208.023C186.43 208.228 186.688 208.501 186.87 208.84C186.961 208.673 187.073 208.52 187.207 208.381C187.341 208.243 187.489 208.126 187.651 208.03C187.814 207.93 187.991 207.853 188.182 207.801C188.373 207.743 188.572 207.714 188.777 207.714H188.849C189.146 207.714 189.425 207.772 189.688 207.887C189.951 207.997 190.181 208.15 190.377 208.346C190.573 208.542 190.726 208.771 190.836 209.034C190.95 209.297 191.008 209.577 191.008 209.873V215.202H190.126ZM197.677 213.186C197.677 213.483 197.62 213.763 197.505 214.026C197.395 214.288 197.242 214.518 197.046 214.714C196.85 214.91 196.621 215.065 196.358 215.18C196.095 215.29 195.815 215.345 195.519 215.345H194.931C194.634 215.345 194.355 215.29 194.092 215.18C193.829 215.065 193.599 214.91 193.403 214.714C193.207 214.518 193.052 214.288 192.937 214.026C192.827 213.763 192.772 213.483 192.772 213.186V209.873C192.772 209.577 192.827 209.297 192.937 209.034C193.052 208.771 193.207 208.542 193.403 208.346C193.599 208.15 193.829 207.997 194.092 207.887C194.355 207.772 194.634 207.714 194.931 207.714H195.519C195.815 207.714 196.095 207.772 196.358 207.887C196.621 207.997 196.85 208.15 197.046 208.346C197.242 208.542 197.395 208.771 197.505 209.034C197.62 209.297 197.677 209.577 197.677 209.873V211.602H193.654V213.237C193.654 213.414 193.688 213.581 193.754 213.739C193.821 213.892 193.912 214.026 194.027 214.14C194.142 214.255 194.276 214.346 194.429 214.413C194.586 214.48 194.754 214.513 194.931 214.513H195.519C195.696 214.513 195.861 214.48 196.014 214.413C196.171 214.346 196.308 214.255 196.422 214.14C196.537 214.026 196.628 213.892 196.695 213.739C196.762 213.581 196.795 213.414 196.795 213.237V212.749L197.677 212.892V213.186ZM196.795 209.823C196.795 209.646 196.762 209.481 196.695 209.328C196.628 209.17 196.537 209.034 196.422 208.919C196.308 208.805 196.171 208.714 196.014 208.647C195.861 208.58 195.696 208.546 195.519 208.546H194.931C194.754 208.546 194.586 208.58 194.429 208.647C194.276 208.714 194.142 208.805 194.027 208.919C193.912 209.034 193.821 209.17 193.754 209.328C193.688 209.481 193.654 209.646 193.654 209.823V210.913H196.795V209.823ZM201.6 208.697C201.423 208.697 201.256 208.73 201.098 208.797C200.945 208.864 200.811 208.955 200.697 209.07C200.582 209.185 200.491 209.321 200.424 209.479C200.357 209.632 200.324 209.797 200.324 209.974V215.202H199.442V207.858H199.736L200.216 208.604C200.417 208.331 200.668 208.116 200.969 207.958C201.275 207.796 201.607 207.714 201.966 207.714H202.482V208.697H201.6ZM208.27 215.202L207.782 214.47C207.581 214.733 207.33 214.946 207.029 215.108C206.728 215.266 206.398 215.345 206.039 215.345H205.817C205.521 215.345 205.241 215.29 204.978 215.18C204.715 215.065 204.486 214.91 204.29 214.714C204.094 214.518 203.938 214.288 203.823 214.026C203.713 213.763 203.659 213.483 203.659 213.186V213.115C203.659 212.818 203.713 212.539 203.823 212.276C203.938 212.013 204.094 211.783 204.29 211.587C204.486 211.391 204.715 211.238 204.978 211.128C205.241 211.013 205.521 210.956 205.817 210.956H207.682V209.823C207.682 209.646 207.648 209.481 207.581 209.328C207.514 209.17 207.424 209.034 207.309 208.919C207.194 208.805 207.058 208.714 206.9 208.647C206.747 208.58 206.582 208.546 206.405 208.546H205.889C205.712 208.546 205.545 208.58 205.387 208.647C205.234 208.714 205.1 208.805 204.985 208.919C204.871 209.034 204.78 209.17 204.713 209.328C204.646 209.481 204.612 209.646 204.612 209.823V210.088L203.73 209.945V209.873C203.73 209.577 203.785 209.297 203.895 209.034C204.01 208.771 204.165 208.542 204.361 208.346C204.557 208.15 204.787 207.997 205.05 207.887C205.313 207.772 205.592 207.714 205.889 207.714H206.405C206.702 207.714 206.981 207.772 207.244 207.887C207.507 207.997 207.737 208.15 207.933 208.346C208.129 208.542 208.282 208.771 208.392 209.034C208.507 209.297 208.564 209.577 208.564 209.873V215.202H208.27ZM207.682 211.645H205.817C205.64 211.645 205.473 211.678 205.315 211.745C205.162 211.812 205.028 211.905 204.914 212.025C204.799 212.139 204.708 212.276 204.641 212.433C204.574 212.586 204.541 212.751 204.541 212.928V213.237C204.541 213.414 204.574 213.581 204.641 213.739C204.708 213.892 204.799 214.026 204.914 214.14C205.028 214.255 205.162 214.346 205.315 214.413C205.473 214.48 205.64 214.513 205.817 214.513H206.405C206.582 214.513 206.747 214.48 206.9 214.413C207.058 214.346 207.194 214.255 207.309 214.14C207.424 214.026 207.514 213.892 207.581 213.739C207.648 213.581 207.682 213.414 207.682 213.237V211.645Z" fill="#9D9D9D"/>
<circle cx="126.035" cy="58.8057" r="57.934" stroke="#FB9EBB" stroke-width="1.63194" stroke-dasharray="3.26 3.26"/>
<circle cx="126.035" cy="58.8054" r="40.7986" fill="#FB9EBB"/>
<path d="M118.596 75.1252L103.188 59.654L107.04 55.7862L118.596 67.3896L143.398 42.4863L147.25 46.3541L118.596 75.1252Z" fill="#F5F7F9"/>
</svg>
