<svg width="189" height="135" viewBox="0 0 189 135" fill="none" xmlns="http://www.w3.org/2000/svg">
<path d="M36.432 101H34.764V94.328H33.228V92.888H36.432V101ZM40.1443 97.796C40.1443 95.9 41.2603 94.472 42.9883 94.472C43.7563 94.472 44.4043 94.808 44.8843 95.42V92.384H46.5403V101H45.0163V100.076C44.5123 100.748 43.8163 101.12 42.9883 101.12C41.2603 101.12 40.1443 99.668 40.1443 97.796ZM41.8603 97.796C41.8603 98.996 42.5443 99.632 43.3603 99.632C44.1883 99.632 44.8723 98.984 44.8723 97.772C44.8723 96.56 44.1763 95.948 43.3603 95.948C42.5443 95.948 41.8603 96.572 41.8603 97.796ZM50.8612 101.12C49.0012 101.12 47.6092 99.656 47.6092 97.796C47.6092 95.924 49.0012 94.472 50.8612 94.472C52.7212 94.472 54.1132 95.924 54.1132 97.796C54.1132 99.656 52.7212 101.12 50.8612 101.12ZM50.8612 99.644C51.6892 99.644 52.3972 98.984 52.3972 97.796C52.3972 96.608 51.6892 95.96 50.8612 95.96C50.0332 95.96 49.3252 96.608 49.3252 97.796C49.3252 98.984 50.0332 99.644 50.8612 99.644ZM57.8776 101.12C56.0296 101.12 54.7576 99.752 54.7576 97.796C54.7576 95.876 56.0776 94.472 57.8776 94.472C59.5456 94.472 60.7816 95.6 60.9856 97.328H59.2336C59.1496 96.476 58.6336 95.948 57.8776 95.948C57.0136 95.948 56.4616 96.656 56.4616 97.796C56.4616 98.948 57.0016 99.644 57.8776 99.644C58.6456 99.644 59.1376 99.14 59.2336 98.264H60.9856C60.7936 100.028 59.5936 101.12 57.8776 101.12ZM65.9565 98.3V94.592H67.6125V101H66.0885V100.16C65.7405 100.724 65.0325 101.12 64.2165 101.12C62.9325 101.12 61.9965 100.34 61.9965 98.672V94.592H63.6645V98.348C63.6645 99.248 64.1085 99.644 64.7805 99.644C65.3805 99.644 65.9565 99.164 65.9565 98.3ZM70.7792 101H69.1112V94.592H70.6472V95.504C71.1152 94.856 71.7152 94.472 72.5672 94.472C73.4432 94.472 74.1152 94.88 74.4392 95.612C74.9432 94.904 75.5912 94.472 76.5512 94.472C77.8472 94.472 78.7232 95.324 78.7232 96.86V101H77.0672V97.388C77.0672 96.488 76.6832 95.948 75.9512 95.948C75.2912 95.948 74.7512 96.464 74.7512 97.424V101H73.0952V97.388C73.0952 96.488 72.7112 95.948 71.9792 95.948C71.3072 95.948 70.7792 96.464 70.7792 97.424V101ZM82.9342 101.108C81.0143 101.108 79.7303 99.776 79.7303 97.772C79.7303 95.864 81.0623 94.472 82.9103 94.472C84.9383 94.472 86.2823 96.116 85.9823 98.204H81.4343C81.5423 99.248 82.0463 99.824 82.8983 99.824C83.6303 99.824 84.1223 99.464 84.3143 98.828H85.9703C85.6103 100.28 84.4943 101.108 82.9342 101.108ZM82.8743 95.696C82.0943 95.696 81.6023 96.2 81.4583 97.148H84.2183C84.1703 96.26 83.6663 95.696 82.8743 95.696ZM88.7675 97.508V101H87.0995V94.592H88.6355V95.504C89.1035 94.868 89.7635 94.472 90.6035 94.472C91.8875 94.472 92.7755 95.312 92.7755 96.86V101H91.1195V97.424C91.1195 96.476 90.7475 95.948 89.9915 95.948C89.3315 95.948 88.7675 96.476 88.7675 97.508ZM98.1499 99.38V100.832C97.7419 101.036 97.3579 101.12 96.8659 101.12C95.5459 101.12 94.7179 100.364 94.7179 98.924V96.02H93.4219V94.592H94.7179V92.696H96.3739V94.592H98.2099V96.02H96.3739V98.54C96.3739 99.284 96.7099 99.584 97.3099 99.584C97.6219 99.584 97.9099 99.512 98.1499 99.38ZM105.636 98.3V94.592H107.292V101H105.768V100.16C105.42 100.724 104.712 101.12 103.896 101.12C102.612 101.12 101.676 100.34 101.676 98.672V94.592H103.344V98.348C103.344 99.248 103.788 99.644 104.46 99.644C105.06 99.644 105.636 99.164 105.636 98.3ZM115.187 97.796C115.187 99.692 114.071 101.12 112.343 101.12C111.587 101.12 110.939 100.796 110.459 100.172V103.316H108.791V94.592H110.327V95.528C110.819 94.844 111.527 94.472 112.343 94.472C114.071 94.472 115.187 95.912 115.187 97.796ZM113.471 97.796C113.471 96.596 112.787 95.948 111.971 95.948C111.155 95.948 110.471 96.584 110.471 97.796C110.471 99.008 111.155 99.632 111.971 99.632C112.787 99.632 113.471 99.02 113.471 97.796ZM117.936 101H116.256V92.384H117.936V101ZM122.264 101.12C120.404 101.12 119.012 99.656 119.012 97.796C119.012 95.924 120.404 94.472 122.264 94.472C124.124 94.472 125.516 95.924 125.516 97.796C125.516 99.656 124.124 101.12 122.264 101.12ZM122.264 99.644C123.092 99.644 123.8 98.984 123.8 97.796C123.8 96.608 123.092 95.96 122.264 95.96C121.436 95.96 120.728 96.608 120.728 97.796C120.728 98.984 121.436 99.644 122.264 99.644ZM130.396 101V100.208C129.976 100.808 129.34 101.12 128.464 101.12C127.132 101.12 126.244 100.34 126.244 99.14C126.244 97.892 127.252 97.22 129.124 97.22C129.484 97.22 129.796 97.244 130.192 97.292V96.908C130.192 96.188 129.784 95.768 129.088 95.768C128.368 95.768 127.936 96.188 127.876 96.908H126.376C126.472 95.432 127.54 94.472 129.088 94.472C130.768 94.472 131.752 95.396 131.752 96.968V101H130.396ZM127.816 99.092C127.816 99.632 128.2 99.968 128.824 99.968C129.676 99.968 130.192 99.5 130.192 98.756V98.3C129.796 98.24 129.52 98.216 129.232 98.216C128.284 98.216 127.816 98.516 127.816 99.092ZM132.769 97.796C132.769 95.9 133.885 94.472 135.613 94.472C136.381 94.472 137.029 94.808 137.509 95.42V92.384H139.165V101H137.641V100.076C137.137 100.748 136.441 101.12 135.613 101.12C133.885 101.12 132.769 99.668 132.769 97.796ZM134.485 97.796C134.485 98.996 135.169 99.632 135.985 99.632C136.813 99.632 137.497 98.984 137.497 97.772C137.497 96.56 136.801 95.948 135.985 95.948C135.169 95.948 134.485 96.572 134.485 97.796ZM143.438 101.108C141.518 101.108 140.234 99.776 140.234 97.772C140.234 95.864 141.566 94.472 143.414 94.472C145.442 94.472 146.786 96.116 146.486 98.204H141.938C142.046 99.248 142.55 99.824 143.402 99.824C144.134 99.824 144.626 99.464 144.818 98.828H146.474C146.114 100.28 144.998 101.108 143.438 101.108ZM143.378 95.696C142.598 95.696 142.106 96.2 141.962 97.148H144.722C144.674 96.26 144.17 95.696 143.378 95.696ZM147.066 97.796C147.066 95.9 148.182 94.472 149.91 94.472C150.678 94.472 151.326 94.808 151.806 95.42V92.384H153.462V101H151.938V100.076C151.434 100.748 150.738 101.12 149.91 101.12C148.182 101.12 147.066 99.668 147.066 97.796ZM148.782 97.796C148.782 98.996 149.466 99.632 150.282 99.632C151.11 99.632 151.794 98.984 151.794 97.772C151.794 96.56 151.098 95.948 150.282 95.948C149.466 95.948 148.782 96.572 148.782 97.796Z" fill="black"/>
<path d="M3.84124 117.579V120H2.84224V117.579L0.520242 113.538H1.60024L3.37324 116.652L5.16424 113.538H6.17224L3.84124 117.579ZM8.0157 120.09C6.6657 120.09 5.6757 119.028 5.6757 117.615C5.6757 116.202 6.6657 115.14 8.0157 115.14C9.3657 115.14 10.3557 116.202 10.3557 117.615C10.3557 119.028 9.3657 120.09 8.0157 120.09ZM8.0157 119.289C8.7987 119.289 9.4197 118.659 9.4197 117.615C9.4197 116.571 8.7987 115.95 8.0157 115.95C7.2327 115.95 6.6207 116.571 6.6207 117.615C6.6207 118.659 7.2327 119.289 8.0157 119.289ZM14.2613 118.038V115.23H15.1703V120H14.3243V119.244C14.0723 119.739 13.5143 120.09 12.8663 120.09C11.9033 120.09 11.2373 119.523 11.2373 118.299V115.23H12.1463V118.119C12.1463 118.947 12.5603 119.289 13.1543 119.289C13.7663 119.289 14.2613 118.785 14.2613 118.038ZM20.1946 120.099C18.8896 120.099 17.9716 119.073 17.9716 117.615C17.9716 116.175 18.9076 115.14 20.1946 115.14C21.3736 115.14 22.2286 115.923 22.3996 117.165H21.4456C21.3466 116.4 20.8696 115.941 20.2036 115.941C19.4206 115.941 18.9076 116.607 18.9076 117.615C18.9076 118.632 19.4206 119.289 20.2036 119.289C20.8786 119.289 21.3466 118.839 21.4546 118.065H22.3996C22.2376 119.325 21.3916 120.099 20.1946 120.099ZM26.2036 120V119.262C25.9066 119.793 25.3756 120.09 24.6736 120.09C23.6836 120.09 23.0356 119.523 23.0356 118.65C23.0356 117.714 23.7826 117.228 25.2046 117.228C25.4836 117.228 25.7086 117.237 26.0956 117.282V116.931C26.0956 116.247 25.7266 115.86 25.0966 115.86C24.4306 115.86 24.0256 116.256 23.9986 116.922H23.1706C23.2156 115.851 23.9806 115.14 25.0966 115.14C26.2756 115.14 26.9596 115.806 26.9596 116.94V120H26.2036ZM23.8996 118.623C23.8996 119.118 24.2686 119.442 24.8536 119.442C25.6186 119.442 26.0956 118.965 26.0956 118.236V117.849C25.7446 117.804 25.4926 117.795 25.2586 117.795C24.3496 117.795 23.8996 118.065 23.8996 118.623ZM29.0839 117.309V120H28.1749V115.23H29.0209V116.022C29.3449 115.491 29.8849 115.14 30.5419 115.14C31.5229 115.14 32.1709 115.77 32.1709 116.913V120H31.2619V117.219C31.2619 116.4 30.9019 115.941 30.2269 115.941C29.6059 115.941 29.0839 116.463 29.0839 117.309ZM38.2379 118.038V115.23H39.1469V120H38.3009V119.244C38.0489 119.739 37.4909 120.09 36.8429 120.09C35.8799 120.09 35.2139 119.523 35.2139 118.299V115.23H36.1229V118.119C36.1229 118.947 36.5369 119.289 37.1309 119.289C37.7429 119.289 38.2379 118.785 38.2379 118.038ZM44.9633 117.615C44.9633 119.055 44.1353 120.09 42.8573 120.09C42.2093 120.09 41.6603 119.766 41.3183 119.19V121.737H40.4093V115.23H41.2553V116.103C41.5973 115.491 42.1823 115.14 42.8573 115.14C44.1263 115.14 44.9633 116.175 44.9633 117.615ZM44.0183 117.615C44.0183 116.544 43.4513 115.941 42.6683 115.941C41.9123 115.941 41.3183 116.544 41.3183 117.615C41.3183 118.668 41.9033 119.28 42.6683 119.28C43.4513 119.28 44.0183 118.686 44.0183 117.615ZM46.8029 120H45.8849V113.538H46.8029V120ZM50.0626 120.09C48.7126 120.09 47.7226 119.028 47.7226 117.615C47.7226 116.202 48.7126 115.14 50.0626 115.14C51.4126 115.14 52.4026 116.202 52.4026 117.615C52.4026 119.028 51.4126 120.09 50.0626 120.09ZM50.0626 119.289C50.8456 119.289 51.4666 118.659 51.4666 117.615C51.4666 116.571 50.8456 115.95 50.0626 115.95C49.2796 115.95 48.6676 116.571 48.6676 117.615C48.6676 118.659 49.2796 119.289 50.0626 119.289ZM56.2182 120V119.262C55.9212 119.793 55.3902 120.09 54.6882 120.09C53.6982 120.09 53.0502 119.523 53.0502 118.65C53.0502 117.714 53.7972 117.228 55.2192 117.228C55.4982 117.228 55.7232 117.237 56.1102 117.282V116.931C56.1102 116.247 55.7412 115.86 55.1112 115.86C54.4452 115.86 54.0402 116.256 54.0132 116.922H53.1852C53.2302 115.851 53.9952 115.14 55.1112 115.14C56.2902 115.14 56.9742 115.806 56.9742 116.94V120H56.2182ZM53.9142 118.623C53.9142 119.118 54.2832 119.442 54.8682 119.442C55.6332 119.442 56.1102 118.965 56.1102 118.236V117.849C55.7592 117.804 55.5072 117.795 55.2732 117.795C54.3642 117.795 53.9142 118.065 53.9142 118.623ZM57.8476 117.615C57.8476 116.166 58.6756 115.14 59.9626 115.14C60.6016 115.14 61.1596 115.464 61.4926 116.049V113.538H62.4016V120H61.5556V119.145C61.2136 119.748 60.6376 120.09 59.9626 120.09C58.6756 120.09 57.8476 119.046 57.8476 117.615ZM58.7926 117.615C58.7926 118.677 59.3506 119.28 60.1426 119.28C60.9166 119.28 61.4926 118.65 61.4926 117.597C61.4926 116.526 60.8986 115.941 60.1426 115.941C59.3506 115.941 58.7926 116.535 58.7926 117.615ZM68.435 120V119.262C68.138 119.793 67.607 120.09 66.905 120.09C65.915 120.09 65.267 119.523 65.267 118.65C65.267 117.714 66.014 117.228 67.436 117.228C67.715 117.228 67.94 117.237 68.327 117.282V116.931C68.327 116.247 67.958 115.86 67.328 115.86C66.662 115.86 66.257 116.256 66.23 116.922H65.402C65.447 115.851 66.212 115.14 67.328 115.14C68.507 115.14 69.191 115.806 69.191 116.94V120H68.435ZM66.131 118.623C66.131 119.118 66.5 119.442 67.085 119.442C67.85 119.442 68.327 118.965 68.327 118.236V117.849C67.976 117.804 67.724 117.795 67.49 117.795C66.581 117.795 66.131 118.065 66.131 118.623ZM73.1962 117.309V120H72.2872V115.23H73.1332V116.022C73.4572 115.491 73.9972 115.14 74.6542 115.14C75.6352 115.14 76.2832 115.77 76.2832 116.913V120H75.3742V117.219C75.3742 116.4 75.0142 115.941 74.3392 115.941C73.7182 115.941 73.1962 116.463 73.1962 117.309ZM79.4524 120.09C78.0754 120.09 77.1484 119.091 77.1484 117.588C77.1484 116.175 78.1114 115.14 79.4254 115.14C80.8474 115.14 81.7924 116.292 81.6304 117.84H78.0754C78.1474 118.812 78.6334 119.379 79.4344 119.379C80.1094 119.379 80.5774 119.01 80.7304 118.389H81.6304C81.3964 119.451 80.5774 120.09 79.4524 120.09ZM79.4074 115.824C78.6784 115.824 78.1834 116.346 78.0844 117.237H80.6674C80.6224 116.355 80.1454 115.824 79.4074 115.824ZM86.4333 120L85.3533 116.454L84.2643 120H83.3463L81.9693 115.23H82.8603L83.8233 118.704L84.9033 115.23H85.8033L86.8653 118.713L87.8283 115.23H88.7283L87.3423 120H86.4333ZM91.0087 117.615C91.0087 116.166 91.8367 115.14 93.1237 115.14C93.7627 115.14 94.3207 115.464 94.6537 116.049V113.538H95.5627V120H94.7167V119.145C94.3747 119.748 93.7987 120.09 93.1237 120.09C91.8367 120.09 91.0087 119.046 91.0087 117.615ZM91.9537 117.615C91.9537 118.677 92.5117 119.28 93.3037 119.28C94.0777 119.28 94.6537 118.65 94.6537 117.597C94.6537 116.526 94.0597 115.941 93.3037 115.941C92.5117 115.941 91.9537 116.535 91.9537 117.615ZM98.8243 120.09C97.4743 120.09 96.4843 119.028 96.4843 117.615C96.4843 116.202 97.4743 115.14 98.8243 115.14C100.174 115.14 101.164 116.202 101.164 117.615C101.164 119.028 100.174 120.09 98.8243 120.09ZM98.8243 119.289C99.6073 119.289 100.228 118.659 100.228 117.615C100.228 116.571 99.6073 115.95 98.8243 115.95C98.0413 115.95 97.4293 116.571 97.4293 117.615C97.4293 118.659 98.0413 119.289 98.8243 119.289ZM103.972 120.099C102.667 120.099 101.749 119.073 101.749 117.615C101.749 116.175 102.685 115.14 103.972 115.14C105.151 115.14 106.006 115.923 106.177 117.165H105.223C105.124 116.4 104.647 115.941 103.981 115.941C103.198 115.941 102.685 116.607 102.685 117.615C102.685 118.632 103.198 119.289 103.981 119.289C104.656 119.289 105.124 118.839 105.232 118.065H106.177C106.015 119.325 105.169 120.099 103.972 120.099ZM110.071 118.038V115.23H110.98V120H110.134V119.244C109.882 119.739 109.324 120.09 108.676 120.09C107.713 120.09 107.047 119.523 107.047 118.299V115.23H107.956V118.119C107.956 118.947 108.37 119.289 108.964 119.289C109.576 119.289 110.071 118.785 110.071 118.038ZM113.151 120H112.242V115.23H113.088V116.022C113.412 115.473 113.925 115.14 114.582 115.14C115.284 115.14 115.815 115.5 116.031 116.13C116.364 115.518 116.913 115.14 117.642 115.14C118.623 115.14 119.253 115.779 119.253 116.913V120H118.344V117.201C118.344 116.409 117.993 115.941 117.327 115.941C116.706 115.941 116.202 116.463 116.202 117.264V120H115.293V117.201C115.293 116.409 114.942 115.941 114.276 115.941C113.646 115.941 113.151 116.463 113.151 117.264V120ZM122.431 120.09C121.054 120.09 120.127 119.091 120.127 117.588C120.127 116.175 121.09 115.14 122.404 115.14C123.826 115.14 124.771 116.292 124.609 117.84H121.054C121.126 118.812 121.612 119.379 122.413 119.379C123.088 119.379 123.556 119.01 123.709 118.389H124.609C124.375 119.451 123.556 120.09 122.431 120.09ZM122.386 115.824C121.657 115.824 121.162 116.346 121.063 117.237H123.646C123.601 116.355 123.124 115.824 122.386 115.824ZM126.484 117.309V120H125.575V115.23H126.421V116.022C126.745 115.491 127.285 115.14 127.942 115.14C128.923 115.14 129.571 115.77 129.571 116.913V120H128.662V117.219C128.662 116.4 128.302 115.941 127.627 115.941C127.006 115.941 126.484 116.463 126.484 117.309ZM133.452 119.118V119.919C133.173 120.045 132.93 120.09 132.642 120.09C131.76 120.09 131.148 119.613 131.148 118.56V116.004H130.095V115.23H131.148V113.817H132.057V115.23H133.497V116.004H132.057V118.353C132.057 119.01 132.372 119.244 132.858 119.244C133.074 119.244 133.263 119.208 133.452 119.118ZM140.799 117.615C140.799 119.046 139.971 120.09 138.684 120.09C138.009 120.09 137.433 119.748 137.091 119.145V120H136.245V113.538H137.154V116.049C137.487 115.464 138.036 115.14 138.684 115.14C139.962 115.14 140.799 116.166 140.799 117.615ZM139.854 117.615C139.854 116.535 139.287 115.941 138.504 115.941C137.748 115.941 137.154 116.526 137.154 117.597C137.154 118.65 137.73 119.28 138.504 119.28C139.287 119.28 139.854 118.677 139.854 117.615ZM145.531 115.23L143.146 121.737H142.156L142.84 119.937L140.959 115.23H141.94L143.326 118.866L144.613 115.23H145.531ZM149.165 114.123C149.165 114.465 148.895 114.726 148.508 114.726C148.121 114.726 147.842 114.465 147.842 114.123C147.842 113.772 148.121 113.52 148.508 113.52C148.895 113.52 149.165 113.772 149.165 114.123ZM148.967 120H148.058V115.23H148.967V120ZM151.138 120H150.229V115.23H151.075V116.022C151.399 115.473 151.912 115.14 152.569 115.14C153.271 115.14 153.802 115.5 154.018 116.13C154.351 115.518 154.9 115.14 155.629 115.14C156.61 115.14 157.24 115.779 157.24 116.913V120H156.331V117.201C156.331 116.409 155.98 115.941 155.314 115.941C154.693 115.941 154.189 116.463 154.189 117.264V120H153.28V117.201C153.28 116.409 152.929 115.941 152.263 115.941C151.633 115.941 151.138 116.463 151.138 117.264V120ZM163.009 117.615C163.009 119.055 162.181 120.09 160.903 120.09C160.255 120.09 159.706 119.766 159.364 119.19V121.737H158.455V115.23H159.301V116.103C159.643 115.491 160.228 115.14 160.903 115.14C162.172 115.14 163.009 116.175 163.009 117.615ZM162.064 117.615C162.064 116.544 161.497 115.941 160.714 115.941C159.958 115.941 159.364 116.544 159.364 117.615C159.364 118.668 159.949 119.28 160.714 119.28C161.497 119.28 162.064 118.686 162.064 117.615ZM165.929 120.09C164.579 120.09 163.589 119.028 163.589 117.615C163.589 116.202 164.579 115.14 165.929 115.14C167.279 115.14 168.269 116.202 168.269 117.615C168.269 119.028 167.279 120.09 165.929 120.09ZM165.929 119.289C166.712 119.289 167.333 118.659 167.333 117.615C167.333 116.571 166.712 115.95 165.929 115.95C165.146 115.95 164.534 116.571 164.534 117.615C164.534 118.659 165.146 119.289 165.929 119.289ZM170.104 117.561V120H169.195V115.23H170.041V116.238C170.374 115.581 171.094 115.167 171.877 115.167V116.112C170.851 116.058 170.104 116.508 170.104 117.561ZM175.578 119.118V119.919C175.299 120.045 175.056 120.09 174.768 120.09C173.886 120.09 173.274 119.613 173.274 118.56V116.004H172.221V115.23H173.274V113.817H174.183V115.23H175.623V116.004H174.183V118.353C174.183 119.01 174.498 119.244 174.984 119.244C175.2 119.244 175.389 119.208 175.578 119.118ZM177.597 114.123C177.597 114.465 177.327 114.726 176.94 114.726C176.553 114.726 176.274 114.465 176.274 114.123C176.274 113.772 176.553 113.52 176.94 113.52C177.327 113.52 177.597 113.772 177.597 114.123ZM177.399 120H176.49V115.23H177.399V120ZM179.57 117.309V120H178.661V115.23H179.507V116.022C179.831 115.491 180.371 115.14 181.028 115.14C182.009 115.14 182.657 115.77 182.657 116.913V120H181.748V117.219C181.748 116.4 181.388 115.941 180.713 115.941C180.092 115.941 179.57 116.463 179.57 117.309ZM185.772 121.836C184.521 121.836 183.711 121.17 183.657 120.09H184.539C184.593 120.756 185.025 121.116 185.763 121.116C186.582 121.116 187.014 120.675 187.014 119.856V118.992C186.744 119.568 186.204 119.901 185.556 119.901C184.368 119.901 183.522 118.92 183.522 117.516C183.522 116.094 184.332 115.14 185.529 115.14C186.213 115.14 186.753 115.473 187.077 116.076V115.23H187.923V119.838C187.923 121.089 187.122 121.836 185.772 121.836ZM184.44 117.516C184.44 118.506 184.926 119.109 185.718 119.109C186.492 119.109 187.014 118.488 187.014 117.543C187.014 116.553 186.501 115.923 185.718 115.923C184.935 115.923 184.44 116.535 184.44 117.516ZM37.2657 132.09C35.9157 132.09 34.9257 131.028 34.9257 129.615C34.9257 128.202 35.9157 127.14 37.2657 127.14C38.6157 127.14 39.6057 128.202 39.6057 129.615C39.6057 131.028 38.6157 132.09 37.2657 132.09ZM37.2657 131.289C38.0487 131.289 38.6697 130.659 38.6697 129.615C38.6697 128.571 38.0487 127.95 37.2657 127.95C36.4827 127.95 35.8707 128.571 35.8707 129.615C35.8707 130.659 36.4827 131.289 37.2657 131.289ZM41.4413 129.561V132H40.5323V127.23H41.3783V128.238C41.7113 127.581 42.4313 127.167 43.2143 127.167V128.112C42.1883 128.058 41.4413 128.508 41.4413 129.561ZM49.5946 130.578C49.5946 131.514 48.8656 132.09 47.5966 132.09C46.3366 132.09 45.5896 131.469 45.4996 130.443H46.3726C46.4086 131.037 46.8856 131.406 47.6146 131.406C48.2536 131.406 48.6766 131.181 48.6766 130.731C48.6766 130.335 48.4336 130.164 47.8396 130.047L47.0656 129.903C46.1836 129.732 45.6886 129.282 45.6886 128.562C45.6886 127.725 46.4176 127.14 47.5246 127.14C48.6676 127.14 49.4416 127.752 49.5226 128.733H48.6496C48.5956 128.157 48.1726 127.824 47.5336 127.824C46.9576 127.824 46.5706 128.067 46.5706 128.481C46.5706 128.868 46.8136 129.048 47.3896 129.156L48.1996 129.309C49.1446 129.48 49.5946 129.894 49.5946 130.578ZM52.468 132.099C51.163 132.099 50.245 131.073 50.245 129.615C50.245 128.175 51.181 127.14 52.468 127.14C53.647 127.14 54.502 127.923 54.673 129.165H53.719C53.62 128.4 53.143 127.941 52.477 127.941C51.694 127.941 51.181 128.607 51.181 129.615C51.181 130.632 51.694 131.289 52.477 131.289C53.152 131.289 53.62 130.839 53.728 130.065H54.673C54.511 131.325 53.665 132.099 52.468 132.099ZM58.477 132V131.262C58.18 131.793 57.649 132.09 56.947 132.09C55.957 132.09 55.309 131.523 55.309 130.65C55.309 129.714 56.056 129.228 57.478 129.228C57.757 129.228 57.982 129.237 58.369 129.282V128.931C58.369 128.247 58 127.86 57.37 127.86C56.704 127.86 56.299 128.256 56.272 128.922H55.444C55.489 127.851 56.254 127.14 57.37 127.14C58.549 127.14 59.233 127.806 59.233 128.94V132H58.477ZM56.173 130.623C56.173 131.118 56.542 131.442 57.127 131.442C57.892 131.442 58.369 130.965 58.369 130.236V129.849C58.018 129.804 57.766 129.795 57.532 129.795C56.623 129.795 56.173 130.065 56.173 130.623ZM61.3574 129.309V132H60.4484V127.23H61.2944V128.022C61.6184 127.491 62.1584 127.14 62.8154 127.14C63.7964 127.14 64.4444 127.77 64.4444 128.913V132H63.5354V129.219C63.5354 128.4 63.1754 127.941 62.5004 127.941C61.8794 127.941 61.3574 128.463 61.3574 129.309ZM66.5605 129.309V132H65.6515V127.23H66.4975V128.022C66.8215 127.491 67.3615 127.14 68.0185 127.14C68.9995 127.14 69.6475 127.77 69.6475 128.913V132H68.7385V129.219C68.7385 128.4 68.3785 127.941 67.7035 127.941C67.0825 127.941 66.5605 128.463 66.5605 129.309ZM71.9616 126.123C71.9616 126.465 71.6916 126.726 71.3046 126.726C70.9176 126.726 70.6386 126.465 70.6386 126.123C70.6386 125.772 70.9176 125.52 71.3046 125.52C71.6916 125.52 71.9616 125.772 71.9616 126.123ZM71.7636 132H70.8546V127.23H71.7636V132ZM73.9345 129.309V132H73.0255V127.23H73.8715V128.022C74.1955 127.491 74.7355 127.14 75.3925 127.14C76.3735 127.14 77.0215 127.77 77.0215 128.913V132H76.1125V129.219C76.1125 128.4 75.7525 127.941 75.0775 127.941C74.4565 127.941 73.9345 128.463 73.9345 129.309ZM80.1366 133.836C78.8856 133.836 78.0756 133.17 78.0216 132.09H78.9036C78.9576 132.756 79.3896 133.116 80.1276 133.116C80.9466 133.116 81.3786 132.675 81.3786 131.856V130.992C81.1086 131.568 80.5686 131.901 79.9206 131.901C78.7326 131.901 77.8866 130.92 77.8866 129.516C77.8866 128.094 78.6966 127.14 79.8936 127.14C80.5776 127.14 81.1176 127.473 81.4416 128.076V127.23H82.2876V131.838C82.2876 133.089 81.4866 133.836 80.1366 133.836ZM78.8046 129.516C78.8046 130.506 79.2906 131.109 80.0826 131.109C80.8566 131.109 81.3786 130.488 81.3786 129.543C81.3786 128.553 80.8656 127.923 80.0826 127.923C79.2996 127.923 78.8046 128.535 78.8046 129.516ZM89.3689 132L88.2889 128.454L87.1999 132H86.2819L84.9049 127.23H85.7959L86.7589 130.704L87.8389 127.23H88.7389L89.8009 130.713L90.7639 127.23H91.6639L90.2779 132H89.3689ZM93.5124 126.123C93.5124 126.465 93.2424 126.726 92.8554 126.726C92.4684 126.726 92.1894 126.465 92.1894 126.123C92.1894 125.772 92.4684 125.52 92.8554 125.52C93.2424 125.52 93.5124 125.772 93.5124 126.123ZM93.3144 132H92.4054V127.23H93.3144V132ZM97.2673 131.118V131.919C96.9883 132.045 96.7453 132.09 96.4573 132.09C95.5753 132.09 94.9633 131.613 94.9633 130.56V128.004H93.9103V127.23H94.9633V125.817H95.8723V127.23H97.3123V128.004H95.8723V130.353C95.8723 131.01 96.1873 131.244 96.6733 131.244C96.8893 131.244 97.0783 131.208 97.2673 131.118ZM99.0888 129.309V132H98.1798V125.538H99.0888V127.995C99.4038 127.482 99.8898 127.14 100.547 127.14C101.528 127.14 102.176 127.77 102.176 128.913V132H101.267V129.219C101.267 128.4 100.907 127.941 100.232 127.941C99.6108 127.941 99.0888 128.463 99.0888 129.309ZM109.224 127.23L106.839 133.737H105.849L106.533 131.937L104.652 127.23H105.633L107.019 130.866L108.306 127.23H109.224ZM111.718 132.09C110.368 132.09 109.378 131.028 109.378 129.615C109.378 128.202 110.368 127.14 111.718 127.14C113.068 127.14 114.058 128.202 114.058 129.615C114.058 131.028 113.068 132.09 111.718 132.09ZM111.718 131.289C112.501 131.289 113.122 130.659 113.122 129.615C113.122 128.571 112.501 127.95 111.718 127.95C110.935 127.95 110.323 128.571 110.323 129.615C110.323 130.659 110.935 131.289 111.718 131.289ZM117.963 130.038V127.23H118.872V132H118.026V131.244C117.774 131.739 117.216 132.09 116.568 132.09C115.605 132.09 114.939 131.523 114.939 130.299V127.23H115.848V130.119C115.848 130.947 116.262 131.289 116.856 131.289C117.468 131.289 117.963 130.785 117.963 130.038ZM121.044 129.561V132H120.135V127.23H120.981V128.238C121.314 127.581 122.034 127.167 122.817 127.167V128.112C121.791 128.058 121.044 128.508 121.044 129.561ZM127.298 132.099C125.993 132.099 125.075 131.073 125.075 129.615C125.075 128.175 126.011 127.14 127.298 127.14C128.477 127.14 129.332 127.923 129.503 129.165H128.549C128.45 128.4 127.973 127.941 127.307 127.941C126.524 127.941 126.011 128.607 126.011 129.615C126.011 130.632 126.524 131.289 127.307 131.289C127.982 131.289 128.45 130.839 128.558 130.065H129.503C129.341 131.325 128.495 132.099 127.298 132.099ZM133.307 132V131.262C133.01 131.793 132.479 132.09 131.777 132.09C130.787 132.09 130.139 131.523 130.139 130.65C130.139 129.714 130.886 129.228 132.308 129.228C132.587 129.228 132.812 129.237 133.199 129.282V128.931C133.199 128.247 132.83 127.86 132.2 127.86C131.534 127.86 131.129 128.256 131.102 128.922H130.274C130.319 127.851 131.084 127.14 132.2 127.14C133.379 127.14 134.063 127.806 134.063 128.94V132H133.307ZM131.003 130.623C131.003 131.118 131.372 131.442 131.957 131.442C132.722 131.442 133.199 130.965 133.199 130.236V129.849C132.848 129.804 132.596 129.795 132.362 129.795C131.453 129.795 131.003 130.065 131.003 130.623ZM136.187 132H135.278V127.23H136.124V128.022C136.448 127.473 136.961 127.14 137.618 127.14C138.32 127.14 138.851 127.5 139.067 128.13C139.4 127.518 139.949 127.14 140.678 127.14C141.659 127.14 142.289 127.779 142.289 128.913V132H141.38V129.201C141.38 128.409 141.029 127.941 140.363 127.941C139.742 127.941 139.238 128.463 139.238 129.264V132H138.329V129.201C138.329 128.409 137.978 127.941 137.312 127.941C136.682 127.941 136.187 128.463 136.187 129.264V132ZM145.467 132.09C144.09 132.09 143.163 131.091 143.163 129.588C143.163 128.175 144.126 127.14 145.44 127.14C146.862 127.14 147.807 128.292 147.645 129.84H144.09C144.162 130.812 144.648 131.379 145.449 131.379C146.124 131.379 146.592 131.01 146.745 130.389H147.645C147.411 131.451 146.592 132.09 145.467 132.09ZM145.422 127.824C144.693 127.824 144.198 128.346 144.099 129.237H146.682C146.637 128.355 146.16 127.824 145.422 127.824ZM149.52 129.561V132H148.611V127.23H149.457V128.238C149.79 127.581 150.51 127.167 151.293 127.167V128.112C150.267 128.058 149.52 128.508 149.52 129.561ZM154.902 132V131.262C154.605 131.793 154.074 132.09 153.372 132.09C152.382 132.09 151.734 131.523 151.734 130.65C151.734 129.714 152.481 129.228 153.903 129.228C154.182 129.228 154.407 129.237 154.794 129.282V128.931C154.794 128.247 154.425 127.86 153.795 127.86C153.129 127.86 152.724 128.256 152.697 128.922H151.869C151.914 127.851 152.679 127.14 153.795 127.14C154.974 127.14 155.658 127.806 155.658 128.94V132H154.902ZM152.598 130.623C152.598 131.118 152.967 131.442 153.552 131.442C154.317 131.442 154.794 130.965 154.794 130.236V129.849C154.443 129.804 154.191 129.795 153.957 129.795C153.048 129.795 152.598 130.065 152.598 130.623Z" fill="#9D9D9D"/>
<circle cx="94" cy="36" r="35.5" stroke="#4EABE9" stroke-dasharray="2 2"/>
<circle cx="94" cy="36" r="25" fill="#4EABE9"/>
<path d="M89.4417 46L80 36.5198L82.3604 34.1497L89.4417 41.2599L104.64 26L107 28.3701L89.4417 46Z" fill="#F5F7F9"/>
</svg>
