<svg width="393" height="195" viewBox="0 0 393 195" fill="none" xmlns="http://www.w3.org/2000/svg">
<path d="M167.308 1.97852H184.642V40.2262H202.595V1.97852H219.929V96.0041H203.214V53.5067H184.642V96.0041H167.308V1.97852Z" fill="#4EABE9" fill-opacity="0.04"/>
<path d="M250.533 90.9244C246.148 86.88 243.952 81.0773 243.952 73.5164V24.4658C243.952 16.9102 246.148 11.1076 250.545 7.05786C254.942 3.01343 261.318 0.991211 269.691 0.991211C278.064 0.991211 284.446 3.01343 288.837 7.05786C293.234 11.1076 295.43 16.9102 295.43 24.4658V32.4702H279.304V23.5788C279.304 17.4752 276.309 14.4181 270.311 14.4181C264.314 14.4181 261.318 17.4699 261.318 23.5788V74.4193C261.318 80.4385 264.314 83.448 270.311 83.448C276.309 83.448 279.304 80.4385 279.304 74.4193V56.2352H270.621V43.0354H295.43V73.5217C295.43 81.0826 293.234 86.8853 288.849 90.9297C284.465 94.9794 278.089 96.9963 269.734 96.9963C261.38 96.9963 255.004 94.9741 250.619 90.9297" fill="#4EABE9" fill-opacity="0.04"/>
<path d="M301.149 1.97852H350.339V15.259H319.272V40.2262H343.867V53.5067H319.272V82.1925H350.339V96.0041H301.149V1.97852Z" fill="#4EABE9" fill-opacity="0.04"/>
<path d="M371.902 15.259H353.771V1.97852H407.537V15.259H389.407V96.0041H371.902V15.259Z" fill="#4EABE9" fill-opacity="0.04"/>
<path d="M-34.0278 1.97852H-17.2472L-9.47761 74.2242H-9.15779L-0.911709 1.97852H18.1077L26.3538 74.2242H26.6736L34.4431 1.97852H49.4805L38.2244 96.0041H16.5086L8.60113 32.7892H8.28759L0.380112 96.0041H-22.7592L-34.0153 1.97852H-34.0278Z" fill="#4EABE9" fill-opacity="0.04"/>
<path d="M84.0704 64.6623L76.3829 18.4463H76.0709L68.5392 64.6623H84.0704ZM65.1822 1.97852H88.6943L106.678 96.0041H89.5304L86.3418 77.1406V77.4115H66.4114L63.2228 96.0041H47.1924L65.1822 1.97852Z" fill="#4EABE9" fill-opacity="0.04"/>
<path d="M116.552 90.9091C112.255 86.858 110.11 81.0457 110.11 73.4723V68.3212H126.278V74.7363C126.278 80.7919 129.257 83.8223 135.221 83.8223C138.15 83.8223 140.37 83.0871 141.887 81.6169C143.404 80.1466 144.163 77.7667 144.163 74.4719C144.163 70.553 143.118 67.1048 141.029 64.1167C138.933 61.1339 135.065 57.5482 129.419 53.3596C122.305 48.0127 117.342 43.1842 114.513 38.8633C111.689 34.5425 110.278 29.6663 110.278 24.2349C110.278 16.8413 112.473 11.119 116.863 7.06788C121.254 3.01677 127.634 0.991211 136.004 0.991211C144.374 0.991211 150.512 3.01677 154.747 7.06788C158.982 11.1243 161.103 16.9365 161.103 24.5046V28.1326H144.934V23.3728C144.934 20.1679 144.2 17.8303 142.733 16.3601C141.265 14.8898 139.12 14.1547 136.29 14.1547C130.526 14.1547 127.653 17.1428 127.653 23.1084C127.653 26.4931 128.722 29.6558 130.874 32.5963C133.019 35.5368 136.925 39.096 142.577 43.2847C149.803 48.6315 154.778 53.4865 157.502 57.8496C160.226 62.2128 161.588 67.3375 161.588 73.2132C161.588 80.8765 159.361 86.7522 154.909 90.8509C150.456 94.9496 143.989 96.9963 135.507 96.9963C127.124 96.9963 120.793 94.9708 116.496 90.9196" fill="#4EABE9" fill-opacity="0.04"/>
<path d="M25.5326 186.933C21.1477 182.889 18.9521 177.086 18.9521 169.525V120.475C18.9521 112.919 21.1477 107.116 25.545 103.067C29.9423 99.0222 36.3181 97 44.691 97C53.0639 97 59.4459 99.0222 63.837 103.067C68.2344 107.116 70.4299 112.919 70.4299 120.475V128.479H54.3043V119.588C54.3043 113.484 51.3087 110.427 45.3112 110.427C39.3138 110.427 36.3181 113.479 36.3181 119.588V170.428C36.3181 176.447 39.3138 179.457 45.3112 179.457C51.3087 179.457 54.3043 176.447 54.3043 170.428V152.244H45.6213V139.044H70.4299V169.531C70.4299 177.091 68.2343 182.894 63.8494 186.938C59.4645 190.988 53.0887 193.005 44.7344 193.005C36.3802 193.005 30.0044 190.983 25.6194 186.938" fill="#4EABE9" fill-opacity="0.04"/>
<path d="M76.1494 97.9902H125.339V111.271H94.272V136.238H118.867V149.518H94.272V178.204H125.339V192.016H76.1494V97.9902Z" fill="#4EABE9" fill-opacity="0.04"/>
<path d="M146.902 111.271H128.771V97.9902H182.537V111.271H164.407V192.016H146.902V111.271Z" fill="#4EABE9" fill-opacity="0.04"/>
<path d="M230.848 160.674L223.308 114.458H223.002L215.614 160.674H230.848ZM212.321 97.9902H235.384L253.023 192.016H236.081L232.954 173.152V173.423H213.411L210.283 192.016H194.682L212.327 97.9902H212.321Z" fill="#4EABE9" fill-opacity="0.04"/>
<path d="M277.046 97.9902H293.827L301.596 170.236H301.916L310.162 97.9902H329.181L337.428 170.236H337.747L345.517 97.9902H360.554L349.298 192.016H327.582L319.675 128.801H319.361L311.454 192.016H288.315L277.058 97.9902H277.046Z" fill="#4EABE9" fill-opacity="0.04"/>
<path d="M395.144 160.674L387.457 114.458H387.145L379.613 160.674H395.144ZM376.256 97.9902H399.768L417.752 192.016H400.604L397.416 173.152V173.423H377.485L374.297 192.016H358.266L376.256 97.9902Z" fill="#4EABE9" fill-opacity="0.04"/>
</svg>
