<svg fill="none" height="24" viewBox="0 0 24 24" width="24" xmlns="http://www.w3.org/2000/svg"><path d="m10.993 12.7334c.0999-2.2907.4996-2.88833.8992-2.98793 1.0991-.39839 2.5978 2.78873 3.8966 2.39033.7993-.1992.5995-1.5936 1.7985-3.28671.6993-.99598 1.4986-1.59356 2.0981-1.99195m-.3996 8.46576-2.9974 1.3944-3.6968 1.5936c-1.4987.6971-3.19719 0-3.89658-1.494l-2.99738-6.673c-.29973-.79682-.29973-1.5936 0-2.29079.29974-.69718.7993-1.29477 1.49869-1.59356l6.69417-2.98793c1.4987-.69718 3.1972 0 3.8966 1.49397l2.9974 6.67301c.5994 1.494-.1 3.2867-1.4987 3.8843zm-6.6942 2.988c-1.4987.6971-3.19719 0-3.89658-1.494l-2.99738-6.673c-.29973-.79682-.29973-1.5936 0-2.29079-1.49869.0996-2.69764 1.39437-2.69764 2.88829v7.2707c0 1.6931 1.29887 2.9879 2.89747 2.9879h7.29363c1.5986 0 2.8975-1.2948 2.8975-2.8883v-1.3944z" stroke="#fff" stroke-linecap="round" stroke-linejoin="round"/></svg>