<svg fill="none" height="24" viewBox="0 0 24 24" width="24" xmlns="http://www.w3.org/2000/svg"><path d="m17 3h-10c-2.2 0-4 1.8-4 4v10c0 .7.2 1.3.5 1.9 1.1-2 2.2-4.2 3.2-6 .6-1.2 2.4-1 2.8.3l1.3 4.8c1-1.4 2.6-2.1 4.2-2.1 1.1 0 2.2.3 3.2 1l2.4 1.8c.3-.5.4-1.1.4-1.8v-9.9c0-2.2-1.8-4-4-4zm-2 8c-1.1 0-2-.9-2-2s.9-2 2-2 2 .9 2 2-.9 2-2 2zm5.6 7.8c-.6 1.3-2 2.2-3.6 2.2h-10c-1.5 0-2.8-.8-3.5-2.1 1.1-2 2.2-4.2 3.2-6 .6-1.2 2.4-1 2.8.3l1.3 4.8c1-1.4 2.6-2.1 4.2-2.1 1.1 0 2.2.3 3.2 1zm-3.6-9.8c0 1.1-.9 2-2 2s-2-.9-2-2 .9-2 2-2 2 .9 2 2z" stroke="#fff" stroke-linecap="round" stroke-linejoin="round"/></svg>