<svg fill="none" height="24" viewBox="0 0 24 24" width="24" xmlns="http://www.w3.org/2000/svg"><g stroke="#fff" stroke-miterlimit="10"><path d="m12 14.5c1.3807 0 2.5-1.1193 2.5-2.5s-1.1193-2.5-2.5-2.5-2.5 1.1193-2.5 2.5 1.1193 2.5 2.5 2.5z"/><path d="m19.2 13.7 1.8 1-2 3.5-1.8-1c-1.4-.8-3.1.2-3.1 1.7v2.1h-4.1v-2.1c0-1.5-1.7-2.5-3.1-1.7l-1.8 1-2-3.5 1.8-1c1.3-.7 1.3-2.7-.1-3.4l-1.8-1.1 2-3.5 1.8 1c1.4.9 3.2-.1 3.2-1.6v-2.1h4v2.1c0 1.5 1.7 2.5 3.1 1.7l1.8-1 2 3.5-1.8 1c-1.3.7-1.3 2.7.1 3.4z" stroke-linecap="round" stroke-linejoin="round"/></g></svg>