<svg fill="none" height="24" viewBox="0 0 24 24" width="24" xmlns="http://www.w3.org/2000/svg"><g stroke="#fff" stroke-linecap="round" stroke-linejoin="round" stroke-miterlimit="10"><path d="m21 9.5v5.5c0 1.7-1.3 3-3 3h-12l-3 3v-3-11c0-1.7 1.3-3 3-3h6.5"/><path d="m18 7c1.1046 0 2-.89543 2-2s-.8954-2-2-2-2 .89543-2 2 .8954 2 2 2z"/><g fill="#fff"><path d="m16.5 11.5c-.2761 0-.5-.2239-.5-.5s.2239-.5.5-.5.5.2239.5.5-.2239.5-.5.5z"/><path d="m12 11.5c-.2761 0-.5-.2239-.5-.5s.2239-.5.5-.5.5.2239.5.5-.2239.5-.5.5z"/><path d="m7.5 11.5c-.27614 0-.5-.2239-.5-.5s.22386-.5.5-.5.5.2239.5.5-.22386.5-.5.5z"/></g></g></svg>