<svg fill="none" height="24" viewBox="0 0 24 24" width="24" xmlns="http://www.w3.org/2000/svg"><g stroke="#fff" stroke-linecap="round" stroke-linejoin="round" stroke-miterlimit="10"><path d="m4.9 17.5c-1.2-1.5-1.9-3.4-1.9-5.5 0-5 4-9 9-9s9 4 9 9-4 9-9 9c-.9 0-1.8-.1-2.6-.4-.5-.1-1-.3-1.4-.6"/><path d="m3 21h.9c1.5 0 2.8-.3 4-1"/><path d="m4.9 17.5c-.1 1.4-.9 2.6-1.9 3.5"/><g fill="#fff"><path d="m9.5 10c.27614 0 .5-.22386.5-.5s-.22386-.5-.5-.5-.5.22386-.5.5.22386.5.5.5z"/><path d="m14.5 10c.2761 0 .5-.22386.5-.5s-.2239-.5-.5-.5-.5.22386-.5.5.2239.5.5.5z"/></g></g></svg>