<svg fill="none" height="24" viewBox="0 0 24 24" width="24" xmlns="http://www.w3.org/2000/svg"><g stroke="#fff" stroke-linejoin="round"><g stroke-linecap="round"><path d="m3 8v-1c0-2.2 1.8-4 4-4h1"/><path d="m16 3h1c2.2 0 4 1.8 4 4v1"/><path d="m21 16v1c0 2.2-1.8 4-4 4h-1"/><path d="m8 21h-1c-2.2 0-4-1.8-4-4v-1"/></g><path clip-rule="evenodd" d="m10.5443 13.6667h-2.33341c-.79565 0-1.37913-.8586-1.16696-1.6162l1.22-3.93939c.21218-.65657.8487-1.11111 1.53827-1.11111h3.9778c.6896 0 1.22.50505 1.22 1.16162v4.64648c0 .4545-.2122.9091-.5304 1.2626l-2.334 2.5253c-.2121.2525-.5834.404-.9547.404-.9018 0-1.5383-.8586-1.27308-1.6162z" fill-rule="evenodd"/></g></svg>