<svg fill="none" height="24" viewBox="0 0 24 24" width="24" xmlns="http://www.w3.org/2000/svg"><g stroke="#fff" stroke-linecap="round" stroke-linejoin="round"><path d="m21 9.1001v8.9c0 1.7-1.3 3-3 3h-12c-1.7 0-3-1.3-3-3v-8.9"/><path d="m3 9.1001 6.7 5.9 2.3 2 2.3-2 6.7-5.9"/><path d="m3 9.1 3-2.6"/><path d="m18 6.5 3 2.6"/><path d="m9.6999 15-5.8 5.2"/><path d="m20.1 20.2-5.8-5.2"/><path d="m18 11.8v-5.3-1.5c0-1.1-.9-2-2-2h-8c-1.1 0-2 .9-2 2v1.5 5.3"/><path d="m10 3v6l2-1.33333 2 1.33333v-6"/></g></svg>