<svg fill="none" height="24" viewBox="0 0 24 24" width="24" xmlns="http://www.w3.org/2000/svg"><g stroke="#fff" stroke-linecap="round" stroke-linejoin="round"><path d="m10 3.9999c1.1-1.3 2.9-1.3 4 0" stroke-miterlimit="10"/><path d="m13 6.5c0 .55229-.4477 1-1 1s-1-.44771-1-1 .4477-1 1-1 1 .44771 1 1z" fill="#fff"/><path d="m17.5 5h.5c1.7 0 3 1.3 3 3v8c0 1.7-1.3 3-3 3h-12c-1.7 0-3-1.3-3-3v-8c0-1.7 1.3-3 3-3h.5"/><path d="m20.9001 7.2002-6.6 5.8-2.3 2-2.3-2-6.6-5.8"/><path d="m9.6999 13-5.8 5.2"/><path d="m20.1 18.2-5.8-5.2"/></g></svg>