<svg fill="none" height="24" viewBox="0 0 24 24" width="24" xmlns="http://www.w3.org/2000/svg"><g stroke="#fff" stroke-linecap="round" stroke-linejoin="round"><path d="m3 8v-1c0-2.2 1.8-4 4-4h1"/><path d="m16 3h1c2.2 0 4 1.8 4 4v1"/><path d="m21 16v1c0 2.2-1.8 4-4 4h-1"/><path d="m8 21h-1c-2.2 0-4-1.8-4-4v-1"/><g stroke-miterlimit="10"><path d="m17 9.22222v5.55558c0 1.2222-1 2.2222-2.2222 2.2222h-5.55558c-1.22222 0-2.22222-1-2.22222-2.2222v-5.55558c0-1.22222 1-2.22222 2.22222-2.22222h5.55558c1.2222 0 2.2222 1 2.2222 2.22222z"/><path d="m17 12v3c0 1.1-1 2-2.2222 2h-5.55558c-1.22222 0-2.22222-.9-2.22222-2v-3h3.3333c0 .85.7223 1.5 1.6667 1.5s1.6667-.65 1.6667-1.5z"/></g></g></svg>