<svg fill="none" height="24" viewBox="0 0 24 24" width="24" xmlns="http://www.w3.org/2000/svg" xmlns:xlink="http://www.w3.org/1999/xlink"><clipPath id="a"><path d="m0 0h24v24h-24z"/></clipPath><g clip-path="url(#a)" stroke="#fff" stroke-linecap="round"><path d="m12 13c.5523 0 1-.4477 1-1s-.4477-1-1-1-1 .4477-1 1 .4477 1 1 1z" stroke-linejoin="round" stroke-miterlimit="10"/><path d="m18.364 18.3639c3.5147-3.5148 3.5147-9.21325 0-12.72797-3.5148-3.51472-9.21324-3.51472-12.72796 0s-3.51472 9.21317 0 12.72797"/><path d="m15.5355 15.5353c1.9527-1.9526 1.9527-5.1184 0-7.07106-1.9526-1.95262-5.1184-1.95262-7.07103 0-1.95263 1.95266-1.95263 5.11846 0 7.07106"/><path d="m12 13v8" stroke-linejoin="round" stroke-miterlimit="10"/></g></svg>