<svg fill="none" height="24" viewBox="0 0 24 24" width="24" xmlns="http://www.w3.org/2000/svg"><g stroke="#fff" stroke-linecap="round" stroke-linejoin="round" stroke-miterlimit="10"><path d="m4.7 12c-1.1-2.2-1.7-4.7-1.7-7.4l1.3-1.3c.4-.4 1.1-.4 1.5 0l2.4 2.4c.8.8.8 2.1-.1 2.9zm0 0c.2.3.4.7.6 1 .4.6.7 1.2 1.2 1.7.4.5.8 1 1.3 1.5m4.2 3.1 3.4-3.5c.8-.8 2.1-.8 2.9.1l2.4 2.4c.4.4.4 1 0 1.4l-1.3 1.3c-2.7 0-5.2-.6-7.4-1.7zm0 0c-.3-.2-.7-.4-1-.6m1 .6c2.2 1.1 4.7 1.8 7.3 1.7"/><path d="m21 3-18 18"/></g></svg>