<svg fill="none" height="24" viewBox="0 0 24 24" width="24" xmlns="http://www.w3.org/2000/svg"><g stroke="#fff" stroke-linecap="round" stroke-linejoin="round" stroke-miterlimit="10"><path d="m3 18.756c1.42683-1.4229 3.12805-2.4628 4.9939-3.1196m-4.9939 3.1196c1.48171-1.4777 3.18293-2.5176 4.9939-3.1196m-4.9939 3.1196v1.423c0 .4379.32927.7663.76829.7663h2.63415c.93293.0547 1.64634-.6568 1.64634-1.5325l-.05488-3.7764m0 0c2.5793-.821 5.3781-.8757 8.0122 0m0 0c1.811.602 3.5122 1.6419 4.9939 3.1196v1.423c0 .4379-.3841.821-.8232.821h-2.6341c-.8781 0-1.5915-.7115-1.5366-1.6419z"/><path d="m10 10h-1c-1.1 0-2-.9-2-2v-3c0-1.1.9-2 2-2h6c1.1 0 2 .9 2 2v3c0 1.1-.9 2-2 2h-3"/><path d="m10 10v2l2-2"/></g></svg>