<svg fill="none" height="24" viewBox="0 0 24 24" width="24" xmlns="http://www.w3.org/2000/svg"><g stroke="#fff" stroke-linecap="round" stroke-linejoin="round"><path d="m7.29998 3.00007c.8-.1 1.7.3 2.1 1l.5.9c.50002.9.20002 1.9-.5 2.5l-.6.4c-.8.7-1.1 1.8-.5 2.70003.7 1 1.4 2 2.30002 2.9.9.9 1.9 1.7 2.9 2.3.9.6 2 .3 2.6-.5l.4-.5c.6-.8 1.7-1 2.5-.5l.9.5c.7.4 1.1 1.2 1 2.1l-.3 1.6-.2 1c-.2 1-1.2 1.8-2.2 1.6-1.9-.2-3.7-.8-5.4-1.6-1.8-.8-3.40002-2-4.90002-3.4s-2.6-3.1-3.4-4.9c-.7-1.70003-1.3-3.60003-1.5-5.50003-.1-1 .6-2 1.6-2.2z"/><path d="m21 8c0-2.8-2.2-5-5-5"/><path d="m17.5 8.5c0-1.12-.88-2-2-2"/></g></svg>