<svg fill="none" height="24" viewBox="0 0 24 24" width="24" xmlns="http://www.w3.org/2000/svg"><g stroke="#fff"><g stroke-linecap="round" stroke-linejoin="round" stroke-miterlimit="10"><path d="m21 12c0 1.8-.6 3.6-1.5 5-.7 1-1.5 1.8-2.5 2.5-1.4 1-3.1 1.5-5 1.5-1.8 0-3.5-.5-5-1.5-1-.7-1.8-1.5-2.5-2.5-1-1.4-1.5-3.2-1.5-5 0-5 4-9 9-9s9 4 9 9z"/><path d="m9.5 9c.27614 0 .5-.22386.5-.5s-.22386-.5-.5-.5-.5.22386-.5.5.22386.5.5.5z" fill="#fff"/><path d="m14.5 9c.2761 0 .5-.22386.5-.5s-.2239-.5-.5-.5-.5.22386-.5.5.2239.5.5.5z" fill="#fff"/></g><path d="m13.5 14.5c0 .8956-.2085 1.6818-.5199 2.2268-.3195.5591-.6847.7732-.9801.7732s-.6606-.2141-.9801-.7732c-.3114-.545-.5199-1.3312-.5199-2.2268s.2085-1.6818.5199-2.2268c.3195-.5591.6847-.7732.9801-.7732s.6606.2141.9801.7732c.3114.545.5199 1.3312.5199 2.2268z"/></g></svg>