<svg fill="none" height="24" viewBox="0 0 24 24" width="24" xmlns="http://www.w3.org/2000/svg"><g stroke="#fff" stroke-linecap="round" stroke-linejoin="round" stroke-miterlimit="10"><path d="m19 19v-14c0-1.1-.9-2-2-2h-10c-1.1 0-2 .9-2 2v14c0 1.1.9 2 2 2h10c1.1 0 2-.9 2-2z" stroke-width="2"/><path d="m19 7h-14" stroke-width="2"/><path d="m9.5 14c0 .2761-.22385.5-.5.5s-.5-.2239-.5-.5.22386-.5.5-.5.5.2239.5.5z"/><path d="m12.5 14c0 .2761-.2239.5-.5.5s-.5-.2239-.5-.5.2239-.5.5-.5.5.2239.5.5z"/><path d="m15.5 14c0 .2761-.2239.5-.5.5s-.5-.2239-.5-.5.2239-.5.5-.5.5.2239.5.5z"/><path d="m9.5 17c0 .2761-.22385.5-.5.5s-.5-.2239-.5-.5.22386-.5.5-.5.5.2239.5.5z"/><path d="m12.5 17c0 .2761-.2239.5-.5.5s-.5-.2239-.5-.5.2239-.5.5-.5.5.2239.5.5z"/><path d="m15.5 17c0 .2761-.2239.5-.5.5s-.5-.2239-.5-.5.2239-.5.5-.5.5.2239.5.5z"/><path d="m9.5 11c0 .2761-.22385.5-.5.5s-.5-.2239-.5-.5.22386-.5.5-.5.5.2239.5.5z"/><path d="m12.5 11c0 .2761-.2239.5-.5.5s-.5-.2239-.5-.5.2239-.5.5-.5.5.2239.5.5z"/><path d="m15.5 11c0 .2761-.2239.5-.5.5s-.5-.2239-.5-.5.2239-.5.5-.5.5.2239.5.5z"/></g></svg>