<svg fill="none" height="24" viewBox="0 0 24 24" width="24" xmlns="http://www.w3.org/2000/svg"><g stroke="#fff" stroke-linecap="round" stroke-linejoin="round"><g stroke-width="2"><path d="m17 16h2c1.1 0 2-.9 2-2v-8c0-1.1-.9-2-2-2h-14c-1.1 0-2 .9-2 2v8c0 1.1.9 2 2 2h2"/><path d="m3 8h18"/><path d="m15 12h2"/><path d="m10 17c1.1-1.3 2.9-1.3 4 0" stroke-miterlimit="10"/></g><path d="m12.75 19.5c0 .4142-.3358.75-.75.75s-.75-.3358-.75-.75.3358-.75.75-.75.75.3358.75.75z" stroke-width="1.5"/></g></svg>