<svg fill="none" height="24" viewBox="0 0 24 24" width="24" xmlns="http://www.w3.org/2000/svg"><g stroke="#fff" stroke-linecap="round" stroke-linejoin="round" stroke-width="2"><path d="m12 7v1h-1c-2.2 0-4-1.8-4-4v-1h1c2.2 0 4 1.8 4 4z"/><path d="m12 10v1h1c2.2 0 4-1.8 4-4v-1h-1c-2.2 0-4 1.8-4 4z"/><path d="m12 3v14"/><path d="m16 21c2.2091 0 4-1.7909 4-4s-1.7909-4-4-4-4 1.7909-4 4 1.7909 4 4 4z"/><path d="m8 21c2.2091 0 4-1.7909 4-4s-1.7909-4-4-4c-2.20914 0-4 1.7909-4 4s1.79086 4 4 4z"/></g></svg>