<svg fill="none" height="24" viewBox="0 0 24 24" width="24" xmlns="http://www.w3.org/2000/svg"><g stroke="#fff" stroke-linecap="round" stroke-linejoin="round" stroke-miterlimit="10" stroke-width="2"><path d="m20 13c0 3.3-2.7 6-6 6h-4c-1.7 0-3.2-.7-4.2-1.8-.8-.7-1.3-1.7-1.6-2.7h-1.2v-3h1.2c.6-2.30002 2.6-4.10002 5-4.40002.4 1.1 1.5 1.9 2.8 1.9s2.4-.8 2.8-1.9c1.3.2 2.5.8 3.4 1.7 1.1 1 1.8 2.50002 1.8 4.20002z"/><path d="m9 21v-2"/><path d="m15 21v-2"/><path d="m21 13h-1"/><path d="m15 6c0 .4-.1.7-.2 1.1-.4 1.1-1.5 1.9-2.8 1.9s-2.4-.8-2.8-1.9c-.1-.4-.2-.7-.2-1.1 0-1.7 1.3-3 3-3s3 1.3 3 3z"/><path d="m9 11h6"/></g></svg>