<svg fill="none" height="24" viewBox="0 0 24 24" width="24" xmlns="http://www.w3.org/2000/svg"><g stroke="#fff" stroke-linecap="round" stroke-linejoin="round" stroke-width="2"><path d="m13 16c0 .6-.6 1.1-1.7 1.5-.9.3-2 .5-3.3.5s-2.4-.2-3.3-.5c-1-.4-1.7-.9-1.7-1.5 0-1.1 2.2-2 5-2s5 .9 5 2z" stroke-miterlimit="10"/><path d="m13 16v3c0 .6-.7 1.1-1.7 1.5-.9.3-2 .5-3.3.5s-2.4-.2-3.3-.5c-1-.4-1.7-.9-1.7-1.5v-3c0 .6.7 1.1 1.7 1.5.9.3 2 .5 3.3.5s2.4-.2 3.3-.5c1.1-.4 1.7-.9 1.7-1.5z" stroke-miterlimit="10"/><path d="m16 20.9c1.7-.5 3-2 3-3.9v-6h-5c-1.1 0-2-.9-2-2v-6h-3c-2.2 0-4 1.8-4 4v3.4"/><path d="m12 3 7 8"/></g></svg>