<svg fill="none" height="24" viewBox="0 0 24 24" width="24" xmlns="http://www.w3.org/2000/svg"><path d="m16.7 12.5c-.1 1-.6 2.1-1.4 2.9s-1.8 1.2-2.9 1.4c-1.4.2-2.8-.3-3.9-1.4s-1.5-2.5-1.4-3.9c.1-1 .6-2.1 1.4-2.9s1.8-1.2 2.9-1.4c-.2 1.4.3 2.8 1.4 3.9s2.6 1.6 3.9 1.4zm-8.1 2.9c-1.1-1.1-1.5-2.5-1.4-3.9-1 .1-2.1.6-2.9 1.4-1.9 1.9-1.9 4.9 0 6.8s4.9 1.9 6.8 0c.8-.8 1.2-1.8 1.4-2.9-1.4.1-2.8-.4-3.9-1.4zm4.2-11c-.8.8-1.2 1.8-1.4 2.9-.2 1.4.3 2.8 1.4 3.9s2.5 1.5 3.9 1.4c1-.1 2.1-.6 2.9-1.4 1.9-1.9 1.9-4.9 0-6.8s-4.9-1.9-6.8 0z" stroke="#fff" stroke-linecap="round" stroke-linejoin="round" stroke-width="2"/></svg>