<svg fill="none" height="24" viewBox="0 0 24 24" width="24" xmlns="http://www.w3.org/2000/svg"><g stroke="#fff" stroke-linecap="round" stroke-linejoin="round" stroke-width="2"><path d="m12 7v1h-1c-2.2 0-4-1.8-4-4v-1h1c2.2 0 4 1.8 4 4z"/><path d="m12 10v1h1c2.2 0 4-1.8 4-4v-1h-1c-2.2 0-4 1.8-4 4z"/><path d="m12 13v-2-1-2-1-4"/><path d="m14.5 20.1c-.7.6-1.6.9-2.5.9s-1.8-.3-2.5-.9c-.9-.7-1.5-1.8-1.5-3.1s.6-2.4 1.5-3.1c.7-.6 1.6-.9 2.5-.9s1.8.3 2.5.9c-.9.7-1.5 1.8-1.5 3.1s.6 2.4 1.5 3.1zm-6.5-3.1c0-1.3.6-2.4 1.5-3.1-.7-.6-1.6-.9-2.5-.9-2.2 0-4 1.8-4 4s1.8 4 4 4c.9 0 1.8-.3 2.5-.9-.9-.7-1.5-1.8-1.5-3.1zm9-4c-.9 0-1.8.3-2.5.9-.9.7-1.5 1.8-1.5 3.1s.6 2.4 1.5 3.1c.7.5 1.6.9 2.5.9 2.2 0 4-1.8 4-4s-1.8-4-4-4z"/></g></svg>