<svg fill="none" height="24" viewBox="0 0 24 24" width="24" xmlns="http://www.w3.org/2000/svg"><g stroke="#fff" stroke-linecap="round" stroke-linejoin="round" stroke-width="2"><path d="m7 11c2.20914 0 4-1.79086 4-4s-1.79086-4-4-4-4 1.79086-4 4 1.79086 4 4 4z"/><path d="m7 21c2.20914 0 4-1.7909 4-4s-1.79086-4-4-4-4 1.7909-4 4 1.79086 4 4 4z"/><path d="m17 11c2.2091 0 4-1.79086 4-4s-1.7909-4-4-4-4 1.79086-4 4 1.7909 4 4 4z"/><path d="m17 21c2.2091 0 4-1.7909 4-4s-1.7909-4-4-4-4 1.7909-4 4 1.7909 4 4 4z"/></g></svg>