<svg fill="none" height="24" viewBox="0 0 24 24" width="24" xmlns="http://www.w3.org/2000/svg"><g stroke="#fff" stroke-linecap="round" stroke-linejoin="round" stroke-width="2"><path d="m4 7.9c.4-.8 1-1.6 1.6-2.2 1.7-1.7 3.9-2.7 6.4-2.7 2.3 0 4.4.9 6 2.3s2.7 3.4 2.9 5.7"/><path d="m4 7.9v-4.9"/><path d="m19.9 16.1c-.4.8-1 1.6-1.6 2.2-1.6 1.7-3.9 2.7-6.4 2.7-2.3 0-4.4-.9-6-2.3-1.6-1.5-2.7-3.5-2.9-5.7"/><path d="m20 16.1v4.9"/><path d="m9 16h6"/><path d="m9 12h4"/><path d="m11 16v-7c0-1.1.9-2 2-2s2 .9 2 2"/></g></svg>