<svg fill="none" height="24" viewBox="0 0 24 24" width="24" xmlns="http://www.w3.org/2000/svg"><g stroke="#fff" stroke-linecap="round" stroke-linejoin="round" stroke-width="2"><path d="m11.7 21-8.7-3.3v-5.8l5.6-1.9.4.7-1.9 1.9c-.3.3-.4.6-.4 1s.2.7.5.9l3.8 2.6c.3.2.7.3 1 .2l7.4-2.1c.4-.1.9 0 1.2.3.6.7.4 1.8-.4 2.1z" stroke-miterlimit="10"/><path d="m3 10v10" stroke-miterlimit="10"/><path d="m16 2v1"/><path d="m17 7h-3v-4h3c1.1 0 2 .9 2 2s-.9 2-2 2z"/><path d="m17 11h-3v-4h3c1.1 0 2 .9 2 2s-.9 2-2 2z"/><path d="m16 11v1"/></g></svg>