<svg fill="none" height="24" viewBox="0 0 24 24" width="24" xmlns="http://www.w3.org/2000/svg"><g stroke="#fff" stroke-linecap="round" stroke-linejoin="round" stroke-width="2"><path d="m21 7v10c0 1.1-.9 2-2 2h-6v-14h6c1.1 0 2 .9 2 2z"/><path d="m13 5.09997v13.80003c0 1.3-1.2 2.3-2.4 2.1l-6.8-1.4c-.5-.2-.8-.6-.8-1.1v-13.00003c0-.5.3-.9.8-1l6.8-1.5c1.2-.2 2.4.8 2.4 2.1z"/><path d="m8 15c.82843 0 1.5-1.3431 1.5-3s-.67157-3-1.5-3-1.5 1.3431-1.5 3 .67157 3 1.5 3z"/><path d="m13 14h8"/><path d="m13 10h8"/></g></svg>