<svg fill="none" height="24" viewBox="0 0 24 24" width="24" xmlns="http://www.w3.org/2000/svg"><g stroke="#fff" stroke-linecap="round" stroke-linejoin="round" stroke-width="2"><path d="m19 11v-8c0 1.7-1.6 3-3.5 3s-3.5-1.3-3.5-3c0 1.5-1.3 2.8-3 3-.2 0-.3 0-.5 0s-.3 0-.5 0c-1.7-.2-3-1.5-3-3v8 1 .3c0 1.8.8 3.4 2.1 4.6l.9.7"/><g stroke-miterlimit="10"><path d="m21 16c0 .6-.6 1.1-1.7 1.5-.9.3-2 .5-3.3.5s-2.4-.2-3.3-.5c-1-.4-1.7-.9-1.7-1.5 0-1.1 2.2-2 5-2s5 .9 5 2z"/><path d="m21 16v3c0 .6-.7 1.1-1.7 1.5-.9.3-2 .5-3.3.5s-2.4-.2-3.3-.5c-1-.4-1.7-.9-1.7-1.5v-3c0 .6.7 1.1 1.7 1.5.9.3 2 .5 3.3.5s2.4-.2 3.3-.5c1.1-.4 1.7-.9 1.7-1.5z"/></g></g></svg>