<svg fill="none" height="24" viewBox="0 0 24 24" width="24" xmlns="http://www.w3.org/2000/svg"><g stroke="#fff" stroke-linecap="round" stroke-linejoin="round" stroke-miterlimit="10" stroke-width="2"><path d="m21 9v10c0 1.1-.9 2-2 2h-14c.2 0 .4 0 .6-.1l8-2.9c.8-.3 1.4-1.1 1.4-2.1v-8.9h4c1.1 0 2 .9 2 2z"/><path d="m15 5.20001v10.69999c0 .9-.5 1.8-1.4 2.1l-8 2.9c-.2.1-.4.1-.6.1s-.4 0-.6-.1c-.8-.3-1.4-1.1-1.4-2.1v-10.69999c0-.9.5-1.8 1.4-2.1l8-2.9c1.3-.5 2.6.6 2.6 2.1z"/><path d="m11.5 11c.3 0 .5-.2.5-.5s-.2-.5-.5-.5-.5.2-.5.5.2.5.5.5z" fill="#fff"/></g></svg>