<svg fill="none" height="24" viewBox="0 0 24 24" width="24" xmlns="http://www.w3.org/2000/svg"><g stroke="#fff" stroke-linecap="round" stroke-linejoin="round" stroke-width="2"><path d="m16 3h1.1538c2.1154 0 3.8462 1.76471 3.8462 3.92157v1.07843"/><path d="m3 8v-1.22642c0-2.07547 1.76471-3.77358 3.92157-3.77358h1.07843"/><path d="m8 21h-1.22642c-2.07547 0-3.77358-1.7647-3.77358-3.9216v-1.0784"/><path d="m21 16v1.1538c0 2.1154-1.7647 3.8462-3.9216 3.8462h-1.0784"/><path d="m11 13v2c0 1.1.9 2 2 2h2c1.1 0 2-.9 2-2v-2c0-1.1-.9-2-2-2h-2c-1.1 0-2 .9-2 2z"/></g></svg>